<svg xmlns="http://www.w3.org/2000/svg" xmlns:xlink="http://www.w3.org/1999/xlink" viewBox="0 0 35 35"><defs><clipPath id="a"><circle cx="15.82" cy="15.81" r="15.47" style="fill:none"/></clipPath></defs><circle cx="15.82" cy="15.81" r="15.47" style="fill:#405ebf"/><g style="clip-path:url(#a)"><path d="M13.29,21.87,13.75,24l-2.4.51L16,27.43l4.1-2.94-2.25-.66.36-2Z" style="fill:#e2ae8a"/><path d="M22.54,14.49V13.05C21.91,5.64,16,6.38,16,6.38s-5.89-.74-6.52,6.67v1.44s-.74,0-1,1.12c0,0,.18,2.43,1.63,2.23,0,0,2.53,4.8,5.88,5.51,3.36-.71,5.89-5.51,5.89-5.51,1.45.2,1.63-2.23,1.63-2.23C23.28,14.49,22.54,14.49,22.54,14.49Z" style="fill:#e2ae8a"/><path d="M16,23.48h0A6.55,6.55,0,0,1,13.2,22l.17-.18A6.29,6.29,0,0,0,16,23.23a6.2,6.2,0,0,0,2.55-1.37l.16.19A6.34,6.34,0,0,1,16,23.48Z" style="fill:#af7f64"/><path d="M13.43,23.72a21.18,21.18,0,0,0-3.37,1.13l4.29,6.9h3.07l3.45-7.29A17.18,17.18,0,0,0,18,23.72l-2,2.94Z" style="fill:#fff"/><polygon points="14.27 28.15 13.71 27.32 16.02 25.75 18.2 27.33 17.61 28.14 16 26.97 14.27 28.15" style="fill:#cdcac8"/><path d="M16.62,28.22,17,27.05,16,26.36l-1,.69.45,1.18-.58,1.71.84,2.47h1l.61-2.56Z" style="fill:#2c5575"/><path d="M25,26.28c-.7-1.05-5.47-2.23-5.47-2.23l-3.46,7.7-4.05-7.7S7.7,25.23,7,26.28a41.86,41.86,0,0,0-1.8,6.2H27A38.52,38.52,0,0,0,25,26.28Z" style="fill:#223046"/><path d="M23.47,8.47a4.83,4.83,0,0,0-2.08-3.71C19.68,3.81,17,3.9,15.47,4c-1.62-.28-4.12-.33-5.4,1.65,0,0-2.18,2.05-.46,10.21H10s-.45-4.86,0-5.06c0,0,.38-.85.75-.85,0,0,6.52,1.24,8.35.37a7.89,7.89,0,0,1,2.34-.64s1,1,.66,6.18h.3S23.38,10,23.47,8.56V8.47Z" style="fill:#190d10"/><path d="M20.94,3.59c0,.3-.24.52-.61.68A2.21,2.21,0,0,0,20,2.9C20,4.28,14.86,4,14.86,4a2.28,2.28,0,0,0,1.55,1.48c1.31,1.62,4.53.62,4.53.62A2.17,2.17,0,0,0,20.94,3.59Z" style="fill:#190d10"/><path d="M12,24.05l-2.34.74L12,28.66l1.25.51L15,31.75l.46.74H16l.09-.74Z" style="fill:#1a2534"/><path d="M19.56,24.05l2.42.62-2,4-1.25.51L17,31.75l-.46.74H16l-.09-.74Z" style="fill:#1a2534"/><path d="M12.37,10s4.67,1.51,6,1.06c0,0-.13.09-1.12-.81a5.16,5.16,0,0,0,3.6.35.88.88,0,0,1-.48-.93,4.33,4.33,0,0,0,1.76.45V8.62s-7.75-.82-9.22,1Z" style="fill:#190d10"/><path d="M16.07,18.75a2.28,2.28,0,0,0,.93-.37s-.31-.16-.45,0a.72.72,0,0,1-.48.26h-.14a.7.7,0,0,1-.47-.26c-.13-.18-.46,0-.46,0a3.41,3.41,0,0,0,.93.37H16Z" style="fill:#af7f64"/></g><circle cx="27.43" cy="27.43" r="7.23" style="fill:#71c285"/><path d="M31,26.82H28v-3a.6.6,0,0,0-.6-.6.59.59,0,0,0-.6.59h0v3h-3a.6.6,0,0,0-.6.6.59.59,0,0,0,.6.6h3v3a.59.59,0,0,0,.59.6.61.61,0,0,0,.61-.59h0V28h3a.6.6,0,0,0,0-1.2Z" style="fill:#fff"/></svg>