<svg xmlns="http://www.w3.org/2000/svg" viewBox="0 0 35 35"><path d="M16.73,33.21H13.31a.64.64,0,0,1-.69-.54V20.27a.62.62,0,0,1,.69-.54h3.42a.62.62,0,0,1,.69.54v12.4A.64.64,0,0,1,16.73,33.21Z" style="fill:#ffd782"/><path d="M16.73,33.21H13.31a.64.64,0,0,1-.69-.54V23.5a.63.63,0,0,1,.69-.54h3.42a.63.63,0,0,1,.69.54v9.17A.64.64,0,0,1,16.73,33.21Z" style="fill:#ffc36e"/><path d="M24,33.21H20.52a.64.64,0,0,1-.69-.54V10.56a.64.64,0,0,1,.69-.54H24a.63.63,0,0,1,.68.54V32.67A.64.64,0,0,1,24,33.21Z" style="fill:#c3e678"/><path d="M24,33.21H20.52a.64.64,0,0,1-.69-.54V17a.62.62,0,0,1,.69-.54H24a.62.62,0,0,1,.68.54V32.67A.63.63,0,0,1,24,33.21Z" style="fill:#a5d76e"/><path d="M31.26,33.21H27.83a.65.65,0,0,1-.69-.59V5.08a.65.65,0,0,1,.69-.59h3.43a.64.64,0,0,1,.68.59V32.62A.64.64,0,0,1,31.26,33.21Z" style="fill:#9be6d2"/><path d="M31.26,33.21H27.83a.64.64,0,0,1-.69-.54V13.79a.64.64,0,0,1,.69-.54h3.43a.63.63,0,0,1,.68.54V32.67A.63.63,0,0,1,31.26,33.21Z" style="fill:#78d2be"/><path d="M9.32,33.21H5.89a.64.64,0,0,1-.69-.54V17a.62.62,0,0,1,.69-.54H9.32A.62.62,0,0,1,10,17V32.67A.63.63,0,0,1,9.32,33.21Z" style="fill:#ff6464"/><path d="M9.32,33.21H5.89a.64.64,0,0,1-.69-.54V20.27a.64.64,0,0,1,.69-.54H9.32a.63.63,0,0,1,.68.54v12.4A.63.63,0,0,1,9.32,33.21Z" style="fill:#d2555a"/><path d="M3.06,30H2a.55.55,0,0,1-.54-.55h0A.56.56,0,0,1,2,28.89H3.06Z" style="fill:#d7deed"/><path d="M3.06,26.68H2a.55.55,0,0,1-.54-.55h0A.55.55,0,0,1,2,25.58H3.06Z" style="fill:#d7deed"/><path d="M3.06,22.71H2a.55.55,0,0,1-.54-.55h0A.56.56,0,0,1,2,21.6H3.06Z" style="fill:#d7deed"/><path d="M3.06,19.07H2a.56.56,0,0,1-.54-.56h0A.55.55,0,0,1,2,18H3.06Z" style="fill:#d7deed"/><path d="M3.06,15.42H2a.55.55,0,0,1-.54-.55h0A.55.55,0,0,1,2,14.32H3.06Z" style="fill:#d7deed"/><path d="M3.06,11.78H2a.55.55,0,0,1-.54-.55h0A.56.56,0,0,1,2,10.67H3.06Z" style="fill:#d7deed"/><path d="M3.06,7.81H2a.56.56,0,0,1-.54-.56h0A.55.55,0,0,1,2,6.7H3.06Z" style="fill:#d7deed"/><path d="M3.06,4.49H2a.55.55,0,0,1-.54-.55h0A.56.56,0,0,1,2,3.38H3.06Z" style="fill:#d7deed"/><path d="M3.06,33.21h0c-.45,0-.8-.26-.8-.58V1.83c0-.32.36-.58.8-.58h0c.44,0,.8.26.8.58v30.8C3.86,33,3.5,33.21,3.06,33.21Z" style="fill:#c7cfe2"/><path d="M1.17,32.89h0c0-.48.25-.87.57-.87H33.26c.32,0,.57.39.57.87h0c0,.47-.25.86-.57.86H1.74C1.42,33.75,1.17,33.36,1.17,32.89Z" style="fill:#afb9d2"/></svg>