<?xml version="1.0" encoding="utf-8"?>
<!-- Generator: Adobe Illustrator 24.2.3, SVG Export Plug-In . SVG Version: 6.00 Build 0)  -->
<svg version="1.1" id="Capa_1" xmlns="http://www.w3.org/2000/svg" xmlns:xlink="http://www.w3.org/1999/xlink" x="0px" y="0px"
	 viewBox="0 0 122 121.9" style="enable-background:new 0 0 122 121.9;" xml:space="preserve">
<style type="text/css">
	.st0{fill:#BAD3DD;}
	.st1{clip-path:url(#SVGID_2_);}
	.st2{fill:#2F2E41;}
	.st3{fill:#FFE779;}
	.st4{fill:#3F3D56;}
	.st5{fill:#202543;}
	.st6{fill:#F2F2F2;}
	.st7{fill:#FFB8B8;}
	.st8{fill:#99B0F8;}
	.st9{fill:#183A7E;}
	.st10{fill:#3C81E5;}
	.st11{fill:#A0616A;}
	.st12{fill:#474BE0;}
	.st13{fill:#0E264F;}
	.st14{fill:#6B65F5;}
	.st15{fill:#9DC1F9;}
</style>
<circle class="st0" cx="61" cy="61" r="61"/>
<g>
	<defs>
		<circle id="SVGID_1_" cx="61" cy="61" r="61"/>
	</defs>
	<clipPath id="SVGID_2_">
		<use xlink:href="#SVGID_1_"  style="overflow:visible;"/>
	</clipPath>
	<g class="st1">
		<path class="st2" d="M22.7,128.1c-0.5-0.1-0.3-0.5-0.3-0.8c0-5.4,0-10.8,0-16.2c0-0.6-0.1-1.3-0.4-1.8c-2.4-4.1-2.7-9.1-0.7-13.5
			c1.2-2.8,2.3-5.5,3.5-8.3c0.1-0.3,0.2-0.6,0.3-0.8h26.9c0,0.3,0,0.6,0,0.9c0.2,5.9,0,11.7-0.5,17.5c-0.2,1-0.4,2-0.4,3.1
			c-0.4,1.7-0.5,3.4-0.8,5.1c-0.7,4.8-1.4,9.6-2.1,14.3c0,0.2-0.1,0.5-0.4,0.5H41c-0.1,0-0.3,0-0.4,0L22.7,128.1z"/>
		<path class="st3" d="M51.9,86.7H25c-0.1-0.4-0.2-0.9-0.4-1.3c0-0.2,0-0.4-0.1-0.6c-0.5-2.2-1-4.3-1.5-6.5c-0.1-0.3,0-0.6,0.2-0.7
			c0.8-0.7,1.4-1.5,1.9-2.4c1.6-3,2.8-6.2,3.6-9.5c0.6-0.3,1.1-0.7,1.7-1c0.8-0.4,1.7-0.7,1.1-1.9c0-0.1,0-0.2,0-0.2
			c0-0.9-0.2-1.7-0.4-2.6c-0.1-0.2-0.1-0.4,0-0.6c0.4-0.6,0-1.3-0.8-1.3c0.1-0.7,0.2-1.4,0.3-2.1c0.4-2.5,0.5-5,0.3-7.5
			c0.4-0.1,0.9-0.1,1.4-0.1c0.2,0.2,0.4,0.4,0.6,0.6l6,6.3c0.2,0.2,0.4,0.5,0.7,0.3s0.3-0.5,0.3-0.8v-6.5c0-0.3,0-0.6,0.1-0.9
			l1.9-0.2c2.7,2.6,4.8,5.7,6.2,9.2c0.7,1.8,2.2,2.9,3.3,4.3c-0.1-1.4-0.3-2.7-0.6-4.1c-0.4-2.9-1.4-5.8-2.9-8.4
			c-0.4-0.4-0.6-0.8-0.8-1.3c1.8,0.4,3.4,1.4,4.5,2.9c0.3,0.3,0.5,0.7,0.7,1.1c1.2,3.5,2.4,7.1,3.7,10.6c0.9,3,1.4,6,1.6,9.2
			c0.1,1.5,0.2,3,0.4,4.5l-5.8,1.8c-0.3,0.1-0.5,0.3-0.4,0.6c0,1.6,0,3.3,0,4.9C52,83.8,51.9,85.3,51.9,86.7z"/>
		<path class="st4" d="M28.8,65.7c-0.8,3.3-2,6.5-3.6,9.5c-0.5,0.9-1.1,1.7-1.9,2.4c-0.2,0.2-0.3,0.5-0.2,0.7c0.5,2.2,1,4.3,1.5,6.5
			c0,0.2,0.1,0.4,0.1,0.6c-1.6,0-3.3-0.4-4.8-1c-1.4-0.7-2.6-1.7-3.7-2.8c0.3-0.3,0.6-0.6,1-0.8c2.1-1.6,3.8-3.6,5.1-5.9
			c1.2-2.2,2.5-4.3,3.6-6.6C26.4,67.1,27.5,66.1,28.8,65.7z"/>
		<path class="st5" d="M32.5,48.4c-0.5,0-0.9,0-1.4,0.1c-1.5,0.4-3-0.1-4.1-1.2c-0.4-0.5-0.9-0.8-1.5-1.1l-1.9-0.7
			c-0.9-0.3-1.6-1.1-1.8-2c-0.3-1.4-1.1-2.6-2.3-3.5c-1-0.7-1.4-2-0.9-3.2c0.4-1.1,0.6-2.2,0.8-3.3c0.1-1.1,0.8-2,1.8-2.4
			c1.7-0.6,3-1.9,3.6-3.5c0.5-1,1.5-1.6,2.6-1.6c0.3,0,0.6,0,0.5-0.5c-0.4-1.4,0.4-2.9,1.8-3.3c1.4-0.5,3-0.1,3.9,1.2
			c0.2,0.3,0.1,0.8,0.6,0.9c0.7,0.2,1.5,0.3,2.2,0.1c0.2-0.1,0.4-0.2,0.7-0.3c0.7-0.4,1.6-0.3,2.2,0.4c0.5,0.7,1.3,1.1,2.2,1.1
			c0.7,0,1.4,0.5,1.5,1.3c0.3,0.9,0.4,2,1.2,2.7c0.2,0.2,0.5,0.4,0.7,0.6c1.5,1.1,1.6,1.5,0.8,3.2c-0.4,0.7-0.5,1.6-0.4,2.4
			c0.3,0.7,0,1.5-0.6,2c0-0.5,0.1-1.1,0.1-1.6c0.1-1.3-0.2-2.6-0.8-3.8C44,32.2,43.9,32,43.6,32c-1.9,0.4-2.6,0.4-2.3,2.5
			c0.1,0.8-0.1,1.7-0.6,2.3c-0.6,0.7-0.8,1.7-0.6,2.6c0.3,0.7,0,1.6-0.7,1.9c-1,0.5-1.9,1.3-2.5,2.3c-0.2,0.3-0.4,0.6-0.7,0.8
			c0-0.8,0.2-1.6,0.4-2.3c0.4-1.4,0.6-2.9,0.4-4.3c-0.2-1.3-0.2-1.3-1.5-1.2c-0.9-0.1-1.8,0.7-1.8,1.6c0,0,0,0,0,0
			c-0.2,1.2,0.2,2,1.3,2.3c0.5,0.1,0.4,0.3,0.3,0.6c-0.2,1-0.7,1.9-1.4,2.7c-1.4,1.2-1.4,2.7-1.3,4.3C32.5,48.1,32.5,48.2,32.5,48.4
			z M29.3,27.3c1.6-0.2,3.1-0.7,4.5-1.5c0.2-0.1,0.4-0.2,0.2-0.4s-0.3-0.1-0.5,0c-1.3,0.7-2.8,1.2-4.3,1.4c-0.2,0-0.4,0-0.4,0.3
			S29.1,27.3,29.3,27.3z"/>
		<path class="st6" d="M65.5,82.4v2.1c0,0.3,0,0.6,0,1c0,7.1,0,14.2,0,21.3c0,0.7-0.2,0.9-0.9,0.9c-2.2,0-4.3,0-6.5,0l-1.2-3.1
			c-0.1-0.2-0.1-0.5-0.4-0.5s-0.5,0.2-0.7,0.5c-0.2,0.3-0.2,0.7-0.2,1c0.1,0.3,0.1,0.7,0.1,1l0,0c-0.3-0.6-0.6-1.2-0.8-1.9
			c-0.1-0.2-0.1-0.6-0.5-0.5s-0.5,0.2-0.6,0.5s-0.1,0.8-0.2,1.4c-0.3-0.4-0.5-0.7-0.7-1s-0.2-0.5-0.5-0.5s-0.4,0.3-0.5,0.6l-0.2,0.5
			l-0.3-0.4c0.5-5.8,0.7-11.7,0.5-17.5c0-0.3,0-0.6,0-0.9c0-1.4,0-2.9,0-4.3h8L65.5,82.4z"/>
		<path class="st7" d="M28.8,65.7c-1.3,0.4-2.4,1.4-2.9,2.7c-1.1,2.2-2.4,4.4-3.6,6.6c-1.2,2.3-3,4.3-5.1,5.9
			c-0.3,0.2-0.6,0.5-1,0.8c-0.5,0.4-1,0.8-1.5,1.3c-0.8,0.8-2,1-3.1,0.5c-0.5-0.2-1-0.4-1.5-0.6c-1.4-0.5-2.1-2-1.6-3.4
			c0.3-1,0.6-2,1-2.9c0.5,0.2,0.7-0.1,0.9-0.5c0.8-1.6,1.7-3.2,2.8-4.6c2.7-3.2,5.7-6.1,8.6-9.1c0.4-0.4,0.8-0.9,1.1-1.4
			c0.8-1.4,2.1-2.3,3.6-2.7c0,0.3,0,0.6-0.1,0.9c-0.1,0.5,0.1,0.5,0.5,0.4l3.7-1.2c0.8,0,1.2,0.7,0.8,1.3c-0.1,0.2-0.1,0.4,0,0.6
			c0.2,0.8,0.4,1.7,0.4,2.6c0,0.1-0.1,0.2,0,0.2c0.6,1.2-0.3,1.5-1.1,1.9C29.9,65,29.4,65.3,28.8,65.7z"/>
		<path class="st3" d="M10.4,72.5c0.4-1.3,0.7-2.7,1.1-4c1.1-3.4,2.6-6.7,4.5-9.8c0.5-0.8,0.9-1.6,1.2-2.5c0.3-0.6,0.5-1.2,0.8-1.8
			c0.7-1.9,2.1-3.5,4-4.4c1.6-0.8,3.3-0.7,5-1c0.4-0.1,0.4,0.3,0.4,0.6c0,2.8-0.3,5.7-0.8,8.5c-1.5,0.3-2.8,1.3-3.6,2.7
			c-0.3,0.5-0.7,1-1.1,1.4c-2.9,3-5.9,5.9-8.6,9.1c-1.1,1.5-2.1,3-2.9,4.7c-0.2,0.4-0.4,0.7-0.9,0.5c-0.3-0.3-0.1-0.6,0-0.8
			C9.8,74.6,10.1,73.6,10.4,72.5z"/>
		<path class="st7" d="M32.5,48.4c0-0.2,0-0.3,0-0.5c-0.1-1.6-0.1-3.1,1.3-4.3c0.7-0.7,1.2-1.6,1.4-2.6c0.1-0.3,0.2-0.5-0.3-0.6
			c-1-0.3-1.5-1.1-1.3-2.3c0-0.9,0.8-1.7,1.8-1.6c0,0,0,0,0,0c1.3,0,1.3,0,1.5,1.2c0.2,1.4,0,2.9-0.4,4.3c-0.2,0.8-0.4,1.5-0.4,2.3
			c0.3-0.2,0.6-0.4,0.7-0.8c0.6-1,1.5-1.8,2.5-2.3c0.7-0.3,1-1.2,0.7-1.9c-0.2-0.9,0-1.9,0.6-2.6c0.5-0.6,0.8-1.5,0.6-2.3
			c-0.2-2.1,0.4-2.1,2.3-2.5c0.3-0.1,0.4,0.2,0.5,0.4c0.6,1.2,0.9,2.5,0.8,3.8c0,0.5-0.1,1.1-0.1,1.6c-0.5,1-0.5,1.2,0.3,1.8
			c0.2,0.1,0.3,0.3,0.5,0.4c0.5,0.5,0.5,1.1-0.1,1.4c-0.5,0.2-0.7,0.7-0.6,1.2c0,0.6,0,1.2,0,1.8c0.1,0.8-0.5,1.6-1.3,1.6
			c-0.1,0-0.2,0-0.4,0c-0.7,0-1.3,0-2,0c-0.7-0.1-1,0.2-0.9,0.9c0,0.2,0,0.3,0,0.5c-0.1,0.3-0.2,0.6-0.1,0.9v6.6
			c0,0.3,0.1,0.6-0.3,0.8s-0.5-0.1-0.7-0.3l-6-6.3C32.9,48.8,32.7,48.6,32.5,48.4z"/>
		<path class="st4" d="M26.5,58.1c0.6-2.8,0.9-5.6,0.8-8.5c0-0.3,0-0.6-0.4-0.6c-1.7,0.3-3.4,0.2-5,1c-1.9,0.9-3.3,2.4-4,4.4
			c-0.2,0.6-0.5,1.2-0.8,1.8c0.4-4.8,2.3-8,7.8-9.7c0.2-0.1,0.5-0.1,0.6-0.3c0.6,0.2,1,0.6,1.5,1.1c1,1.1,2.6,1.6,4,1.2
			c0.2,2.5,0.1,5-0.3,7.5c-0.1,0.7-0.2,1.4-0.3,2.1l-3.7,1.2c-0.4,0.1-0.6,0.1-0.5-0.4C26.4,58.7,26.5,58.4,26.5,58.1z"/>
		<path class="st7" d="M59.9,82.4h-8c0-1.7,0-3.3,0-4.9c-0.1-0.3,0.1-0.6,0.4-0.6l5.9-1.8C59.1,77.4,59.7,79.9,59.9,82.4z"/>
		<path class="st4" d="M47.4,46.8c0.2,0.5,0.5,0.9,0.8,1.3c1.5,2.6,2.5,5.4,2.9,8.4c0.3,1.3,0.5,2.7,0.6,4.1
			c-1.1-1.4-2.6-2.6-3.3-4.3c-1.4-3.5-3.5-6.6-6.2-9.2C43.9,46.8,45.7,46.7,47.4,46.8z"/>
		<path class="st7" d="M58.1,107.7c0.1,0.2,0.1,0.4,0.2,0.6c0.1,0.3,0,0.7-0.2,1c-0.3,0.3-0.7,0.3-1,0.1c-0.4-0.2-0.8-0.4-1.1,0.1
			c-0.1,0.1-0.3,0.1-0.5,0.1c-0.5-0.2-1.1-0.2-1.6-0.2c-0.7,0-0.9-0.5-1.1-1.2c-0.5,0.5-1.3,0.5-1.8,0c0,0,0,0,0,0
			c0-1,0.2-2.1,0.5-3.1l0.3,0.4l0.2-0.5c0.1-0.2,0.2-0.5,0.5-0.6s0.4,0.3,0.5,0.5s0.4,0.6,0.7,1c0.1-0.6,0-1,0.2-1.4
			s0.3-0.4,0.6-0.5s0.4,0.3,0.5,0.5c0.2,0.6,0.5,1.3,0.8,1.9c0,0.1,0,0.2,0.1,0.5c0-0.1,0.1-0.3,0.1-0.4c0-0.1-0.1-0.1-0.1-0.2
			c0-0.3,0-0.7-0.1-1c-0.1-0.3,0-0.7,0.2-1c0.1-0.2,0.3-0.5,0.7-0.5s0.3,0.3,0.4,0.5L58.1,107.7z"/>
		<path class="st8" d="M29.3,27.3c-0.2,0-0.4,0.1-0.4-0.1s0.2-0.3,0.4-0.3c1.5-0.2,3-0.7,4.3-1.4c0.2-0.1,0.4-0.2,0.5,0
			s-0.1,0.3-0.2,0.4C32.4,26.7,30.9,27.2,29.3,27.3z"/>
		<path class="st7" d="M55.8,106.5c0,0.1,0.1,0.1,0.1,0.2c0,0.1,0,0.3-0.1,0.4C55.8,106.8,55.8,106.6,55.8,106.5L55.8,106.5z"/>
		<path class="st9" d="M97.4,92.5c0.3,2.1,0.6,4.2,0.8,6.3c0,1.3-0.2,2.5-0.6,3.7c-0.6,1.8-1.6,3.5-3,4.9c-0.2,0.2-0.3,0.5-0.3,0.8
			c0,7.1,0,14.2,0.1,21.2c0.1,1.6,0.4,3.1,0.7,4.6c0.2,1.1,0.4,2.3,0.6,3.4c0.7,4.3,0.2,8.6,0.3,12.8c0,0.3,0.1,0.6,0.3,0.9
			c1.3,2,2.5,4.1,3.7,6.1c0.2,0.2,0.4,0.4,0.3,0.8c-1.3,0.7-2.6,1.4-3.9,2c-0.3,0.1-0.5,0.4-0.5,0.8c0,1.8,0,3.6,0,5.4
			c0,0.7-0.2,0.9-0.9,0.9c-2.6,0-5.2-0.1-7.8,0.1h-6.5c-0.4,0-0.7-0.1-0.8-0.6c-0.2-1.4-0.3-2.9-0.5-4.3c-0.1-1.1-0.2-2.1-0.5-3.1
			c0-1-0.1-2.1-0.3-3.1c-0.4-3.3-0.8-6.6-1.2-9.9s-0.8-6.9-1.3-10.3c-0.1-0.9-0.3-1.9-0.6-2.7c-1.2-3.1-3.1-6-3.4-9.4
			c-0.2-2.3-0.7-4.7-1-7s-0.7-4.8-1.1-7.1s-0.7-4.7-1-7.1c-0.2-1.3-0.4-2.5-0.7-3.8c0.1-0.1,0.2-0.1,0.3-0.1
			c3.7-0.8,7.5-1.6,11.2-2.5c2.4-0.6,4.9-1.1,7.3-1.6c2.7-0.6,5.3-1.3,8-1.8C95.9,92.7,96.6,92.5,97.4,92.5z"/>
		<path class="st10" d="M97.4,92.5c-0.8,0-1.5,0.1-2.3,0.4c-2.7,0.6-5.3,1.3-8,1.8c-2.4,0.5-4.9,1.1-7.3,1.6
			c-3.7,0.9-7.5,1.6-11.2,2.5c-0.1,0-0.2,0.1-0.3,0.1c-0.4,0-0.9,0.1-1.3,0.2c-1.2,0.2-2.4,0.5-3.5,0.9c-2-0.9-2.4-2.5-2.1-4.5
			c0.5-3.8,0.8-7.6,1.2-11.5c1.2-0.4,2.5-0.7,3.8-0.8c0.3-0.1,0.9,0,0.7-0.6c-0.3-1.4-0.7-2.8-1.1-4.2c-0.1-0.5,0.2-0.6,0.6-0.8
			c1.7-0.5,3.4-1.1,5.1-1.8c1.6-0.4,3.2-0.9,4.7-1.6c1.7-0.5,3.4-1,5-1.7c1.2-0.4,1.6-1,1-2c-0.6-1-1.5-1.8-2.7-2.1
			c-0.4-0.1-0.9-0.2-1.3-0.2c1.8-1.5,2.1-3.1,0.7-4.9c-0.4-0.5,0-0.5,0.3-0.6c2.5-0.8,3.7-3.2,1.9-5.4c-0.3-0.4-0.9-0.5-1.1-1
			c1-3.1,2.7-6,5-8.4l0,0l0.2-0.1l2.2-0.7c-0.1,1.9,1.4,3.5,3.3,3.6c0.9,0,1.8-0.3,2.5-0.9c0.7-0.6,1.6-1,2.4-1.5c0.6-0.4,1-1,1-1.8
			C97.9,47,99,47.4,100,48c-0.9,0.5-1.7,1.1-2.4,1.8c-2.8,2.6-4.9,5.9-6.2,9.5c-0.5,1.1-0.8,2.3-1,3.4c0.3,0,0.4-0.2,0.6-0.4
			c1.1-1.2,2.2-2.4,3.2-3.6c0.8-0.9,1.6-1.8,2.2-2.8c1-1.8,2.4-3.3,4-4.6c0.8-0.6,1.7-1.2,2.6-1.8c1.2,0.7,1.9,1.9,2.7,2.9
			c0.1,0.2,0.2,0.5,0.2,0.7c0.7,1.6,1,3.3,0.8,5c-0.2,1.5-0.4,3-0.6,4.5c-0.3,1.1-0.7,2.1-1.2,3.1c-1.5,2.7-3.2,5.3-4.9,8
			c-0.7,1.1-1.4,2.1-0.9,3.4c0,0.1,0,0.3,0,0.4c-0.2-0.3-0.3-0.5-0.5-0.7c-0.9-1.4-1.9-2.8-2.8-4.2c-0.3-0.5-0.6-0.5-1-0.1
			c-0.3,0.4-0.6,0.7-1,1.1c-0.5,0.4-0.5,0.8-0.2,1.3c2,2.8,3.9,5.7,5.8,8.6c0.3,0.3,0.4,0.7,0.5,1.1c0.2,1.2,0.3,2.4,0.3,3.7
			c-0.2,1-0.7,2-1.3,2.8C98.7,91.8,98.1,92.3,97.4,92.5z"/>
		<path class="st4" d="M100.4,88.5c0-1.2-0.1-2.5-0.3-3.7c-0.1-0.4-0.3-0.8-0.5-1.1c-1.9-2.9-3.8-5.7-5.8-8.6
			c-0.4-0.6-0.4-0.9,0.2-1.3c0.4-0.3,0.8-0.7,1.1-1.1c0.4-0.4,0.6-0.5,1,0.1c0.9,1.4,1.8,2.8,2.8,4.2c0.1,0.2,0.3,0.4,0.5,0.7
			c0-0.1,0-0.3,0-0.4c-0.5-1.3,0.2-2.3,0.9-3.4c1.6-2.7,3.3-5.3,4.9-8c0.5-1,0.9-2,1.2-3.1c0.2,1.7,0.5,3.3,0.7,5
			c0.2,1.2,0.4,2.3,0.6,3.4c0.1,1.8,0.3,3.5,0.7,5.2c0.4,2.3,0.1,4.7-0.9,6.9c-1.4,2.5-3.7,4.4-6.5,5.1
			C100.7,88.4,100.6,88.5,100.4,88.5z"/>
		<path class="st11" d="M96.9,46.7c0,0.7-0.4,1.4-1,1.8c-0.8,0.5-1.6,1-2.4,1.5c-1.5,1.2-3.7,1.1-4.9-0.4c-0.6-0.7-0.9-1.5-0.8-2.4
			c0-1.4,0-2.7,0-4.1c0-0.4-0.1-0.7-0.3-1c-0.4-0.6-0.5-1.2-0.5-1.9c0.1-0.4,0-0.8-0.3-1c-0.8-0.8-0.8-2,0-2.8
			c0.1-0.1,0.3-0.2,0.4-0.3c0.6-0.2,1-0.8,1-1.4l1.6,0.2l4.3,0.9c0.1,0.1,0.2,0.1,0.3,0.2c1.7,0.7,2.8,2.2,3,4
			c0.1,0.8,0.4,1.5,1,2.1c0.4,0.4,0.4,1,0.1,1.4c-0.3,0.4-0.6,0.7-1,1c-0.2,0.2-0.4,0.2-0.4,0.5L96.9,46.7z"/>
		<path class="st4" d="M80.3,56.4c0.2,0.5,0.8,0.6,1.1,1c1.7,2.2,0.5,4.6-1.9,5.4c-0.3,0.1-0.7,0-0.3,0.6c1.4,1.7,1.1,3.4-0.7,4.9
			c0.5,0.1,0.9,0.2,1.3,0.2c1.1,0.3,2.1,1,2.7,2.1c0.6,1,0.2,1.6-1,2c0.2-1.1-0.4-2.1-1.4-2.5c-0.5-0.3-1.1-0.4-1.7-0.4H55
			c-0.8-0.6-1.7-0.8-2.7-0.6c-0.3,0-0.6,0-0.7-0.3s-0.1-0.6,0.2-0.8c0.5-0.2,0.4-0.6,0.4-1c0.6,0.4,1.2,0.9,1.9,1.3s1.2,0.2,1.3-0.5
			c6.8,0,13.6,0,20.5,0c1,0,1.9-0.4,2.4-1.2c0.5-0.5,0.6-1.3,0.2-1.9c-0.7-1-1.9-1.5-3.1-1.4c-5.7,0-11.5,0-17.2,0
			c-0.6-0.4-1.2-0.9-1.7-1.4h11.6c3.3,0,6.7,0,10,0c1.2,0.2,2.4-0.6,2.6-1.8c0.2-1.2-0.6-2.4-1.8-2.6c-0.3-0.1-0.6-0.1-0.8,0H56.4
			c-0.4-0.1-0.7-0.3-0.6-0.8s0.5-0.5,0.9-0.5h4.1c1.6,0,3.1,0,4.7,0c2.5,0,5,0,7.5,0c0.7,0.1,1.4,0,2.1-0.2c0.7,0.4,1.4,0.1,2.1,0.2
			C78.2,56.1,79.3,56.2,80.3,56.4z"/>
		<path class="st6" d="M55,69.7h23.4c0.6,0,1.2,0.1,1.7,0.4c1,0.4,1.6,1.4,1.4,2.5c-1.6,0.6-3.3,1.2-5,1.7h-1H55
			C55,72.7,55,71.2,55,69.7z"/>
		<path class="st6" d="M56.4,57.4h21.8c1.2-0.2,2.4,0.6,2.6,1.8c0.2,1.2-0.6,2.4-1.8,2.6c-0.3,0.1-0.6,0.1-0.8,0c-3.3,0-6.7,0-10,0
			H56.6l-0.1-0.1C56.4,60.3,56.4,58.9,56.4,57.4z"/>
		<path class="st10" d="M89.7,34.9l-1.6-0.2c-0.6-0.2-1.2-0.3-1.8-0.3c-0.2-0.2-0.3-0.4-0.2-0.7c0.1-0.9,0.4-1.7,0.7-2.5
			c1-2.1,2.9-3.6,5.1-4.2c2-0.4,4.1-0.2,5.9,0.6c2.6,1.2,4.1,3.8,3.8,6.6c-0.8-0.1-1.6-0.2-2.4-0.3c-2.3-0.1-4.6,0-6.8,0.3
			C91.4,34.3,90.5,34.5,89.7,34.9z"/>
		<path class="st11" d="M62.7,84.1c-0.4,0.1-0.7,0.2-1.1,0.3c-0.8,0.3-1.6,0.2-2.3-0.2c-0.3-0.2-0.7-0.3-1.1-0.1
			c-2.1,0.9-4.1,0.1-6.2-0.1c-0.4,0-0.4-0.3-0.3-0.6c0.3-0.4,0.8-0.3,1.2-0.4c2.1,0.3,4.3-0.1,6.1-1.2c0.5-0.1,0.9-0.3,1.2-0.6
			c0.2-0.2,0.5-0.3,0.3-0.6s-0.4-0.2-0.6-0.2l-2.3,0.1c-0.4,0-0.8,0-0.9-0.6s0.3-0.7,0.7-0.8c1-0.1,2-0.4,3-0.7
			c1.9-0.9,3.8-0.5,5.6,0c0.5,1.4,0.8,2.8,1.1,4.2c0.2,0.6-0.3,0.6-0.7,0.6C65.3,83.4,64,83.7,62.7,84.1z"/>
		<path class="st6" d="M66.1,78.5c-1.9-0.5-3.7-0.9-5.7,0c-1,0.3-2,0.6-3,0.7c-0.5,0.1-0.8,0.3-0.7,0.8s0.5,0.6,0.9,0.6l2.3-0.1
			c0.2,0,0.5-0.1,0.6,0.2s-0.2,0.4-0.3,0.6c-0.4,0.3-0.8,0.5-1.2,0.6h-5.7v-5.8h18.5c-1.7,0.7-3.4,1.3-5.1,1.8
			C66.3,77.9,66.1,78,66.1,78.5z"/>
		<path class="st4" d="M103,49.7c-0.8,0.6-1.7,1.2-2.6,1.8c-1.6,1.2-3,2.8-4,4.6c-0.7,1-1.4,1.9-2.3,2.8c-1,1.2-2.1,2.4-3.2,3.6
			c-0.1,0.2-0.2,0.4-0.6,0.4c0.2-1.2,0.5-2.3,1-3.4c1.3-3.6,3.4-6.9,6.2-9.5c0.7-0.7,1.5-1.4,2.4-1.9
			C101.1,48.2,102.2,48.8,103,49.7z"/>
		<path class="st4" d="M71.8,75.9H53.3c-0.4-0.1-0.7-0.3-0.6-0.8s0.5-0.6,0.9-0.5c0.5,0.1,1-0.1,1.4-0.3h20.4h1
			C75,74.9,73.4,75.5,71.8,75.9z"/>
		<path class="st12" d="M89.7,34.9c0.8-0.4,1.7-0.6,2.7-0.7c2.3-0.4,4.5-0.5,6.8-0.3c0.8,0.1,1.6,0.2,2.4,0.3c0.5,0.1,1,0.2,1.5,0.3
			c0.6,0.1,1,0.6,1,1.1c0,0.6-0.4,1.1-1,1.1c-0.7,0.1-1.5,0.2-2.2,0.3c-2.2-0.6-4.5-1-6.8-1.3L89.7,34.9z"/>
		<path class="st4" d="M80.3,56.4c-1-0.3-2.1-0.4-3.2-0.3c0.3-0.8,0.7-1.6,1-2.5c0.5-1.4,1.4-2.6,1.9-4c1.7-0.7,3.5-1.2,5.3-1.6
			C83.1,50.5,81.4,53.3,80.3,56.4z"/>
		<path class="st13" d="M94,35.8c2.3,0.3,4.5,0.8,6.8,1.3c-0.4,2.2-0.8,4.4-1.2,6.6c-0.2,1.3-1.2,1.8-2.7,1.3c0-0.3,0.2-0.4,0.4-0.5
			c0.4-0.3,0.7-0.6,1-1c0.4-0.4,0.4-1,0-1.4c0,0,0,0,0,0c-0.6-0.6-0.9-1.3-1-2.1c-0.2-1.8-1.3-3.3-3-4C94.1,35.9,94.1,35.8,94,35.8z
			"/>
		<path class="st14" d="M80,49.6c-0.6,1.4-1.4,2.6-1.9,4c-0.3,0.8-0.7,1.6-1,2.5c-0.7-0.1-1.4,0.2-2.1-0.2
			C75.3,53,77.2,50.6,80,49.6z"/>
		<path class="st13" d="M85.6,37.7c0.2-1.1,0.4-2.3,0.7-3.4c0.6,0,1.2,0.1,1.8,0.3c0,0.6-0.4,1.2-1,1.4c-1,0.6-1.3,1.8-0.7,2.7
			c0.1,0.2,0.2,0.3,0.3,0.4c0.3,0.2,0.4,0.6,0.3,1c-0.1,0.7,0,1.4,0.4,1.9c0.2,0.3,0.3,0.6,0.3,1c-1.8-0.8-2.7-2.8-2.3-4.7
			C85.5,38.2,85.6,38,85.6,37.7z"/>
		<path class="st15" d="M85.6,47.9L85.4,48L85.6,47.9z"/>
		<path class="st13" d="M78.9,159.3c-4.2-6-8.4-12-12.6-18c-0.8-1-1.7-1.9-2.7-2.7c-0.8-0.8-1.6-1.6-2.4-2.3
			c-2.2-1.9-3.2-4.9-2.5-7.8c1.6-9.3,3.2-18.5,4.8-27.8c0-0.3,0.1-0.5,0.1-0.8c1.1-0.4,2.3-0.7,3.5-0.9C67.5,99,68,99,68.4,99
			c0.3,1.2,0.5,2.5,0.7,3.8c0.4,2.3,0.7,4.7,1,7.1s0.7,4.8,1.1,7.1s0.8,4.6,1,7c0.3,3.4,2.2,6.3,3.4,9.4c0.3,0.9,0.5,1.8,0.6,2.7
			c0.5,3.4,0.9,6.8,1.3,10.3s0.8,6.6,1.2,9.9C78.7,157.3,78.9,158.3,78.9,159.3z"/>
		<path class="st6" d="M55,64.8c0.4,0.2,0.8,0.4,1.2,0.6c0.4,0.2,0.9,0.1,1.2-0.3c0.2-0.4-0.2-0.6-0.5-0.8s-0.3-0.2-0.3-0.4l0,0
			c1.2,0.3,1.5,0.2,1.6-0.6c5.7,0,11.5,0,17.2,0c1.2-0.1,2.4,0.4,3.1,1.4c0.4,0.6,0.4,1.4-0.2,1.9c-0.6,0.8-1.5,1.2-2.4,1.2
			c-6.8,0-13.6,0-20.5,0c-0.3-0.2-0.5-0.4-0.6-0.7l0,0c0.5-0.1,1.1,0.3,1.4-0.3s-0.5-0.8-0.8-1.1c-0.2-0.2-0.4-0.5-0.5-0.8L55,64.8z
			"/>
	</g>
</g>
</svg>
