<svg id="Capa_1" data-name="Capa 1" xmlns="http://www.w3.org/2000/svg" viewBox="0 0 25 25"><defs><style>.cls-1{fill:#40769A;fill-rule:evenodd;}</style></defs><path id="lock" class="cls-1" d="M7,10.18V6.69A5.64,5.64,0,0,1,12.5.89,5.64,5.64,0,0,1,18,6.69v3.49h1.09a2.25,2.25,0,0,1,2.18,2.32v9.29a2.25,2.25,0,0,1-2.18,2.32H6a2.25,2.25,0,0,1-2.18-2.32V12.5A2.25,2.25,0,0,1,6,10.18ZM6,12.5v9.29h13.1V12.5Zm3.27-2.32h6.55V6.69A3.38,3.38,0,0,0,12.5,3.21,3.39,3.39,0,0,0,9.22,6.69Zm5.46,4.64h2.19v4.65H14.68Z"/></svg>