<svg id="Capa_1" data-name="Capa 1" xmlns="http://www.w3.org/2000/svg" xmlns:xlink="http://www.w3.org/1999/xlink" viewBox="0 0 20 20"><defs><style>.cls-1{fill:#939292;}.cls-2{fill:#fff;}.cls-3{fill:#b21e41;}.cls-4{fill:#7a1532;}.cls-5{fill:#464545;}.cls-6{fill:#c1bfc0;}.cls-7{fill:url(#Degradado_sin_nombre_3);}.cls-8{fill:url(#Degradado_sin_nombre_3-2);}.cls-9{fill:url(#Degradado_sin_nombre_3-3);}</style><linearGradient id="Degradado_sin_nombre_3" x1="-727.74" y1="506.32" x2="-726.74" y2="506.32" gradientTransform="matrix(1.1, 0, 0, -2.91, 804.94, 1478.08)" gradientUnits="userSpaceOnUse"><stop offset="0.5" stop-color="#6c6c6c"/><stop offset="0.5" stop-color="#5e5e5e"/><stop offset="0.51" stop-color="#484848"/><stop offset="0.51" stop-color="#373737"/><stop offset="0.51" stop-color="#2b2b2b"/><stop offset="0.52" stop-color="#242424"/><stop offset="0.54" stop-color="#232323"/></linearGradient><linearGradient id="Degradado_sin_nombre_3-2" x1="-727.74" y1="506.32" x2="-726.74" y2="506.32" gradientTransform="matrix(1.1, 0, 0, -2.91, 808.33, 1478.08)" xlink:href="#Degradado_sin_nombre_3"/><linearGradient id="Degradado_sin_nombre_3-3" x1="-727.74" y1="506.32" x2="-726.74" y2="506.32" gradientTransform="matrix(1.1, 0, 0, -2.91, 811.73, 1478.08)" xlink:href="#Degradado_sin_nombre_3"/></defs><g id="Grupo_166" data-name="Grupo 166"><path id="Trazado_283" data-name="Trazado 283" class="cls-1" d="M16.06,16.38a.39.39,0,0,1-.38.4H4.57a.39.39,0,0,1-.38-.4V4.66a.39.39,0,0,1,.38-.4H15.68a.4.4,0,0,1,.38.4h0Z"/><path id="Trazado_284" data-name="Trazado 284" class="cls-2" d="M15.76,16.17a.38.38,0,0,1-.38.39H4.27a.38.38,0,0,1-.38-.39h0V4.65a.38.38,0,0,1,.38-.39H15.38a.38.38,0,0,1,.38.39h0Z"/><path id="Trazado_285" data-name="Trazado 285" class="cls-3" d="M16.5,10c0,.35-.19.64-.43.64H3.93c-.24,0-.43-.29-.43-.64V5.67c0-.35.19-.64.43-.64H16.07c.24,0,.43.29.43.64Z"/><rect id="Rectángulo_121" data-name="Rectángulo 121" class="cls-4" x="3.5" y="4.85" width="13" height="2.58"/><path id="Trazado_286" data-name="Trazado 286" class="cls-5" d="M7.35,5.81A.79.79,0,1,1,6.56,5h0A.79.79,0,0,1,7.35,5.81Z"/><path id="Trazado_287" data-name="Trazado 287" class="cls-6" d="M7.25,5.73a.71.71,0,0,1-1.42,0,.71.71,0,0,1,1.42,0Z"/><circle id="Elipse_36" data-name="Elipse 36" class="cls-5" cx="13.23" cy="5.81" r="0.79"/><path id="Trazado_288" data-name="Trazado 288" class="cls-6" d="M14,5.73a.7.7,0,0,1-.71.7.7.7,0,0,1-.7-.7.7.7,0,0,1,.7-.71.71.71,0,0,1,.71.71Z"/><path id="Trazado_289" data-name="Trazado 289" class="cls-7" d="M7.05,5.76c0,.21-.24.37-.55.37h0C6.2,6.13,6,6,6,5.76V3.6c0-.21.25-.38.55-.38h0c.3,0,.55.17.55.38Z"/><path id="Trazado_290" data-name="Trazado 290" class="cls-5" d="M10.69,5.81A.79.79,0,1,1,9.9,5h0A.79.79,0,0,1,10.69,5.81Z"/><path id="Trazado_291" data-name="Trazado 291" class="cls-6" d="M10.6,5.73a.7.7,0,0,1-.7.7.7.7,0,0,1-.71-.7A.71.71,0,0,1,9.9,5a.7.7,0,0,1,.7.71Z"/><path id="Trazado_292" data-name="Trazado 292" class="cls-8" d="M10.44,5.76c0,.21-.24.37-.54.37h0c-.3,0-.55-.16-.55-.37V3.6c0-.21.24-.38.55-.38h0c.3,0,.54.17.54.38Z"/><path id="Trazado_293" data-name="Trazado 293" class="cls-9" d="M13.84,5.76c0,.21-.25.37-.55.37h0c-.3,0-.55-.16-.55-.37V3.6c0-.21.24-.38.55-.38h0c.3,0,.55.17.55.38Z"/></g></svg>