<svg id="Capa_1" data-name="Capa 1" xmlns="http://www.w3.org/2000/svg" viewBox="0 0 152.28 177.59"><defs><style>.cls-1{fill:#f2f2f2;}.cls-2{fill:#fff;}.cls-3{fill:#e6e6e6;}.cls-4{fill:#ffb6b6;}.cls-5{fill:#3f3d56;}.cls-6{fill:#40769A;}.cls-7{fill:#2f2e41;}.cls-8{fill:#f0f0f0;}.cls-9{fill:#cacaca;}.cls-10{fill:#6c63ff;}</style></defs><g id="Grupo_584" data-name="Grupo 584"><path id="Trazado_809" data-name="Trazado 809" class="cls-1" d="M147.34,65.46H4.79A4.81,4.81,0,0,1,0,60.66V4.79A4.8,4.8,0,0,1,4.79,0H147.34a4.8,4.8,0,0,1,4.79,4.79V60.67a4.81,4.81,0,0,1-4.79,4.79Z"/><path id="Trazado_810" data-name="Trazado 810" class="cls-2" d="M114.09,62.4H27.42A24.38,24.38,0,0,1,3.06,38V27.42A24.38,24.38,0,0,1,27.42,3.06h97.29a24.38,24.38,0,0,1,24.36,24.36A35,35,0,0,1,114.09,62.4Z"/><path id="Trazado_811" data-name="Trazado 811" class="cls-3" d="M91.73,19.05H34.44a1.24,1.24,0,0,1-.07-2.47H91.73a1.24,1.24,0,1,1,.07,2.47Z"/><path id="Trazado_812" data-name="Trazado 812" class="cls-3" d="M120.73,32.23H34.44A1.23,1.23,0,0,1,33.24,31a1.24,1.24,0,0,1,1.2-1.2h86.29A1.25,1.25,0,0,1,121.94,31,1.23,1.23,0,0,1,120.73,32.23Z"/><path id="Trazado_813" data-name="Trazado 813" class="cls-3" d="M120.73,45.42H34.44a1.24,1.24,0,0,1-1.2-1.27,1.22,1.22,0,0,1,1.2-1.2h86.29a1.24,1.24,0,0,1,0,2.47Z"/><path id="Trazado_814" data-name="Trazado 814" class="cls-3" d="M120.73,45.42H34.44a1.24,1.24,0,0,1-1.2-1.27,1.22,1.22,0,0,1,1.2-1.2h86.29a1.24,1.24,0,0,1,0,2.47Z"/><path id="Trazado_815" data-name="Trazado 815" class="cls-4" d="M85.69,33.75a2.55,2.55,0,0,0,2.63,2.45,2.31,2.31,0,0,0,.46-.05l4.71,7.73,2-4.26-4.78-6.69a2.56,2.56,0,0,0-5,.82Z"/><path id="Trazado_816" data-name="Trazado 816" class="cls-5" d="M121,55.9l-16.23-8.81-5.13-4.8s-2.22-.6-1.4-1.32-1.52-1.43-1.52-1.43L94,37l-3.9,2.77,1.12,1.75s-.07,2.9,1.52,2.34,1.19,1.85,1.19,1.85l9.49,14.71Z"/><circle id="Elipse_168" data-name="Elipse 168" class="cls-6" cx="73.11" cy="31.74" r="15.86"/><path id="Trazado_817" data-name="Trazado 817" class="cls-4" d="M121.1,171.42h-3.3l-1.57-12.72h4.86Z"/><path id="Trazado_818" data-name="Trazado 818" class="cls-7" d="M122.84,177.14h-2.37l-.42-2.24L119,177.14H112.7a1.41,1.41,0,0,1-1.41-1.41,1.4,1.4,0,0,1,.61-1.16l5-3.46v-2.26l5.26.31Z"/><path id="Trazado_819" data-name="Trazado 819" class="cls-4" d="M94.72,171.42h-3.3L89.85,158.7h4.87Z"/><path id="Trazado_820" data-name="Trazado 820" class="cls-7" d="M96.46,177.14H94.1l-.43-2.24-1.08,2.24H86.32a1.41,1.41,0,0,1-1.41-1.41,1.4,1.4,0,0,1,.61-1.16l5-3.46v-2.26l5.27.31Z"/><rect id="Rectángulo_487" data-name="Rectángulo 487" class="cls-4" x="100.95" y="75.22" width="16.65" height="18.95"/><path id="Trazado_821" data-name="Trazado 821" class="cls-7" d="M101.34,84.57,98.52,87.9,93.65,98.14,81.39,127.31l-2.59,6.17,2.09,10.91s.34,7.68.34,8.94a5.13,5.13,0,0,0,2.15,4L85,165.49l15.23-.64s-.53-9-3.72-11.3-4.66-14.13-4.66-14.13l-1.73-5.27,16.9-20,.11,7,0,3.39s-2.48,22,.41,26.33.06,3.77.06,3.77l.14,8.83,18.05.12-4-25.41s-2-1.6-.94-3.2-1.05-3.57-1.05-3.57l1-19.83s-1.06-3.43.19-3.88.16-3.39.16-3.39l.19-3.84-3.71-11.9Z"/><path id="Trazado_822" data-name="Trazado 822" class="cls-5" d="M117.85,75.22l1.8-5.37,1.28-1.8.51-5.12c0-13.82-3.09-11.52-3.09-11.52l-1.78-4.86-8.19-.26-5.25,5-4.35,1.54-1.7,8.86,3.11,9.45.77,5.12c-1.47,2.7-1.34,1.43-.13,3.46l14.47,4c5.12,1.79,5.12-2.82,4.09-4S117.85,75.22,117.85,75.22Z"/><circle id="Elipse_169" data-name="Elipse 169" class="cls-4" cx="111.42" cy="36.97" r="7.6"/><path id="Trazado_824" data-name="Trazado 824" class="cls-7" d="M121.56,47.11a.94.94,0,0,1-.33,1.28.66.66,0,0,1-.19.09c-1,.34-1.65,1.32-2.38,2.11s-1.91,1.44-2.84.9-1-1.89-1.77-2.63a2.48,2.48,0,0,0-2.91-.09l0,0a1,1,0,0,1-1.3-.27.91.91,0,0,1-.13-.68l.93-5a16.7,16.7,0,0,1-3.5,5.3,3.84,3.84,0,0,1-1.52,1.07c-.54.17-1-.38-1.57-.28,1.28-1.12,5.61-8.33,4.83-13.14l-2.72.3a2.57,2.57,0,0,0-.61-1.15,3.08,3.08,0,0,1-.16,1.24l-1.14.13a2.5,2.5,0,0,1-1.55-.17c-.76-.46-.78-1.55-.56-2.41A8.87,8.87,0,0,1,107,28.05c2.34-1.09,3,1.34,5.5.56,4.86-1.53,8.59,1.09,9.9,6C123.49,38.67,122.68,43,121.56,47.11Z"/><path id="Trazado_825" data-name="Trazado 825" class="cls-8" d="M142.59,177.3h-9.3l0-.07c-.12-.22-.23-.44-.34-.68a25.46,25.46,0,0,1-1.72-6.47l-.27-1.56a1,1,0,0,1,.78-1.11,1,1,0,0,1,.74.17q2.12,1.54,4.24,3.08c.53.39,1.14.85,1.73,1.33l.18-.82a1,1,0,0,1,1.76-.3l1.08,1.75a6.39,6.39,0,0,1,1.36,3.89v.05a3.63,3.63,0,0,1-.16.65Z"/><path id="Trazado_826" data-name="Trazado 826" class="cls-9" d="M151.92,177.5l-88.39.09a.34.34,0,0,1,0-.67h0l88.39-.08a.33.33,0,1,1,0,.66Z"/><path id="Trazado_827" data-name="Trazado 827" class="cls-5" d="M71.67,53.09,62,44.88a1.66,1.66,0,0,1-.2-2.32l1.79-2.12a1.66,1.66,0,0,1,2.32-.2l9.72,8.21a1.66,1.66,0,0,1,.2,2.32L74,52.88a1.64,1.64,0,0,1-2.31.21Z"/><path id="Trazado_828" data-name="Trazado 828" class="cls-2" d="M62.46,42.74A.88.88,0,0,0,62.57,44l9.72,8.21a.89.89,0,0,0,1.25-.1L75.33,50a.9.9,0,0,0-.11-1.25L65.5,40.51a.89.89,0,0,0-1.25.11Z"/><path id="Trazado_829" data-name="Trazado 829" class="cls-10" d="M68.17,45.93a.38.38,0,0,1-.3.15l-1.53,0a.37.37,0,0,1-.4-.35.38.38,0,0,1,.35-.4h0l1,0-1-2.6a.37.37,0,0,1,.22-.49.38.38,0,0,1,.48.22l1.17,3.09a.37.37,0,0,1,0,.34Z"/><path id="Trazado_830" data-name="Trazado 830" class="cls-4" d="M68.36,46.58a2.54,2.54,0,0,1,2.15,2.89,2.33,2.33,0,0,1-.1.44l7.17,5.52L73.13,57,67,51.48a2.56,2.56,0,0,1,1.35-4.9Z"/><path id="Trazado_831" data-name="Trazado 831" class="cls-5" d="M105.7,49.31,87.33,60.6s-7.4-2.74-6-4-3.16-2.12-3.16-2.12L73.13,51l-2.95,3.44s.54,5.57,1.45,4.6,2.29,1.67,2.29,1.67.4,3,3,2.2,9.6,7,9.6,7l22.6-8.43Z"/><path id="Trazado_832" data-name="Trazado 832" class="cls-2" d="M72.56,38.1a1.35,1.35,0,0,1-1.1-.54l-3.37-4.49a1.37,1.37,0,1,1,2.2-1.64l2.2,2.93,5.65-8.48a1.37,1.37,0,1,1,2.28,1.52L73.69,37.49a1.34,1.34,0,0,1-1.09.61Z"/></g></svg>