<?xml version="1.0" encoding="utf-8"?>
<!-- Generator: Adobe Illustrator 24.2.3, SVG Export Plug-In . SVG Version: 6.00 Build 0)  -->
<svg version="1.1" id="Capa_1" xmlns="http://www.w3.org/2000/svg" xmlns:xlink="http://www.w3.org/1999/xlink" x="0px" y="0px"
	 viewBox="0 0 136.1 122" style="enable-background:new 0 0 136.1 122;" xml:space="preserve">
<style type="text/css">
	.st0{fill:#188EB7;}
	.st1{fill:#EAAD6A;}
	.st2{fill:#F9E688;}
	.st3{clip-path:url(#SVGID_2_);}
	.st4{clip-path:url(#SVGID_4_);}
	.st5{fill:none;stroke:#EAAD6A;strokeWidth:2.6;stroke-linecap:round;stroke-linejoin:round;}
	.st6{fill:#23272D;}
	.st7{fill:none;stroke:#2B47A0;strokeWidth:2.6;stroke-linecap:round;stroke-linejoin:round;}
	.st8{fill:#2B47A0;}
	.st9{fill:none;stroke:#23272D;strokeWidth:2.6;stroke-linecap:round;stroke-linejoin:round;}
	.st10{fill:#667379;}
</style>
<g id="Grupo_106">
	<circle id="Elipse_14" class="st0" cx="68" cy="61" r="57.4"/>
	<g id="Grupo_115-2">
		<path id="Trazado_127-2" class="st1" d="M64.3,119.7L19.8,117c-3-0.2-5.4-2.8-5.2-5.8c0-0.2,0-0.5,0.1-0.7l17-95.2
			c0.6-3.3,3.3-5.7,6.6-6.1L83,4.8c3.1-0.3,5.8,1.9,6.1,5c0,0,0,0,0,0c0.1,0.5,0.1,1,0,1.4l-17,102.3
			C71.5,117.3,68.1,120,64.3,119.7z"/>
		<path id="Trazado_128-2" class="st2" d="M61.9,119.4l-44.6-2.7c-3-0.2-5.4-2.8-5.2-5.8l0,0c0-0.2,0-0.5,0.1-0.7l17-95.2
			c0.6-3.3,3.3-5.7,6.6-6.1l44.8-4.3c3.1-0.3,5.8,1.9,6.1,5c0.1,0.5,0.1,1,0,1.4l-17,102.3C69,117,65.7,119.7,61.9,119.4z"/>
		<g id="Grupo_105-2">
			<g id="Grupo_102-2">
				<g id="Grupo_103">
					<g>
						<defs>
							<path id="SVGID_1_" d="M61.9,119.4l-44.6-2.7c-3.1-0.2-5.4-2.8-5.2-5.9c0-0.2,0-0.4,0.1-0.6l17-95.2c0.6-3.3,3.3-5.7,6.6-6.1
								l44.8-4.3c3.1-0.3,5.8,1.9,6.1,5c0.1,0.5,0.1,1,0,1.4l-17,102.3C69,117,65.7,119.7,61.9,119.4z"/>
						</defs>
						<clipPath id="SVGID_2_">
							<use xlink:href="#SVGID_1_"  style="overflow:visible;"/>
						</clipPath>
						<g class="st3">
							<g id="Grupo_102-3">
								<g id="Grupo_101-2">
									<path id="Trazado_129" class="st1" d="M106.9,65.6l-68.7,1.2c-1.6,0-2.9-1.2-2.9-2.8c0,0,0,0,0,0c0-0.2,0-0.4,0-0.5l5-28.7
										c0.3-1.6,1.6-2.9,3.3-3l67.8-4.5c2-0.1,3.7,1.4,3.8,3.4c0,0,0,0,0,0c0,0.3,0,0.5,0,0.8l-5,31.2
										C110.1,64.3,108.6,65.6,106.9,65.6z"/>
								</g>
							</g>
						</g>
					</g>
				</g>
			</g>
			<g id="Grupo_104-2">
				<g id="Grupo_105-3">
					<g>
						<defs>
							<path id="SVGID_3_" d="M61.9,119.4l-44.6-2.7c-3.1-0.2-5.4-2.8-5.2-5.9c0-0.2,0-0.4,0.1-0.6l17-95.2c0.6-3.3,3.3-5.7,6.6-6.1
								l44.8-4.3c3.1-0.3,5.8,1.9,6.1,5c0.1,0.5,0.1,1,0,1.4l-17,102.3C69,117,65.7,119.7,61.9,119.4z"/>
						</defs>
						<clipPath id="SVGID_4_">
							<use xlink:href="#SVGID_3_"  style="overflow:visible;"/>
						</clipPath>
						<g class="st4">
							<g id="Grupo_104-3">
								<g id="Grupo_103-2">
									<path id="Trazado_131" class="st1" d="M99.3,111.8l-68.7-3c-1.6-0.1-2.8-1.4-2.7-3l0,0c0-0.1,0-0.2,0-0.3l5.2-29.4
										c0.3-1.7,1.8-3,3.5-3l67.9-0.5c2,0,3.6,1.6,3.6,3.6c0,0.2,0,0.4,0,0.5l-5.1,32.1C102.7,110.6,101.1,111.9,99.3,111.8z"/>
								</g>
							</g>
						</g>
					</g>
				</g>
			</g>
		</g>
		<line id="Línea_10" class="st5" x1="28.1" y1="20.7" x2="85.7" y2="16.1"/>
		<g id="Grupo_106-2">
			<path id="Trazado_133" class="st6" d="M57.4,13.7l-4.9,0.4c-0.5,0.1-0.7-0.3-0.7-0.8l0,0c0.1-0.5,0.5-0.9,1-0.9l4.9-0.4
				c0.5-0.1,0.8,0.3,0.7,0.8l0,0C58.3,13.3,57.9,13.6,57.4,13.7z"/>
			<path id="Trazado_134" class="st6" d="M60.7,13.4L60.7,13.4c-0.5,0.1-0.7-0.3-0.6-0.8l0,0c0.1-0.5,0.4-0.9,0.9-1l0,0
				c0.5,0,0.8,0.3,0.7,0.8l0,0C61.6,13,61.2,13.4,60.7,13.4z"/>
		</g>
		<path id="Trazado_135" class="st7" d="M116.2,16.8l-19,1.4c-0.5,0.1-1-0.3-1.1-0.9c0,0,0,0,0,0c0-0.1,0-0.2,0-0.3L98,5.6
			c0.1-0.7,0.7-1.2,1.4-1.3l18.8-2c0.7-0.1,1.3,0.4,1.3,1.1c0,0,0,0,0,0c0,0.1,0,0.2,0,0.3l-1.8,11.9
			C117.5,16.2,116.9,16.7,116.2,16.8z"/>
		<path id="Trazado_136" class="st7" d="M98.5,4.6l8.3,5.3c0.5,0.3,1,0.3,1.5,0l10.8-7.4"/>
		<g id="Grupo_107">
			<path id="Trazado_137" class="st8" d="M30.6,38.4L15,39.2l-2.3,1.5c-0.3,0.2-0.8,0.1-1-0.2c0,0,0,0,0,0c-0.1-0.2-0.1-0.4-0.1-0.5
				L14,26.4c0.2-1.1,1.1-1.9,2.2-2l16.3-1.2c0.9-0.1,1.7,0.6,1.8,1.5c0,0,0,0,0,0c0,0.1,0,0.3,0,0.4l-2.1,11.9
				C32,37.7,31.3,38.3,30.6,38.4z"/>
			<line id="Línea_11" class="st9" x1="17.1" y1="28.4" x2="30.2" y2="27.4"/>
			<line id="Línea_12" class="st9" x1="16.5" y1="31.7" x2="29.6" y2="30.8"/>
			<line id="Línea_13" class="st9" x1="15.9" y1="35" x2="22.7" y2="34.6"/>
		</g>
		<g id="Grupo_110">
			<path id="Trazado_138" class="st6" d="M103.2,62.6l-68.7,1.2c-1.6,0-2.9-1.2-2.9-2.8c0-0.2,0-0.4,0-0.5l5-28.7
				c0.3-1.6,1.6-2.9,3.3-3l67.8-4.5c2-0.1,3.7,1.4,3.8,3.4c0,0,0,0,0,0c0,0.3,0,0.5,0,0.8l-5,31.2C106.3,61.3,104.9,62.6,103.2,62.6
				z"/>
			<g id="Grupo_108-2">
				<path id="Trazado_139" class="st2" d="M52.3,40.9c-0.3,2-2,3.6-4,3.9c-1.8,0.1-3-1.5-2.7-3.5c0.3-2,2-3.6,4-3.9
					C51.4,37.3,52.6,38.9,52.3,40.9z"/>
				<path id="Trazado_140" class="st2" d="M51,54l-8.2,0.2c-1,0-1.8-0.7-1.8-1.7c0-0.1,0-0.2,0-0.4l0.2-0.9c0.7-3.7,3.8-6.8,7.2-6.9
					l0,0c3.3-0.2,5.6,2.8,4.9,6.5l-0.2,1.3C52.9,53.2,52,53.9,51,54z"/>
			</g>
			<path id="Trazado_141" class="st8" d="M95.8,41.2l-32.5,1.5c-0.5,0.1-1-0.3-1.1-0.9c0,0,0-0.1,0-0.1c0-0.1,0-0.2,0-0.3l0.3-2.2
				c0.2-0.7,0.8-1.2,1.5-1.3l32.6-1.7c0.5-0.1,1,0.3,1.1,0.9c0,0,0,0,0,0c0,0.1,0,0.2,0,0.3l-0.4,2.4C97.2,40.7,96.6,41.2,95.8,41.2
				z"/>
			<g id="Grupo_109">
				<path id="Trazado_142" class="st2" d="M62.9,48.6l0.5,1.5l1.5,0.2l-1.3,1.3l-0.1,1.7l-1.3-0.7l-1.6,0.8l0.5-1.7l-0.9-1.2
					l1.7-0.4L62.9,48.6z"/>
				<path id="Trazado_143" class="st2" d="M70.4,48.4l0.6,1.5l1.6,0.2l-1.3,1.3v1.8l-1.4-0.7l-1.6,0.8l0.5-1.7l-0.9-1.3l1.6-0.3
					L70.4,48.4z"/>
				<path id="Trazado_144" class="st2" d="M78.1,48.1l0.5,1.5l1.6,0.3l-1.4,1.3v1.8l-1.4-0.8l-1.7,0.8l0.5-1.8l-0.9-1.3l1.7-0.4
					L78.1,48.1z"/>
				<path id="Trazado_145" class="st2" d="M85.9,47.8l0.6,1.6l1.7,0.2L86.7,51l-0.1,1.8L85.2,52l-1.7,0.8l0.5-1.8l-1-1.2l1.7-0.4
					L85.9,47.8z"/>
				<path id="Trazado_146" class="st2" d="M93.9,47.5l0.5,1.6l1.7,0.3l-1.5,1.4v1.8l-1.5-0.8l-1.7,0.8l0.5-1.8l-1-1.3l1.7-0.4
					L93.9,47.5z"/>
			</g>
		</g>
		<g id="Grupo_113">
			<path id="Trazado_147" class="st6" d="M95.6,108.8l-68.6-3c-1.6-0.1-2.8-1.4-2.7-3v-0.3L29.4,73c0.3-1.7,1.8-3,3.5-3l67.9-0.6
				c2,0,3.6,1.6,3.6,3.6c0,0.2,0,0.4,0,0.6l-5.1,32.1C99.1,107.6,97.4,108.9,95.6,108.8z"/>
			<g id="Grupo_111">
				<path id="Trazado_148" class="st2" d="M45,83.3c-0.3,2-2,3.6-4,3.7c-1.8,0-3-1.8-2.7-3.8c0.3-2,2-3.6,4-3.7
					c1.7,0.1,2.9,1.5,2.9,3.1C45.1,82.8,45.1,83.1,45,83.3z"/>
				<path id="Trazado_149" class="st2" d="M43.5,96.8l-8.2-0.2c-1,0-1.8-0.9-1.7-1.9c0,0,0,0,0,0c0-0.1,0-0.1,0-0.2l0.2-1
					c0.7-3.8,3.8-6.8,7.2-6.7l0,0c3.3,0,5.6,3.2,4.9,7L45.7,95C45.5,96.1,44.6,96.8,43.5,96.8z"/>
			</g>
			<path id="Trazado_150" class="st8" d="M88.4,86.4L55.8,86c-0.6,0-1.1-0.5-1.1-1.1c0,0,0,0,0,0l0,0c0,0,0-0.1,0-0.2l0.4-2.3
				c0.1-0.8,0.8-1.4,1.6-1.3l32.6,0.2c0.6,0,1.1,0.5,1.1,1.1c0,0,0,0,0,0l0,0c0,0,0,0.1,0,0.2L90,85C89.8,85.8,89.2,86.4,88.4,86.4z
				"/>
			<g id="Grupo_112">
				<path id="Trazado_151" class="st2" d="M55.5,92l0.5,1.6l1.5,0.3l-1.3,1.3V97l-1.3-0.8l-1.6,0.7l0.5-1.8l-0.8-1.3l1.6-0.3
					L55.5,92z"/>
				<path id="Trazado_152" class="st2" d="M63.1,92.1l0.5,1.6l1.6,0.4l-1.4,1.3v1.8l-1.4-0.8l-1.6,0.8l0.5-1.8L60.4,94l1.6-0.2
					L63.1,92.1z"/>
				<path id="Trazado_153" class="st2" d="M70.7,92.3l0.5,1.6l1.7,0.4l-1.4,1.3l-0.1,1.8L70,96.6l-1.7,0.8l0.6-1.8l-1-1.4l1.7-0.2
					L70.7,92.3z"/>
				<path id="Trazado_154" class="st10" d="M78.6,92.5l0.5,1.6l1.7,0.4l-1.4,1.3v1.8l-1.4-0.8l-1.7,0.8l0.6-1.8l-0.9-1.4l1.7-0.3
					L78.6,92.5z"/>
				<path id="Trazado_155" class="st10" d="M86.5,92.7l0.6,1.6l1.7,0.4l-1.4,1.3V98l-1.4-0.9l-1.7,0.8l0.5-1.9l-1-1.3l1.8-0.3
					L86.5,92.7z"/>
			</g>
		</g>
		<g id="Grupo_114">
			<path id="Trazado_156" class="st6" d="M123.2,31.6c-0.7-0.8-2-0.9-2.8-0.1c-0.8,0.7-0.9,2-0.1,2.8c0.7,0.8,2,0.9,2.8,0.2l0,0
				C123.9,33.7,124,32.5,123.2,31.6L123.2,31.6z"/>
			<path id="Trazado_157" class="st8" d="M120.5,26.9l-0.3-0.4c-1.2-1.3-3.2-1.4-4.5-0.2c0,0,0,0,0,0l0,0l0,0
				c-1.3,1.2-1.4,3.2-0.2,4.5l0,0l0,0l0.3,0.4c0.4,0.5,0.7,1,0.8,1.6c0.1,0.5,0.2,1,0.4,1.5c0.2,0.8,1,1.3,1.8,1.1c0,0,0,0,0,0
				c0.2-0.1,0.5-0.2,0.6-0.3l2.2-2l2.2-2c0.6-0.5,0.7-1.5,0.1-2.1c-0.2-0.2-0.4-0.3-0.6-0.4c-0.5-0.2-1-0.3-1.4-0.5
				C121.5,27.7,121,27.4,120.5,26.9z"/>
		</g>
	</g>
</g>
</svg>
