<?xml version="1.0" encoding="utf-8"?>
<!-- Generator: Adobe Illustrator 24.2.3, SVG Export Plug-In . SVG Version: 6.00 Build 0)  -->
<svg version="1.1" id="Capa_1" xmlns="http://www.w3.org/2000/svg" xmlns:xlink="http://www.w3.org/1999/xlink" x="0px" y="0px"
	 viewBox="0 0 122 122" style="enable-background:new 0 0 122 122;" xml:space="preserve">
<style type="text/css">
	.st0{fill:#1D85BF;}
	.st1{clip-path:url(#SVGID_2_);}
	.st2{clip-path:url(#SVGID_4_);}
	.st3{fill:#23272D;}
	.st4{fill:#FFFFFF;}
	.st5{fill:#4483E0;}
	.st6{opacity:0.4;}
	.st7{fill:#222D47;}
	.st8{fill:#111B31;}
	.st9{fill:#F5CDB6;}
	.st10{fill:#D26C4B;}
	.st11{fill:#FFE779;}
	.st12{fill:#CCAA1B;}
	.st13{fill:#9DB8F7;}
	.st14{fill:#0E264F;}
	.st15{clip-path:url(#SVGID_6_);}
	.st16{fill:#FEFEFF;}
	.st17{fill:#FDFEFF;}
	.st18{fill:#FCFDFF;}
	.st19{fill:#FBFCFF;}
	.st20{fill:#FAFBFF;}
	.st21{fill:#F9FBFF;}
	.st22{fill:#F8FAFF;}
	.st23{fill:#F7F9FE;}
	.st24{fill:#F6F8FE;}
	.st25{fill:#F5F8FE;}
	.st26{fill:#F4F7FE;}
	.st27{fill:#F3F6FE;}
	.st28{fill:#F2F5FE;}
	.st29{fill:#F1F5FE;}
	.st30{fill:#F0F4FE;}
	.st31{fill:#EFF3FE;}
	.st32{fill:#EEF3FE;}
	.st33{fill:#EDF2FE;}
	.st34{fill:#ECF1FE;}
	.st35{fill:#EBF0FE;}
	.st36{fill:#EAF0FE;}
	.st37{fill:#E9EFFD;}
	.st38{fill:#E8EEFD;}
	.st39{fill:#E7EDFD;}
	.st40{fill:#E6EDFD;}
	.st41{fill:#E5ECFD;}
	.st42{fill:#E4EBFD;}
	.st43{fill:#E3EAFD;}
	.st44{fill:#E2EAFD;}
	.st45{fill:#E1E9FD;}
	.st46{fill:#E0E8FD;}
	.st47{fill:#DFE7FD;}
	.st48{fill:#DEE7FD;}
	.st49{fill:#DDE6FD;}
	.st50{fill:#DCE5FD;}
	.st51{fill:#DBE5FC;}
	.st52{fill:#DAE4FC;}
	.st53{fill:#D9E3FC;}
	.st54{fill:#D8E2FC;}
	.st55{fill:#D7E2FC;}
	.st56{fill:#D6E1FC;}
	.st57{fill:#D5E0FC;}
	.st58{fill:#D4DFFC;}
	.st59{fill:#D3DFFC;}
	.st60{fill:#D2DEFC;}
	.st61{fill:#D1DDFC;}
	.st62{fill:#D0DCFC;}
	.st63{fill:#CFDCFC;}
	.st64{fill:#CEDBFC;}
	.st65{fill:#CCDAFB;}
	.st66{fill:#CBDAFB;}
	.st67{fill:#CAD9FB;}
	.st68{fill:#C9D8FB;}
	.st69{fill:#C8D7FB;}
	.st70{fill:#C7D7FB;}
	.st71{fill:#C6D6FB;}
	.st72{clip-path:url(#SVGID_8_);}
	.st73{fill:#F0BCA2;}
	.st74{fill-rule:evenodd;clip-rule:evenodd;fill:#FFFFFF;}
	.st75{fill:#453318;}
	.st76{fill:#090B09;}
	.st77{fill:#5A74CA;}
	.st78{fill:#183A7E;}
	.st79{fill:#EE9A81;}
	.st80{fill:#B07A61;}
	.st81{fill-rule:evenodd;clip-rule:evenodd;fill:#4483E0;}
</style>
<circle class="st0" cx="61" cy="61" r="61"/>
<g>
	<defs>
		<circle id="SVGID_1_" cx="61" cy="61" r="61"/>
	</defs>
	<clipPath id="SVGID_2_">
		<use xlink:href="#SVGID_1_"  style="overflow:visible;"/>
	</clipPath>
	<g class="st1">
		<g>
			<defs>
				<rect id="SVGID_3_" x="1.5" y="0.4" width="116.5" height="119"/>
			</defs>
			<clipPath id="SVGID_4_">
				<use xlink:href="#SVGID_3_"  style="overflow:visible;"/>
			</clipPath>
			<g class="st2">
				<path class="st3" d="M78,18.8H44.7c-0.8,0-1.4,0.6-1.4,1.4c0,0,0,0,0,0v23.5c0,0.8,0.6,1.4,1.4,1.4l0,0H78
					c0.8,0,1.4-0.6,1.4-1.4l0,0V20.2C79.4,19.4,78.8,18.8,78,18.8L78,18.8z"/>
				<path class="st4" d="M61.3,41.5c-0.5,0-1.1-0.1-1.6-0.2c-4.3-0.8-7.2-5-6.3-9.4c0.1-0.5,0.3-1.1,0.5-1.6c1.2-3,4.2-5,7.4-5v2.3
					c-3.1,0-5.7,2.5-5.7,5.7c0,3.1,2.5,5.7,5.7,5.7c3.1,0,5.7-2.5,5.7-5.7c0,0,0,0,0,0h2.3c0,3.2-1.9,6.2-4.9,7.4
					C63.4,41.3,62.4,41.5,61.3,41.5z"/>
				<path class="st5" d="M70.6,32.2h-2.3c0-3.1-2.5-5.7-5.6-5.7c0,0,0,0,0,0v-2.3C67,24.2,70.6,27.8,70.6,32.2L70.6,32.2L70.6,32.2z
					"/>
				<path class="st4" d="M50.5,40.6h-4c-0.3,0-0.5-0.1-0.5-0.4c0-0.3,0.1-0.5,0.4-0.5c0,0,0.1,0,0.1,0h4c0.3,0,0.5,0.1,0.5,0.4
					c0,0.3-0.1,0.5-0.4,0.5C50.6,40.6,50.5,40.6,50.5,40.6z"/>
				<g class="st6">
					<path class="st4" d="M54.8,42.8h-8.3c-0.3,0-0.5-0.2-0.5-0.5c0-0.3,0.2-0.5,0.5-0.5h8.3c0.2,0,0.5,0.2,0.5,0.4c0,0,0,0,0,0
						C55.2,42.6,55,42.8,54.8,42.8z"/>
				</g>
				<path class="st4" d="M73.5,40.6h-4c-0.3,0-0.4-0.3-0.4-0.5c0-0.2,0.2-0.4,0.4-0.4h4c0.3,0,0.4,0.3,0.4,0.5
					C73.8,40.4,73.7,40.6,73.5,40.6z"/>
				<g class="st6">
					<path class="st4" d="M77.8,42.8h-8.3c-0.3,0-0.4-0.3-0.4-0.5c0-0.2,0.2-0.4,0.4-0.4h8.3c0.3,0,0.4,0.3,0.4,0.5
						C78.1,42.7,78,42.8,77.8,42.8z"/>
				</g>
				<path class="st5" d="M87.5,14.4H75.2c-0.7,0-1.2,0.6-1.2,1.2v11.3c0,0.7,0.6,1.2,1.2,1.2l0,0h12.3c0.7,0,1.2-0.6,1.2-1.2
					c0,0,0,0,0,0V15.6C88.8,14.9,88.2,14.4,87.5,14.4C87.5,14.4,87.5,14.4,87.5,14.4z"/>
				<path class="st4" d="M76.8,23.8c-0.1,0-0.2,0-0.3-0.1c-0.2-0.2-0.2-0.4,0-0.6l2.2-2.1c0.2-0.2,0.5-0.3,0.8-0.4
					c0.3,0,0.6,0.1,0.8,0.4l1.7,1.7c0.1,0.1,0.3,0.1,0.4,0l2.8-2.8c0.2-0.2,0.4-0.2,0.6,0c0.2,0.2,0.2,0.4,0,0.6L83,23.2
					c-0.2,0.2-0.5,0.3-0.8,0.4c-0.3,0-0.6-0.1-0.8-0.4l-1.7-1.7c-0.1-0.1-0.3-0.1-0.4,0l-2.2,2.1C77,23.7,76.9,23.8,76.8,23.8z"/>
				<path class="st4" d="M86,21.7c-0.2,0-0.4-0.2-0.4-0.4l0,0V20h-1.4c-0.2,0-0.4-0.2-0.4-0.4s0.2-0.4,0.4-0.4h1.5
					c0.2,0,0.4,0.1,0.5,0.2c0.1,0.1,0.2,0.3,0.2,0.5v1.4C86.4,21.5,86.2,21.7,86,21.7C86,21.7,86,21.7,86,21.7z"/>
				<path class="st7" d="M36.2,90l7.2,30.4l0.5,4.4H31.7l-8.1-19.6L25,90.5L36.2,90z"/>
				<path class="st8" d="M28.6,117.4l1.8-15l0.6,20.7L28.6,117.4z"/>
				<path class="st7" d="M16.8,89.9c0,0-3.4,5.6-3.4,10.3c-0.1,7.1-0.6,24.6-0.6,24.6h14.8l2.8-22.4l-4-12.5L16.8,89.9z"/>
				<path class="st8" d="M36.2,90l-19.5,0.2l-1.9,3.9l21.7-2.7L36.2,90z"/>
				<path class="st9" d="M58.7,58.7l1-2.2c0.2-0.5,0.5-0.9,0.9-1.3c0.8-0.6,1.4-1.3,1.9-2.2c0.4-1.2,2.2-4.6-0.4-6.4
					c-1-0.6-0.7-0.5-2.3-0.1s-1.5,2.1-2,3.3c-0.3-0.7-0.8-1.3-1.5-1.6c-1-0.4,0.3,3,0,4.5s0.3,1.8-0.8,4.5L58.7,58.7z"/>
				<path class="st10" d="M60.1,46.7l-0.6,3.2L60.1,46.7z"/>
				<path class="st10" d="M59.4,50L59.4,50c0,0-0.1-0.1-0.1-0.1c0,0,0,0,0,0l0.6-3.2c0,0,0.1-0.1,0.1-0.1c0,0,0,0,0,0
					c0.1,0,0.1,0.1,0.1,0.1l-0.7,3.2C59.5,50,59.5,50,59.4,50z"/>
				<path class="st10" d="M61.9,46.8l-1.1,3.5L61.9,46.8z"/>
				<path class="st10" d="M60.8,50.4L60.8,50.4c0,0-0.1-0.1-0.1-0.1c0,0,0,0,0,0l1.1-3.5c0,0,0.1-0.1,0.1-0.1c0,0,0,0,0,0
					c0,0,0.1,0.1,0.1,0.1c0,0,0,0,0,0l-1.1,3.5C60.9,50.4,60.8,50.5,60.8,50.4C60.8,50.4,60.8,50.4,60.8,50.4z"/>
				<path class="st10" d="M63.4,48.6l-1,2.2L63.4,48.6z"/>
				<path class="st10" d="M62.4,50.9L62.4,50.9c0,0,0-0.1,0-0.1l1-2.2c0,0,0.1,0,0.1,0c0,0,0,0.1,0,0.1l-1,2.2
					C62.5,50.9,62.5,51,62.4,50.9C62.4,50.9,62.4,50.9,62.4,50.9z"/>
				<path class="st10" d="M58.3,50.5c0.5,0.8,0.9,1.8,1.1,2.7L58.3,50.5z"/>
				<path class="st10" d="M59.3,53.3C59.3,53.3,59.2,53.2,59.3,53.3c-0.3-1-0.6-1.9-1.2-2.8c0,0,0-0.1,0-0.1c0,0,0,0,0,0
					c0,0,0.1,0,0.1,0c0.5,0.8,0.9,1.8,1.1,2.8C59.4,53.2,59.4,53.2,59.3,53.3C59.3,53.2,59.3,53.2,59.3,53.3L59.3,53.3z"/>
				<path class="st11" d="M30.8,61.7c1.6-0.3,4-0.5,5.1,0.2l11.1,7.7l8.7-14.2l3.9,2.1l-8,17.8c-1.2,3-4.1,3-5.9,2l-5.8-2.8
					L30.8,61.7z"/>
				<path class="st12" d="M37.8,69c0,0,0-0.9,2.1,2.6l5.7,5.7l-5.8-2.8C34.5,72.3,36.2,69.9,37.8,69z"/>
				<path class="st11" d="M30.6,59.5c1.6,0.6,3.1,1.2,4.5,2c0.6,0.5,1.2,4.4,2.2,6.3s2.5,5.3,0.3,8.5c-1.3,1.6-2,3.6-2,5.7l0.5,7.9
					l-18.8,0.3c-0.2,0-0.3,0-0.5-0.1c-0.2-0.1-0.3-0.2-0.4-0.3c-0.1-0.1-0.2-0.3-0.3-0.4c-0.1-0.2-0.1-0.3-0.1-0.5
					c0.2-2.3,1.2-5.6,1.2-9.2c0.1-5,0.2-21.6,0.2-21.6l8.2-0.3C27.4,58.2,29.1,58.8,30.6,59.5z"/>
				<path class="st12" d="M37.6,76.5c-1.5,0.3-3.1,0.5-4.7,0.7c-2.1,0.1-1,1.8,0.9,2c0.8,0.1,1.6,0.2,2.3,0.3
					C36.5,78.4,37,77.4,37.6,76.5z"/>
				<path class="st12" d="M17.1,83.2l-0.6,3.8c0.5,0.9,1.4,1.6,2.5,1.8c2,0.7,3.8,0.5,5-0.8s5.3-7.5,5.3-7.5L17.1,83.2z"/>
				<path class="st12" d="M20.9,64.9c0,0,2.7,2.5,2.9,4.3s0.5,7,4,7.5c4.3,0.6,5.4,1.2,3.5,1.7s-6.5-0.3-6.5,1.8
					c0,1.5-1.8,2.6-2.7,1.8S14.1,69,20.9,64.9z"/>
				<path class="st13" d="M39.1,61.3L37,65.9l3.9,1.7l2.3-5.2L39.1,61.3z"/>
				<path class="st13" d="M38.4,63.6l3.9,0.7l-0.5,0.9L38.4,64V63.6z"/>
				<path class="st14" d="M40.6,56.3L40.6,56.3c-1-0.4-2.2,0.1-2.6,1.1l-0.3,0.9c-0.4,1,0.1,2.2,1.2,2.6l0,0c1,0.4,2.2-0.1,2.6-1.2
					l0.3-0.9C42.1,57.8,41.6,56.7,40.6,56.3z"/>
				<path class="st13" d="M45.3,56.8c3.5,1.3,7.4,1.4,11,0.3L51,71.2c0,0-3.6-5.8-8.3-7.5C41,63.1,45.3,56.8,45.3,56.8z"/>
				<path class="st4" d="M55.6,64.9c1.5-3.9,2-7.4,1-7.8s-2.9,2.5-4.4,6.5s-2,7.4-1,7.7S54.1,68.9,55.6,64.9z"/>
				<path class="st14" d="M55.6,64.9c1.5-3.9,2.1-7.4,1.3-7.7s-2.6,2.6-4.1,6.6s-2.1,7.4-1.3,7.7S54.1,68.9,55.6,64.9z"/>
				<g>
					<defs>
						<path id="SVGID_5_" d="M42.4,55.7l3.8,1.4L43.5,64l-3.8-1.4c-0.2-0.1-0.4-0.2-0.6-0.4c-0.2-0.2-0.3-0.4-0.4-0.6
							c-0.1-0.2-0.2-0.5-0.2-0.7c0-0.2,0-0.5,0.1-0.7l1.3-3.4c0.1-0.2,0.2-0.4,0.4-0.6c0.2-0.2,0.4-0.3,0.6-0.4
							c0.2-0.1,0.5-0.2,0.7-0.2C41.9,55.5,42.1,55.6,42.4,55.7z"/>
					</defs>
					<clipPath id="SVGID_6_">
						<use xlink:href="#SVGID_5_"  style="overflow:visible;"/>
					</clipPath>
					<g class="st15">
						<polygon class="st4" points="46.1,56.7 41.3,55.5 46.1,55.5 						"/>
						<polygon class="st4" points="46.1,56.8 40.6,55.5 41.3,55.5 46.1,56.7 						"/>
						<polygon class="st16" points="46.1,57 39.9,55.5 40.6,55.5 46.1,56.8 						"/>
						<polygon class="st17" points="46.1,57.2 39.3,55.6 39.4,55.5 39.9,55.5 46.1,57 						"/>
						<polygon class="st18" points="46.1,57.3 39.3,55.7 39.3,55.6 46.1,57.2 						"/>
						<polygon class="st19" points="46.1,57.5 39.3,55.9 39.3,55.7 46.1,57.3 						"/>
						<polygon class="st20" points="46.1,57.6 39.2,56 39.3,55.9 46.1,57.5 						"/>
						<polygon class="st21" points="46.1,57.8 39.2,56.2 39.2,56 46.1,57.6 						"/>
						<polygon class="st22" points="46.1,58 39.2,56.3 39.2,56.2 46.1,57.8 						"/>
						<polygon class="st23" points="46.1,58.1 39.1,56.5 39.2,56.3 46.1,58 						"/>
						<polygon class="st24" points="46.1,58.3 39.1,56.6 39.1,56.5 46.1,58.1 						"/>
						<polygon class="st25" points="46.1,58.5 39.1,56.8 39.1,56.6 46.1,58.3 						"/>
						<polygon class="st26" points="46.1,58.5 46.1,58.6 39,57 39.1,56.8 46.1,58.5 						"/>
						
							<rect x="42.5" y="54.2" transform="matrix(0.2275 -0.9738 0.9738 0.2275 -23.4871 86.1311)" class="st27" width="0.2" height="7.3"/>
						
							<rect x="42.4" y="54.4" transform="matrix(0.2275 -0.9738 0.9738 0.2275 -23.6641 86.2187)" class="st28" width="0.2" height="7.3"/>
						
							<rect x="42.4" y="54.5" transform="matrix(0.2275 -0.9738 0.9738 0.2275 -23.8387 86.3048)" class="st29" width="0.2" height="7.3"/>
						
							<rect x="42.4" y="54.7" transform="matrix(0.2275 -0.9738 0.9738 0.2275 -24.0142 86.3948)" class="st30" width="0.2" height="7.3"/>
						
							<rect x="42.3" y="54.9" transform="matrix(0.2275 -0.9738 0.9738 0.2275 -24.1965 86.4711)" class="st31" width="0.2" height="7.3"/>
						
							<rect x="42.3" y="55" transform="matrix(0.2275 -0.9738 0.9738 0.2275 -24.372 86.5611)" class="st32" width="0.2" height="7.3"/>
						
							<rect x="42.2" y="55.2" transform="matrix(0.2275 -0.9738 0.9738 0.2275 -24.5543 86.6375)" class="st33" width="0.2" height="7.3"/>
						
							<rect x="42.2" y="55.3" transform="matrix(0.2275 -0.9738 0.9738 0.2275 -24.7411 86.7328)" class="st34" width="0.2" height="7.3"/>
						
							<rect x="42.2" y="55.5" transform="matrix(0.2275 -0.9738 0.9738 0.2275 -24.9044 86.8136)" class="st35" width="0.2" height="7.3"/>
						
							<rect x="42.1" y="55.6" transform="matrix(0.2275 -0.9738 0.9738 0.2275 -25.0867 86.8899)" class="st36" width="0.2" height="7.3"/>
						
							<rect x="42.1" y="55.8" transform="matrix(0.2275 -0.9738 0.9738 0.2275 -25.2622 86.9799)" class="st37" width="0.2" height="7.3"/>
						
							<rect x="42.1" y="55.9" transform="matrix(0.2275 -0.9738 0.9738 0.2275 -25.4445 87.0563)" class="st38" width="0.2" height="7.3"/>
						
							<rect x="42" y="56.1" transform="matrix(0.2275 -0.9738 0.9738 0.2275 -25.6312 87.1516)" class="st39" width="0.2" height="7.3"/>
						
							<rect x="42" y="56.2" transform="matrix(0.2275 -0.9738 0.9738 0.2275 -25.7946 87.2323)" class="st40" width="0.2" height="7.3"/>
						<polygon class="st41" points="45.6,60.8 45.6,60.9 38.5,59.3 38.5,59.2 38.5,59.1 						"/>
						<polygon class="st42" points="45.6,60.9 45.5,61.1 38.5,59.4 38.5,59.3 						"/>
						<polygon class="st43" points="45.5,61.1 45.5,61.2 38.5,59.6 38.5,59.4 						"/>
						<polygon class="st44" points="45.5,61.2 45.5,61.4 38.5,59.8 38.5,59.6 						"/>
						<polygon class="st45" points="45.5,61.4 45.4,61.5 38.5,59.9 38.5,59.8 						"/>
						<polygon class="st46" points="45.4,61.5 45.4,61.7 38.5,60.1 38.5,59.9 						"/>
						<polygon class="st47" points="45.4,61.7 45.3,61.8 38.5,60.3 38.5,60.1 						"/>
						<polygon class="st48" points="45.3,61.8 45.3,62 38.5,60.4 38.5,60.3 						"/>
						<polygon class="st49" points="45.3,62 45.3,62.2 38.5,60.6 38.5,60.4 						"/>
						<polygon class="st50" points="45.3,62.2 45.2,62.3 38.5,60.7 38.5,60.6 						"/>
						<polygon class="st51" points="45.2,62.3 45.2,62.5 38.5,60.9 38.5,60.7 						"/>
						<polygon class="st52" points="45.2,62.5 45.2,62.6 38.5,61.1 38.5,60.9 						"/>
						<polygon class="st53" points="45.2,62.6 45.1,62.8 38.5,61.2 38.5,61.1 						"/>
						<polygon class="st54" points="45.1,62.8 45.1,62.9 38.5,61.4 38.5,61.2 						"/>
						<polygon class="st55" points="45.1,62.9 45,63.1 38.5,61.6 38.5,61.4 						"/>
						<polygon class="st56" points="45,63.1 45,63.2 38.5,61.7 38.5,61.6 						"/>
						<polygon class="st57" points="45,63.2 45,63.4 38.5,61.9 38.5,61.7 						"/>
						<polygon class="st58" points="45,63.4 45,63.5 38.5,62 38.5,61.9 						"/>
						<polygon class="st59" points="45,63.5 44.9,63.7 38.5,62.2 38.5,62 						"/>
						<polygon class="st60" points="44.9,63.7 44.9,63.9 38.5,62.4 38.5,62.2 						"/>
						<polygon class="st61" points="44.9,63.9 44.8,64 44.8,64 38.5,62.5 38.5,62.4 						"/>
						<polygon class="st62" points="44.1,64 38.5,62.7 38.5,62.5 44.8,64 						"/>
						<polygon class="st63" points="43.4,64 38.5,62.9 38.5,62.7 44.1,64 						"/>
						<polygon class="st64" points="42.7,64 38.5,63 38.5,62.9 43.4,64 						"/>
						<polygon class="st65" points="42,64 38.5,63.2 38.5,63 42.7,64 						"/>
						<polygon class="st66" points="41.3,64 38.5,63.3 38.5,63.2 42,64 						"/>
						<polygon class="st67" points="40.6,64 38.5,63.5 38.5,63.3 41.3,64 						"/>
						<polygon class="st68" points="39.9,64 38.5,63.7 38.5,63.5 40.6,64 						"/>
						<polygon class="st69" points="39.2,64 38.5,63.8 38.5,63.7 39.9,64 						"/>
						<polygon class="st70" points="38.5,64 38.5,64 38.5,63.8 39.2,64 						"/>
						<polygon class="st71" points="38.5,64 38.5,64 38.5,64 						"/>
					</g>
				</g>
				<path class="st4" d="M43.3,57.5l-1.9-0.7c-0.2-0.1-0.3,0-0.4,0.1c0,0,0,0,0,0c-0.1,0.2,0,0.3,0.2,0.4l1.9,0.7
					c0.2,0.1,0.3,0,0.4-0.2C43.6,57.8,43.5,57.6,43.3,57.5z"/>
				<path class="st4" d="M42.7,58.8l-1.9-0.7c-0.2-0.1-0.3,0-0.4,0.2c-0.1,0.2,0,0.3,0.2,0.4c0,0,0,0,0,0l1.9,0.7
					c0.2,0.1,0.3,0,0.4-0.2c0,0,0,0,0,0C42.9,59.1,42.9,58.9,42.7,58.8C42.7,58.9,42.7,58.9,42.7,58.8z"/>
				<g>
					<defs>
						<path id="SVGID_7_" d="M53.4,62.1l0.2,0.1c0.7,0.3,1.1,1.1,0.8,1.8c-0.1,0.2-0.2,0.4-0.3,0.5c-0.1,0.1-0.3,0.3-0.5,0.3
							c-0.2,0.1-0.4,0.1-0.6,0.1c-0.2,0-0.4-0.1-0.6-0.1l-0.1-0.1C52.6,63.8,53,62.9,53.4,62.1z"/>
					</defs>
					<clipPath id="SVGID_8_">
						<use xlink:href="#SVGID_7_"  style="overflow:visible;"/>
					</clipPath>
					<g class="st72">
						<polygon class="st4" points="53.4,62.1 52.4,62.2 52.4,62.1 						"/>
						<polygon class="st4" points="53.8,62.1 52.4,62.3 52.4,62.2 53.4,62.1 						"/>
						<polygon class="st16" points="54.2,62.1 52.4,62.3 52.4,62.3 53.8,62.1 						"/>
						<polygon class="st17" points="54.6,62.1 52.4,62.4 52.4,62.3 54.2,62.1 54.6,62.1 						"/>
						<polygon class="st18" points="54.6,62.2 52.4,62.5 52.4,62.4 54.6,62.1 						"/>
						<polygon class="st19" points="54.6,62.2 52.4,62.5 52.4,62.5 54.6,62.2 						"/>
						<polygon class="st20" points="54.6,62.3 52.4,62.6 52.4,62.5 54.6,62.2 						"/>
						<polygon class="st21" points="54.6,62.3 52.4,62.7 52.4,62.6 54.6,62.3 						"/>
						<polygon class="st22" points="54.6,62.4 52.4,62.7 52.4,62.7 54.6,62.3 						"/>
						<polygon class="st23" points="54.6,62.5 52.4,62.8 52.4,62.7 54.6,62.4 						"/>
						<polygon class="st24" points="54.6,62.5 52.4,62.9 52.4,62.8 54.6,62.5 						"/>
						<polygon class="st25" points="54.6,62.6 52.4,62.9 52.4,62.9 54.6,62.5 						"/>
						<polygon class="st26" points="54.6,62.7 52.4,63 52.4,62.9 54.6,62.6 						"/>
						<polygon class="st27" points="54.6,62.7 52.4,63 52.4,63 54.6,62.7 						"/>
						<polygon class="st28" points="54.6,62.8 52.4,63.1 52.4,63 54.6,62.7 						"/>
						<polygon class="st29" points="54.6,62.8 52.4,63.2 52.4,63.1 54.6,62.8 						"/>
						<polygon class="st30" points="54.6,62.9 52.4,63.2 52.4,63.2 54.6,62.8 						"/>
						<polygon class="st31" points="54.6,63 52.4,63.3 52.4,63.2 54.6,62.9 						"/>
						<polygon class="st32" points="54.6,63 52.4,63.4 52.4,63.3 54.6,63 						"/>
						<polygon class="st33" points="54.6,63.1 52.4,63.4 52.4,63.4 54.6,63 						"/>
						<polygon class="st34" points="54.6,63.2 52.4,63.5 52.4,63.4 54.6,63.1 						"/>
						<polygon class="st35" points="54.6,63.2 52.4,63.6 52.4,63.5 54.6,63.2 						"/>
						<polygon class="st36" points="54.6,63.3 52.4,63.6 52.4,63.6 54.6,63.2 						"/>
						<polygon class="st37" points="54.6,63.4 52.4,63.7 52.4,63.6 54.6,63.3 						"/>
						<polygon class="st38" points="54.6,63.4 52.4,63.7 52.4,63.7 54.6,63.4 						"/>
						<polygon class="st39" points="54.6,63.5 52.4,63.8 52.4,63.7 54.6,63.4 						"/>
						<polygon class="st40" points="54.6,63.5 52.4,63.9 52.4,63.8 54.6,63.5 						"/>
						<polygon class="st41" points="54.6,63.6 52.4,63.9 52.4,63.9 54.6,63.5 						"/>
						<polygon class="st42" points="54.6,63.7 52.4,64 52.4,63.9 54.6,63.6 						"/>
						<polygon class="st43" points="54.6,63.7 52.4,64.1 52.4,64 54.6,63.7 						"/>
						<polygon class="st44" points="54.6,63.8 52.4,64.1 52.4,64.1 54.6,63.7 						"/>
						<polygon class="st45" points="54.6,63.9 52.4,64.2 52.4,64.1 54.6,63.8 						"/>
						<polygon class="st46" points="54.6,63.9 52.4,64.2 52.4,64.2 54.6,63.9 						"/>
						<polygon class="st47" points="54.6,64 52.4,64.3 52.4,64.2 54.6,63.9 						"/>
						<polygon class="st48" points="54.6,64.1 52.4,64.4 52.4,64.3 54.6,64 						"/>
						<polygon class="st49" points="54.6,64.1 52.4,64.4 52.4,64.4 54.6,64.1 						"/>
						<polygon class="st50" points="54.6,64.2 52.4,64.5 52.4,64.4 54.6,64.1 						"/>
						<polygon class="st51" points="54.6,64.2 52.4,64.6 52.4,64.5 54.6,64.2 						"/>
						<polygon class="st52" points="54.6,64.3 52.4,64.6 52.4,64.6 54.6,64.2 						"/>
						<polygon class="st53" points="54.6,64.4 52.4,64.7 52.4,64.6 54.6,64.3 						"/>
						<polygon class="st54" points="54.6,64.4 52.4,64.8 52.4,64.7 54.6,64.4 						"/>
						<polygon class="st55" points="54.6,64.5 52.4,64.8 52.4,64.8 54.6,64.4 						"/>
						<polygon class="st56" points="54.6,64.6 52.4,64.9 52.4,64.8 54.6,64.5 						"/>
						<polygon class="st57" points="54.6,64.6 52.4,64.9 52.4,64.9 54.6,64.6 						"/>
						<polygon class="st58" points="54.6,64.7 52.4,65 52.4,65 52.4,64.9 54.6,64.6 						"/>
						<polygon class="st59" points="54.6,64.7 52.8,65 52.4,65 54.6,64.7 						"/>
						<polygon class="st60" points="54.6,64.8 53.3,65 52.8,65 54.6,64.7 						"/>
						<polygon class="st61" points="54.6,64.9 53.7,65 53.3,65 54.6,64.8 						"/>
						<polygon class="st62" points="54.6,64.9 54.2,65 53.7,65 54.6,64.9 						"/>
						<polygon class="st63" points="54.6,65 54.6,65 54.2,65 54.6,64.9 						"/>
						<polygon class="st64" points="54.6,65 54.6,65 54.6,65 						"/>
					</g>
				</g>
				<path class="st9" d="M34.1,69.4l1.8-2c-0.1-0.8-0.1-1.7,0-2.5c0.2-0.7,0.2-1,0.6-1.3c0.6-0.4,1.2-0.8,1.9-1.1V64l4.3,1.2
					c0.3,0.5,0.2,1.1-0.2,1.5c0,0-0.1,0-0.1,0.1c0.3,0.5,0.3,1.1-0.1,1.5c0,0,0.3,0.9-0.5,1.1c0,0,0.1,0.7-0.8,1
					c0,0-0.3,0.4-1.3,0.6c-0.3,0-1.2,0.1-1.2,0.1l-1.7,1.7L34.1,69.4z"/>
				<path class="st73" d="M34.5,68.8l3.2,2.8l0.4-0.3l-3.3-2.7L34.5,68.8z"/>
				<path class="st10" d="M42.2,66.7c-0.5,0-0.9-0.1-1.4-0.2L42.2,66.7z"/>
				<path class="st10" d="M42.2,66.8L42.2,66.8c-0.5,0-1-0.1-1.4-0.2c0,0,0-0.1,0-0.1c0,0,0.1,0,0.1,0c0.4,0.1,0.9,0.2,1.4,0.2
					c0.1,0,0.1,0,0.1,0.1C42.3,66.8,42.3,66.9,42.2,66.8z"/>
				<path class="st10" d="M42,68.2c-0.5,0-0.9-0.1-1.4-0.2L42,68.2z"/>
				<path class="st10" d="M42,68.3L42,68.3c-0.5,0-1-0.1-1.4-0.3c0,0-0.1-0.1-0.1-0.1c0,0,0,0,0,0c0,0,0.1,0,0.1,0
					c0.4,0.1,0.9,0.2,1.4,0.2C42.1,68.1,42.1,68.2,42,68.3C42.1,68.2,42.1,68.2,42,68.3C42.1,68.3,42.1,68.3,42,68.3z"/>
				<path class="st10" d="M41.7,69.3c-0.5,0-0.9-0.1-1.4-0.3L41.7,69.3z"/>
				<path class="st10" d="M41.7,69.4L41.7,69.4c-0.5,0-0.9-0.1-1.4-0.2c0,0-0.1-0.1-0.1-0.1c0,0,0,0,0,0c0,0,0.1-0.1,0.1-0.1
					c0.4,0.1,0.9,0.2,1.4,0.2C41.7,69.2,41.8,69.2,41.7,69.4C41.8,69.3,41.8,69.3,41.7,69.4C41.8,69.3,41.7,69.4,41.7,69.4
					C41.7,69.4,41.7,69.4,41.7,69.4z"/>
				<path class="st10" d="M40.8,70.3c-0.5,0-0.9-0.1-1.4-0.3L40.8,70.3z"/>
				<path class="st10" d="M40.8,70.4L40.8,70.4c-0.5,0-0.9-0.1-1.4-0.2c0,0-0.1-0.1-0.1-0.1c0,0,0,0,0,0c0,0,0.1-0.1,0.1-0.1
					c0.4,0.1,0.9,0.2,1.4,0.2c0,0,0.1,0,0.1,0.1C40.9,70.3,40.9,70.3,40.8,70.4C40.9,70.3,40.9,70.4,40.8,70.4
					C40.8,70.4,40.8,70.4,40.8,70.4z"/>
				<path class="st11" d="M21.8,62c0,0-0.8-4.6-4.5-3.9c-2.5,0.5-3.4,1.8-3.1,5.5c0.2,2.6,2.1,14.1,2.8,18.8s5,5.7,7.9,3.3
					l13.4-13.4l-4.1-3.7L23.8,77L21.8,62z"/>
				<path class="st74" d="M34.7,61.3L31,59.7c-0.7,3.3-0.4,2.6-0.9,2.9c0,0-4,0.2-5-4.7L20.8,58c0,0-1.2,3.3,4,4.9
					c-0.8,2,2,5.3,5.7,1.5c2.5,3.8,4.2,0.2,3-1.1C35.3,62.3,34.7,61.3,34.7,61.3z"/>
				<path class="st9" d="M31.1,55.4l-0.2,6.2c0,0,0.3,1.4-1.1,1.2c-1.7-0.3-3.2-1.2-4.3-2.5c-1-1.2-1-1.3-0.5-2.1s2.6-6.8,2.6-6.8
					L31.1,55.4z"/>
				<path class="st73" d="M31.1,55.9l-2.6-1.6c0.6,2.5,1.4,5,2.4,7.3L31.1,55.9z"/>
				<path class="st75" d="M28.2,39c0.1-1.2-0.2-2.4-0.8-3.4c-0.9-1.7-2.9-4-5.8-3s-5.1,3.2-4,6.4c0.8,2.5,3.2,4.1,5.7,3.8
					C25.1,42.6,28.2,39,28.2,39z"/>
				<path class="st14" d="M29.2,39.5c-0.2-0.3-0.4-0.5-0.7-0.6c-0.3-0.1-0.7-0.2-1-0.1c-1.3,0.4-2.5,1.2-3.4,2.3
					c-1,1.1-1,1.9-0.5,2.4S29.2,39.5,29.2,39.5z"/>
				<path class="st9" d="M37.8,46.7c0,0-0.6,6-3.5,8.7c-1.9,1.8-3.6,1.3-6.2-2.2c-2.4-3.2-2.6-4.8-2.6-4.8l2.5-5.6
					C28,42.7,38.1,41.3,37.8,46.7z"/>
				<path class="st75" d="M36.8,45.6c-0.9,1.3-2.4,2.2-4,2.3c-1.1,0.9-2.6,1.2-4,0.7c0,0,1-1.6,0-2.1c-1.8-1-2.4,2.2-1.4,3.3
					c0.6,0.8,0.7,1.9,0.2,2.9c-0.5,0.8-1.2,2.2-1.2,2.2c-0.7-0.6-1.4-1.2-2.1-1.9c-2.6-2.7-3-9.1,1.2-12.2s8.7-0.6,9.5,0
					c2.6,0.5,4.5,2.8,4.4,5.4c0,3.9-2.8,4.9-2.8,4.9l0.8-3.2C37.5,47.8,36.9,47.9,36.8,45.6z"/>
				<path class="st10" d="M32.1,53l1.9,1l0,0c-0.1,0.1-0.2,0.1-0.2,0.2c-0.2,0.2-0.6,0.2-0.8,0.2c-0.4-0.1-0.7-0.5-0.8-0.9
					c0-0.1,0-0.3,0-0.4C32.1,53.1,32.1,53,32.1,53z"/>
				<path class="st10" d="M33.2,54.5c-0.1,0-0.2,0-0.3,0c-0.4-0.1-0.7-0.5-0.8-0.9c0-0.1,0-0.3,0-0.4c0,0,0,0,0-0.1V53l2.1,1L34,54
					c-0.1,0.1-0.2,0.2-0.3,0.2C33.6,54.4,33.4,54.4,33.2,54.5z M32.2,53.1c0,0.1,0,0.2,0,0.3c0.1,0.4,0.3,0.7,0.7,0.8
					c0.3,0.1,0.6,0,0.8-0.1l0.2-0.2L32.2,53.1z"/>
				<path class="st76" d="M36.5,50.9c0.1-0.3,0-0.7-0.3-0.7s-0.5,0.2-0.6,0.5s0,0.7,0.3,0.7S36.4,51.2,36.5,50.9z"/>
				<path class="st76" d="M33.1,50.1c0.1-0.3,0-0.7-0.3-0.7s-0.5,0.2-0.6,0.5s0,0.7,0.3,0.7S33,50.4,33.1,50.1z"/>
				<path class="st76" d="M37.3,49.6l-1.8-0.4c0,0-0.1,0-0.1-0.1c0,0,0-0.1,0-0.1c0,0,0-0.1,0.1-0.1c0,0,0.1-0.1,0.1-0.1
					c0.1,0,0.1,0,0.2,0c0.1,0,0.1,0,0.2,0l1.4,0.6C37.5,49.4,37.4,49.6,37.3,49.6z"/>
				<path class="st76" d="M31.4,48l2.3,0.7c0-0.1,0-0.1,0-0.2c0-0.1,0-0.1-0.1-0.2c0-0.1-0.1-0.1-0.2-0.2c-0.1,0-0.1-0.1-0.2-0.1
					l-1.8-0.2C31.4,47.9,31.4,48,31.4,48z"/>
				<path class="st10" d="M34.3,52.5c0,0-0.1-0.1,0-0.1c0,0,0,0,0,0l0.6-0.3l-0.2-1.8c0,0,0-0.1,0.1-0.1c0,0,0,0,0,0
					c0.1,0,0.1,0,0.1,0.1l0.2,1.9L34.3,52.5L34.3,52.5z"/>
				<path class="st13" d="M30.6,70.6h-0.2c0.1-2,0.1-4.1,0-6.1h0.2C30.7,66.5,30.7,68.6,30.6,70.6z"/>
				<path class="st4" d="M68.2,50.7c0.8,0,1.4-0.6,1.4-1.4s-0.6-1.4-1.4-1.4s-1.4,0.6-1.4,1.4l0,0C66.8,50.1,67.5,50.7,68.2,50.7z"
					/>
				<path class="st7" d="M83.5,93.9l-3.3,28.4h13.5l7.7-28.3L83.5,93.9z"/>
				<path class="st8" d="M94,120.8l-1.6-8.7l3.2-9.5h4.9L94,120.8z"/>
				<path class="st7" d="M108.5,94.1c-0.1,1.7-0.1,3.4,0,5.1c0.4,5.5-0.7,21-0.7,23.2h-12c-0.1-2.9-0.8-28.2-0.8-28.2L108.5,94.1z"
					/>
				<path class="st8" d="M83.2,96l25.2,3.2v-5.1l-25-0.2L83.2,96z"/>
				<path class="st77" d="M88,65.1c0.7-3.5-1-3.4-1.5-3.9c0,0-2.1-1.7-3.7-0.1S71.6,75.8,71.6,75.8l6,5.5l1.1-1.3l2.9-3.5l3.1-3.7
					l0.4-0.4l4.2-4.8C88.3,67.3,87.7,66.2,88,65.1z"/>
				<path class="st77" d="M90.5,65.7c0.8-2.4-0.5-5-2.9-5.8c-2.4-0.8-5,0.5-5.8,2.9c-0.8,2.4,0.5,5,2.9,5.8c0,0,0,0,0,0
					C87.1,69.4,89.7,68.1,90.5,65.7C90.5,65.7,90.5,65.7,90.5,65.7z"/>
				<path class="st78" d="M85.1,72.3c0.1-0.7,0.4-2.2,0.6-3.5l1.4-6.4c-2,3-3.8,6.1-5.4,9.3c-1.3,2.9-2.7,5.8-3,8.2l2.9-3.5l3.1-3.7
					L85.1,72.3z"/>
				<path class="st9" d="M73.1,58.8c-0.3-2.9,0.5-3.1,0.5-4.7s2.4-4.4,1.2-4.4c-0.8,0.1-1.4,0.5-1.9,1.1c-0.2-1.4,0.1-3.7-1.3-4.6
					s-1.8-0.5-2.9-0.1c-3.1,1-1.4,5.1-1.3,6.4c0,0.8,1.5,3.9,1.5,4.5l0.5,2.2L73.1,58.8z"/>
				<path class="st10" d="M71.3,50.4l-0.4-4.2L71.3,50.4z"/>
				<path class="st10" d="M71.3,50.5C71.3,50.5,71.2,50.5,71.3,50.5l-0.5-4.3c0-0.1,0-0.1,0.1-0.1c0,0,0.1,0,0.1,0.1c0,0,0,0,0,0
					L71.3,50.5C71.4,50.5,71.4,50.5,71.3,50.5L71.3,50.5z"/>
				<path class="st10" d="M69.8,50.5l-0.7-4L69.8,50.5z"/>
				<path class="st10" d="M69.8,50.6C69.8,50.6,69.8,50.5,69.8,50.6l-0.8-4.1c0-0.1,0-0.1,0.1-0.1c0.1,0,0.1,0,0.1,0.1
					c0,0,0,0,0,0.1L69.8,50.6C70,50.5,69.9,50.6,69.8,50.6C69.9,50.6,69.9,50.6,69.8,50.6L69.8,50.6z"/>
				<path class="st10" d="M68.1,50.5L67.8,48L68.1,50.5z"/>
				<path class="st10" d="M68.1,50.6C68.1,50.6,68.1,50.5,68.1,50.6l-0.4-2.5c0-0.1,0-0.1,0.1-0.1c0,0,0.1,0,0.1,0.1c0,0,0,0,0,0
					l0.3,2.4C68.2,50.5,68.2,50.6,68.1,50.6L68.1,50.6z"/>
				<path class="st10" d="M70.5,53.6c0.5-0.9,1.1-1.7,1.8-2.3L70.5,53.6z"/>
				<path class="st10" d="M70.5,53.7L70.5,53.7c0,0,0-0.1,0-0.1c0.5-0.9,1.1-1.7,1.8-2.4c0,0,0.1,0,0.1,0c0,0,0,0,0,0
					c0,0,0,0.1,0,0.1c-0.7,0.6-1.4,1.4-1.8,2.3C70.7,53.7,70.6,53.8,70.5,53.7C70.6,53.8,70.5,53.8,70.5,53.7z"/>
				<path class="st77" d="M78.5,77l-5-19.6C73.5,57.1,73.2,57,73,57l-3.8,0.7c-0.2,0-0.3,0.1-0.4,0.3c-0.1,0.1-0.2,0.3-0.1,0.5
					l2,20.4L78.5,77z"/>
				<path class="st77" d="M74.7,82.4c2.3,0,4.1-1.8,4.1-4.1c0-2.3-1.8-4.1-4.1-4.1c-2.3,0-4.1,1.8-4.1,4.1c0,0,0,0,0,0
					C70.6,80.6,72.5,82.4,74.7,82.4C74.7,82.5,74.7,82.4,74.7,82.4z"/>
				<path class="st77" d="M91.2,57.8c0,0-4.7,1.4-5.8,1.9s-1.2,2.5-1.3,3.8c-0.1,1-0.2,15.7-0.2,25c0,1.5-0.2,2.9-0.6,4.3
					c-0.1,0.3-0.1,0.6-0.1,0.9c0,0.1,0,0.2,0,0.3c0,0.1,0.1,0.2,0.2,0.3c0.1,0.1,0.2,0.1,0.3,0.2c0.1,0,0.2,0.1,0.3,0.1l23.8,0.2
					c0,0,1.1,0.2,0.8-1c-0.3-1.3-0.4-2.7-0.4-4c-0.2-9.6-0.3-25.7-0.4-26.5c-0.2-1.1,1.1-2.1-0.3-2.7l-6.4-2.3L91.2,57.8z"/>
				<path class="st78" d="M103.1,68.5c0,0,0.4,13.3,0.3,17.8c0,2.8-3.2,3.9-3.2,5.5c0,1,2.6,0.4,3.7,0c1.4-0.5,2.9-0.4,4.2,0.3
					l-0.7-24.3L103.1,68.5z"/>
				<path class="st9" d="M92.2,53.1l1.4,7.4l0.5,0.5c0,0-0.2,0.2,0.4-0.3c1.3-1.3,4.9-3,4.8-3.5c-0.2-0.8-0.8-5.5-0.8-5.5L92.2,53.1
					z"/>
				<path class="st79" d="M92.2,53.6h3.7L91.8,60L92.2,53.6z"/>
				<path class="st9" d="M103.1,50.4c1.1-2.7-2.2-3.1-2.8-3.1s-0.2-4.4-0.2-4.4s-5.9-3-7.6-2.3c0,0-2.4,5-3.5,8.2s-0.6,5.1,0.6,5.5
					c1.6,0.8,3.4,1,5.1,0.7c1.7-0.5,3.2-1.4,4.3-2.8H99C99,52.3,102,52.9,103.1,50.4z"/>
				<path class="st80" d="M101.5,52.8c2.1-1.5,3.9-3.2,4.3-5.3c0.7-4.3-1.7-5.3-1.7-5.3c1.6-3-2-4.6-3.9-5.2
					c-6.2-2-9.9,0.2-10.2,2.6c-0.1,0.9,0.1,1.9,0.6,2.7c0,0.7,0.1,1.5,0.2,2.2l1-1.9c0.2,0.3,0.5,0.5,0.8,0.6
					c2.2,0.9,4.7,0.8,6.8-0.2c-1.3,1.5-1.3,5-1.3,5.7c0.1,1,0.8,0.3,0.8,0.3c0.6-1,3-1.8,3.6,0.3c0.5,1.6-3.8,3.3-3.8,3.3l0.5,2.6
					c0.8,0.2,0.7-0.7,0.9-0.4s0.7,0.5,0.8-0.4C100.8,53.7,101.1,53.2,101.5,52.8L101.5,52.8z"/>
				<path class="st76" d="M94.8,47.9c0.2-0.4,0.2-0.8-0.1-0.9s-0.6,0.1-0.8,0.5s-0.2,0.8,0.1,0.9S94.6,48.3,94.8,47.9z"/>
				<path class="st76" d="M91.4,46.1c0.2-0.4,0.2-0.8-0.1-0.9s-0.6,0.1-0.8,0.5s-0.2,0.8,0.1,0.9S91.2,46.5,91.4,46.1z"/>
				<path class="st10" d="M90.8,49.1C90.8,49.1,90.8,49.1,90.8,49.1c-0.4-0.4-0.3-0.7-0.2-0.8s0.4-0.2,0.8-0.1c0.1,0,0.2,0,0.2,0
					c0.2-0.1,0.1-0.5,0.1-0.7c0-0.1,0-0.1,0.1-0.1c0.1,0,0.1,0,0.1,0.1c0,0.1,0.1,0.6-0.1,0.8c-0.1,0.1-0.3,0.1-0.4,0.1
					c-0.3-0.1-0.5,0-0.6,0.1S90.8,48.8,90.8,49.1C90.9,49,90.9,49.1,90.8,49.1L90.8,49.1z"/>
				<path class="st10" d="M90.7,49.8L90.7,49.8l1.6,0.6l0,0l0,0c0,0,0,0,0,0l0,0l0,0c-0.2,0.1-0.3,0.2-0.5,0.3
					c-0.2,0.1-0.4,0.1-0.6,0.1c-0.2,0-0.3-0.1-0.4-0.2c-0.1-0.3-0.2-0.5-0.2-0.8l0,0l0,0l0,0l0,0L90.7,49.8z"/>
				<path class="st10" d="M91.3,51L91.3,51c-0.2,0-0.4-0.1-0.5-0.2c-0.2-0.3-0.2-0.6-0.2-0.9c0,0,0-0.1,0-0.1c0,0,0,0,0-0.1h0.1h0.1
					l1.6,0.6h0.1c0,0,0,0.1,0,0.1c0,0,0,0.1,0,0.1c0,0,0,0,0,0.1c-0.2,0.1-0.4,0.2-0.5,0.3C91.7,50.9,91.5,51,91.3,51z M90.7,49.8
					L90.7,49.8c0,0.3,0,0.6,0.2,0.8c0.1,0.1,0.2,0.2,0.4,0.2c0.2,0,0.4,0,0.6-0.1c0.2-0.1,0.4-0.2,0.5-0.3l0,0L90.7,49.8L90.7,49.8
					L90.7,49.8L90.7,49.8z"/>
				<path class="st76" d="M96.4,46.9L96.4,46.9c-0.1,0.2-0.2,0.2-0.4,0.2c-0.1,0-0.2,0-0.3-0.1L94,45.8c-0.1-0.1-0.1-0.1-0.2-0.2
					c0-0.1,0-0.2,0-0.3c0-0.1,0.1-0.1,0.1-0.1c0.1,0,0.1-0.1,0.2-0.1c0.1,0,0.2,0,0.3,0.1l1.7,1.2c0,0,0.1,0.1,0.1,0.1
					c0,0,0.1,0.1,0.1,0.2c0,0.1,0,0.1,0,0.2C96.4,46.8,96.4,46.9,96.4,46.9z"/>
				<path class="st76" d="M90.6,43.5l2.1,0.4c0.1,0,0.1,0,0.2,0.1c0,0,0.1,0.1,0.1,0.1c0,0.1,0,0.1,0,0.2c0,0.1,0,0.1,0,0.2
					c0,0.1-0.1,0.2-0.2,0.2c-0.1,0.1-0.2,0.1-0.3,0.1l-2.1-0.3c-0.1,0-0.2-0.1-0.3-0.2C90,44.2,90,44,90,43.9v-0.1
					c0-0.1,0-0.1,0.1-0.2c0,0,0.1-0.1,0.1-0.1c0,0,0.1-0.1,0.2-0.1C90.4,43.5,90.5,43.5,90.6,43.5z"/>
				<path class="st14" d="M100.6,69.1l-15.2,1.3c-0.5,0-0.8,0.4-0.8,0.9c0,0,0,0,0,0l1.7,19.2c0,0.5,0.5,0.8,0.9,0.8l15.2-1.3
					c0.5,0,0.8-0.4,0.8-0.9c0,0,0,0,0,0l-1.7-19.2C101.5,69.4,101.1,69.1,100.6,69.1C100.6,69.1,100.6,69.1,100.6,69.1z"/>
				<path class="st4" d="M87,73.1c-0.2,0-0.4-0.2-0.4-0.4c0-0.2,0.1-0.4,0.4-0.4c0,0,0,0,0,0l6.3-0.6c0.2,0,0.4,0.1,0.4,0.4
					c0,0.2-0.1,0.4-0.4,0.4c0,0,0,0,0,0L87,73.1z"/>
				<path class="st4" d="M87.2,75.3c-0.2,0-0.4-0.2-0.4-0.4c0-0.2,0.1-0.4,0.4-0.4l2.8-0.2c0.2,0,0.4,0.1,0.4,0.4
					c0,0.2-0.1,0.4-0.4,0.4c0,0,0,0,0,0L87.2,75.3L87.2,75.3z"/>
				<path class="st77" d="M107.9,64.3c-2.3-2.9-3.4-1.5-4.2-1.5c0,0-2.8,0.5-2.6,2.9c0.2,2.4,4.3,19.2,4.3,19.2l8.6-0.7l-0.4-2.3
					l-0.8-4.7l-0.9-5.1l-0.1-0.6l-1-6.7C109.9,65.4,108.6,65.2,107.9,64.3z"/>
				<path class="st77" d="M108.5,69.3c2.3-1.4,3-4.4,1.6-6.7c-1.4-2.3-4.4-3-6.7-1.6c-2.3,1.4-3,4.4-1.6,6.7c0,0,0,0,0,0
					C103.2,70,106.2,70.7,108.5,69.3C108.5,69.3,108.5,69.3,108.5,69.3z"/>
				<path class="st9" d="M87.8,85.5l-5.4,0.4l-1.3,3l0.4,3.7c0.6-0.3,1-1,1-1.7c0.1-1.3,4.4-0.4,5.6-1.8"/>
				<path class="st77" d="M108.6,80.6l-21.1,4c-0.1,0-0.2,0.1-0.3,0.2c-0.1,0.1-0.1,0.2-0.1,0.4l0.5,4c0,0.2,0.1,0.4,0.3,0.5
					c0.1,0.1,0.3,0.2,0.5,0.2l21.7-0.9L108.6,80.6z"/>
				<path class="st77" d="M109.8,89c2.4,0,4.3-1.9,4.3-4.3s-1.9-4.3-4.3-4.3s-4.3,1.9-4.3,4.3l0,0C105.5,87.1,107.4,89,109.8,89
					C109.8,89.1,109.8,89.1,109.8,89z"/>
				<path class="st76" d="M94.2,49.3c-0.1,0-0.3,0-0.4-0.1c-0.7-0.4-1-1.4-0.5-2.1c0.2-0.4,0.5-0.8,0.8-1c0.3-0.2,0.7-0.2,1.1-0.1
					c0.3,0.2,0.6,0.5,0.7,0.9c0.1,0.4,0.1,0.9-0.1,1.3l0,0c-0.2,0.4-0.5,0.8-0.8,1C94.7,49.3,94.4,49.3,94.2,49.3z M94.7,46.1
					c-0.2,0-0.4,0.1-0.6,0.2c-0.4,0.2-0.6,0.5-0.8,0.9c-0.4,0.7-0.2,1.5,0.4,1.9c0.3,0.1,0.7,0.1,0.9-0.1c0.3-0.2,0.6-0.5,0.8-0.9
					l0,0c0.2-0.4,0.2-0.8,0.1-1.1c-0.1-0.3-0.3-0.6-0.6-0.8C95,46.2,94.9,46.2,94.7,46.1z"/>
				<path class="st76" d="M90.6,47.8c-0.1,0-0.3,0-0.4-0.1c-0.3-0.2-0.6-0.5-0.7-0.9c-0.1-0.4,0-0.9,0.1-1.3c0.2-0.4,0.5-0.8,0.8-1
					c0.5-0.3,1.2-0.2,1.6,0.3c0.1,0.1,0.1,0.3,0.2,0.4c0.1,0.4,0,0.9-0.1,1.3l0,0c-0.2,0.4-0.5,0.8-0.8,1
					C91,47.7,90.8,47.8,90.6,47.8z M91.1,44.6c-0.2,0-0.4,0.1-0.6,0.2c-0.7,0.4-1,1.2-0.9,2c0.1,0.5,0.6,0.9,1.2,0.8
					c0.1,0,0.2-0.1,0.3-0.1c0.3-0.2,0.6-0.5,0.8-0.9l0,0c0.1-0.4,0.2-0.7,0.1-1.1c-0.1-0.3-0.3-0.6-0.6-0.8
					C91.3,44.6,91.2,44.6,91.1,44.6z"/>
				<path class="st76" d="M93.3,47.2c-0.3-0.3-0.8-0.5-1.3-0.5v-0.2c0.5,0,1,0.2,1.4,0.6L93.3,47.2z"/>
				<rect x="95.5" y="48.3" class="st76" width="3.8" height="0.2"/>
				<path class="st81" d="M94.8,58.7c3.5-2.2,4.2-3.6,4.2-3.6l1.4,2.9l-4.1,3.1c-0.2-0.4-0.4-0.9-0.6-1.3l-1.2,0.9L94.8,58.7z
					 M90.6,58l1.5-1.1c0,0-0.1,1.1,1.4,1.8l0.1,2l-0.8-0.7l-1,1.3L90.6,58z"/>
				<path class="st5" d="M94.6,60.7l0.3-2.1l0.9,1.2L94.6,60.7z"/>
				<path class="st5" d="M93.5,58.6l-0.6,1.2l0.8,0.7L93.5,58.6z"/>
				<path class="st5" d="M93.7,60.5l0.5,5.9c0,0.1,0,0.2,0.1,0.2c0.1,0.1,0.1,0.1,0.2,0.1c0.1,0,0.1,0,0.2,0c0.1,0,0.1,0,0.1-0.1
					c0,0,0.1-0.1,0.1-0.1c0-0.1,0-0.1,0-0.2l-0.3-5.7l-0.4,0.3L93.7,60.5z"/>
				<path class="st5" d="M95.8,63.1c0.3,0,0.5-0.2,0.5-0.5c0-0.2-0.2-0.5-0.4-0.5c0,0,0,0,0,0c-0.3,0-0.5,0.2-0.5,0.5
					C95.3,62.9,95.5,63.1,95.8,63.1z"/>
				<path class="st5" d="M95.9,65.8c0.3,0,0.5-0.2,0.5-0.5c0-0.2-0.2-0.5-0.4-0.5c0,0,0,0,0,0c-0.3,0-0.5,0.2-0.5,0.5
					C95.5,65.6,95.7,65.8,95.9,65.8z"/>
			</g>
		</g>
	</g>
</g>
</svg>
