<?xml version="1.0" encoding="utf-8"?>
<!-- Generator: Adobe Illustrator 24.2.3, SVG Export Plug-In . SVG Version: 6.00 Build 0)  -->
<svg version="1.1" id="Capa_1" xmlns="http://www.w3.org/2000/svg" xmlns:xlink="http://www.w3.org/1999/xlink" x="0px" y="0px"
	 viewBox="0 0 148.1 122" style="enable-background:new 0 0 148.1 122;" xml:space="preserve">
<style type="text/css">
	.st0{fill:#1D85BF;}
	.st1{fill:#F2F2F2;}
	.st2{fill:#2F2E41;}
	.st3{fill:#FFB8B8;}
	.st4{opacity:0.2;enable-background:new    ;}
	.st5{fill:#3F3D56;}
	.st6{fill:#FFE779;}
	.st7{fill:#A0616A;}
	.st8{fill:#5A74CA;}
	.st9{opacity:0.1;enable-background:new    ;}
</style>
<g id="Grupo_116">
	<g id="Grupo_108">
		<g id="Grupo_106">
			<circle id="Elipse_14" class="st0" cx="81.5" cy="65.5" r="56.5"/>
			<g id="Grupo_201">
				<path id="Trazado_482" class="st1" d="M133.7,54.8l-2.2,9.9l-1.8,8l-1.4,6.4l-1.8,8l-5.8,26.3L48.2,80.1l-5.3-2.5l-6.7-3.1
					L30.8,72l-6.4-3l3.6-5.2l3-4.4l3.8-5.6l3-4.4L71.8,0l36,31.9l6.4,5.7l5.1,4.5l6.4,5.7L133.7,54.8z"/>
				<path id="Trazado_483" class="st2" d="M28.4,84c-4.8-2.7-7.9-6.4-9-11c-0.8-3.8-0.6-7.7,0.7-11.3c0.9-3.1,2.4-5.9,4.2-8.5
					c9.9-13.8,10.7-22.9,9.8-28c-1.1-5.6-4.6-8-4.6-8l0.1-0.2c0,0,3.6,2.4,4.8,8.2c0.6,3.8,0.3,7.6-0.9,11.3
					c-1.5,5.2-4.5,10.9-8.9,17c-1.8,2.6-3.2,5.4-4.2,8.5c-2.1,6.8-2.4,16.1,8.1,22L28.4,84z"/>
				<path id="Trazado_484" class="st2" d="M30.7,84c4.8-2.7,7.9-6.4,9-11c0.8-3.8,0.5-7.7-0.7-11.3c-1-3-2.4-5.9-4.2-8.5
					C24.9,39.3,24,30.2,25,25.1c1.1-5.6,4.6-8,4.6-8l-0.1-0.2c0,0-3.6,2.4-4.7,8.2c-0.6,3.8-0.3,7.6,0.9,11.2
					c1.5,5.2,4.5,10.9,8.9,17c1.8,2.6,3.2,5.4,4.2,8.5c2.1,6.8,2.4,16.1-8.1,22L30.7,84z"/>
				<path id="Trazado_485" class="st2" d="M136.3,72.3c-4.8-2.7-7.9-6.4-9-11c-0.8-3.8-0.6-7.7,0.7-11.3c1-3.1,2.4-5.9,4.2-8.5
					c9.8-13.9,10.8-22.9,9.8-28c-1.1-5.7-4.6-8-4.6-8l0.1-0.2c0,0,3.6,2.4,4.7,8.2c0.6,3.8,0.3,7.6-0.9,11.2
					c-1.5,5.2-4.5,10.9-8.9,17.1c-1.8,2.6-3.2,5.4-4.2,8.5c-2.1,6.8-2.4,16.1,8.1,22L136.3,72.3z"/>
				<path id="Trazado_486" class="st2" d="M138.6,72.3c4.8-2.7,7.9-6.4,9-11c0.8-3.8,0.6-7.7-0.7-11.3c-1-3.1-2.4-5.9-4.2-8.5
					c-9.9-13.8-10.7-22.9-9.7-28c1.1-5.7,4.6-8,4.6-8l-0.1-0.2c0,0-3.6,2.4-4.7,8.2c-0.6,3.8-0.3,7.6,0.9,11.2
					c1.5,5.2,4.5,10.9,8.9,17.1c1.8,2.6,3.2,5.4,4.2,8.5c2.1,6.8,2.4,16.1-8.1,22L138.6,72.3z"/>
				<path id="Trazado_487" class="st2" d="M65,41.7c-3.6-6.2-10.8-6.4-10.8-6.4s-7-0.9-11.5,8.5c-4.2,8.7-10,17.2-0.9,19.2l1.6-5.1
					l1,5.5c1.3,0.1,2.6,0.1,3.9,0.1c9.7-0.3,18.9,0.1,18.6-3.4C66.4,55.3,68.5,47.6,65,41.7z"/>
				<path id="Trazado_488" class="st3" d="M50,54.5c1.3,3.1,2.2,6.4,2.5,9.8l10.1-0.6c-2.3-3.3-3.1-7.4-2.2-11.3L50,54.5z"/>
				<path id="Trazado_489" class="st4" d="M50,54.5c1.3,3.1,2.2,6.4,2.5,9.8l10.1-0.6c-2.3-3.3-3.1-7.4-2.2-11.3L50,54.5z"/>
				<path id="Trazado_490" class="st3" d="M3.3,107.3c0,0-5.2,2.8-2.6,5.2s6.1-3.2,6.1-3.2L3.3,107.3z"/>
				<path id="Trazado_491" class="st2" d="M67,99.2l-0.1,3.8l-0.2,8.2l0,0v2.4H33.4l1.4-7.5l0,0l1.2-6.7l0.5-3l0,0l27.3-3.8L67,99.2
					z"/>
				<path id="Trazado_492" class="st5" d="M67,99.2l-0.1,3.8c-9.7-0.2-24.7-2.6-31-3.6l0.5-3l27.4-3.8L67,99.2z"/>
				<circle id="Elipse_90" class="st3" cx="54.9" cy="49.3" r="7.9"/>
				<path id="Trazado_493" class="st6" d="M70,103.5c0,0,0.9,8.5-4.7,7.9l-0.9-8.5l-5-5l-14.2-0.3l-10.4,9.8c0,0-1.3-13.2,0-14.2
					s5,0,5,0v-1.6l-8.5-17.3c0,0,5-10.4,9.1-10.7l5.3-0.3c0,0,1.9-0.9,1.9-1.2s-0.3-2.8,1.3-2.2c0,0,0.1-3.2,1.8-2.2
					c0,0,5.2,4.1,10.5,0.2c0,0,2.5-0.5,2.2,0.8s0,2.2,0.6,2.2s3.5,0.9,3.5,1.6c0,0.1,0.2,1.4,0.5,3.4l0,0c1.2,7.2,3.9,23,3.9,23
					S74.7,92.8,70,103.5z"/>
				<path id="Trazado_494" class="st6" d="M33.5,72.6l-2.2,1.6L11.2,100l-10.7,8.5c0,0,6-0.9,4.7,4.1L42,91.5L33.5,72.6z"/>
				<path id="Trazado_495" class="st5" d="M68,65.6L68,65.6c-0.4,2.5-14,1.9-15.9,1.9c-1.9,0.1-3.8-0.5-5.3-1.6
					c-1-0.5-1.5-1.7-1-2.8v-0.1c0,0,1.6-1.2,1.6-1.5s-0.3-2.8,1.3-2.2c0,0,0.1-3.2,1.8-2.2c0,0,5.5,4.4,10.8,0.5
					c0,0,2.5-0.5,2.2,0.8s0,2.2,0.6,2.2c0.6,0,3.5,1,3.5,1.6C67.5,62.4,67.7,63.7,68,65.6z"/>
				<path id="Trazado_496" class="st3" d="M66.4,53.9c0,0-2.5-5.3-5-2.8s2.8,6.3,2.8,6.3L66.4,53.9z"/>
				<path id="Trazado_497" class="st6" d="M66.4,52.6c0,0-3.9,4.9-5.1,5.3c0,0,3.5,13.9,7.9,17.7l2.5,12.9c0,0,10.7-4.4,8.2-11.6
					l-0.1-0.2c-2.1-6-5-11.7-8.6-17L66.4,52.6z"/>
				<path id="Trazado_498" class="st4" d="M64.3,67.2l7.7,21.3l-2.8-12.9L64.3,67.2z"/>
				<path id="Trazado_499" class="st2" d="M63.4,41.1l-7.1-3.7l-9.8,1.5l-2,9l5.1-0.2l1.4-3.3v3.2l2.3-0.1l1.3-5.2l0.8,5.6l8.3-0.2
					L63.4,41.1z"/>
				<path id="Trazado_500" class="st7" d="M130.6,89.5l4,14.4c0,0-0.8,12.8,3,10.3s2.5-13.3,2.5-13.3l-2.3-12.9L130.6,89.5z"/>
				<path id="Trazado_501" class="st8" d="M132.7,49.1l3.3,3.3v15.9c0,0,2,2.9,1.6,3.7s-0.8,0.8-0.4,1.4s0.8,1,0.4,1.4
					c-0.4,0.5-0.4,1.2,0,1.8c0.4,0.4,1.2,1,0.6,1.6s-1.4,0.2-0.6,2.3s2.2,2.8,1.8,3.5c-0.3,0.9-0.4,1.8-0.4,2.7l-8.4,1.2l-1.8-22.2
					L132.7,49.1z"/>
				<path id="Trazado_502" class="st5" d="M139.4,86.5l-9.8,0.4l0.4,4.1l8.6-1.6L139.4,86.5z"/>
				<path id="Trazado_503" class="st7" d="M112.4,28.6l-1.2,11.8l12,1.8l0.9-6.8l0.9-6.8L112.4,28.6z"/>
				<path id="Trazado_504" class="st9" d="M112.4,28.5l-1.2,11.8l12,1.8l0.9-6.8l0.9-6.8L112.4,28.5z"/>
				<path id="Trazado_505" class="st7" d="M86.4,84.6l6.7,14.3c0,0,1.2,6.7,2.9,6.9s3.5-6.9,3.5-6.9l-2.3-3.7l-2.8-10.6H86.4z"/>
				<path id="Trazado_506" class="st2" d="M132.1,113.8H94.4c0.3-4.7,0.5-7.6,0.5-7.6l0.5-0.8l2.4-3.8l1.7-2.7l0.6-1l0.2-0.3
					l2.4-0.4l24.5-4.5c0.4,1.8,1,3.6,1.7,5.3c0.2,0.4,0.4,0.8,0.5,1.1c0.6,1.2,1.3,2.3,2.3,3.2c0.3,0.4,0.4,1,0.4,1.5
					C132.4,107,132.4,110.4,132.1,113.8z"/>
				<circle id="Elipse_91" class="st7" cx="119" cy="23" r="9.4"/>
				<path id="Trazado_507" class="st8" d="M98,42.2l-1.4-0.8c0,0-6.1,4.1-8,13.3s-3.3,11.6-3.3,11.6s-2,0.4-0.6,1.8s1.4,1.2,0.2,2
					s-2-0.8-1.2,0.8s1.8,1.1,1,2.1s-2.2,1-1.4,1.8s-0.8,2.5,0.2,3.3s1.4,1,1.4,2.3c0,0.8,0.1,1.6,0.4,2.3h10.2c0,0-2-3.7-1.4-4.5
					s0.8-1.6,0.4-2s-1.6,0.4-0.4-0.6s1.6-0.4,1.2-1.6s-1.2-0.6-0.4-1.2s1.4-0.4,1-1s-1.2-0.6-0.4-1s1.4,0,1.2-1s-0.4-0.6,0-1
					s4.5-13.7,4.5-14.1S98,42.2,98,42.2z"/>
				<path id="Trazado_508" class="st5" d="M96.1,82l-12.3,0.8l3.1,2.9l8.6,0.2L96.1,82z"/>
				<path id="Trazado_509" class="st5" d="M99.6,96.7l-2.6,4.7c0,0,7.7,1,10.4,2s9.8,2.3,9.8,2.3l1.8-6.9L99.6,96.7z"/>
				<path id="Trazado_510" class="st5" d="M121.9,98.9l2.2,6.5l8.6-1.8l-1-6.1L121.9,98.9z"/>
				<path id="Trazado_511" class="st8" d="M125.5,35.6c0,0-0.6-0.4-2,0.4s-5.9,1.2-8-1.2s-3.7-4.3-4.3-3.9s-1,4.9-1,4.9l-2,1.6
					l-11.5,4.1l1,26.5l1.7,6.1c0,0-1.4,4.7,0.4,7.4s-1,3.7-1,3.7s-0.6,0.8-0.2,2.7s-0.4,9.2-0.4,9.2s16.7,7.4,34.1,1l-2-7.4l-1-16.7
					c0,0,1-2.7,0.8-3.9s5.9-17.7,5.9-17.7s-1-8.2-6.1-10s-5.9-3.5-5.9-3.5S126.4,36.3,125.5,35.6z"/>
				<path id="Trazado_512" class="st2" d="M109.5,24.2c-0.6-0.9-0.8-2-0.6-3c0.2-0.9,0.3-1.8,0.3-2.7c0.4-1.4,0.9-2.7,1.6-4
					c0.8-1.4,0.4-2,2.9-2.5s1.5-3.7,8-0.2c0.4,0.6,1.2,0.9,2,0.8c1.3-0.3,1.8,1.6,1.8,1.6s0.9-0.5,1.2,0.2s2.8-0.4,2.8,4.6
					c-0.1,3.4-1.1,6.7-2.7,9.6c0,0,0.2-8.5-4.3-9.4s-9.3-3.4-10.4-0.1C111.4,20.9,110.6,22.6,109.5,24.2z"/>
				<ellipse id="Elipse_92" class="st7" cx="126.8" cy="25.1" rx="0.9" ry="1.2"/>
			</g>
		</g>
	</g>
</g>
</svg>
