<svg id="Capa_1" data-name="Capa 1" xmlns="http://www.w3.org/2000/svg" viewBox="0 0 161.2 140.45"><defs><style>.cls-1{fill:#efeded;}.cls-2{fill:#2f4457;}.cls-3{fill:#a67cd8;}.cls-4{fill:#fefefe;}.cls-5{fill:#fff;isolation:isolate;opacity:0.92;}.cls-6{fill:#fca629;}</style></defs><g id="Grupo_588" data-name="Grupo 588"><g id="Grupo_587" data-name="Grupo 587"><path id="Trazado_868" data-name="Trazado 868" class="cls-1" d="M66.7,33.6c3-3,5.72-6.16,8.9-8.7a36,36,0,0,1,28.33-7.67c12.19,1.67,21.37,8.07,27.64,18.61a36,36,0,0,1,5.09,18.1,2.29,2.29,0,0,0,1.6,2.32c13.21,6.38,20.76,16.9,21.36,31.57s-6.07,26-18.79,33.35a35.19,35.19,0,0,1-18,4.46q-42.24,0-84.49,0c-16.31,0-29.48-9.44-35-24.83-4.51-12.59-.48-28.56,9.32-37.64A36.48,36.48,0,0,1,30,54c1-.22,1.18-.65,1.22-1.57A23,23,0,0,1,65.88,33.16C66.26,33.38,66.65,33.57,66.7,33.6Z"/></g><g id="Grupo_586" data-name="Grupo 586"><path id="Trazado_833" data-name="Trazado 833" class="cls-2" d="M35.55,122.21a9.48,9.48,0,0,1-1-4.87q0-31.91,0-63.81a7.69,7.69,0,0,1,7.28-8.08,5.21,5.21,0,0,1,.79,0H134a7.69,7.69,0,0,1,8.06,7.3,5.21,5.21,0,0,1,0,.79q0,31.89,0,63.8a9.53,9.53,0,0,1-1,4.87h3.12a3.42,3.42,0,0,1,1.23.13,1.92,1.92,0,0,1,1.45,1.91,2,2,0,0,1-1.73,1.77,6.17,6.17,0,0,1-1,0h-127c-1.72,0-2.69-.69-2.69-1.91s1-1.94,2.69-1.94H35.55Zm52.72,0h45.48q4.42,0,4.42-4.41V53.9c0-3.17-1.45-4.6-4.65-4.6H43.05c-3.24,0-4.67,1.42-4.67,4.68v63.8q0,4.43,4.41,4.42Z"/><path id="Trazado_834" data-name="Trazado 834" class="cls-3" d="M80.6,130.84H99.4c1.3,0,2.11.57,2.3,1.58a1.91,1.91,0,0,1-1.52,2.24,2.45,2.45,0,0,1-.54,0c-4.73,0-9.47,0-14.2,0-.74,0-1,.17-1,.94s.24,1,1,1c2.49-.05,5,0,7.48,0a1.93,1.93,0,0,1,.88,3.7,1.81,1.81,0,0,1-.8.15H69.16a1.92,1.92,0,0,1-.16-3.83h.12c2.24,0,4.48-.05,6.71,0,.83,0,.9-.3.93-1s-.21-1-1-.95c-4.7,0-9.4,0-14.1,0-1.42,0-2.27-.83-2.18-2.07a2,2,0,0,1,2.12-1.78h19Z"/><path id="Trazado_835" data-name="Trazado 835" class="cls-2" d="M126.44,36a2,2,0,0,1-1.6,2,1.9,1.9,0,0,1-2.18-1.3,4,4,0,0,0-2.77-2.68,2.94,2.94,0,0,0-.84-.12c-2.49,0-5,0-7.47,0-1.35,0-2.17-.71-2.2-1.87a2,2,0,0,1,1.9-2h.3c2.37,0,4.74-.08,7.1,0,3.4.15,5.9,1.29,7.47,4.93A9.34,9.34,0,0,1,126.44,36Z"/><path id="Trazado_836" data-name="Trazado 836" class="cls-3" d="M109.29,134.7c-1.25,0-2.49,0-3.74,0a1.93,1.93,0,0,1,0-3.85c2.56,0,5.11,0,7.67,0a1.83,1.83,0,0,1,1.92,1.71v.23a1.79,1.79,0,0,1-1.67,1.9h-.25c-1.31,0-2.62,0-3.93,0Z"/><path id="Trazado_837" data-name="Trazado 837" class="cls-3" d="M51.77,134.69c-1.27,0-2.55,0-3.83,0A1.78,1.78,0,0,1,46.06,133v-.18a1.82,1.82,0,0,1,1.64-2,1.76,1.76,0,0,1,.23,0q3.87,0,7.76,0a1.92,1.92,0,1,1-.08,3.84c-1.28,0-2.56,0-3.84,0Z"/><path id="Trazado_838" data-name="Trazado 838" class="cls-2" d="M38.39,34H34.65a1.92,1.92,0,0,1-.22-3.84h.17q3.78,0,7.56,0A1.92,1.92,0,0,1,42.29,34h-3.9Z"/><path id="Trazado_839" data-name="Trazado 839" class="cls-2" d="M53.7,34H50a1.92,1.92,0,0,1-.12-3.84h0c2.55,0,5.11,0,7.66,0a1.92,1.92,0,0,1,0,3.84C56.25,34,55,34,53.7,34Z"/><path id="Trazado_840" data-name="Trazado 840" class="cls-2" d="M69.09,34H65.35a1.92,1.92,0,0,1-.21-3.84h.16q3.78,0,7.57,0A1.92,1.92,0,0,1,73,34h-3.9Z"/><path id="Trazado_841" data-name="Trazado 841" class="cls-2" d="M84.45,34H80.72a1.92,1.92,0,0,1-.23-3.84h.17q3.78,0,7.56,0A1.92,1.92,0,1,1,88.35,34h-3.9Z"/><path id="Trazado_842" data-name="Trazado 842" class="cls-2" d="M99.74,34H96a1.92,1.92,0,1,1,0-3.84c2.55,0,5.11,0,7.66,0a1.92,1.92,0,0,1,0,3.84H99.74Z"/><path id="Trazado_843" data-name="Trazado 843" class="cls-2" d="M23,45c0,1.21,0,2.43,0,3.64a1.89,1.89,0,0,1-1.79,2h-.17a1.87,1.87,0,0,1-1.87-1.88v-.12q0-3.78,0-7.56A1.91,1.91,0,0,1,23,41a.27.27,0,0,1,0,.09C23.05,42.43,23,43.74,23,45Z"/><path id="Trazado_844" data-name="Trazado 844" class="cls-2" d="M19.19,90.94c0-1.21,0-2.42,0-3.64A1.93,1.93,0,0,1,23,87a1.63,1.63,0,0,1,0,.38c0,2.42,0,4.85,0,7.27a1.93,1.93,0,1,1-3.84.39,2.06,2.06,0,0,1,0-.43c0-.61,0-1.22,0-1.82Z"/><path id="Trazado_845" data-name="Trazado 845" class="cls-2" d="M19.19,60.23c0-1.18,0-2.36,0-3.54a1.93,1.93,0,0,1,3.83-.5,2.36,2.36,0,0,1,0,.46v7.27a1.93,1.93,0,0,1-3.84.38,1.55,1.55,0,0,1,0-.43C19.18,62.65,19.19,61.45,19.19,60.23Z"/><path id="Trazado_846" data-name="Trazado 846" class="cls-2" d="M19.19,75.59c0-1.18,0-2.36,0-3.54A1.93,1.93,0,0,1,23,71.53,1.85,1.85,0,0,1,23,72q0,3.63,0,7.27a1.93,1.93,0,0,1-3.84.39,2.16,2.16,0,0,1,0-.44c0-.6,0-1.21,0-1.82Z"/><path id="Trazado_847" data-name="Trazado 847" class="cls-2" d="M19.18,103.1a2.59,2.59,0,0,1,.33-1.66,1.81,1.81,0,0,1,2.08-.79,1.68,1.68,0,0,1,1.41,1.7,4.61,4.61,0,0,0,1.76,3.93,1.83,1.83,0,0,1,.17,2.58h0a1.89,1.89,0,0,1-2.65.3A7.55,7.55,0,0,1,19.18,103.1Z"/><path id="Trazado_848" data-name="Trazado 848" class="cls-2" d="M26.39,30.11c1.44-.05,2.35.69,2.4,1.83a1.88,1.88,0,0,1-1.74,2,.81.81,0,0,1-.22,0,4.11,4.11,0,0,0-3.15,1.74,1.9,1.9,0,0,1-2.61.68,1.1,1.1,0,0,1-.21-.14,1.93,1.93,0,0,1-.36-2.73l.07-.08A7.58,7.58,0,0,1,26.39,30.11Z"/><path id="Trazado_849" data-name="Trazado 849" class="cls-2" d="M152.08,126.06h-1.43a1.91,1.91,0,0,1-.23-3.81,23.41,23.41,0,0,1,3.35,0,1.91,1.91,0,0,1-.16,3.8c-.51,0-1,0-1.53,0Z"/><path id="Trazado_850" data-name="Trazado 850" class="cls-2" d="M9.07,126.06H7.63a1.91,1.91,0,0,1-.14-3.82,25.18,25.18,0,0,1,3.25,0,1.91,1.91,0,0,1-.14,3.82C10.09,126.08,9.58,126.06,9.07,126.06Z"/><path id="Trazado_851" data-name="Trazado 851" class="cls-2" d="M153.53,22.44a2.86,2.86,0,0,1-2.88-2.82h0a2.88,2.88,0,0,1,5.76-.11v.1a2.85,2.85,0,0,1-2.87,2.84Zm1.4-2.9a1.41,1.41,0,1,0-2.82,0,.2.2,0,0,0,0,.07,1.41,1.41,0,0,0,2.81-.11Z"/><path id="Trazado_852" data-name="Trazado 852" class="cls-2" d="M61.28,6.12a2.85,2.85,0,0,1-2.75-2.94h0a2.88,2.88,0,1,1,5.76.16h0a2.85,2.85,0,0,1-2.89,2.8Zm1.54-2.83A1.41,1.41,0,0,0,60,3.17a1.4,1.4,0,1,0,2.8.23A.37.37,0,0,0,62.82,3.29Z"/><path id="Trazado_853" data-name="Trazado 853" class="cls-3" d="M5.86,42.25c-.38,0-.77,0-1.14.1s-.52-.08-.52-.46.09-.54.49-.48,1,.13,1.68.21c-.39-.52-.68-.92-1-1.31s-.45-.5,0-.8.6-.13.76.28.4.91.63,1.41a4.55,4.55,0,0,0,.75-1.49c.16-.42.35-.42.71-.23s.37.43.11.74-.61.8-1,1.31a5,5,0,0,0,1.68-.13c.39,0,.51.1.51.48s-.14.52-.52.47-.93-.08-1.42-.12c0,.61.48.89.75,1.26s.35.5-.08.74-.61.24-.78-.24-.39-.93-.66-1.56c-.27.56-.45,1-.67,1.38-.12.22-.09.64-.49.58A.9.9,0,0,1,5.15,44c-.19-.28.16-.43.28-.63s.44-.62.67-.93c.05-.07.17-.18.15-.21S6,42.18,5.86,42.25Z"/><path id="Trazado_854" data-name="Trazado 854" class="cls-3" d="M132,2.18A4.49,4.49,0,0,0,131.27,1c-.11-.2-.46-.37-.26-.63a1,1,0,0,1,.64-.36c.3,0,.3.36.41.57.19.36.36.73.62,1.28.27-.6.49-1,.67-1.48s.29-.51.69-.27.36.44.11.75-.61.81-1,1.35c.64-.07,1.15-.11,1.66-.19s.5.06.5.45-.13.52-.5.47a.83.83,0,1,0-1.51.69.84.84,0,0,0,.91.47c.23.3.25.46-.1.64s-.56.35-.75-.15-.41-.93-.64-1.44a4.33,4.33,0,0,0-.78,1.43c-.16.32-.27.47-.64.24s-.44-.39-.14-.73.61-.78,1-1.23a3,3,0,0,0-1.46.06c-.4.1-.57,0-.59-.45s.21-.5.58-.45S131.51,2.13,132,2.18Z"/><path id="Trazado_855" data-name="Trazado 855" class="cls-2" d="M1.93,126.06A1.89,1.89,0,0,1,0,124.22v-.09a1.92,1.92,0,0,1,3.84,0,1.89,1.89,0,0,1-1.82,2Z"/><path id="Trazado_856" data-name="Trazado 856" class="cls-2" d="M159.29,126.06a1.89,1.89,0,0,1-1.93-1.83v-.1a1.92,1.92,0,1,1,3.84,0,1.89,1.89,0,0,1-1.82,2Z"/><path id="Trazado_857" data-name="Trazado 857" class="cls-2" d="M30.71,108.84v.29c-.08.51.27,1.29-.18,1.49a2,2,0,0,1-2.08-.3,1.86,1.86,0,0,1-.71-1.86,2.17,2.17,0,0,1,2.6-1.62h0c.38.09.32.32.33.57Z"/><path id="Trazado_858" data-name="Trazado 858" class="cls-3" d="M101.37,12.36c.47.13.89-.1,1.33-.12.28,0,.41.07.41.37s0,.5-.42.44-.82-.07-1.31-.11a3,3,0,0,0,.7,1c.2.27.31.45-.06.68s-.5.1-.64-.23-.32-.76-.49-1.14c-.33.11-.31.45-.46.66s-.16.73-.54.84a.58.58,0,0,1-.47-.28c-.17-.44.32-.61.48-.93a5.25,5.25,0,0,1,.35-.53,2.6,2.6,0,0,0-1.27,0c-.3,0-.4-.09-.4-.37s0-.49.42-.43.8.1,1.24.15a2.78,2.78,0,0,0-.69-1.09c-.2-.28-.3-.45.08-.67s.49-.05.62.26.35.74.6,1.23c.22-.5.42-.89.57-1.29s.34-.36.65-.18.21.37.05.6A3.77,3.77,0,0,0,101.37,12.36Z"/><path id="Trazado_859" data-name="Trazado 859" class="cls-2" d="M75.78,18.6a1.9,1.9,0,0,1-1.9-1.88v-.09a1.92,1.92,0,1,1,2,2Zm1-1.88a.93.93,0,0,0-.88-1,.88.88,0,0,0-1,.74,1,1,0,0,0,0,.17.85.85,0,0,0,.74.94h.11a.92.92,0,0,0,1-.82s0,0,0-.06Z"/><path id="Trazado_860" data-name="Trazado 860" class="cls-2" d="M21.12,28.19a1.88,1.88,0,0,1-1.93-1.83v-.1a1.92,1.92,0,0,1,3.83,0,1.88,1.88,0,0,1-1.8,2Zm-.06-1a.91.91,0,0,0,1-.83v-.12a.86.86,0,0,0-.79-.93h-.1a.88.88,0,0,0-1,.77,1,1,0,0,0,0,.17.9.9,0,0,0,.86.94Z"/><path id="Trazado_861" data-name="Trazado 861" class="cls-2" d="M153.57,42.58a1.89,1.89,0,0,1-2-1.84v-.06a1.92,1.92,0,1,1,2,1.9Zm-.06-1a.9.9,0,0,0,1-.84v0a.93.93,0,1,0-1.86-.11v.08a.89.89,0,0,0,.87.91Z"/><path id="Trazado_862" data-name="Trazado 862" class="cls-3" d="M29.71,5.69c-.37,0-.18,1.07-.75.71s.37-.59.32-1c-.16-.19-.38,0-.58,0s-.41.08-.45-.2.17-.35.42-.33.55,0,.4-.4c-.08-.22-.52-.49-.06-.68s.4.34.56.56.11.15.16.22a.55.55,0,0,0,.17,0c.26-.21.18-1,.61-.73.66.41-.38.68-.29,1.11.3.35,1-.48,1.06.24s-.71,0-1,.3.86.69.21,1S30.22,5.78,29.71,5.69Z"/><path id="Trazado_863" data-name="Trazado 863" class="cls-2" d="M101.08,91.12l7,6,3.2,2.75c1.22,1.07,1.29,2.13.17,3.28-1.86,1.94-3.74,3.86-5.62,5.77a2,2,0,0,1-2.76.44,2.31,2.31,0,0,1-.36-.34c-3.47-3-6.93-5.95-10.5-9-.58,1.37-1.14,2.67-1.68,4-.28.65-.55,1.3-.82,2a2,2,0,0,1-3.77-.14q-2-6-4.07-12.07Q80,88,78,82.14c-.74-2.18.31-3.41,2.56-2.94l25.9,5.37a1.93,1.93,0,0,1,1.77,1.73,2,2,0,0,1-1.34,2.09C105,89.27,103.08,90.18,101.08,91.12ZM100,87.35l0-.19-17.4-3.61L88.1,100l1.36-3.24c.87-2.07,2.11-2.35,3.83-.88q5.16,4.44,10.32,8.88c.41.36.65.46,1.06,0a25,25,0,0,1,2.28-2.32c.6-.53.43-.78-.09-1.22q-5.19-4.4-10.34-8.86c-1.39-1.2-1.18-2.72.46-3.51l3-1.43Z"/><path id="Trazado_864" data-name="Trazado 864" class="cls-3" d="M74.72,77.12a1.82,1.82,0,0,1-1.35-.65c-1.85-1.85-3.71-3.68-5.54-5.55A1.94,1.94,0,1,1,70.36,68a1.75,1.75,0,0,1,.23.24q2.79,2.76,5.55,5.55a1.88,1.88,0,0,1,.43,2.28A1.81,1.81,0,0,1,74.72,77.12Z"/><path id="Trazado_865" data-name="Trazado 865" class="cls-3" d="M67.54,86.71a2,2,0,0,1-2.26-1.5A1.8,1.8,0,0,1,66.52,83c2.12-.44,4.26-.8,6.4-1.1a1.92,1.92,0,0,1,.62,3.74C71.45,86.08,69.34,86.4,67.54,86.71Z"/><path id="Trazado_866" data-name="Trazado 866" class="cls-3" d="M87.32,71.33c0,1,0,1.92,0,2.87a1.92,1.92,0,0,1-3.83.16v-.13c0-1.91,0-3.82,0-5.74a1.9,1.9,0,0,1,1.86-1.93h.08a1.91,1.91,0,0,1,1.88,1.9C87.34,69.42,87.32,70.37,87.32,71.33Z"/><path id="Trazado_867" data-name="Trazado 867" class="cls-4" d="M100,87.35l-3,1.43c-1.64.8-1.85,2.32-.46,3.51q5.16,4.45,10.34,8.87c.52.44.69.69.09,1.21a23.9,23.9,0,0,0-2.28,2.33c-.41.48-.65.38-1.06,0q-5.16-4.45-10.33-8.88c-1.71-1.48-3-1.2-3.82.87-.42,1-.84,2-1.37,3.24l-5.54-16.4L100,87.17Z"/></g><circle id="Elipse_170" data-name="Elipse 170" class="cls-5" cx="137.74" cy="117.31" r="17.5"/><g id="software-upload"><path id="Trazado_871" data-name="Trazado 871" class="cls-6" d="M136.42,121.05a1.32,1.32,0,1,0,2.64,0v-9.42l4.26,4.27,1.87-1.86-7.45-7.45L130.29,114l1.86,1.86,4.27-4.27v9.43Z"/><path id="Trazado_872" data-name="Trazado 872" class="cls-6" d="M127.21,119.76h2.63V125h15.8v-5.26h2.63V125a2.62,2.62,0,0,1-2.63,2.64h-15.8a2.64,2.64,0,0,1-2.63-2.64h0Z"/></g></g></svg>