<svg xmlns="http://www.w3.org/2000/svg" xmlns:xlink="http://www.w3.org/1999/xlink" viewBox="0 0 35 35"><defs><linearGradient id="a" x1="-1410.31" y1="552.44" x2="-1409.31" y2="552.44" gradientTransform="matrix(24.73, 0, 0, -26.79, 34886.47, 14818.29)" gradientUnits="userSpaceOnUse"><stop offset="0" stop-color="#1245c6"/><stop offset="1" stop-color="#9909b7"/></linearGradient></defs><path d="M17.51,18.53a2.09,2.09,0,0,0,2.07-2.06V6.16A2.07,2.07,0,0,0,16.1,4.68l0,0a2,2,0,0,0-.61,1.45v10.3a2.08,2.08,0,0,0,2.06,2.06ZM28.59,13a12.12,12.12,0,0,0-3.66-4.35,2,2,0,0,0-1.52-.4,1.91,1.91,0,0,0-1.36.81A2.06,2.06,0,0,0,22.46,12a8.31,8.31,0,0,1,2.44,2.92A8.26,8.26,0,1,1,12.56,12,2,2,0,0,0,13,9.07a1.92,1.92,0,0,0-1.34-.81,2.08,2.08,0,0,0-1.54.4A12.35,12.35,0,1,0,26.24,27.27a12.19,12.19,0,0,0,2.64-3.94A12.35,12.35,0,0,0,28.59,13Z" style="fill:url(#a)"/></svg>