<?xml version="1.0" encoding="utf-8"?>
<!-- Generator: Adobe Illustrator 24.2.3, SVG Export Plug-In . SVG Version: 6.00 Build 0)  -->
<svg version="1.1" id="Capa_1" xmlns="http://www.w3.org/2000/svg" xmlns:xlink="http://www.w3.org/1999/xlink" x="0px" y="0px"
	 viewBox="0 0 20 20" style="enable-background:new 0 0 20 20;" xml:space="preserve">
<style type="text/css">
	.st0{opacity:0.7;}
	.st1{fill:#F7A800;}
	.st2{fill:#FFFFFF;}
</style>
<g id="Grupo_141" class="st0">
	<path id="Trazado_254" class="st1" d="M17,5.8c-0.7-0.6-1.7-0.7-2.5-0.3V4.6h0.8c0.5,0,0.9-0.4,0.9-0.9c0,0,0,0,0,0l0,0
		c0-0.5-0.4-0.9-0.9-0.9c0,0,0,0,0,0H4.8c-0.5,0-0.9,0.4-0.9,0.9c0,0,0,0,0,0l0,0c0,0.5,0.4,0.9,0.9,0.9h0.8v1.1
		C4.8,5.2,3.7,5.3,3,5.9C2.1,6.8,2.4,8.5,3.7,9.8c0.6,0.6,1.4,1,2.3,1.1c0.5,1.1,1.4,1.9,2.5,2.3v2.2H7.9c-0.5,0-0.9,0.4-0.9,0.9
		c0,0,0,0,0,0l0,0c0,0.5,0.4,0.9,0.9,0.9h0h4.4c0.5,0,0.9-0.4,0.9-0.9c0,0,0,0,0,0l0,0c0-0.5-0.4-0.9-0.9-0.9h0h-0.6v-2.2
		c1.2-0.4,2.1-1.3,2.6-2.5c0.8-0.2,1.5-0.5,2-1.1c0.6-0.5,1-1.2,1.2-2C17.6,7,17.5,6.3,17,5.8z M4.4,9C3.6,8.2,3.2,7.1,3.7,6.6
		c0.2-0.2,0.4-0.2,0.6-0.2c0.5,0,0.9,0.2,1.3,0.5v2.4c0,0.2,0,0.4,0,0.5C5.2,9.6,4.8,9.4,4.4,9z M16.4,7.5C16.3,8,16,8.5,15.6,8.9
		c-0.3,0.3-0.7,0.5-1.1,0.7c0-0.1,0-0.2,0-0.4V6.6c0.3-0.2,0.7-0.4,1.1-0.4c0.2,0,0.5,0.1,0.6,0.2C16.5,6.7,16.5,7.1,16.4,7.5
		L16.4,7.5z"/>
	<g id="Grupo_141-2">
		<path id="Trazado_255" class="st2" d="M11,11.3H9.2V7.4H8.7v-1L9.6,6H11L11,11.3z"/>
	</g>
</g>
</svg>
