<svg xmlns="http://www.w3.org/2000/svg" viewBox="0 0 35 35"><path d="M34.1,13.67c-3,.57-5.67,0-6.67-1.85s-.28-4.4,1.85-6.67a17.35,17.35,0,0,0-6.81-4c-1,3-2.84,5-5,5s-4-2-5-5a16.8,16.8,0,0,0-6.66,4c2.12,2.27,2.83,5,1.84,6.66S4,14.24,1,13.67A11.3,11.3,0,0,0,.47,17.5,17,17,0,0,0,.9,21.33c3-.57,5.68,0,6.67,1.85s.29,4.4-1.85,6.67a17.32,17.32,0,0,0,6.82,4c1-3,2.83-5,5-5s4,2,5,5a16.62,16.62,0,0,0,6.81-4c-2.13-2.28-2.84-5-1.85-6.67,1-1.85,3.69-2.42,6.67-1.85a17,17,0,0,0,.43-3.83A16.48,16.48,0,0,0,34.1,13.67Z" style="fill:#5978d3"/><circle cx="17.5" cy="17.5" r="4.44" style="fill:#e3faff;stroke:#e3faff;stroke-linecap:round;stroke-linejoin:round;strokeWidth:2px"/></svg>