<svg id="Capa_1" data-name="Capa 1" xmlns="http://www.w3.org/2000/svg" viewBox="0 0 20 20"><defs><style>.cls-1,.cls-2{fill:#40769A;}.cls-2{fill-rule:evenodd;}</style></defs><path id="Trazado_13" data-name="Trazado 13" class="cls-1" d="M13.41,9.39H12.8V8a2.76,2.76,0,0,0-2.7-2.81H9.92A2.83,2.83,0,0,0,7.2,8.06V9.42H6.59c-.07,0-.17.12-.17.32v4.71c0,.2.12.32.17.32h6.82c.07,0,.17-.12.17-.32V9.72C13.58,9.52,13.46,9.39,13.41,9.39ZM10.55,12l0,0V13.5a.16.16,0,0,1-.16.16H9.67a.16.16,0,0,1-.15-.16V12l0,0a.74.74,0,0,1,0-1,.76.76,0,0,1,.46-.21h.17a.74.74,0,0,1,.67.79.71.71,0,0,1-.21.46Zm1.34-3H8.13V8a1.88,1.88,0,0,1,3.76,0Z"/><path id="Trazado_14" data-name="Trazado 14" class="cls-2" d="M15.64,9.55a6.23,6.23,0,0,0-.51-2.08,6.29,6.29,0,0,0-4.87-3.89A6.31,6.31,0,0,0,3.72,6.43,6.1,6.1,0,0,0,3.44,13a6.19,6.19,0,0,0,5.82,3.43,6.67,6.67,0,0,0,3.57-1.1,1.25,1.25,0,0,1,.7-.19.74.74,0,0,1,.76.58.9.9,0,0,1-.37,1,7.61,7.61,0,0,1-2.52,1.2,8.1,8.1,0,0,1-6.12-.67A8,8,0,0,1,1.18,12,7.79,7.79,0,0,1,2.31,5.43a8,8,0,0,1,6-3.62A8,8,0,0,1,14.79,4a7.86,7.86,0,0,1,2.42,4.42c.06.3.1.6.14.9s.09.26.29.25a8.68,8.68,0,0,1,1,0,.62.62,0,0,1,.43.2.5.5,0,0,1-.09.44L17.06,12.3a.66.66,0,0,1-.93,0l0,0c-.37-.31-.68-.7-1-1.06s-.64-.67-.94-1a1.75,1.75,0,0,1-.2-.47,1.91,1.91,0,0,1,.5-.19C14.83,9.53,15.22,9.55,15.64,9.55Z"/></svg>