<svg xmlns="http://www.w3.org/2000/svg" viewBox="0 0 35 35"><path d="M24,1.55l7.77,25.56L10.92,33.45,3.23,7.86,24,1.55m.42-.82-22,6.69,8.07,26.85,22.09-6.72Z" style="fill:#58595b"/><rect x="5.27" y="7.07" width="18.41" height="0.99" transform="translate(-1.57 4.54) rotate(-16.91)" style="fill:#ccc"/><rect x="5.94" y="9.27" width="18.41" height="0.99" transform="translate(-2.19 4.83) rotate(-16.91)" style="fill:#ccc"/><rect x="6.61" y="11.48" width="18.41" height="0.99" transform="translate(-2.8 5.12) rotate(-16.91)" style="fill:#ccc"/><rect x="7.29" y="13.69" width="18.41" height="0.99" transform="translate(-3.41 5.41) rotate(-16.91)" style="fill:#ccc"/><rect x="7.96" y="15.9" width="18.41" height="0.99" transform="translate(-4.03 5.7) rotate(-16.91)" style="fill:#ccc"/><rect x="8.63" y="18.11" width="18.41" height="0.99" transform="translate(-4.64 5.99) rotate(-16.91)" style="fill:#ccc"/><rect x="9.3" y="20.32" width="18.41" height="0.99" transform="translate(-5.25 6.28) rotate(-16.91)" style="fill:#ccc"/><rect x="9.97" y="22.53" width="18.41" height="0.99" transform="translate(-5.87 6.58) rotate(-16.91)" style="fill:#ccc"/><rect x="10.64" y="24.74" width="18.41" height="0.99" transform="translate(-6.48 6.87) rotate(-16.91)" style="fill:#ccc"/><rect x="11.31" y="26.94" width="18.41" height="0.99" transform="translate(-7.1 7.16) rotate(-16.91)" style="fill:#ccc"/></svg>