<svg id="Capa_1" data-name="Capa 1" xmlns="http://www.w3.org/2000/svg" viewBox="0 0 25 25"><defs><style>.cls-1{fill:#40769A;}</style></defs><path id="edit" class="cls-1" d="M12.44,17.55l1.67-1.66-2.19-2.18-1.66,1.66v.8h1.38v1.38ZM18.76,7.22a.3.3,0,0,0-.43,0l0,.05-5,5a.33.33,0,0,0,0,.46.32.32,0,0,0,.45,0l0,0,5-5a.3.3,0,0,0,.07-.41l-.06-.06Zm1.14,8.52v2.73a4.14,4.14,0,0,1-4.13,4.13H3.83A4,4,0,0,1,.91,21.39,4,4,0,0,1-.3,18.47V6.53A4,4,0,0,1,.91,3.61,4,4,0,0,1,3.83,2.4H15.77a4.06,4.06,0,0,1,1.68.36.45.45,0,0,1,.13.74l-.7.7a.42.42,0,0,1-.46.12,2.37,2.37,0,0,0-.65-.09H3.83a2.25,2.25,0,0,0-1.62.68,2.19,2.19,0,0,0-.67,1.62V18.47a2.19,2.19,0,0,0,.67,1.62,2.2,2.2,0,0,0,1.62.67H15.77a2.29,2.29,0,0,0,2.3-2.3v-1.8a.44.44,0,0,1,.13-.31l.92-.92a.43.43,0,0,1,.5-.1.42.42,0,0,1,.29.41ZM18.53,5.15l4.13,4.14L13,18.93H8.88V14.8Zm6.37,1.9L23.58,8.37,19.44,4.24l1.32-1.32a1.38,1.38,0,0,1,1.95,0L24.9,5.1a1.34,1.34,0,0,1,.4,1,1.31,1.31,0,0,1-.4,1Z"/></svg>