<svg id="Capa_1" data-name="Capa 1" xmlns="http://www.w3.org/2000/svg" viewBox="0 0 173.28 108.59"><defs><style>.cls-1{fill:#fff;}.cls-2{fill:#3f3d56;}.cls-3{fill:#feb8b8;}.cls-4{fill:#2f2e41;}.cls-5{fill:#ccc;}.cls-6{fill:#40769A;}</style></defs><path id="Path_2" data-name="Path 2" class="cls-1" d="M15.74,106.13h-.09A28,28,0,0,1,17.87,95.5a9.94,9.94,0,0,1,1.92-3l.06.07A9.74,9.74,0,0,0,18,95.54,27.93,27.93,0,0,0,15.74,106.13Z"/><path id="Path_3" data-name="Path 3" class="cls-1" d="M25.55,106.15l-.09,0a14.16,14.16,0,0,1,3.58-6l.06.07A14.06,14.06,0,0,0,25.55,106.15Z"/><path id="Path_4" data-name="Path 4" class="cls-1" d="M6.92,106.14H6.83a9.94,9.94,0,0,0-.9-5.83,7.9,7.9,0,0,0-1.41-2.07l.06-.06A8.11,8.11,0,0,1,6,100.26,10.09,10.09,0,0,1,6.92,106.14Z"/><path id="Path_8" data-name="Path 8" class="cls-2" d="M143.51,106.39H110.32v-.19l-1.59-45.31H145.1ZM110.69,106h32.44l1.57-44.74H109.13Z"/><g id="Group_1" data-name="Group 1"><rect id="Rectangle_17" data-name="Rectangle 17" class="cls-2" x="115.71" y="69.29" width="2.52" height="31.23"/><rect id="Rectangle_18" data-name="Rectangle 18" class="cls-2" x="125.65" y="69.29" width="2.52" height="31.23"/><rect id="Rectangle_19" data-name="Rectangle 19" class="cls-2" x="135.59" y="69.29" width="2.52" height="31.23"/></g><path id="Trazado_788" data-name="Trazado 788" class="cls-2" d="M166.18,74.2l-.16-.1-41.22-26,3.58-5.66.16.1,41.22,26.05ZM125.33,47.93l40.73,25.73,3.17-5L128.5,42.92Z"/><path id="Path_10" data-name="Path 10" class="cls-2" d="M156.23,46a7.41,7.41,0,0,0-11.3,7.33l2,1.24a5.85,5.85,0,1,1,7.68,3.06,5.59,5.59,0,0,1-2.1.47l2,1.25A7.41,7.41,0,0,0,156.23,46Z"/><g id="Group_6" data-name="Group 6"><path id="Path_111" data-name="Path 111" class="cls-3" d="M68.93,103.5h-2.8L64.79,92.67h4.14Z"/><path id="Path_112" data-name="Path 112" class="cls-4" d="M60.71,106.1h8.82v-3.41H64.07a3.37,3.37,0,0,0-3.36,3.36h0Z"/><path id="Path_113" data-name="Path 113" class="cls-3" d="M67.94,86.72l1.94,2,8.76-6.5-2.86-3Z"/><path id="Path_114" data-name="Path 114" class="cls-4" d="M71.88,89.69l-3.77-4-2.47,2.36,6.09,6.38,0,0A3.36,3.36,0,0,0,71.88,89.69Z"/><path id="Path_115" data-name="Path 115" class="cls-3" d="M48.41,57.07a2.3,2.3,0,0,1,.74-3.17,2.42,2.42,0,0,1,.36-.18l11-28.08,4.3,2.57L52.59,55.15a2.32,2.32,0,0,1-4.18,1.92Z"/><path id="Path_116" data-name="Path 116" class="cls-3" d="M90.23,59.08a2.3,2.3,0,0,1-2.13-2.46,2.76,2.76,0,0,1,.06-.4L71.91,30.81l4.6-2L91.12,54.57a2.31,2.31,0,0,1-.9,4.51Z"/><path id="Path_117" data-name="Path 117" class="cls-4" d="M60.64,54.26,63.52,97l6.87-.61,1.42-31.55,3.84,13.55,8.29.61L80.66,52.24Z"/><path id="Path_118" data-name="Path 118" class="cls-4" d="M76.86,76.39l-1.21,2-8.49,5.87,6.06,3.23S85,81,83.94,79Z"/><path id="Path_119" data-name="Path 119" class="cls-5" d="M54.62,37,57,30.21a12.07,12.07,0,0,1,6.23-6.87h0a17.22,17.22,0,0,1,10.12-.55l.87.21a16.74,16.74,0,0,1,6.38,3.08c1.48,1.17,2.8,2.64,2.92,4.22h0c.41,1.79.61,11.09.61,11.09h-3.6l.57,12.54,0-.09s-20.78,3.93-20.78,1.91V42.82l-.43-4.68Z"/><circle id="Ellipse_12" data-name="Ellipse 12" class="cls-3" cx="74.02" cy="15.27" r="5.76"/><path id="Path_120" data-name="Path 120" class="cls-4" d="M74.88,12.69l4.47.18A2.47,2.47,0,0,0,81,12.49a2.05,2.05,0,0,0,.19-2.36C80.19,8,78,7.2,75.68,7.26s-4.84.87-6.1,2.86a9.28,9.28,0,0,0-1.14,6.81,7.42,7.42,0,0,1,6.07-4.24Z"/></g><g id="Group_4" data-name="Group 4"><path id="Path_81" data-name="Path 81" class="cls-6" d="M101.44,69,85.25,57.68a.69.69,0,0,1-.17-1l12.7-18.13a.71.71,0,0,1,1-.17l16.18,11.35a.69.69,0,0,1,.17,1L102.4,68.86A.7.7,0,0,1,101.44,69Z"/><path id="Path_82" data-name="Path 82" class="cls-1" d="M105.08,56.72l-9.5-6.66a1,1,0,1,1,1.17-1.67l9.5,6.65a1,1,0,0,1,.25,1.43,1,1,0,0,1-1.42.25Z"/><path id="Path_83" data-name="Path 83" class="cls-1" d="M102.9,59.83l-9.5-6.66a1,1,0,1,1,1.17-1.67l9.5,6.65a1,1,0,0,1,.25,1.43A1,1,0,0,1,102.9,59.83Z"/><path id="Path_84" data-name="Path 84" class="cls-1" d="M100.69,63l-9.5-6.66a1,1,0,1,1,1.18-1.67h0l9.5,6.65A1,1,0,1,1,100.69,63Z"/><path id="Path_85" data-name="Path 85" class="cls-1" d="M105.05,50.56,101.37,48a1,1,0,1,1,1.17-1.67l3.68,2.58a1,1,0,0,1-1.17,1.67Z"/></g></svg>