<svg id="Capa_1" data-name="Capa 1" xmlns="http://www.w3.org/2000/svg" viewBox="0 0 20 20"><defs><style>.cls-1{fill:#40769A;}</style></defs><g id="date-line"><path id="Trazado_873" data-name="Trazado 873" class="cls-1" d="M17.55,4.17H15.83V5.23h1.59V16.89H2.58V5.23H4.17V4.17H2.45a1,1,0,0,0-.93,1V17a1,1,0,0,0,.93,1h15.1a1,1,0,0,0,.93-1V5.13A1,1,0,0,0,17.55,4.17Z"/><path id="Trazado_874" data-name="Trazado 874" class="cls-1" d="M4.7,8.41H5.76V9.47H4.7Z"/><path id="Trazado_875" data-name="Trazado 875" class="cls-1" d="M7.88,8.41H8.94V9.47H7.88Z"/><path id="Trazado_876" data-name="Trazado 876" class="cls-1" d="M11.06,8.41h1.06V9.47H11.06Z"/><path id="Trazado_877" data-name="Trazado 877" class="cls-1" d="M14.24,8.41H15.3V9.47H14.24Z"/><path id="Trazado_878" data-name="Trazado 878" class="cls-1" d="M4.7,11.06H5.76v1.06H4.7Z"/><path id="Trazado_879" data-name="Trazado 879" class="cls-1" d="M7.88,11.06H8.94v1.06H7.88Z"/><path id="Trazado_880" data-name="Trazado 880" class="cls-1" d="M11.06,11.06h1.06v1.06H11.06Z"/><path id="Trazado_881" data-name="Trazado 881" class="cls-1" d="M14.24,11.06H15.3v1.06H14.24Z"/><path id="Trazado_882" data-name="Trazado 882" class="cls-1" d="M4.7,13.71H5.76v1.06H4.7Z"/><path id="Trazado_883" data-name="Trazado 883" class="cls-1" d="M7.88,13.71H8.94v1.06H7.88Z"/><path id="Trazado_884" data-name="Trazado 884" class="cls-1" d="M11.06,13.71h1.06v1.06H11.06Z"/><path id="Trazado_885" data-name="Trazado 885" class="cls-1" d="M14.24,13.71H15.3v1.06H14.24Z"/><path id="Trazado_886" data-name="Trazado 886" class="cls-1" d="M5.76,6.29a.53.53,0,0,0,.53-.53V2.58a.53.53,0,1,0-1.06,0h0V5.76a.53.53,0,0,0,.53.53Z"/><path id="Trazado_887" data-name="Trazado 887" class="cls-1" d="M14.24,6.29a.53.53,0,0,0,.53-.53h0V2.58a.53.53,0,0,0-.53-.53.53.53,0,0,0-.53.53V5.76a.53.53,0,0,0,.53.53Z"/><path id="Trazado_888" data-name="Trazado 888" class="cls-1" d="M7.35,4.17h5.3V5.23H7.35Z"/></g></svg>