<svg id="Capa_1" data-name="Capa 1" xmlns="http://www.w3.org/2000/svg" xmlns:xlink="http://www.w3.org/1999/xlink" viewBox="0 0 95 95"><defs><style>.cls-1{fill:none;}.cls-2{fill:#40769A;opacity:0.47;isolation:isolate;}.cls-3{clip-path:url(#clip-path);}.cls-4{fill:#d4a79a;}.cls-5{fill:#eac2ab;}.cls-6{fill:#6c63ff;}.cls-7{fill:#000a5a;}.cls-8{clip-path:url(#clip-path-2);}</style><clipPath id="clip-path"><circle class="cls-1" cx="47.33" cy="47.67" r="47.33"/></clipPath><clipPath id="clip-path-2"><circle class="cls-1" cx="162.34" cy="47.66" r="47.34"/></clipPath></defs><g id="Grupo_206" data-name="Grupo 206"><path id="Trazado_481" data-name="Trazado 481" class="cls-2" d="M47.5,0A47.5,47.5,0,1,1,0,47.5,47.5,47.5,0,0,1,47.5,0Z"/><g class="cls-3"><g id="Enmascarar_grupo_3" data-name="Enmascarar grupo 3"><g id="Woman_3" data-name="Woman 3"><path id="Neck" class="cls-4" d="M41,35.71l.35,18,13.51,7.11,4.25-8.23,5-15.29-2.53-5.53Z"/><path id="Arm" class="cls-5" d="M42,53S31.12,70.68,22.44,85.94a32.88,32.88,0,0,1-7.84,9.29A31,31,0,0,1,7,99.47c-1,.42-2.47,1.37-3.55,1.39-1.32,0-2.2-1-3.4-1.45a3,3,0,0,0-1.6-.11c-2.88.6,1.05,3.09,1.9,2.6a19.68,19.68,0,0,1-4.14,1.49,6.19,6.19,0,0,0-3.59,2.49,1.74,1.74,0,0,0,0,2,1.88,1.88,0,0,0,1.07.4c1.51.2,3,.32,4.56.37,3.74.11,4.83-1.88,7.82-4s8.67-4.55,11.76-6.74,7-5,8.93-8.81C30.39,81.76,43,58.81,43,58.81Z"/><path id="Arm-2" class="cls-5" d="M53.39,54.73S64.24,69.12,74.31,83.5A32.94,32.94,0,0,0,83,92a30.83,30.83,0,0,0,8,3.5c1,.33,2.58,1.14,3.66,1,1.32-.1,2.1-1.21,3.25-1.75a3,3,0,0,1,1.59-.26c2.92.32-.76,3.17-1.64,2.76a20.1,20.1,0,0,0,4.25,1.09,6.22,6.22,0,0,1,3.81,2.14,1.76,1.76,0,0,1,.23,2,1.82,1.82,0,0,1-1,.5,45.56,45.56,0,0,1-4.5.8c-3.71.46-5-1.41-8.16-3.25S83.38,96.9,80.1,95c-3.45-2-7.48-4.35-9.72-7.93-4.37-7-19-28.66-19-28.66Z"/><path id="Body" class="cls-6" d="M29.7,110.32c3,.37,6-.6,9.08-.9s6.17.49,9.1,1.12A24.59,24.59,0,0,0,65.56,108c3.63-1.93-2.09-7.53-3.23-9.65a21.16,21.16,0,0,1-2-6.7,86.74,86.74,0,0,1-.92-20.17c.37-5.06-1.37-8.68-3-13.37-.8-2.33.38-3.15-1-5.07-.88-1.17-4.64,2.45-6,2.34-2.68-.22-6.21-3.65-8-1.68a25.45,25.45,0,0,0-3.57,5.54c-2.63,5-5.3,10.08-6,15.66-.92,7.49,1,12.94-1.45,20.14A54.62,54.62,0,0,1,25,108.86c0,.06,2.5,1,2.68,1A9.72,9.72,0,0,0,29.7,110.32Z"/><g id="Head"><path id="Hair" class="cls-7" d="M50.72,9.44s2.23,5-1.25,8-8.22.63-12.82,3.43-4.1,6.1-2,13.47c2.51,8.77,5.25,8.5,7.71,9.14s3.2,7.49,3.48,10.67c.44,5-4.08,6.7-7.55,9-2.87,2-5,4.06-3.92,7.76.47,1.63,1.14,3.36.57,5a4.67,4.67,0,0,1-3.74,2.77c-2.23.36-5.58.48-4.24-2.4,2.9-6.29-2.47-5.68-3.62-10.55-1.25-5.3-3.61-9.66,2.42-12.84,1.8-1,3.81-1.85,4.79-3.64,1.92-3.54-1-6.86-2.49-9.88a18.88,18.88,0,0,1-1.45-14.3c2.65-8-.14-5.59,3.35-11.94S46.13-.22,50.72,9.44Z"/><path id="Face" class="cls-5" d="M38,18.66s-5.72,3.63-4.2,12.79S43.69,49,46.44,48.62c7.62-1,8.49-6.27,11.42-10.64,3.59-5.36-1.79-19.43-1.79-19.43l-5.76-3.66Z"/><g id="Hair-2"><path id="Trazado_479" data-name="Trazado 479" class="cls-7" d="M46.41,15.28s3.78,1.27,7.11,6.61,7,7.65,4.59,14.38C57,39.35,56.12,42,55,44.71A46.79,46.79,0,0,0,52,55c-.5,3,1,3.91,2.84,5.78,3.72,3.71,3.86,8.85,7.14,12.44,2.25,2.44,8,5.13,11.17,3s-6.07-.67-4.26-9.44S71.32,54.33,66,51.9s-2.77-3.08,0-8.42-4.4-5.27-1.56-14.55c3.27-10.72.3-22.67-15.72-19.37S46.41,15.28,46.41,15.28Z"/><g id="Grupo_182" data-name="Grupo 182"><path id="Trazado_480" data-name="Trazado 480" class="cls-7" d="M42.5,25.48c4.6-2.79,3.49-5,7-8s1.25-8,1.25-8C46.12-.21,33.45,6.77,30,13.13s-.7,3.93-3.35,11.94c-1.82,5.51.13,11,1.45,14.3l5.71.39C30.75,28.25,39.05,27.59,42.5,25.48Z"/></g></g></g></g></g></g></g></svg>