<svg id="Capa_1" data-name="Capa 1" xmlns="http://www.w3.org/2000/svg" viewBox="0 0 512 512"><defs><style>.cls-1{fill:#efc700;}.cls-2{fill:#fff;}</style></defs><circle class="cls-1" cx="256" cy="256" r="256"/><path class="cls-2" d="M133.92,234.64c1.77-2.56,2.59-4,3.61-5.19q34.14-40.08,68.29-80.15c5.64-6.65,6.26-14.69,4-23.08-1.87-6.9-6.41-10.7-12.67-12-9.68-2-17,2.82-23.32,10.32Q125.21,182,76.56,239.33c-9.15,10.81-9.19,22.35,0,33.25q31.89,37.79,64,75.35c12.22,14.37,24.26,28.93,36.71,43.05,8,9,21.68,9.52,28.77,1.72,7.55-8.32,6.86-21.86-1.4-31.5q-25.4-29.64-50.63-59.43c-6.53-7.7-13-15.49-20.51-24.51H417.11a57.33,57.33,0,0,0,8.8-.36c8.3-1.28,13.53-7.1,15.59-15.57s.33-17.17-6.84-21.81a31.87,31.87,0,0,0-16.56-4.67q-137.64-.42-275.28-.2Z"/><path class="cls-2" d="M133.92,234.64h8.9q137.64,0,275.28.2a31.87,31.87,0,0,1,16.56,4.67c7.17,4.64,8.91,13.26,6.84,21.81s-7.29,14.29-15.59,15.57a57.33,57.33,0,0,1-8.8.36H133.49c7.55,9,14,16.81,20.51,24.51q25.27,29.76,50.63,59.43c8.26,9.64,9,23.18,1.4,31.5-7.09,7.8-20.8,7.33-28.77-1.72-12.45-14.12-24.49-28.68-36.71-43.05q-32-37.67-64-75.35c-9.2-10.9-9.16-22.44,0-33.25q48.59-57.42,97.26-114.76c6.35-7.5,13.64-12.27,23.32-10.32,6.26,1.27,10.8,5.07,12.67,12,2.27,8.39,1.65,16.43-4,23.08q-34.08,40.14-68.29,80.15C136.51,230.65,135.69,232.08,133.92,234.64Z"/></svg>