<svg id="Capa_1" data-name="Capa 1" xmlns="http://www.w3.org/2000/svg" viewBox="0 0 35 35"><defs><style>.cls-1{fill:#9aa9b7;}.cls-2{fill:#dfe4ea;}.cls-3{fill:#bfc9d1;}.cls-4{opacity:0.1;}.cls-5{fill:#231f20;}.cls-6{fill:#dd5e5e;}</style></defs><polygon class="cls-1" points="30.35 11.69 30.35 2.12 24.42 2.12 24.42 8.59 30.35 11.69"/><path class="cls-2" d="M30.35,12.37V31.26a1.55,1.55,0,0,1-1.48,1.62H6.14a1.55,1.55,0,0,1-1.49-1.61h0V12.37a1.64,1.64,0,0,1,.85-1.46L16.86,5a1.38,1.38,0,0,1,1.28,0L29.5,10.91A1.64,1.64,0,0,1,30.35,12.37Z"/><rect class="cls-3" x="14.04" y="21.01" width="6.92" height="11.87"/><g class="cls-4"><path class="cls-5" d="M30.35,12.37V31.26a1.55,1.55,0,0,1-1.48,1.62H17.5V4.82a1.43,1.43,0,0,1,.64.15L29.5,10.91A1.64,1.64,0,0,1,30.35,12.37Z"/></g><polygon class="cls-6" points="32.36 15.99 17.5 8.23 2.64 15.99 1.36 13.07 17.5 4.64 33.64 13.07 32.36 15.99"/></svg>