<?xml version="1.0" encoding="utf-8"?>
<!-- Generator: Adobe Illustrator 24.2.3, SVG Export Plug-In . SVG Version: 6.00 Build 0)  -->
<svg version="1.1" id="Capa_1" xmlns="http://www.w3.org/2000/svg" xmlns:xlink="http://www.w3.org/1999/xlink" x="0px" y="0px"
	 viewBox="0 0 20 20" style="enable-background:new 0 0 20 20;" xml:space="preserve">
<style type="text/css">
	.st0{fill:#37474F;}
	.st1{fill:#C62828;}
	.st2{fill:#EEEEEE;}
	.st3{fill:#E53935;}
</style>
<g id="Grupo_146">
	<path id="Trazado_270" class="st0" d="M14.9,17.4L13.6,16l0.7-0.7l1.4,1.4c0.2,0.2,0.2,0.5,0,0.7l0,0
		C15.5,17.5,15.2,17.6,14.9,17.4z"/>
	<path id="Trazado_271" class="st0" d="M5.1,17.4L6.4,16l-0.7-0.7l-1.3,1.4c-0.2,0.2-0.2,0.5,0,0.7l0,0C4.6,17.5,4.9,17.5,5.1,17.4z
		"/>
</g>
<path id="Trazado_272" class="st1" d="M16.8,10.3c0,3.8-3,6.8-6.8,6.8s-6.8-3-6.8-6.8c0-3.8,3-6.8,6.8-6.8
	C13.8,3.5,16.8,6.6,16.8,10.3z"/>
<path id="Trazado_273" class="st2" d="M15.5,10.3c0,3-2.4,5.5-5.4,5.5c-3,0-5.5-2.4-5.5-5.4c0-3,2.4-5.5,5.4-5.5c0,0,0,0,0,0
	C13,4.9,15.4,7.3,15.5,10.3z"/>
<path id="Trazado_274" class="st3" d="M7,13.6l-0.2-0.2l3.1-3.1l0.2,0.2L7,13.6z"/>
<path id="Trazado_275" d="M9.7,5.9h0.7v4.4H9.7V5.9z"/>
<path id="Trazado_276" d="M12.5,12.3l-0.6,0.5l-2.2-2.2l0.5-0.6L12.5,12.3z"/>
<path id="Trazado_277" d="M10.7,10.3c0,0.4-0.3,0.7-0.7,0.7s-0.7-0.3-0.7-0.7c0-0.4,0.3-0.7,0.7-0.7l0,0C10.4,9.7,10.7,10,10.7,10.3
	z"/>
<path id="Trazado_278" class="st1" d="M10.3,10.3c0,0.2-0.2,0.3-0.3,0.3c-0.2,0-0.3-0.2-0.3-0.3c0-0.2,0.2-0.3,0.3-0.3l0,0
	C10.2,10,10.3,10.2,10.3,10.3C10.3,10.3,10.3,10.3,10.3,10.3z"/>
<path id="Trazado_279" class="st0" d="M9.3,2.5h1.4v1H9.3V2.5z"/>
<g id="Grupo_147">
	<path id="Trazado_280" class="st0" d="M16.9,7.7c1-1.4,0.7-3.3-0.7-4.3c-1.1-0.8-2.5-0.8-3.5,0L16.9,7.7z"/>
	<path id="Trazado_281" class="st0" d="M3.1,7.7c-1-1.4-0.7-3.3,0.7-4.3c1.1-0.8,2.5-0.8,3.5,0L3.1,7.7z"/>
</g>
</svg>
