<svg id="Capa_1" data-name="Capa 1" xmlns="http://www.w3.org/2000/svg" viewBox="0 0 25 25"><defs><style>.cls-1{fill:#40769A;}</style></defs><path class="cls-1" d="M12.48,13.84a12.16,12.16,0,0,1,1.6.08A3,3,0,0,1,16.5,16.7c.07.68.15,1.35.24,2a.67.67,0,0,1-.61.84,16.44,16.44,0,0,1-4.37.33c-1-.06-2-.21-3-.35a.58.58,0,0,1-.54-.66,27.32,27.32,0,0,1,.35-2.72,2.88,2.88,0,0,1,2.9-2.31h1Z"/><path class="cls-1" d="M8.74,13.52c-.34.46-.7.87-1,1.34a4.56,4.56,0,0,0-.51,2c0,.5-.12,1-.18,1.51,0,.11-.06.14-.17.14-.88,0-1.77.07-2.65,0s-1.66-.2-2.48-.33a.61.61,0,0,1-.55-.72c.1-.85.18-1.71.32-2.55a2.88,2.88,0,0,1,2.7-2.42,19.86,19.86,0,0,1,2.44,0A2.7,2.7,0,0,1,8.74,13.52Z"/><path class="cls-1" d="M18,18.46c-.1-.8-.19-1.58-.31-2.35a4,4,0,0,0-1.32-2.42l-.12-.11a2.57,2.57,0,0,1,1.44-1,4.49,4.49,0,0,1,1-.14c.74,0,1.48,0,2.22,0A3,3,0,0,1,23.5,15l.27,2.36a.63.63,0,0,1-.56.77,18.24,18.24,0,0,1-4.72.34Z"/><path class="cls-1" d="M12.47,13.1a2.77,2.77,0,1,1,2.79-2.75A2.75,2.75,0,0,1,12.47,13.1Z"/><path class="cls-1" d="M8.22,8.92A2.77,2.77,0,1,1,5.46,6.15,2.76,2.76,0,0,1,8.22,8.92Z"/><path class="cls-1" d="M16.75,8.91a2.78,2.78,0,1,1,2.76,2.78A2.77,2.77,0,0,1,16.75,8.91Z"/></svg>