<svg id="Capa_1" data-name="Capa 1" xmlns="http://www.w3.org/2000/svg" viewBox="0 0 25 25"><defs><style>.cls-1{fill:#40769A;}</style></defs><path class="cls-1" d="M2.21,6.3a1.87,1.87,0,0,1,.61-1.11A1.8,1.8,0,0,1,4,4.78H21a1.68,1.68,0,0,1,1.65,1,2.09,2.09,0,0,1,.19.82c0,4,0,7.92,0,11.88A1.73,1.73,0,0,1,21,20.22H6.48c-.79,0-1.59,0-2.39,0a1.75,1.75,0,0,1-1.86-1.48l0,0ZM3.94,18.48H21.06v-12H3.94Z"/><rect class="cls-1" x="12.51" y="8.21" width="6.84" height="1.7"/><path class="cls-1" d="M14.23,16.79V15.08h5.13v.53c0,.33,0,.65,0,1,0,.16,0,.21-.21.21H14.23"/><rect class="cls-1" x="14.24" y="11.65" width="5.12" height="1.68"/><path class="cls-1" d="M7.61,11.65c-.84-1-.88-1.93-.17-2.62A1.72,1.72,0,0,1,9.8,9c.73.68.69,1.57-.13,2.63,1.18.23,1.47,1.12,1.7,2.12.46,2.08.07,2.65-2.08,2.88a5.17,5.17,0,0,1-2.85-.4,1.15,1.15,0,0,1-.75-1.48A12.2,12.2,0,0,0,6,13.57a2.06,2.06,0,0,1,1.66-1.92"/></svg>