<svg id="Capa_1" data-name="Capa 1" xmlns="http://www.w3.org/2000/svg" viewBox="0 0 25 25"><defs><style>.cls-1{fill:#40769A;}</style></defs><path class="cls-1" d="M4.3,5.08,8.53,9.51a3.13,3.13,0,0,1-2.07,1.06,32.12,32.12,0,0,0,7.81,8.18,3.12,3.12,0,0,1,1.1-2.05l4.24,4.45a3.8,3.8,0,0,1-1.78,1,5.27,5.27,0,0,1-4.11-.62,22.85,22.85,0,0,1-4.37-3.33,28.75,28.75,0,0,1-5.3-6.48A6.91,6.91,0,0,1,3,9.17,4.65,4.65,0,0,1,4.3,5.08Z"/><path class="cls-1" d="M17.32,14.44a2.35,2.35,0,0,1,.58.35q1.92,2,3.81,4A1.17,1.17,0,0,1,20,20.38l-3.79-4A1,1,0,0,1,16,15.22,1.36,1.36,0,0,1,17.32,14.44Z"/><path class="cls-1" d="M4.73,4a1.49,1.49,0,0,1,.9-1.19,1,1,0,0,1,1.22.32L10.54,7a1.07,1.07,0,0,1,0,1.62,1.07,1.07,0,0,1-1.64,0C7.61,7.27,6.37,6,5.15,4.66A4.06,4.06,0,0,1,4.73,4Z"/></svg>