<svg xmlns="http://www.w3.org/2000/svg" viewBox="0 0 35 35"><path d="M3.7,4.6H31.91a1.85,1.85,0,0,1,1.84,1.84V27.33H1.86V6.44A1.85,1.85,0,0,1,3.7,4.6Z" style="fill:#606060"/><path d="M31.91,4.6H3.7A1.85,1.85,0,0,0,1.86,6.44V27.33H3.09V7.67A1.84,1.84,0,0,1,4.93,5.83H33.14a1.6,1.6,0,0,1,.53.09,1.83,1.83,0,0,0-1.76-1.31Z" style="fill:#707070"/><path d="M31.3,7.06h-27V27.33h27Z" style="fill:#a3d5db"/><path d="M12.9,9.54c-4.06,0-7.36,3.94-7.36,8a7.36,7.36,0,0,0,14.72,0C20.26,13.48,17,9.54,12.9,9.54Z" style="fill:#3c8bfc"/><path d="M28.23,12h-4.9a.62.62,0,1,1,0-1.23h4.9a.62.62,0,1,1,0,1.23Z" style="fill:#3c8bfc"/><path d="M28.23,14.48h-4.9a.61.61,0,0,1-.62-.61.62.62,0,0,1,.62-.62h4.9a.62.62,0,0,1,.62.62A.61.61,0,0,1,28.23,14.48Z" style="fill:#3c8bfc"/><path d="M28.23,16.93h-4.9a.61.61,0,1,1,0-1.22h4.9a.61.61,0,1,1,0,1.22Z" style="fill:#3c8bfc"/><path d="M0,27.33H35a3.08,3.08,0,0,1-3.07,3.07H3.09A3.07,3.07,0,0,1,0,27.33Z" style="fill:#707070"/><path d="M31.91,29.17H3.09A3.06,3.06,0,0,1,.28,27.33H0A3.07,3.07,0,0,0,3.09,30.4H31.91A3.08,3.08,0,0,0,35,27.33h-.26A3.06,3.06,0,0,1,31.91,29.17Z" style="fill:#606060"/><path d="M13.51,8.9c-4.06,0-7.36,3.94-7.36,8a7.36,7.36,0,0,0,14.72.17V16.9C20.87,12.84,17.58,8.9,13.51,8.9Z" style="fill:#f2c341"/><path d="M7.38,16.9c0-3.86,3-7.66,6.75-8-.2,0-.41,0-.62,0-4.06,0-7.36,3.94-7.36,8a7.37,7.37,0,0,0,7.36,7.36h0c.21,0,.41,0,.62,0A7.36,7.36,0,0,1,7.38,16.9Z" style="fill:#f7bd1c"/><path d="M15.35,21.2V15.68a.61.61,0,0,0-.61-.62H11.06a.62.62,0,0,0,0,1.23h.61V21.2a.61.61,0,0,0,0,1.22h3.68a.61.61,0,1,0,0-1.22Z" style="fill:#fff"/><path d="M13.51,14.45a1.84,1.84,0,1,0-1.84-1.84,1.84,1.84,0,0,0,1.84,1.84Z" style="fill:#fff"/><path d="M28.85,11.38H23.94a.61.61,0,0,1,0-1.22h4.91a.61.61,0,1,1,0,1.22Z" style="fill:#fff"/><path d="M28.85,13.84H23.94a.61.61,0,0,1-.61-.62.61.61,0,0,1,.61-.61h4.91a.61.61,0,0,1,.61.61A.61.61,0,0,1,28.85,13.84Z" style="fill:#fff"/><path d="M28.85,16.29H23.94a.62.62,0,0,1,0-1.23h4.91a.62.62,0,0,1,0,1.23Z" style="fill:#fff"/></svg>