<svg id="Capa_1" data-name="Capa 1" xmlns="http://www.w3.org/2000/svg" xmlns:xlink="http://www.w3.org/1999/xlink" viewBox="0 0 420 123"><defs><style>.cls-1{fill:#00035b;}.cls-2{fill:#00dcf2;}.cls-3{fill:#5e00ff;}.cls-4{fill:url(#linear-gradient);}.cls-5{fill:#9d29ff;}.cls-6{fill:url(#linear-gradient-2);}</style><linearGradient id="linear-gradient" x1="68.41" y1="33.55" x2="27.58" y2="34.81" gradientUnits="userSpaceOnUse"><stop offset="0" stop-color="#5e00ff"/><stop offset="1" stop-color="#00dcf2"/></linearGradient><linearGradient id="linear-gradient-2" x1="55.62" y1="85.06" x2="78.12" y2="72.17" gradientUnits="userSpaceOnUse"><stop offset="0.26" stop-color="#5e00ff"/><stop offset="1" stop-color="#9d29ff"/></linearGradient></defs><path class="cls-1" d="M141.05,90h-9.6l-.55-4.26a12.15,12.15,0,0,1-10.36,5.42c-9.26,0-13.85-7.68-13.85-19.47,0-11.25,5.69-19.28,15.09-19.28a11.8,11.8,0,0,1,8.43,3.43V37.9l10.84,1.17ZM130.21,79.05V63.35c-1.64-1.92-3.22-3.09-5.62-3.09-3.91,0-6.65,3.29-6.65,11.45,0,9.06,2.46,11.46,6,11.46C126.51,83.17,128.5,81.8,130.21,79.05Z"/><path class="cls-1" d="M172.59,57.11c4.6,2,6.86,4.66,6.86,9.39,0,7.07-5.83,12.21-15.29,12.21A20.54,20.54,0,0,1,160,78.3a2.32,2.32,0,0,0-1.16,2c0,1.1.48,2.2,4,2.2h5.48c8.51,0,13.92,4.46,13.92,10.56,0,7.48-6.58,12.07-19.06,12.07-13.79,0-17.42-4.53-17.42-11.73h9.74c0,3.16,1.37,4.53,8,4.53,6.38,0,7.89-1.78,7.89-4.11,0-2.13-1.58-3.57-5.21-3.57H160.8c-8,0-11.18-3.29-11.18-7.2a8.67,8.67,0,0,1,4.32-7c-4.67-2.47-6.52-5.69-6.52-10.42,0-8.23,6.45-13.31,16-13.31,8.09.21,12.76-2.12,17.15-4.73l2.53,8C180.55,56.7,177.19,57.11,172.59,57.11Zm-14.4,8.43c0,4,2.2,6.17,5.49,6.17,3.56,0,5.48-2.12,5.48-6.3s-1.85-5.9-5.48-5.9C160.32,59.51,158.19,61.77,158.19,65.54Z"/><path class="cls-1" d="M237.12,63.35V90H226.29V65.2c0-3.84-1.44-4.87-3.09-4.87-2.33,0-4,1.71-5.55,4.73V90H206.81V65.2c0-3.84-1.44-4.87-3.08-4.87-2.27,0-4,1.71-5.56,4.73V90H187.34V53.54h9.46l.75,4.25c2.82-3.56,6.11-5.42,10.57-5.42a8.64,8.64,0,0,1,8.57,5.77c2.88-3.85,6.24-5.77,10.9-5.77C233.22,52.37,237.12,56.42,237.12,63.35Z"/><path class="cls-1" d="M263.87,90l-6.31-13.65L251.39,90h-11.8l11.73-19.14L240.76,53.54H252.9L258,65.2l4.87-11.66h11.52l-9.94,16.94L276.15,90Z"/><path class="cls-1" d="M291.51,90.71c-5.42,0-8.78-3.22-8.78-9.46V57.31h-6V54.09h6V45.52l4-.48v9.05H296l-.48,3.22H286.7V81c0,4.18,1.65,6.24,5.28,6.24a10.11,10.11,0,0,0,5.49-1.64l1.58,2.81A13.41,13.41,0,0,1,291.51,90.71Z"/><path class="cls-1" d="M330.73,73.57H306.8c.48,9.73,5,13.78,11.18,13.78,3.9,0,6.51-1.23,9.67-3.57l1.85,2.54a17.73,17.73,0,0,1-11.73,4.39c-9.46,0-15.22-6.86-15.22-18.38s5.55-19,14.33-19c9.33,0,14,6.78,14,17.35C330.87,71.78,330.8,72.88,330.73,73.57ZM327,69.45c0-7.82-3.16-12.82-9.94-12.82-5.63,0-9.81,4.11-10.22,13.85H327Z"/><path class="cls-1" d="M364.75,57l-2,2.67a11.6,11.6,0,0,0-8-2.88c-6.51,0-11.11,5.08-11.11,15.43s4.53,15,11,15A12.24,12.24,0,0,0,363,84.13l2,2.74a15.49,15.49,0,0,1-10.29,3.84c-9.18,0-15.22-6.79-15.22-18.45s6-18.92,15.16-18.92A14.35,14.35,0,0,1,364.75,57Z"/><path class="cls-1" d="M400.34,64.31V90h-4V64.86c0-5.83-2.47-8.3-6.79-8.3-4.87,0-8.16,3-11.11,7.4V90h-4V39.48l4-.48V60.06c2.88-4.05,6.72-6.72,11.86-6.72C396.77,53.34,400.34,57.52,400.34,64.31Z"/><path class="cls-2" d="M76.87,35.48a29.28,29.28,0,0,0-14.82-4H29.41L23.19,19.73a2.81,2.81,0,0,0-3.6-1.31,2.75,2.75,0,0,0-1.3,3.8l7,13.28A2.76,2.76,0,0,0,27.76,37H62.05a23.83,23.83,0,0,1,19.2,9.78,2.75,2.75,0,0,0,3.61.76h0a2.76,2.76,0,0,0,.85-4A29.48,29.48,0,0,0,76.87,35.48Z"/><path class="cls-3" d="M58.54,90H26.59a2.77,2.77,0,0,1-2.44-1.47l-7-13.28a2.76,2.76,0,0,1,2.44-4H48.77A23.7,23.7,0,0,0,70.06,58a23.51,23.51,0,0,0,2.46-10.53,2.75,2.75,0,1,1,5.5,0,29,29,0,0,1-3,13A29.29,29.29,0,0,1,48.77,76.68H24.12l4.12,7.77h30.3a2.76,2.76,0,0,1,0,5.51Z"/><path class="cls-4" d="M75.27,50.18a2.75,2.75,0,0,1-2.75-2.75A23.78,23.78,0,0,0,48.77,23.68H20.72a2.75,2.75,0,0,1,0-5.5H48.77A29.28,29.28,0,0,1,78,47.43,2.75,2.75,0,0,1,75.27,50.18Z"/><path class="cls-5" d="M84.62,58H31.8a2.75,2.75,0,0,0-2.75,2.75h0a2.75,2.75,0,0,0,2.75,2.75H84.72a2.75,2.75,0,0,0,2.74-2.94A2.8,2.8,0,0,0,84.62,58Z"/><path class="cls-6" d="M84.72,58A2.78,2.78,0,0,0,82,60.74a23.51,23.51,0,0,1-2.45,10.5A23.73,23.73,0,0,1,58.43,84.45a2.89,2.89,0,0,0-2.92,2.27A2.76,2.76,0,0,0,58.22,90,29.23,29.23,0,0,0,87.47,60.71h0A2.75,2.75,0,0,0,84.72,58Z"/></svg>