<?xml version="1.0" encoding="utf-8"?>
<!-- Generator: Adobe Illustrator 24.2.3, SVG Export Plug-In . SVG Version: 6.00 Build 0)  -->
<svg version="1.1" id="Capa_1" xmlns="http://www.w3.org/2000/svg" xmlns:xlink="http://www.w3.org/1999/xlink" x="0px" y="0px"
	 viewBox="0 0 717 123" style="enable-background:new 0 0 717 123;" xml:space="preserve">
<style type="text/css">
	.st0{enable-background:new    ;}
	.st1{fill:#00035B;}
	.st2{fill:#32DCF2;}
	.st3{fill:#40769A;}
	.st4{fill:#000A5A;}
	.st5{fill:#210054;}
	.st6{fill:url(#SVGID_1_);}
</style>
<g class="st0">
	<path class="st1" d="M164,66.5l-7-1.2c-5.7-1-10.2-2.9-13.3-5.8c-3.2-2.9-4.7-6.7-4.7-11.3c0-5.3,2.1-9.5,6.2-12.6
		c4.1-3.2,9.1-4.7,14.9-4.7c8.9,0,16.3,3,22,9.1l-8.2,8.6c-4.4-4.4-9.2-6.6-14.5-6.6c-2.6,0-4.6,0.5-6.1,1.6c-1.5,1-2.3,2.4-2.3,4.1
		c0,3,2.7,5.1,8.2,6l5.6,0.9c12.8,2.1,19.3,8,19.3,17.9c0,5.2-2.1,9.4-6.3,12.7c-4.2,3.2-9.7,4.8-16.5,4.8c-4.9,0-9.4-1-13.6-3
		c-4.1-2-7.5-4.6-10.2-8l8.3-8.4c4.2,5.5,9.6,8.2,16.2,8.2c3,0,5.5-0.6,7.3-1.7c1.8-1.1,2.7-2.6,2.7-4.5
		C172,69.5,169.3,67.5,164,66.5z"/>
	<path class="st1" d="M203.1,68.5V89h-11.6v-40H203v2.8c2.6-2.5,5.8-3.8,9.6-3.8c4.6,0,8.3,1.6,11.1,4.8c3.2-3.2,7.2-4.8,12-4.8
		c5.3,0,9.5,1.5,12.4,4.6c2.9,3.1,4.4,7.4,4.4,13.1V89h-11.6V66.2c0-2.3-0.5-4.1-1.6-5.4c-1.1-1.3-2.6-2-4.5-2
		c-2.2,0-3.9,0.8-5.1,2.4c-1.2,1.6-1.8,3.8-1.8,6.5V89h-11.6V66.2c0-2.3-0.5-4.1-1.6-5.4c-1.1-1.3-2.6-2-4.5-2
		C205.5,58.7,203.1,62,203.1,68.5z"/>
	<path class="st1" d="M273.4,89.8c-4.2,0-7.6-1.2-10.1-3.5c-2.5-2.3-3.8-5.4-3.8-9.1c0-4.1,1.5-7.3,4.6-9.6c3-2.2,6.8-3.3,11.3-3.3
		c2.6,0,5.3,0.4,8,1.1v-0.7c0-2-0.6-3.5-1.8-4.7c-1.2-1.2-2.8-1.8-4.9-1.8c-3.7,0-6.6,1.6-8.6,4.7l-7.3-7c4.4-5.3,10-7.9,16.7-7.9
		c5,0,9.2,1.4,12.6,4.3c3.3,2.8,5,6.7,5,11.7v25h-11.5v-2.6C280.8,88.7,277.5,89.8,273.4,89.8z M271.2,76.5c0,1,0.5,1.9,1.4,2.6
		c0.9,0.7,2.1,1,3.6,1c2.6,0,5-0.8,7.2-2.4V73c-2.1-0.5-3.9-0.7-5.4-0.7c-2.1,0-3.8,0.4-5,1.1C271.8,74.1,271.2,75.1,271.2,76.5z"/>
	<path class="st1" d="M330.2,48.4v11.2h-1.8c-3.4,0-6.1,1.1-8.1,3.3c-2,2.2-3,5.3-3,9.3V89h-11.6v-40h11.4v3.6
		c2.4-2.8,5.7-4.2,10-4.2C328.7,48.4,329.7,48.4,330.2,48.4z"/>
	<path class="st1" d="M354,89.1c-9.3,0-14-4.8-14-14.3V59.6h-5.2V48.9h5.2V37.7h11.5v11.2h8.9v10.7h-8.9v13.8c0,1.9,0.4,3.1,1.3,3.8
		c0.8,0.7,2.2,1.1,4,1.1h3.4V89C357.5,89.1,355.4,89.1,354,89.1z"/>
</g>
<g class="st0">
	<path class="st1" d="M403.9,89h-30.3V33.9h30.3v4h-25.8v20.2h24.3V62h-24.3v22.9h25.8V89z"/>
	<path class="st1" d="M430.1,89.7c-5.5,0-9.7-1.8-12.7-5.3c-3-3.5-4.4-8.7-4.4-15.5c0-7.1,1.6-12.5,4.7-16.2
		c3.1-3.7,7.4-5.6,12.8-5.6c3.4,0,6.2,0.7,8.4,2.2s3.8,3.4,4.8,5.6h0.3c-0.1-1.2-0.1-2.6-0.2-4.1c-0.1-1.5-0.1-2.8-0.1-3.9V30.3h4.4
		V89h-3.5l-0.6-7.1h-0.2c-1.1,2.2-2.7,4-4.9,5.6C436.7,89,433.8,89.7,430.1,89.7z M430.7,85.9c4.7,0,8.1-1.4,10.1-4.3
		c2-2.9,3-7,3-12.4v-0.8c0-5.7-1-10-3-13c-2-3-5.3-4.5-9.8-4.5c-4.4,0-7.8,1.6-10,4.7c-2.3,3.1-3.4,7.6-3.4,13.3
		c0,5.6,1.1,9.9,3.2,12.7C423,84.5,426.3,85.9,430.7,85.9z"/>
	<path class="st1" d="M494,47.9V89h-3.6l-0.6-7h-0.2c-1.1,2.2-2.9,4.1-5.2,5.6c-2.3,1.5-5.3,2.2-8.8,2.2c-9.7,0-14.5-5-14.5-15V47.9
		h4.5v26.5c0,3.9,0.9,6.8,2.6,8.7c1.7,1.9,4.4,2.8,7.9,2.8c9.1,0,13.6-5.2,13.6-15.7V47.9H494z"/>
	<path class="st1" d="M524.1,89.7c-6,0-10.7-1.8-13.9-5.5c-3.3-3.7-4.9-8.9-4.9-15.5c0-4.6,0.8-8.5,2.5-11.7
		c1.6-3.2,3.9-5.7,6.9-7.3c3-1.7,6.4-2.5,10.3-2.5c2,0,3.9,0.2,5.6,0.5c1.7,0.4,3.3,0.8,4.6,1.5l-1.2,3.9c-2.9-1.3-5.9-1.9-9-1.9
		c-4.8,0-8.6,1.6-11.2,4.7s-3.9,7.4-3.9,12.8c0,5.1,1.2,9.3,3.5,12.5c2.3,3.2,5.9,4.8,10.7,4.8c2.1,0,4-0.2,5.8-0.6
		c1.8-0.4,3.4-1,4.9-1.6v3.9c-1.3,0.7-2.9,1.2-4.6,1.6C528.2,89.5,526.3,89.7,524.1,89.7z"/>
	<path class="st1" d="M558.9,47.2c4.6,0,8.1,1.1,10.3,3.4c2.3,2.3,3.4,5.8,3.4,10.7V89h-3.3l-0.8-6.9h-0.2c-1.4,2.3-3.2,4.2-5.4,5.6
		s-5.1,2.1-9,2.1c-3.9,0-7-1-9.3-2.9c-2.3-2-3.4-4.8-3.4-8.6c0-4.1,1.7-7.2,5-9.3c3.3-2.2,8.2-3.4,14.6-3.6l7.5-0.4V62
		c0-4.1-0.8-6.9-2.4-8.6c-1.6-1.7-4-2.5-7.1-2.5c-2.1,0-4.1,0.3-6.1,0.8c-2,0.5-3.9,1.3-5.9,2.4l-1.4-3.5c1.9-1,4-1.8,6.3-2.4
		C554,47.5,556.4,47.2,558.9,47.2z M568.3,68.3l-6.9,0.3c-5.2,0.2-9.2,1.1-11.7,2.7c-2.6,1.6-3.9,3.9-3.9,7.1c0,2.5,0.8,4.4,2.4,5.7
		c1.6,1.3,3.8,2,6.6,2c4.3,0,7.6-1.2,9.9-3.6c2.3-2.4,3.6-5.8,3.7-10.2V68.3z"/>
	<path class="st1" d="M597.3,86c1.1,0,2.2-0.1,3.3-0.3c1.1-0.2,1.9-0.4,2.7-0.7v3.5c-0.8,0.3-1.8,0.6-2.9,0.8
		c-1.1,0.2-2.3,0.3-3.7,0.3c-3.4,0-6-1-7.9-2.9c-1.9-1.9-2.8-5-2.8-9.3V51.4h-6.1V49l6.1-1.4l1.5-9.5h2.8v9.8H603v3.5h-12.7v25.9
		C590.3,83.1,592.7,86,597.3,86z"/>
	<path class="st1" d="M614.1,32.7c2.1,0,3.1,1.1,3.1,3.3c0,2.3-1,3.4-3.1,3.4c-2,0-2.9-1.1-2.9-3.4
		C611.2,33.8,612.2,32.7,614.1,32.7z M616.3,47.9V89H612V47.9H616.3z"/>
	<path class="st1" d="M664.2,68.4c0,4.3-0.7,8-2.1,11.2c-1.4,3.2-3.5,5.7-6.2,7.4c-2.8,1.8-6.1,2.7-10.1,2.7c-3.8,0-7.1-0.9-9.8-2.6
		c-2.7-1.7-4.8-4.2-6.3-7.4c-1.5-3.2-2.2-6.9-2.2-11.3c0-6.7,1.7-11.9,5-15.7c3.3-3.8,7.9-5.6,13.6-5.6c3.9,0,7.2,0.9,9.9,2.7
		c2.7,1.8,4.7,4.3,6.1,7.4C663.5,60.4,664.2,64.2,664.2,68.4z M632,68.4c0,5.2,1.1,9.5,3.3,12.7c2.2,3.2,5.7,4.8,10.4,4.8
		c4.8,0,8.3-1.6,10.5-4.8c2.2-3.2,3.4-7.4,3.4-12.7c0-3.4-0.5-6.4-1.4-9c-0.9-2.6-2.4-4.7-4.4-6.2c-2-1.5-4.6-2.2-7.9-2.2
		c-4.7,0-8.2,1.5-10.5,4.6C633.2,58.7,632,63,632,68.4z"/>
	<path class="st1" d="M693.8,47.1c4.7,0,8.3,1.2,10.7,3.6c2.5,2.4,3.7,6.2,3.7,11.3V89h-4.4V62.4c0-3.9-0.9-6.8-2.7-8.6
		c-1.8-1.9-4.4-2.8-7.8-2.8c-9.1,0-13.6,5.2-13.6,15.6V89h-4.3V47.9h3.5l0.6,7.1h0.3c1.1-2.3,2.8-4.1,5.1-5.6
		C687.3,47.9,690.3,47.1,693.8,47.1z"/>
</g>
<path class="st2" d="M70.9,71c-1.8,0-3.3-1.4-3.3-3.3c0-1.4,0.9-2.6,2.1-3.1L117.3,47L67.2,30.3c-1.7-0.6-2.6-2.4-2.1-4.1
	c0.6-1.7,2.4-2.6,4.1-2.1l58.9,19.6c1.7,0.6,2.6,2.4,2.1,4.1c-0.3,0.9-1,1.7-2,2L72,70.8C71.7,70.9,71.3,71,70.9,71z"/>
<path class="st3" d="M2.4,47.5l59.9,19.2c0.1,0,0.2,0,0.3,0l60.2-19.2c0.3-0.1,0.4-0.4,0.4-0.6c0-0.2-0.2-0.3-0.4-0.4L62.6,27
	c-0.1,0-0.2,0-0.3,0L2.4,46.5c-0.3,0.1-0.4,0.4-0.4,0.6C2.1,47.3,2.2,47.5,2.4,47.5z"/>
<path class="st4" d="M25.8,55v19.7c0,0,12.6,11.6,36.7,12.2V66.8L25.8,55z"/>
<path class="st5" d="M98.6,55v19.7c0,0-12.5,11.6-36.7,12.2V66.8L98.6,55z"/>
<ellipse class="st4" cx="63.1" cy="47.1" rx="4" ry="2.3"/>
<linearGradient id="SVGID_1_" gradientUnits="userSpaceOnUse" x1="72.1313" y1="79.778" x2="102.5113" y2="38.978" gradientTransform="matrix(1 0 0 -1 0 124)">
	<stop  offset="0" style="stop-color:#00035B"/>
	<stop  offset="1" style="stop-color:#5100FF"/>
</linearGradient>
<path class="st6" d="M95.3,76.2c1.6-0.8,2.2-2.7,1.4-4.2c-0.2-0.5-0.6-0.9-1.1-1.2V56l-28.5-8.9c0.1,1.5-2.3,2.1-2.3,2.1l27.4,8.5
	v13.1c-1.5,1-1.9,2.9-0.9,4.4c0.2,0.4,0.6,0.7,0.9,0.9L90.7,89H97l-1.4-12.9C95.5,76.2,95.4,76.2,95.3,76.2z"/>
</svg>
