<?xml version="1.0" encoding="utf-8"?>
<!-- Generator: Adobe Illustrator 24.2.3, SVG Export Plug-In . SVG Version: 6.00 Build 0)  -->
<svg version="1.1" id="Capa_1" xmlns="http://www.w3.org/2000/svg" xmlns:xlink="http://www.w3.org/1999/xlink" x="0px" y="0px"
	 viewBox="0 0 95 95" style="enable-background:new 0 0 95 95;" xml:space="preserve">
<style type="text/css">
	.st0{opacity:0.47;fill:#61A4D6;enable-background:new    ;}
	.st1{clip-path:url(#SVGID_2_);}
	.st2{fill:#D4A79A;}
	.st3{fill:#EAC2AB;}
	.st4{fill:#0E1B33;}
	.st5{fill:#1A2B33;}
	.st6{fill:#343D42;}
</style>
<g id="Grupo_199">
	<path id="Trazado_481" class="st0" d="M47.5,0C73.7,0,95,21.3,95,47.5S73.7,95,47.5,95S0,73.7,0,47.5S21.3,0,47.5,0z"/>
	<g>
		<defs>
			<circle id="SVGID_1_" cx="47.3" cy="47.7" r="47.3"/>
		</defs>
		<clipPath id="SVGID_2_">
			<use xlink:href="#SVGID_1_"  style="overflow:visible;"/>
		</clipPath>
		<g class="st1">
			<g id="Enmascarar_grupo_3">
				<g id="Woman_3">
					<path id="Neck" class="st2" d="M45.1,37.4l-1.6,17.2l9.4,7.7l2.9-8.9l-1.4-13.7l3.1-8.8L45.1,37.4z"/>
					<path id="Arm" class="st3" d="M38.4,56.1c0,0-11,19.4-19.8,36.2c-2,3.9-4.8,7.4-8.1,10.3c-2.4,2-5.2,3.6-8.1,4.9
						c-1.1,0.5-2.6,1.6-3.8,1.6c-1.4,0.1-2.4-1-3.7-1.4c-0.6-0.2-1.2-0.2-1.7-0.1c-3.1,0.8,1.3,3.3,2.1,2.7
						c-1.4,0.7-2.9,1.3-4.4,1.8c-1.6,0.5-2.9,1.5-3.8,2.8c-0.5,0.7-0.5,1.5,0,2.2c0.3,0.3,0.7,0.4,1.2,0.4c1.6,0.2,3.3,0.2,4.9,0.2
						c4,0,5.1-2.2,8.3-4.6s9.2-5.2,12.4-7.7c3.4-2.6,7.4-5.7,9.3-9.8c3.7-8.1,16.4-33.3,16.4-33.3L38.4,56.1z"/>
					<path id="Arm-2" class="st3" d="M61.6,57.5c0,0,10.3,19.9,19.7,39.7c2.2,4.6,5.2,8.8,8.9,12.3c2.7,2.4,5.8,4.4,9.1,6
						c1.2,0.6,3,2,4.3,2.1c1.7,0.2,2.9-1,4.4-1.4c0.7-0.2,1.3-0.2,2,0c3.5,1-1.6,3.7-2.6,3c1.6,0.9,3.3,1.7,5,2.3
						c1.8,0.6,3.3,1.8,4.2,3.4c0.5,0.8,0.4,1.8-0.2,2.5c-0.4,0.3-0.9,0.4-1.4,0.4c-1.9,0.1-3.8,0.1-5.7,0c-4.7-0.2-5.9-2.8-9.4-5.7
						s-10.4-6.5-14-9.5c-3.8-3.2-8.3-7-10.3-11.8c-3.9-9.5-17.3-39.1-17.3-39.1L61.6,57.5z"/>
					<g id="Head">
						<path id="Face" class="st3" d="M40,16.8c0,0-6.2,3.9-4.5,13.8s10.7,18.9,13.6,18.5c8.2-1,9.2-6.8,12.3-11.5
							c3.9-5.8-1.9-21-1.9-21l-6.2-4L40,16.8z"/>
						<path id="Hair" class="st4" d="M70.6,23.3c0.8-2.2,0.5-4.7-0.9-6.6c-0.4-0.7-1.1-1.1-1.8-1.3c-0.6,0-1.1-0.1-1.7-0.2
							c-1.6-0.7-1.1-3.2-2.5-4.1c-1-0.7-2.4,0-3.6,0c-0.9-0.1-1.8-0.4-2.6-0.9c-2.3-1.2-4.2-3-6.7-4c-2-0.9-4.3-1.2-6.5-0.7
							C42.1,6,40,7.5,38.7,9.5c-0.9,1.2-1.4,2.7-1.4,4.2c0-1.2-2.4-0.6-2.8-0.2c-1.8,1.4-3.1,5.2-3,7.4c0.1,1.8,0.6,3.5,0.7,5.3
							c0.1,3.9-0.3,10.5,5.5,10.6c-0.2-2-0.2-4,0.1-6c0.8-3.5,2.3-8.2,5.6-10.2c6.9-4.2,9.2,6.8,14.4,8.9
							C62.6,31.4,68.9,28,70.6,23.3z"/>
					</g>
					<path id="Body" class="st5" d="M73.7,73c0,0-7.8-23.4-17.1-18.7s4.5,29.5,4.5,29.5l15.1-7.9L73.7,73z"/>
					<path id="Body-2" class="st5" d="M39.6,78.4c0,0,13.6-20.5,4.2-25S23.3,75.1,23.3,75.1l15.5,7L39.6,78.4z"/>
					<path id="Body-3" class="st6" d="M31,115.8c3.3,0.4,6.5-0.6,9.8-1s6.7,0.5,9.8,1.2c6.5,1.5,13.3,0.5,19.1-2.7
						c3.9-2.1-2.2-8.1-3.5-10.4s3.9-2,3.5-4.4c-1.2-7.2,0-3.4-3.5-11.8c0.4-5.5-4.6-22.1-6.4-27.2c-0.9-2.5-1.6-2.7-3.1-4.8
						c-1-1.3-5,0.1-6.5,0c-2.9-0.2-4.7-2.1-6.7,0c-1.5,1.8-2.8,3.8-3.9,6C36.9,66,31.8,77.7,31,83.8c-1,8.1-4.6,14.3-7.2,22.1
						c-0.7,2.1,6.6,0.2,2.1,8.4c0,0.1,2.7,1,2.9,1.1C29.5,115.5,30.3,115.7,31,115.8z"/>
				</g>
			</g>
		</g>
	</g>
</g>
</svg>
