<svg xmlns="http://www.w3.org/2000/svg" viewBox="0 0 35 35"><path d="M32.46,26.23v2.49A1.26,1.26,0,0,1,31.21,30H3.79a1.26,1.26,0,0,1-1.25-1.25V26.23A1.26,1.26,0,0,1,3.79,25H31.21A1.26,1.26,0,0,1,32.46,26.23Zm0-10v2.5A1.26,1.26,0,0,1,31.21,20H3.79a1.18,1.18,0,0,1-.88-.37,1.18,1.18,0,0,1-.37-.87v-2.5a1.19,1.19,0,0,1,.37-.87A1.18,1.18,0,0,1,3.79,15H31.21A1.26,1.26,0,0,1,32.46,16.25Zm0-10V8.77A1.26,1.26,0,0,1,31.21,10H3.79A1.26,1.26,0,0,1,2.54,8.77V6.28A1.26,1.26,0,0,1,3.79,5H31.21a1.26,1.26,0,0,1,1.25,1.25Z" style="fill:#40769A"/></svg>