<svg xmlns="http://www.w3.org/2000/svg" viewBox="0 0 35 35"><path d="M11.1,25.17,6.46,27.7a4.41,4.41,0,0,0-.75.53,15.55,15.55,0,0,0,20,.06,3.8,3.8,0,0,0-.82-.55l-5-2.49a1.9,1.9,0,0,1-1.05-1.7V21.6a5.39,5.39,0,0,0,.47-.6,11.81,11.81,0,0,0,1.55-3.12A1.57,1.57,0,0,0,22,16.39V14.31a1.53,1.53,0,0,0-.52-1.15v-3s.61-4.68-5.73-4.68S10,10.14,10,10.14v3a1.53,1.53,0,0,0-.52,1.15v2.08a1.54,1.54,0,0,0,.72,1.31,10.17,10.17,0,0,0,1.88,3.9v1.9A1.89,1.89,0,0,1,11.1,25.17Z" style="fill:#ecf0f1"/><path d="M16,.76A15.56,15.56,0,0,0,5.72,28.23a4.33,4.33,0,0,1,.74-.53l4.64-2.53a1.89,1.89,0,0,0,1-1.67V21.6a10.46,10.46,0,0,1-1.88-3.9,1.57,1.57,0,0,1-.72-1.31V14.31A1.53,1.53,0,0,1,10,13.16v-3s-.62-4.68,5.73-4.68,5.72,4.69,5.72,4.69v3A1.62,1.62,0,0,1,22,14.31v2.08a1.58,1.58,0,0,1-1.12,1.49A11.29,11.29,0,0,1,19.33,21c-.15.21-.31.42-.47.61v1.95a1.89,1.89,0,0,0,1.05,1.7l5,2.49a4.47,4.47,0,0,1,.82.54A15.56,15.56,0,0,0,16,.76Z" style="fill:#5978d3"/><path d="M34.83,26.52,34,26.35a1.74,1.74,0,0,1-1.38-2,1.69,1.69,0,0,1,.31-.7l.53-.73-1.15-1.15-.72.48A1.74,1.74,0,0,1,28.87,21l-.14-.89H27.11l-.22,1.1a1.73,1.73,0,0,1-2,1.38,1.76,1.76,0,0,1-.65-.27l-.92-.62-1.16,1.15.54.73a1.75,1.75,0,0,1-.38,2.44,1.82,1.82,0,0,1-.7.3l-.85.17v1.62l.89.14a1.74,1.74,0,0,1,1.46,2,1.68,1.68,0,0,1-.28.71l-.48.72,1.15,1.15.72-.53a1.75,1.75,0,0,1,2.44.37,1.68,1.68,0,0,1,.31.71l.16.85h1.63l.09-.63a1.75,1.75,0,0,1,2-1.46,1.65,1.65,0,0,1,.76.32l.52.37,1.15-1.15L32.76,31a1.75,1.75,0,0,1,.47-2.43,1.82,1.82,0,0,1,.71-.28l.89-.14Z" style="fill:#7e7e7e"/><circle cx="27.67" cy="27.11" r="2.04" style="fill:#fff"/><path d="M27.78,30.13a2.94,2.94,0,1,1,2.94-2.94A2.94,2.94,0,0,1,27.78,30.13Zm0-4.7a1.77,1.77,0,1,0,1.77,1.76,1.76,1.76,0,0,0-1.77-1.76Z" style="fill:#ecf0f1"/></svg>