<?xml version="1.0" encoding="utf-8"?>
<!-- Generator: Adobe Illustrator 24.2.3, SVG Export Plug-In . SVG Version: 6.00 Build 0)  -->
<svg version="1.1" id="Capa_1" xmlns="http://www.w3.org/2000/svg" xmlns:xlink="http://www.w3.org/1999/xlink" x="0px" y="0px"
	 viewBox="0 0 20 20" style="enable-background:new 0 0 20 20;" xml:space="preserve">
<style type="text/css">
	.st0{fill:#FFA442;}
	.st1{fill:#383838;}
	.st2{fill:#D1E1E8;}
	.st3{fill:#4F81BD;}
	.st4{opacity:0.12;enable-background:new    ;}
	.st5{fill:#4571A6;}
	.st6{fill:#DB8D39;}
</style>
<g>
	<path id="Trazado_259" class="st0" d="M11.3,1.5c-0.1-0.1-0.2-0.1-0.3-0.1H9.7c-0.2,0-0.3,0.1-0.4,0.3l-1,6.9c0,0.1,0,0.2,0.1,0.3
		C8.4,8.9,8.5,9,8.6,9H10c0.2,0,0.3-0.1,0.3-0.3l1-6.9C11.3,1.7,11.3,1.6,11.3,1.5z"/>
	<path id="Trazado_260" class="st1" d="M12,2.9c-0.1-0.1-0.1-0.1-0.8-0.1l-0.1,0.7h0.2l-0.3,2l0.7,0.1l0.4-2.4C12.1,3,12,3,12,2.9z"
		/>
	<path id="Trazado_261" class="st2" d="M14.1,1.7l-1.4,1.4l-1.4,5.5h1.7l1.4-5.2L14.1,1.7z"/>
	<path id="Trazado_262" class="st3" d="M3.8,8.6v1h1L5.9,20h7.6l1-10.3h1v-1L3.8,8.6z"/>
	<path id="Trazado_263" class="st2" d="M5.2,0v8.6h2.8V0H5.2z"/>
	<path id="Trazado_264" class="st0" d="M15.9,1.7l-1.4,1.4v0.1v0.2l-1.4,5.2h1.7l1.4-5.2L15.9,1.7z"/>
	<path id="Trazado_265" class="st4" d="M12.2,5.4l-0.8,3.2h3.4l-0.2-0.1C13.4,8,12.4,6.8,12.2,5.4z"/>
	<path id="Trazado_266" class="st5" d="M12.4,9.6H4.8l0.1,0.7h7.5V9.6z"/>
	<rect id="Rectángulo_114" x="5.3" y="0.9" class="st3" width="1" height="1"/>
	<rect id="Rectángulo_115" x="5.3" y="2.4" class="st3" width="1" height="0.5"/>
	<rect id="Rectángulo_116" x="5.3" y="4" class="st3" width="1" height="0.5"/>
	<rect id="Rectángulo_117" x="5.3" y="5" class="st3" width="1" height="1"/>
	<rect id="Rectángulo_118" x="5.3" y="6.6" class="st3" width="1" height="0.5"/>
	<path id="Trazado_267" class="st5" d="M5.4,15.7L5.9,20h7.6l-2.1-0.3C8.9,19.3,6.7,17.9,5.4,15.7z"/>
	<path id="Trazado_268" class="st4" d="M7.2,8.6h0.7V5.9L7.2,8.6z"/>
	<path id="Trazado_269" class="st6" d="M8.6,6.8L8.3,8.6l0,0h2.1V8.4C9.6,8.1,9,7.5,8.6,6.8z"/>
</g>
</svg>
