<svg id="Capa_1" data-name="Capa 1" xmlns="http://www.w3.org/2000/svg" viewBox="0 0 250 250"><defs><style>.cls-1{fill:#3f3d56;}.cls-2{fill:#e6e6e6;}.cls-3{fill:#ccc;}.cls-4{fill:#40769A;}.cls-5{fill:#fff;}.cls-6{fill:#2f2e41;}.cls-7{fill:#a0616a;}.cls-8{fill:#ffb8b8;}</style></defs><g id="Grupo_179" data-name="Grupo 179"><path id="Trazado_447" data-name="Trazado 447" class="cls-1" d="M176.21,219.18H64.27a10,10,0,0,1-10-10v-43c-.23.27-.47.53-.73.78v42.25a10.77,10.77,0,0,0,10.75,10.76H176.53C176.42,219.67,176.31,219.43,176.21,219.18Zm-122-159a10,10,0,0,1,10-10h37.3c-.07-.25-.13-.49-.2-.73H64.27A10.77,10.77,0,0,0,53.52,60.14v66c.25.25.49.51.73.78Zm150.3,8.45L181.17,50.07a3.13,3.13,0,0,0-2-.69H158.39c-.06.25-.12.49-.19.73h21a2.45,2.45,0,0,1,1.51.52l23.39,18.53a1.88,1.88,0,0,1,.71,1.47V178.46l.72,0V70.63A2.59,2.59,0,0,0,204.55,68.59Z"/><path id="Trazado_448" data-name="Trazado 448" class="cls-2" d="M204.24,69.55H185.37a5.19,5.19,0,0,1-5.19-5.2V50.42a.32.32,0,0,1,.52-.26L204.44,69a.32.32,0,0,1,.06.46.36.36,0,0,1-.26.12Z"/><path id="Trazado_449" data-name="Trazado 449" class="cls-1" d="M204.24,69.91H185.37a5.56,5.56,0,0,1-5.55-5.56V50.42a.68.68,0,0,1,.68-.69.66.66,0,0,1,.43.15l23.74,18.81a.68.68,0,0,1-.43,1.22Zm-23.7-19.42V64.35a4.84,4.84,0,0,0,4.83,4.84h18.77Z"/><path id="Trazado_450" data-name="Trazado 450" class="cls-3" d="M166.78,93.57H111.27a2.6,2.6,0,1,1,0-5.19h55.51a2.6,2.6,0,1,1,0,5.19Z"/><path id="Trazado_451" data-name="Trazado 451" class="cls-3" d="M177.49,102.34H111.27a2.6,2.6,0,1,1,0-5.2h66.22a2.6,2.6,0,0,1,0,5.2Z"/><path id="Trazado_452" data-name="Trazado 452" class="cls-3" d="M166.78,132.86H111.27a2.6,2.6,0,1,1,0-5.2h55.51a2.6,2.6,0,1,1,0,5.2Z"/><path id="Trazado_453" data-name="Trazado 453" class="cls-3" d="M177.49,141.62H111.27a2.6,2.6,0,1,1,0-5.19h66.22a2.6,2.6,0,1,1,0,5.19Z"/><path id="Trazado_454" data-name="Trazado 454" class="cls-3" d="M166.78,172.14H111.27a2.6,2.6,0,1,1,0-5.19h55.51a2.6,2.6,0,1,1,0,5.19Z"/><path id="Trazado_455" data-name="Trazado 455" class="cls-3" d="M177.49,180.91H111.27a2.6,2.6,0,0,1,0-5.2h66.22a2.6,2.6,0,0,1,0,5.2Z"/><circle id="Ellipse_44" data-name="Ellipse 44" class="cls-4" cx="88.15" cy="95.36" r="9.18"/><path id="Path_395" data-name="Path 395" class="cls-5" d="M87.24,98.86a.94.94,0,0,1-.58-.19h0L84.5,97a1,1,0,0,1-.2-1.34,1,1,0,0,1,1.35-.19h0l1.4,1.07,3.31-4.3a1,1,0,0,1,1.34-.18h0l0,0,0,0a1,1,0,0,1,.18,1.34L88,98.49a1,1,0,0,1-.76.38Z"/><circle id="Ellipse_44-2" data-name="Ellipse 44-2" class="cls-2" cx="88.15" cy="134.64" r="9.18"/><path id="Path_395-2" data-name="Path 395-2" class="cls-5" d="M87.24,138.15a1,1,0,0,1-.58-.19h0L84.5,136.3a1,1,0,1,1,1.15-1.53h0l1.4,1.07,3.31-4.31a1,1,0,0,1,1.34-.18h0l0,0,0,0a1,1,0,0,1,.18,1.35L88,137.77a1,1,0,0,1-.76.38Z"/><circle id="Ellipse_44-3" data-name="Ellipse 44-3" class="cls-2" cx="88.15" cy="173.93" r="9.18"/><path id="Path_395-3" data-name="Path 395-3" class="cls-5" d="M87.24,177.43a1,1,0,0,1-.58-.19h0l-2.15-1.65a1,1,0,0,1,1.15-1.53h0l1.4,1.07,3.31-4.3a1,1,0,0,1,1.34-.18h0l0,0,0,0a1,1,0,0,1,.18,1.34L88,177.06a1,1,0,0,1-.76.37Z"/><path id="Trazado_456" data-name="Trazado 456" class="cls-4" d="M217.22,234.51c-.52.27-1.05.52-1.58.76s-1,.43-1.49.63l-.56.21a31.14,31.14,0,0,1-4.54,1.25c-.77.15-1.54.27-2.33.35s-1.3.13-2,.16l-1.41,0a30,30,0,0,1-5.6-.52c-.49-.09-1-.19-1.43-.3a30.16,30.16,0,0,1-6.57-2.43l-.56-.29-.82-.46c.13-.18.27-.36.41-.53A17.65,17.65,0,0,1,215.13,232a16.62,16.62,0,0,1,1.69,2C217,234.13,217.09,234.32,217.22,234.51Z"/><circle id="Elipse_85" data-name="Elipse 85" class="cls-6" cx="204.01" cy="205.15" r="14.67"/><circle id="Elipse_86" data-name="Elipse 86" class="cls-7" cx="202.67" cy="210.26" r="10.92"/><path id="Trazado_457" data-name="Trazado 457" class="cls-6" d="M214.14,203.39a14.84,14.84,0,0,1-8.48,2.63,9.11,9.11,0,0,0,3.6,1.48,29.82,29.82,0,0,1-12.23.07,7.71,7.71,0,0,1-2.56-.88,3.22,3.22,0,0,1-1.58-2.11c-.27-1.54.92-2.93,2.17-3.87A16,16,0,0,1,208.5,198a7.31,7.31,0,0,1,4,2.24,3.63,3.63,0,0,1,.33,4.31Z"/><path id="Trazado_458" data-name="Trazado 458" class="cls-1" d="M205.54,177.83l-.73,0c-.48,0-1,0-1.47,0a30.07,30.07,0,0,0-27.85,41.43c.09.25.2.49.31.73a30.18,30.18,0,0,0,11.89,13.59l.18.12.49.28.81.46.57.29a29.47,29.47,0,0,0,6.57,2.43c.47.12.95.22,1.42.3a30.17,30.17,0,0,0,5.6.53c.48,0,.95,0,1.42,0,.66,0,1.32-.09,2-.16s1.57-.2,2.33-.35a29.77,29.77,0,0,0,4.55-1.26l.55-.21c.51-.19,1-.4,1.49-.62s1.06-.5,1.58-.77a30.42,30.42,0,0,0,12.38-12s0-.05,0-.08a30.05,30.05,0,0,0-24.1-44.57Zm26.69,35.52a29.18,29.18,0,0,1-3.14,8.67l-.08.14A29.47,29.47,0,0,1,216.83,234q-.78.4-1.56.75c-.44.2-.89.39-1.34.56l-.58.22a29.69,29.69,0,0,1-3.92,1.12,27.73,27.73,0,0,1-3,.47c-.62.07-1.25.12-1.88.14-.41,0-.81,0-1.22,0a29,29,0,0,1-5.42-.51,27.49,27.49,0,0,1-3.22-.79,28.18,28.18,0,0,1-4.67-1.89l-.52-.27c-.25-.13-.49-.27-.73-.41l-.54-.31-.31-.19a29.6,29.6,0,0,1-11.4-13l-.32-.72a29.41,29.41,0,0,1,27.13-40.78c.5,0,1,0,1.48,0l.72,0a29.45,29.45,0,0,1,27.13,31.57,30.38,30.38,0,0,1-.44,3.28Z"/><path id="Trazado_459" data-name="Trazado 459" class="cls-6" d="M196.57,190.68c-.15-1.66-2.19-2.68-3.77-2.18a4.74,4.74,0,0,0-3,3.74,5.35,5.35,0,0,0,.72,4,3.69,3.69,0,0,0,3.66,1.59,4.26,4.26,0,0,0,3-3.45,12.47,12.47,0,0,0-.3-4.79Z"/><path id="Trazado_460" data-name="Trazado 460" class="cls-6" d="M219,193.05c-.16-1.66-2.19-2.68-3.78-2.18a4.76,4.76,0,0,0-3,3.74,5.35,5.35,0,0,0,.72,4,3.71,3.71,0,0,0,3.66,1.59,4.24,4.24,0,0,0,3-3.46,12.44,12.44,0,0,0-.3-4.78Z"/><path id="Trazado_461" data-name="Trazado 461" class="cls-4" d="M145.92,67.21a29.74,29.74,0,0,1-31.29.5,17.87,17.87,0,0,1,31.18-.7A2,2,0,0,1,145.92,67.21Z"/><circle id="Elipse_87" data-name="Elipse 87" class="cls-6" cx="128.97" cy="36.46" r="14.77"/><circle id="Elipse_88" data-name="Elipse 88" class="cls-8" cx="128.86" cy="41.61" r="10.99"/><path id="Trazado_462" data-name="Trazado 462" class="cls-6" d="M118.76,34.69a15,15,0,0,0,8.55,2.65,9.26,9.26,0,0,1-3.63,1.49A30.21,30.21,0,0,0,136,38.9a8.15,8.15,0,0,0,2.58-.89,3.23,3.23,0,0,0,1.59-2.12c.27-1.55-.93-3-2.18-3.9a16.14,16.14,0,0,0-13.53-2.7,7.43,7.43,0,0,0-4,2.27,3.66,3.66,0,0,0-.34,4.33Z"/><path id="Trazado_463" data-name="Trazado 463" class="cls-1" d="M129.87,12.09A30.12,30.12,0,0,0,99.79,42.17a29.73,29.73,0,0,0,.9,7.21l.18.73a30.08,30.08,0,0,0,58,0c.07-.25.13-.49.19-.73a30.09,30.09,0,0,0-29.2-37.29Zm28.52,37.29c-.06.25-.12.49-.19.73a29.4,29.4,0,0,1-56.63,0c-.07-.25-.13-.49-.19-.73a28.79,28.79,0,0,1-.91-7.21,29.41,29.41,0,1,1,57.92,7.21Z"/><path id="Trazado_464" data-name="Trazado 464" class="cls-4" d="M48.4,171.53a29.78,29.78,0,0,1-31.3.5c0-.09.11-.2.17-.29a17.86,17.86,0,0,1,31-.5l.06.1Z"/><path id="Trazado_465" data-name="Trazado 465" class="cls-6" d="M46.22,140.78a14.7,14.7,0,1,1-4.31-10.47A14.71,14.71,0,0,1,46.22,140.78Z"/><path id="Trazado_466" data-name="Trazado 466" class="cls-7" d="M43,150c-.17.42-.37.83-.58,1.24A11,11,0,1,1,43,150Z"/><path id="Trazado_467" data-name="Trazado 467" class="cls-1" d="M54.25,125.9c-.23-.26-.48-.51-.73-.75a30.05,30.05,0,1,0,0,42.7c.25-.24.49-.49.73-.74a30.05,30.05,0,0,0,0-41.21Zm-.73,41a29.4,29.4,0,0,1-5.29,4.34h0a29.43,29.43,0,0,1-30.94.49h0A29.41,29.41,0,1,1,53.53,126.1c.25.25.48.51.72.78a29.39,29.39,0,0,1,0,39.24c-.23.27-.48.53-.73.78Z"/><path id="Trazado_468" data-name="Trazado 468" class="cls-6" d="M43.42,128.51a7.8,7.8,0,0,0-7.17-3.82,15.26,15.26,0,0,0-4.34,1.22l-7.13,2.78c-1.85.72-3.87,1.61-4.67,3.41s-.19,3.63.37,5.38l2.67,8.33a25.47,25.47,0,0,1,1.51-5.5,8.52,8.52,0,0,1,3.7-4.22,12.07,12.07,0,0,1,6.12-.83c2.94.14,6.15.52,8.24,2.6a8.58,8.58,0,0,1,2.17,4.24,24.94,24.94,0,0,1,.46,4.8,40.24,40.24,0,0,0,3-6.52,16.14,16.14,0,0,0,1.13-5.27,7.38,7.38,0,0,0-1.7-5,4.84,4.84,0,0,0-4.89-1.54"/><path id="Trazado_469" data-name="Trazado 469" class="cls-2" d="M20.92,88.79H20.2c0-.72,0-1.46.06-2.18l.72,0Q20.94,87.71,20.92,88.79Z"/><path id="Trazado_470" data-name="Trazado 470" class="cls-2" d="M21.3,82.49l-.72-.08c.15-1.38.35-2.78.59-4.14l.71.12C21.65,79.74,21.45,81.12,21.3,82.49Zm1.43-8.16L22,74.16c.33-1.35.71-2.71,1.12-4l.69.22c-.41,1.31-.78,2.66-1.1,4Zm2.47-7.91-.68-.26c.5-1.3,1.05-2.6,1.64-3.86l.66.3c-.59,1.25-1.13,2.54-1.62,3.82Zm3.47-7.53L28,58.55c.66-1.22,1.38-2.44,2.12-3.62l.61.38c-.73,1.17-1.44,2.38-2.09,3.59Zm4.41-7-.59-.43c.82-1.12,1.68-2.24,2.57-3.31l.55.46c-.87,1.06-1.72,2.16-2.53,3.28Zm5.27-6.4L37.82,45c1-1,2-2,3-3l.49.52c-1,1-2,1.93-2.93,2.94Zm6-5.66-.46-.56c1.07-.89,2.19-1.75,3.31-2.56l.43.58c-1.12.81-2.22,1.66-3.28,2.54ZM51.11,35l-.39-.61c1.18-.74,2.4-1.45,3.62-2.12l.35.64c-1.21.66-2.42,1.36-3.58,2.09ZM58.38,31l-.3-.66c1.26-.59,2.56-1.14,3.86-1.64l.26.68c-1.28.49-2.57,1-3.81,1.61Zm7.73-3-.22-.69c1.32-.41,2.69-.79,4-1.12l.17.7c-1.34.33-2.68.7-4,1.11Zm8-1.95L74,25.38c1.37-.24,2.76-.43,4.15-.59l.08.72c-1.37.15-2.75.35-4.1.58Z"/><path id="Trazado_471" data-name="Trazado 471" class="cls-2" d="M82.42,25.19l0-.72c.72,0,1.46-.06,2.18-.07v.73Q83.5,25.15,82.42,25.19Z"/><path id="Trazado_472" data-name="Trazado 472" class="cls-2" d="M23.6,86.46,23.08,86l-2.5,2.55-2.36-2.67-.54.48,2.88,3.26Z"/><path id="Trazado_473" data-name="Trazado 473" class="cls-2" d="M82.25,27.8l-.51-.51,2.56-2.5-2.68-2.36.48-.54,3.26,2.88Z"/><path id="Trazado_474" data-name="Trazado 474" class="cls-2" d="M190.58,32.35l-1.93-1,.33-.65c.65.33,1.3.66,1.94,1Z"/><path id="Trazado_475" data-name="Trazado 475" class="cls-2" d="M239.78,166l-.67-.27c.55-1.33,1.07-2.69,1.56-4l.68.24C240.86,163.29,240.33,164.65,239.78,166Zm3-8.18-.69-.21c.44-1.37.85-2.77,1.22-4.15l.7.19c-.38,1.39-.79,2.8-1.23,4.17Zm2.29-8.39-.7-.16c.32-1.4.61-2.82.87-4.23l.72.13c-.27,1.42-.56,2.85-.89,4.26Zm1.59-8.55-.71-.11c.2-1.41.37-2.86.52-4.29l.72.08c-.14,1.43-.32,2.89-.53,4.32Zm.88-8.66-.72,0c.09-1.44.14-2.89.17-4.32h.73c0,1.45-.09,2.91-.18,4.35Zm.17-8.7-.72,0-.06-1.89c0-.81-.08-1.63-.13-2.43l.72,0c.06.81.1,1.64.13,2.45,0,.63,0,1.26.06,1.9Zm-1.27-8.61c-.15-1.43-.33-2.87-.54-4.29l.72-.1c.21,1.43.39,2.88.54,4.32Zm-1.25-8.55c-.26-1.41-.56-2.83-.88-4.23l.7-.16c.33,1.41.63,2.84.89,4.26Zm-1.94-8.42c-.38-1.38-.79-2.78-1.23-4.14l.69-.22c.44,1.37.85,2.78,1.24,4.17Zm-2.62-8.24c-.49-1.34-1-2.7-1.56-4l.67-.27c.55,1.33,1.08,2.7,1.57,4.06Zm-3.28-8c-.6-1.31-1.23-2.62-1.88-3.9l.64-.33c.66,1.29,1.3,2.61,1.9,3.92ZM233.4,74c-.7-1.25-1.44-2.51-2.19-3.73l.61-.38c.76,1.23,1.5,2.5,2.21,3.76Zm-4.53-7.36c-.81-1.19-1.65-2.38-2.5-3.54l.59-.42c.85,1.16,1.7,2.36,2.5,3.55Zm-5.13-7Q222.39,58,221,56.34l.55-.47c.94,1.09,1.89,2.22,2.79,3.34Zm-5.69-6.51c-1-1-2-2.08-3-3.08l.51-.52c1,1,2.06,2.05,3.06,3.1Zm-6.2-6c-1.07-1-2.17-1.9-3.29-2.82l.46-.56c1.12.92,2.23,1.88,3.31,2.84Zm-6.68-5.5c-1.15-.86-2.32-1.71-3.5-2.53l.41-.6c1.19.83,2.37,1.68,3.52,2.55Zm-7.1-4.92c-1.21-.77-2.46-1.52-3.7-2.25l.36-.62c1.25.72,2.51,1.48,3.72,2.25Z"/><path id="Trazado_476" data-name="Trazado 476" class="cls-2" d="M237.12,172l-.65-.31c.32-.65.62-1.31.92-2l.66.3C237.75,170.65,237.44,171.3,237.12,172Z"/><path id="Trazado_477" data-name="Trazado 477" class="cls-2" d="M189.56,34.79l.68-.24-1.19-3.37,3.45-.94-.19-.7-4.19,1.15Z"/><path id="Trazado_478" data-name="Trazado 478" class="cls-2" d="M235.09,168.38l.69-.23,1.12,3.39,3.3-1.36.28.68-4,1.65Z"/></g></svg>