<svg id="Capa_1" data-name="Capa 1" xmlns="http://www.w3.org/2000/svg" viewBox="0 0 29.82 29.46"><defs><style>.cls-1{fill:#505050;}.cls-2{fill:#303030;}.cls-3{fill:#777;}.cls-4{fill:#67c8f3;opacity:0.4;isolation:isolate;}.cls-5{fill:#fff;}</style></defs><g id="Grupo_208" data-name="Grupo 208"><g id="Grupo_208-2" data-name="Grupo 208-2"><path id="Trazado_598" data-name="Trazado 598" class="cls-1" d="M17.13,6.68a7.33,7.33,0,0,0-10.38.14h0a7.37,7.37,0,0,0,9.06,11.48l6.2,6a1.84,1.84,0,0,0,2.56-2.64l-6.2-6A7.22,7.22,0,0,0,17.13,6.68Zm-2,8.22a4.3,4.3,0,1,1-.1-6.07h0A4.29,4.29,0,0,1,15.15,14.9Z"/><path id="Trazado_599" data-name="Trazado 599" class="cls-2" d="M23.28,25a2,2,0,0,1-1.39-.59l-6.11-5.91a7.66,7.66,0,0,1-9-1.12A7.55,7.55,0,0,1,17.26,6.55h0a7.39,7.39,0,0,1,1.32,9.08l6.12,5.91a2,2,0,0,1,.13,2.76l-.09.09A2,2,0,0,1,23.28,25Zm-7.45-6.94,6.31,6.1a1.67,1.67,0,1,0,2.36-2.35l-.05-.05-6.3-6.1.07-.12A7.06,7.06,0,0,0,17,6.8,7.18,7.18,0,0,0,4.84,12.09,7.08,7.08,0,0,0,7,17.15a7.31,7.31,0,0,0,8.72,1Zm-3.77-1.7a4.46,4.46,0,1,1,.08,0Zm0-8.59a4.12,4.12,0,1,0,3,7h0a4.11,4.11,0,0,0-3-7Z"/></g><g id="Grupo_209" data-name="Grupo 209"><path id="Trazado_600" data-name="Trazado 600" class="cls-3" d="M18.37,15.66a7.22,7.22,0,0,0-1.24-9,7.34,7.34,0,0,0-10.31.07L8.9,9l0,0L9,8.93a4.29,4.29,0,0,1,6.17,6l-.16.16,9.41,9.41a1.8,1.8,0,0,0,.44-2.5,1.93,1.93,0,0,0-.27-.3C22.59,19.74,20.43,17.66,18.37,15.66Z"/></g><g id="Grupo_210" data-name="Grupo 210"><path id="Trazado_601" data-name="Trazado 601" class="cls-4" d="M15.15,14.9a4.3,4.3,0,1,1-.1-6.07h0A4.29,4.29,0,0,1,15.15,14.9Z"/><path id="Trazado_602" data-name="Trazado 602" class="cls-2" d="M12.06,16.39A4.47,4.47,0,1,1,15.28,15h0a4.47,4.47,0,0,1-3.14,1.36Zm0-8.59a4.12,4.12,0,1,0,3,7h0a4.12,4.12,0,0,0-3-7Z"/></g><g id="Grupo_211" data-name="Grupo 211"><path id="Trazado_603" data-name="Trazado 603" class="cls-5" d="M14.52,10.55a.18.18,0,0,1-.15-.1,2.43,2.43,0,0,0-2.95-1.31A.19.19,0,0,1,11.19,9a.18.18,0,0,1,.11-.22h0a2.81,2.81,0,0,1,3.37,1.5.17.17,0,0,1-.08.23.11.11,0,0,1-.08,0Z"/></g></g></svg>