<?xml version="1.0" encoding="utf-8"?>
<!-- Generator: Adobe Illustrator 24.2.3, SVG Export Plug-In . SVG Version: 6.00 Build 0)  -->
<svg version="1.1" id="Capa_1" xmlns="http://www.w3.org/2000/svg" xmlns:xlink="http://www.w3.org/1999/xlink" x="0px" y="0px"
	 viewBox="0 0 20 20" style="enable-background:new 0 0 20 20;" xml:space="preserve">
<style type="text/css">
	.st0{fill:#8BC34A;}
	.st1{fill:#CCFF90;}
</style>
<path id="Trazado_257" class="st0" d="M10,2l1.8,1.4L14,3.1l0.8,2.1L16.9,6l-0.3,2.2L18,10l-1.4,1.8l0.3,2.2l-2.1,0.8L14,16.9
	l-2.2-0.3L10,18l-1.8-1.4L6,16.9l-0.8-2.1L3.1,14l0.3-2.2L2,10l1.4-1.8L3.1,6l2.1-0.8L6,3.1l2.2,0.3L10,2z"/>
<path id="Trazado_258" class="st1" d="M13.7,6.3l-5.2,5.2L6.3,9.4l-1.1,1.1l3.2,3.2l6.3-6.2L13.7,6.3z"/>
</svg>
