<svg xmlns="http://www.w3.org/2000/svg" viewBox="0 0 35 35"><path d="M12.66,26.74,7.81,29.39a4.23,4.23,0,0,0-.78.55A16.26,16.26,0,0,0,27.92,30a4.48,4.48,0,0,0-.86-.58l-5.19-2.6a2,2,0,0,1-1.1-1.77V23a5.91,5.91,0,0,0,.49-.63,12.11,12.11,0,0,0,1.62-3.26A1.62,1.62,0,0,0,24,17.57V15.4a1.64,1.64,0,0,0-.54-1.21V11s.65-4.89-6-4.89-6,4.89-6,4.89v3.15A1.64,1.64,0,0,0,11,15.4v2.17a1.65,1.65,0,0,0,.76,1.37,10.82,10.82,0,0,0,2,4.08v2A2,2,0,0,1,12.66,26.74Z" style="fill:#ecf0f1"/><path d="M17.78,1.23A16.26,16.26,0,0,0,7,29.94a4.76,4.76,0,0,1,.78-.55l4.85-2.64a2,2,0,0,0,1-1.74V23a11,11,0,0,1-2-4.08A1.62,1.62,0,0,1,11,17.57V15.4a1.64,1.64,0,0,1,.54-1.21V11s-.64-4.9,6-4.9,6,4.9,6,4.9v3.15A1.64,1.64,0,0,1,24,15.4v2.17a1.61,1.61,0,0,1-1.15,1.55,12.06,12.06,0,0,1-1.63,3.27,5.91,5.91,0,0,1-.49.63v2a2,2,0,0,0,1.1,1.77l5.19,2.6a4.51,4.51,0,0,1,.85.57A16.27,16.27,0,0,0,17.78,1.23Z" style="fill:#5978d3"/></svg>