<svg id="Capa_1" data-name="Capa 1" xmlns="http://www.w3.org/2000/svg" viewBox="0 0 20 20"><defs><style>.cls-1{fill:#40769A;}</style></defs><path id="Trazado_754" data-name="Trazado 754" class="cls-1" d="M10,1.24A8.76,8.76,0,1,0,18.76,10h0A8.76,8.76,0,0,0,10,1.24Zm5,14.34V15.2a3.26,3.26,0,0,0-3.13-3.32H8.12A3.25,3.25,0,0,0,5,15.2v.38A7.51,7.51,0,1,1,15.6,15q-.28.31-.6.6Z"/><path id="Trazado_755" data-name="Trazado 755" class="cls-1" d="M10,4.37A3.13,3.13,0,1,0,13.13,7.5,3.13,3.13,0,0,0,10,4.37Z"/></svg>