<?xml version="1.0" encoding="utf-8"?>
<!-- Generator: Adobe Illustrator 24.2.3, SVG Export Plug-In . SVG Version: 6.00 Build 0)  -->
<svg version="1.1" id="Capa_1" xmlns="http://www.w3.org/2000/svg" xmlns:xlink="http://www.w3.org/1999/xlink" x="0px" y="0px"
	 viewBox="0 0 512 512" style="enable-background:new 0 0 512 512;" xml:space="preserve">
<style type="text/css">
	.st0{fill:#CE4DA6;}
	.st1{fill:#BFA52E;}
	.st2{fill:#FFE985;}
	.st3{fill:#FEDC3D;}
	.st4{fill:#DFC136;}
</style>
<circle class="st0" cx="256" cy="256" r="236.8"/>
<g>
	<rect x="244.8" y="80.1" class="st1" width="20.6" height="30.9"/>
	<path class="st2" d="M148.9,206.8l-8.3,113.6l-7.2,5.6c-12.6,9.8-19.8,31.5-19.8,47.5h155.3V113.1c-25.3,0-70.1,10.9-88.6,28.2
		C161.9,158.5,150.8,181.7,148.9,206.8z"/>
	<path class="st3" d="M410.4,373.5c0-22.3-10.3-43.2-27.8-56.9L375,212.1c-2.2-30.2-15.6-58.3-37.9-79c-22.3-20.9-51.5-32.3-82-32.3
		s-59.7,11.5-82,32.3c-22.2,20.8-35.7,48.8-37.9,79l-7.6,104.5c-17.5,13.6-27.8,34.5-27.8,56.9h20.6c0-16,7.2-30.8,19.8-40.6
		l7.2-5.6l8.3-113.6c1.8-25,13-48.3,31.4-65.5c18.5-17.3,42.6-26.8,68-26.8v252.1H410.4z"/>
	<path class="st4" d="M275.8,373.5h-79c0,32.2,26.2,58.4,58.4,58.4L275.8,373.5z"/>
	<path class="st1" d="M255.2,373.5h58.4c0,32.2-26.2,58.4-58.4,58.4V373.5z"/>
	<polygon class="st4" points="240,373.5 254.2,383.8 419.1,383.8 419.1,363.2 254.2,363.2 	"/>
	<rect x="92.9" y="363.2" class="st3" width="162.2" height="20.6"/>
</g>
</svg>
