<svg id="Capa_1" data-name="Capa 1" xmlns="http://www.w3.org/2000/svg" viewBox="0 0 199.49 202.5"><defs><style>.cls-1{fill:#f2f2f2;}.cls-2{fill:#2f2e41;}.cls-3{fill:#ffb6b6;}.cls-4{fill:#e6e6e6;}.cls-5{fill:#3f3d56;}.cls-6{fill:#ff6584;}.cls-7{fill:#6c63ff;}.cls-8{fill:#ccc;}.cls-9{fill:#fff;}</style></defs><g id="Grupo_174" data-name="Grupo 174"><path id="Trazado_389" data-name="Trazado 389" class="cls-1" d="M139,149.74a2.11,2.11,0,0,0,2.85-.86,2.13,2.13,0,0,0,.1-1.78l.11-.58a5.66,5.66,0,0,1,9.5,4.42c-.26,6.34.05,13.17-4.16,18.28,19.22-15.7,28-42.46,22.11-66.52a17.23,17.23,0,0,1-2.93-14.17c1.62,1.57,4.78,1.15,4.3-1.58-.26-1.08-.53-2.15-.79-3.23,11.07-4.32,14,12.14.85,18.84a67.49,67.49,0,0,1,1.74,13.94,28.33,28.33,0,0,1,7.19-11.15c3.14-2.83,7.3-4.49,11.16-6.39a5.82,5.82,0,0,1,8.07,7.18c-3.13-.4-5.34,3.34-2.5,5.35a29,29,0,0,1-24.29,13.79,67.5,67.5,0,0,1-8.83,27.11c6.21-9.44,18.23-6.72,27.73-7.12a3.27,3.27,0,0,1,3.08,5.14,18,18,0,0,0-3.74.15,2.86,2.86,0,0,0-2.41,3.24,2.89,2.89,0,0,0,1.36,2c-8.33,7.64-21.24,9.28-31.38,4.4a68.66,68.66,0,0,1-10.08,10.3L133,163.36l.09-.58a18.39,18.39,0,0,0,4.29,1.74c-1.61-6.13-3.4-9.71,1.65-14.79Z"/><path id="Trazado_390" data-name="Trazado 390" class="cls-1" d="M82.26,134.74a2.1,2.1,0,0,1-3.72-1.33l-.32-.49a5.65,5.65,0,0,0-7.13,7.67C73.72,146.36,76,152.81,81.84,156c-23.73-7.3-41.93-28.77-45.57-53.26a17.28,17.28,0,0,0-2.63-14.24c-.91,2.07-4,2.87-4.58.16-.16-1.1-.32-2.19-.49-3.29-11.88.18-8.35,16.51,6.32,17.77a67.67,67.67,0,0,0,3.65,13.57A28.4,28.4,0,0,0,27.68,109c-4-1.43-8.45-1.4-12.75-1.7A5.81,5.81,0,0,0,10.16,117c2.75-1.55,6.21,1.08,4.34,4a29,29,0,0,0,27.69,3.62A67.66,67.66,0,0,0,60.6,146.44c-9.32-6.4-19.42.65-28.37,3.86a3.27,3.27,0,0,0-.92,5.92A19,19,0,0,1,34.84,155a2.86,2.86,0,0,1,3,4.49c10.6,3.94,23.17.59,30.72-7.75a69.93,69.93,0,0,0,13.23,5.74L93,145.09l-.3-.5a19.09,19.09,0,0,1-3.31,3.23c-.83-6.28-.52-10.28-7.12-13.07Z"/><path id="Trazado_391" data-name="Trazado 391" class="cls-1" d="M105.12,75.69a2.11,2.11,0,0,0,1.88-2.3,2.08,2.08,0,0,0-.91-1.53l-.22-.54a5.65,5.65,0,0,1,10.34-1.63c3.31,5.4,7.39,10.9,6.74,17.49,7.2-23.75-.45-50.84-18.73-67.55A17.21,17.21,0,0,1,93.88,9.5c2.22.4,4.61-1.71,2.69-3.7L94.11,3.56c6.78-9.76,18.36,2.29,11.21,15.17a67.5,67.5,0,0,1,9.22,10.6,28.35,28.35,0,0,1-.25-13.27c1-4.1,3.55-7.8,5.7-11.52A5.82,5.82,0,0,1,130.69,6c-2.82,1.42-2.58,5.76.9,5.84a29,29,0,0,1-12.47,25,67.65,67.65,0,0,1,7.79,27.44C126.8,53,138.29,48.51,146,42.88a3.28,3.28,0,0,1,5.42,2.55,18.16,18.16,0,0,0-3,2.2,2.86,2.86,0,0,0,2.07,5c-2.66,11-12.46,19.55-23.59,21.15a69.64,69.64,0,0,1-2.63,14.18l-16.51,2.44c-.09-.18-.17-.36-.25-.54a18.54,18.54,0,0,0,4.53-.94c-4.75-4.19-8.24-6.17-6.87-13.2Z"/><path id="Trazado_392" data-name="Trazado 392" class="cls-2" d="M122.06,72.89c-7.51,0-11.59-.91-13-2.87-1.26-1.73-.42-4,.56-6.66a18.6,18.6,0,0,0,1.5-6.18c0-10.37,5.25-15.62,15.62-15.62,5.15,0,10.69,2.73,14.81,7.32,3.74,4.18,5.61,9.17,5.11,13.7h0a8.8,8.8,0,0,1-5.44,7.7l-.2.09,0-.2a8.83,8.83,0,0,0-1.43-3,10,10,0,0,1-1,4l0,.07-.08,0a51.53,51.53,0,0,1-11.66,1.49C125.05,72.86,123.49,72.89,122.06,72.89Z"/><path id="Trazado_393" data-name="Trazado 393" class="cls-3" d="M117.31,89.53A5.63,5.63,0,0,0,110.17,86a5.9,5.9,0,0,0-1.62.87L83.83,101.67,76.09,82.79a5.49,5.49,0,1,0-7.63,1.44A5.32,5.32,0,0,0,70,85c.48,5.44,3.13,29.78,12.35,28.89,7.75-.74,27-13.56,33-18a5.62,5.62,0,0,0,2-6.33Z"/><path id="Trazado_394" data-name="Trazado 394" class="cls-2" d="M141.14,202.5H119.62L116,184.66l-1.17,17.84h-20A405.45,405.45,0,0,1,97,160.55l.25-.84.39-1.35.25-.85,4.14-14.21.32-1.12H127.3a36.32,36.32,0,0,1,4,4.36q.62.78,1.26,1.68c.3.43.62.88.93,1.35a45.32,45.32,0,0,1,6.14,13.5h0c.22.82.41,1.67.58,2.53h0c.15.76.29,1.54.39,2.33.08.58.15,1.16.2,1.76a40.51,40.51,0,0,1-.31,9.84Z"/><ellipse id="Elipse_50" data-name="Elipse 50" class="cls-4" cx="7.66" cy="27.29" rx="2.71" ry="1.89" transform="translate(-9.34 4.61) rotate(-21.16)"/><ellipse id="Elipse_51" data-name="Elipse 51" class="cls-5" cx="25.26" cy="25.03" rx="2.71" ry="1.89" transform="translate(-7.33 10.81) rotate(-21.16)"/><ellipse id="Elipse_52" data-name="Elipse 52" class="cls-6" cx="6.14" cy="44.49" rx="2.71" ry="1.89" transform="translate(-15.65 5.22) rotate(-21.16)"/><ellipse id="Elipse_53" data-name="Elipse 53" class="cls-4" cx="1.33" cy="51.59" rx="1.19" ry="1.71" transform="translate(-11.83 1.69) rotate(-13.3)"/><ellipse id="Elipse_54" data-name="Elipse 54" class="cls-5" cx="1.23" cy="63.42" rx="1.19" ry="1.71" transform="translate(-14.56 1.98) rotate(-13.3)"/><ellipse id="Elipse_55" data-name="Elipse 55" class="cls-4" cx="16.67" cy="38.93" rx="1.19" ry="1.71" transform="translate(-8.51 4.88) rotate(-13.3)"/><ellipse id="Elipse_56" data-name="Elipse 56" class="cls-6" cx="7.4" cy="34.76" rx="1.19" ry="1.71" transform="translate(-7.8 2.64) rotate(-13.3)"/><ellipse id="Elipse_57" data-name="Elipse 57" class="cls-5" cx="17.23" cy="24.43" rx="1.19" ry="1.71" transform="translate(-5.16 4.62) rotate(-13.3)"/><ellipse id="Elipse_58" data-name="Elipse 58" class="cls-4" cx="20.12" cy="107.41" rx="1.89" ry="2.71" transform="translate(-74.71 53.11) rotate(-49.6)"/><ellipse id="Elipse_59" data-name="Elipse 59" class="cls-5" cx="9.76" cy="92.21" rx="1.89" ry="2.71" transform="translate(-66.79 39.88) rotate(-49.6)"/><ellipse id="Elipse_60" data-name="Elipse 60" class="cls-6" cx="39.8" cy="101.28" rx="1.89" ry="2.71" transform="translate(-63.12 65.94) rotate(-49.6)"/><ellipse id="Elipse_61" data-name="Elipse 61" class="cls-4" cx="49.62" cy="102.37" rx="1.72" ry="1.19" transform="translate(-55.57 59.05) rotate(-41.76)"/><ellipse id="Elipse_62" data-name="Elipse 62" class="cls-5" cx="61.34" cy="96.83" rx="1.72" ry="1.19" transform="translate(-48.91 65.45) rotate(-41.76)"/><ellipse id="Elipse_63" data-name="Elipse 63" class="cls-4" cx="24.38" cy="94.17" rx="1.72" ry="1.19" transform="translate(-56.52 40.16) rotate(-41.76)"/><ellipse id="Elipse_64" data-name="Elipse 64" class="cls-6" cx="26.81" cy="103.9" rx="1.72" ry="1.19" transform="translate(-62.38 44.25) rotate(-41.76)"/><ellipse id="Elipse_65" data-name="Elipse 65" class="cls-5" cx="13.06" cy="99.97" rx="1.72" ry="1.19" transform="translate(-63.26 34.09) rotate(-41.76)"/><ellipse id="Elipse_66" data-name="Elipse 66" class="cls-4" cx="106.82" cy="8.91" rx="1.89" ry="2.71" transform="translate(7.03 48.06) rotate(-26.19)"/><ellipse id="Elipse_67" data-name="Elipse 67" class="cls-5" cx="111.3" cy="26.25" rx="1.89" ry="2.71" transform="translate(-0.16 51.81) rotate(-26.19)"/><ellipse id="Elipse_68" data-name="Elipse 68" class="cls-6" cx="88.95" cy="8.71" rx="1.89" ry="2.71" transform="translate(5.29 40.15) rotate(-26.19)"/><ellipse id="Elipse_69" data-name="Elipse 69" class="cls-4" cx="80.57" cy="4.51" rx="1.72" ry="1.19" transform="translate(2.67 25.58) rotate(-18.34)"/><ellipse id="Elipse_70" data-name="Elipse 70" class="cls-5" cx="67.35" cy="5.39" rx="1.72" ry="1.19" transform="translate(1.73 21.47) rotate(-18.34)"/><ellipse id="Elipse_71" data-name="Elipse 71" class="cls-4" cx="96.3" cy="18.74" rx="1.72" ry="1.19" transform="translate(-1.01 31.26) rotate(-18.34)"/><ellipse id="Elipse_72" data-name="Elipse 72" class="cls-6" cx="97.99" cy="9.31" rx="1.72" ry="1.19" transform="translate(2.05 31.31) rotate(-18.34)"/><ellipse id="Elipse_73" data-name="Elipse 73" class="cls-5" cx="111.16" cy="18.19" rx="1.72" ry="1.19" transform="translate(-0.08 35.91) rotate(-18.34)"/><path id="Trazado_395" data-name="Trazado 395" class="cls-7" d="M117.75,79.1l11.86-.61,5.5,8.7s10.37,1.73,9.65,13.94-12.61,22.93-12.61,22.93l.51,6.35-.88,2.53.11,1.41,1.2,1.5.12,1.55-1.06,2.46,1.45,2.35-30.5-3L102,135.19l1.63-2.18-.91-2.85,1.37-2.74.71-8.69S97,107,105.94,98.2l3.59-6.1,4-4.9Z"/><circle id="Elipse_74" data-name="Elipse 74" class="cls-3" cx="123.17" cy="61.08" r="12.56"/><path id="Trazado_396" data-name="Trazado 396" class="cls-2" d="M121.23,60q-1.62,0-3.24-.09h-.19l0-.2a8.84,8.84,0,0,0-.26-3.58,10.14,10.14,0,0,1-2.47,3.49l-.06,0H115A62.61,62.61,0,0,1,106.24,58l-.11,0,0-.11a15.56,15.56,0,0,1-.33-3.19,9.88,9.88,0,0,1,3.41-7.93c2.4-1.92,5.84-2.51,9.68-1.67h12.3a5.1,5.1,0,0,1,5.1,5.1V58l-.13,0A59,59,0,0,1,121.24,60Z"/><path id="Trazado_397" data-name="Trazado 397" class="cls-8" d="M16.62,43.53a2.2,2.2,0,0,0-1.32,2.83l13.27,36.4a2.2,2.2,0,0,0,2.83,1.32L82.89,65.32a2.23,2.23,0,0,0,1.32-2.84L70.94,26.08a2.22,2.22,0,0,0-2.83-1.32Z"/><path id="Trazado_398" data-name="Trazado 398" class="cls-9" d="M63.72,70.29,32.21,81.78a2.38,2.38,0,0,1-3.05-1.42l-12-33a2.38,2.38,0,0,1,1.42-3.05l48.57-17.7a2.38,2.38,0,0,1,3,1.42L76,44A20.56,20.56,0,0,1,63.72,70.29Z"/><path id="Trazado_399" data-name="Trazado 399" class="cls-7" d="M47.22,48.91l-7.49,2.73a.76.76,0,0,1-.52-1.43l7.48-2.73a.76.76,0,0,1,.54,1.42Z"/><path id="Trazado_400" data-name="Trazado 400" class="cls-7" d="M66,45.62,41.74,54.46A.76.76,0,1,1,41.2,53h0l24.27-8.84a.75.75,0,0,1,1,.46A.76.76,0,0,1,66,45.62Z"/><path id="Trazado_401" data-name="Trazado 401" class="cls-7" d="M67.49,49.16,43.22,58a.76.76,0,0,1-1-.46.77.77,0,0,1,.45-1L67,47.73a.76.76,0,0,1,1,.47A.75.75,0,0,1,67.49,49.16Z"/><path id="Trazado_402" data-name="Trazado 402" class="cls-7" d="M69,52.71,44.7,61.56a.76.76,0,0,1-.53-1.43l24.28-8.85A.76.76,0,0,1,69,52.71Z"/><path id="Trazado_403" data-name="Trazado 403" class="cls-7" d="M70.45,56.26,46.18,65.11a.76.76,0,0,1-1-.47.75.75,0,0,1,.45-1l24.28-8.85a.76.76,0,0,1,.53,1.42h0Z"/><path id="Trazado_404" data-name="Trazado 404" class="cls-3" d="M169.76,65.06,156.47,96.87a5.56,5.56,0,0,1-7.2,3h0a5.57,5.57,0,0,1-3.09-7.24l.12-.27,14.82-32.62,8.17-20.2a4.85,4.85,0,1,1,6.87,0,5.76,5.76,0,0,1-.66.56Z"/></g></svg>