<svg xmlns="http://www.w3.org/2000/svg" xmlns:xlink="http://www.w3.org/1999/xlink" viewBox="0 0 310.08 307.69"><defs><clipPath id="a"><rect width="310.08" height="307.69" style="fill:none"/></clipPath><linearGradient id="b" x1="-1658.6" y1="651.02" x2="-1657.91" y2="653.4" gradientTransform="matrix(150.93, 0, 0, -219.55, 250454.72, 143270.76)" gradientUnits="userSpaceOnUse"><stop offset="0" stop-color="#fff"/><stop offset="1" stop-color="#94b9ff"/></linearGradient><linearGradient id="c" x1="-1656.87" y1="647.91" x2="-1656.79" y2="650.05" gradientTransform="matrix(124.42, 0, 0, -73.72, 206303.38, 48020.83)" xlink:href="#b"/><linearGradient id="d" x1="-1646.72" y1="649.66" x2="-1646.44" y2="651.77" gradientTransform="matrix(58.19, 0, 0, -64.81, 96005.77, 42280.56)" xlink:href="#b"/><linearGradient id="e" x1="-1655.86" y1="650.73" x2="-1655.83" y2="652.87" gradientTransform="matrix(113.09, 0, 0, -37.67, 187423.85, 24621.41)" xlink:href="#b"/><linearGradient id="f" x1="-1615.6" y1="625.78" x2="-1615.49" y2="627.91" gradientTransform="matrix(21.68, 0, 0, -15.27, 35292.76, 9821.61)" xlink:href="#b"/></defs><g style="clip-path:url(#a)"><path d="M160.54,274.46A131.85,131.85,0,1,0,28.7,142.62,131.83,131.83,0,0,0,160.54,274.46Z" style="fill:none;stroke:#d1e8f7;stroke-miterlimit:10;strokeWidth:1.9160000085830688px"/><path d="M53.28,69.85a4.65,4.65,0,1,0-4.64-4.65,4.65,4.65,0,0,0,4.64,4.65Z" style="fill:#febb94"/><path d="M292.38,152.28a4.65,4.65,0,1,0-4.64-4.64h0A4.64,4.64,0,0,0,292.38,152.28Z" style="fill:#5661ae"/><path d="M166,279.1a4.64,4.64,0,1,0-4.64-4.64h0A4.64,4.64,0,0,0,166,279.1Z" style="fill:#1c85e8"/><path d="M163.6,241.84a98.36,98.36,0,1,0-98.36-98.35,98.36,98.36,0,0,0,98.36,98.35Z" style="fill:none;stroke:#d1e8f7;stroke-miterlimit:10;strokeWidth:1.4299999475479126px"/><path d="M260.26,166.76a3.47,3.47,0,1,0-3.46-3.46h0A3.46,3.46,0,0,0,260.26,166.76Z" style="fill:#febb94"/><path d="M72.38,183.91a3.47,3.47,0,1,0-3.47-3.46h0A3.46,3.46,0,0,0,72.38,183.91Z" style="fill:#5661ae"/><path d="M119.54,58.92a3.47,3.47,0,1,0-3.46-3.46h0A3.46,3.46,0,0,0,119.54,58.92Z" style="fill:#1c85e8"/><path d="M214.78,252.4H101.2a8,8,0,0,1-8.12-7.81,8.26,8.26,0,0,1,.06-1.11l19.39-201.7a10,10,0,0,1,9.78-8.93H235.89A8,8,0,0,1,244,40.66a7.07,7.07,0,0,1-.06,1.12l-19.39,201.7A10,10,0,0,1,214.78,252.4Z" style="fill:#1c85e8"/><path d="M206.78,252.4H93.2a8,8,0,0,1-8.12-7.81,8.17,8.17,0,0,1,0-1.11l19.39-201.7a10,10,0,0,1,9.78-8.93H227.88A8,8,0,0,1,236,40.66a10.51,10.51,0,0,1-.06,1.12l-19.39,201.7A10,10,0,0,1,206.78,252.4Z" style="fill:url(#b)"/><path d="M202.48,245.69H98.79a7.38,7.38,0,0,1-7.52-7.23,7.25,7.25,0,0,1,0-1l18.22-189.6a9.32,9.32,0,0,1,9.07-8.27H222.29a7.38,7.38,0,0,1,7.53,7.24,7.12,7.12,0,0,1-.06,1l-18.22,189.6A9.31,9.31,0,0,1,202.48,245.69Z" style="fill:#fff"/><path d="M210.79,125.81l-111.23-.1a3.2,3.2,0,0,1-3.28-3.11c0-.14,0-.28,0-.41l6-66.59a4,4,0,0,1,3.9-3.51l111.23.1a3.2,3.2,0,0,1,3.28,3.11,2.88,2.88,0,0,1,0,.41l-6,66.58A4,4,0,0,1,210.79,125.81Z" style="fill:url(#c)"/><path d="M207.29,197.55h-47a2.42,2.42,0,0,1-2.48-2.37c0-.11,0-.23,0-.34l5.71-59.38a3,3,0,0,1,3-2.72h47a2.43,2.43,0,0,1,2.47,2.38,2,2,0,0,1,0,.34l-5.71,59.38a3,3,0,0,1-3,2.71Z" style="fill:url(#d)"/><path d="M196.08,164.79c5.3-5,5.88-13,1.29-17.87s-12.61-4.62-17.91.43-5.88,13.06-1.29,17.87S190.78,169.84,196.08,164.79Z" style="fill:none;stroke:#ef6a77;stroke-miterlimit:10;strokeWidth:11.6899995803833px"/><path d="M181.81,167.76a11.29,11.29,0,0,1-6.68-11.69A14.22,14.22,0,0,1,189,143.44" style="fill:none;stroke:#fff;stroke-linecap:round;stroke-miterlimit:10;strokeWidth:11.6899995803833px"/><path d="M180.77,178.62h9.67" style="fill:none;stroke:#fff;stroke-linecap:round;stroke-miterlimit:10;strokeWidth:5.984000205993652px"/><path d="M179.71,189.57h9.68" style="fill:none;stroke:#fff;stroke-linecap:round;stroke-miterlimit:10;strokeWidth:5.984000205993652px"/><path d="M175.09,184h20" style="fill:none;stroke:#fff;stroke-linecap:round;stroke-miterlimit:10;strokeWidth:5.984000205993652px;opacity:0.4000000059604645;isolation:isolate"/><path d="M149.8,197.55h-47a2.41,2.41,0,0,1-2.47-2.37,1.9,1.9,0,0,1,0-.34L106,135.46a3.05,3.05,0,0,1,3-2.72h47a2.44,2.44,0,0,1,2.47,2.38c0,.11,0,.22,0,.34l-5.71,59.38a3,3,0,0,1-3,2.71Z" style="fill:#febb94"/><path d="M138.59,164.79c5.3-5,5.88-13,1.29-17.87s-12.61-4.62-17.91.43-5.88,13.06-1.29,17.87S133.29,169.84,138.59,164.79Z" style="fill:none;stroke:#ef6a77;stroke-miterlimit:10;strokeWidth:11.6899995803833px"/><path d="M142.92,156.07a14.22,14.22,0,0,1-13.86,12.64,11.27,11.27,0,0,1-11.5-11.05,12.1,12.1,0,0,1,.08-1.59,14.21,14.21,0,0,1,13.85-12.63" style="fill:none;stroke:#fff;stroke-linecap:round;stroke-miterlimit:10;strokeWidth:11.6899995803833px"/><path d="M123.28,178.62H133" style="fill:none;stroke:#fff;stroke-linecap:round;stroke-miterlimit:10;strokeWidth:5.984000205993652px"/><path d="M122.22,189.57h9.67" style="fill:none;stroke:#fff;stroke-linecap:round;stroke-miterlimit:10;strokeWidth:5.984000205993652px"/><path d="M117.6,184h20" style="fill:none;stroke:#fff;stroke-linecap:round;stroke-miterlimit:10;strokeWidth:5.984000205993652px;opacity:0.4000000059604645;isolation:isolate"/><path d="M203.35,240H98.56a2.29,2.29,0,0,1-2.34-2.25c0-.11,0-.21,0-.32l3.13-32.53a2.9,2.9,0,0,1,2.82-2.57H207a2.3,2.3,0,0,1,2.34,2.26c0,.11,0,.21,0,.31l-3.13,32.53a2.9,2.9,0,0,1-2.82,2.57Z" style="fill:url(#e)"/><path d="M105.86,232.48l1.48-15.37" style="fill:none;stroke:#fff;stroke-linecap:round;stroke-miterlimit:10;strokeWidth:11.6899995803833px"/><path d="M116.71,221.71l-1,10.78" style="fill:none;stroke:#fff;stroke-linecap:round;stroke-miterlimit:10;strokeWidth:11.6899995803833px"/><path d="M126.16,225.39l-.68,7.09" style="fill:none;stroke:#fff;stroke-linecap:round;stroke-miterlimit:10;strokeWidth:11.6899995803833px"/><path d="M137.15,213.11l-1.86,19.37" style="fill:none;stroke:#fff;stroke-linecap:round;stroke-miterlimit:10;strokeWidth:11.6899995803833px"/><path d="M145.78,225.39l-.68,7.09" style="fill:none;stroke:#fff;stroke-linecap:round;stroke-miterlimit:10;strokeWidth:11.6899995803833px"/><path d="M156.69,214l-1.78,18.52" style="fill:none;stroke:#fff;stroke-linecap:round;stroke-miterlimit:10;strokeWidth:11.6899995803833px"/><path d="M165.46,224.79l-.74,7.69" style="fill:none;stroke:#fff;stroke-linecap:round;stroke-miterlimit:10;strokeWidth:11.6899995803833px"/><path d="M174.93,228.39l-.4,4.1" style="fill:none;stroke:#fff;stroke-linecap:round;stroke-miterlimit:10;strokeWidth:11.6899995803833px"/><path d="M185.82,217.1l-1.48,15.38" style="fill:none;stroke:#fff;stroke-linecap:round;stroke-miterlimit:10;strokeWidth:11.6899995803833px"/><path d="M196.19,211.25l-2,21.23" style="fill:none;stroke:#fff;stroke-linecap:round;stroke-miterlimit:10;strokeWidth:11.6899995803833px"/><path d="M108.57,115.6l5.89,9.22a1.86,1.86,0,0,1-.56,2.58l-1,.62a7.84,7.84,0,0,1-10.22-1.47l-7.82-9.11Z" style="fill:#ffccb3"/><path d="M104.08,119.15s2.18,7.48,6.56,9.89a18.77,18.77,0,0,0,3.26-1.64L109,119.15" style="fill:#fcba9f"/><path d="M3.33,152.82l23.14-11.09A12.91,12.91,0,0,0,31.79,137l22.34-35.15a12.86,12.86,0,0,1,5.79-4.93L92.11,83.06l-6.89,52.11-.12,1.92s-8.52,22-29.38,30.06l-33.36,20.4Z" style="fill:#ffccb3"/><path d="M28.51,140.51s10.94,27.31,27.2,26.64l-10.38,6.36S10.07,167,23.27,143.21Z" style="fill:#fcba9f"/><path d="M87.12,92.71s-11.38,6.9-10.77,22.89L90,110.49Z" style="fill:#fcba9f"/><path d="M115.71,115.6l5.89,9.22a1.88,1.88,0,0,1-.56,2.58l-1,.62a7.85,7.85,0,0,1-10.23-1.47L102,117.43Z" style="fill:#ffccb3"/><path d="M202.77,119.23l-111.23-.1a3.19,3.19,0,0,1-3.28-3.1,3,3,0,0,1,0-.42l6-66.58a4,4,0,0,1,3.9-3.52l111.22.1a3.2,3.2,0,0,1,3.28,3.12,2.81,2.81,0,0,1,0,.41l-6,66.58a4,4,0,0,1-3.9,3.51Z" style="fill:#1c85e8"/><path d="M98.91,85s10-2,12.67,2.66,5,13.49,12.15,12.35,12.62-24.13,19.65-23.92,4.55,15.27,12.2,15.48,6.29-8.41,11.39-8.17c6.18.29,3.88,18.16,11.94,18.37s9.38-23.61,21.58-23.19" style="fill:none;stroke:#fff;stroke-linecap:round;stroke-miterlimit:10;strokeWidth:7.565000057220459px"/><path d="M104.58,56.67h19.57" style="fill:none;stroke:#fff;stroke-linecap:round;stroke-miterlimit:10;strokeWidth:11.99899959564209px"/><path d="M103.78,65.64l40.44,0" style="fill:none;stroke:#fff;stroke-linecap:round;stroke-miterlimit:10;strokeWidth:11.99899959564209px;opacity:0.4000000059604645;isolation:isolate"/><path d="M65.91,118.9l14.27-6.28,14.59-10c3.84-2.62,11.85-3.8,14.74-.16s-.36,11-3.92,14.14L92.11,128.42l-7,8.68Z" style="fill:#ffccb3"/><path d="M94.91,106.44s1.93,7.43,6.92,8.72l5.3-4.48a4.93,4.93,0,0,0,1-6.9l-.17-.21h0a4.94,4.94,0,0,0-6.29-1.1Z" style="fill:none;stroke:#ff967c;stroke-linecap:round;strokeWidth:3px"/><path d="M27.34,140.82s-2.76,19.77,21.3,31.1c0,0-17.28,15.85-23.95,18.52S-7,165.86,1.89,150.39C4.39,146.05,27.34,140.82,27.34,140.82Z" style="fill:#1c85e8"/><path d="M118.52,120s-9.38.2-12.64,1.9l-2.36-2.74H118Z" style="fill:#fcba9f"/><path d="M291.2,119.24H224.52a8.19,8.19,0,0,1-8.34-8,7.67,7.67,0,0,1,0-1.07l8.94-101a10.14,10.14,0,0,1,9.9-9.1h66.69a8.2,8.2,0,0,1,8.34,8,9.4,9.4,0,0,1-.05,1.06l-8.95,101A10.15,10.15,0,0,1,291.2,119.24Z" style="fill:#febb94"/><path d="M281.65,57.05C292.21,47,293.28,30.93,284,21.26s-25.3-9.31-35.86.8-11.62,26.12-2.38,35.79S271.1,67.16,281.65,57.05Z" style="fill:#fff"/><path d="M266.33,40.34l16.74,15.27s3.8-4.09,4.94-7Z" style="fill:url(#f)"/><path d="M267.44,11l-2.38,26.87a2.5,2.5,0,0,0,1.27,2.46L289,53S302.53,15.36,267.44,11Z" style="fill:#1c85e8"/><path d="M231.89,83.47h27.63" style="fill:none;stroke:#fff;stroke-linecap:round;stroke-miterlimit:10;strokeWidth:12px"/><path d="M229.87,106.31h27.62" style="fill:none;stroke:#fff;stroke-linecap:round;stroke-miterlimit:10;strokeWidth:12px"/><path d="M230.89,94.76H288" style="fill:none;stroke:#fff;stroke-linecap:round;stroke-miterlimit:10;strokeWidth:12px;opacity:0.4000000059604645;isolation:isolate"/><path d="M209.19,193.67s8.91-2.37,13.65,2.73c0,0,8.51-1.55,12,3.19,0,0,7.55.44,9.74,3.52a10.4,10.4,0,0,1,8.23,6.44c2.06,4.87.31,33-1.74,43.1a14.3,14.3,0,0,0,.51,7.56l5.22,15-36.13,15.1L212.07,268s-10.43-16.78-11.93-19.76,1-27.74-4-43.2Z" style="fill:#ffccb3"/><path d="M216.74,280.1l-1-2.72s18.74-1.2,35.86-17.17l1.64,4.71a22.5,22.5,0,0,1-11.74,14.3C231.83,283.8,216.74,280.1,216.74,280.1Z" style="fill:#fcba9f"/><path d="M216.74,280.1s22.69,2.07,36.46-15.18c0,0,5.08,2.66,12.89,22.18,2.4,6-37.64,27.33-44.11,18.46A62.82,62.82,0,0,1,216.74,280.1Z" style="fill:#5661ae"/><path d="M198.31,214.33s-.78,4.15-4.48,4.15c-2.42,0-12.88-3.16-19.87-5.36a9.73,9.73,0,0,0-10.63,3.34l-.42.55a2.55,2.55,0,0,0,.46,3.58l.1.07c5.91,4.13,21.88,15.34,23.92,17.38,2.52,2.51,16.51,16.6,16.51,16.6Z" style="fill:#ffccb3"/><path d="M197.46,210.16s7.56,10.24,6.44,12.48S191.05,218,191.05,218,200.52,220.47,197.46,210.16Z" style="fill:#fcba9f"/><path d="M196.09,205l-12.73-38.65A10.44,10.44,0,0,1,190,153.17l.31-.09a4.68,4.68,0,0,1,5.62,2.62l17.85,41.05Z" style="fill:#ffccb3"/><path d="M190.57,188.23a5,5,0,0,0,3.3,2.32" style="fill:none;stroke:#ff967c;stroke-linecap:round;strokeWidth:3px"/><path d="M195.15,168.44a9.74,9.74,0,0,0,4-2.76l-4.74-11.26a1.84,1.84,0,0,0-2.42-1l-.21.1c-1.69,1-3.91,2.73-4,5.25l3.2,8a3.14,3.14,0,0,0,4.07,1.73l.11-.05Z" style="fill:none;stroke:#ff967c;stroke-linecap:round;strokeWidth:3px"/><path d="M212.35,193.45l4.38,9.66" style="fill:none;stroke:#ff967c;stroke-linecap:round;strokeWidth:3px"/><path d="M223,196.6a19,19,0,0,1,3.42,10.9" style="fill:none;stroke:#ff967c;stroke-linecap:round;strokeWidth:3px"/><path d="M235,199.77s2.21,5.07,2.39,9.08" style="fill:none;stroke:#ff967c;stroke-linecap:round;strokeWidth:3px"/><path d="M244.87,203.41a14.32,14.32,0,0,1,1,6.76" style="fill:none;stroke:#ff967c;stroke-linecap:round;strokeWidth:3px"/><path d="M172.82,225.39s2.61-3.32,1.71-5-4.88-4-7.19-3.76a9.37,9.37,0,0,0-3.13,1.07,1.14,1.14,0,0,0-.1,2Z" style="fill:none;stroke:#ff967c;stroke-linecap:round;strokeWidth:3px"/><path d="M127.87,265.86H48.24a2.29,2.29,0,0,1-2.34-2.26,1.67,1.67,0,0,1,0-.31L49,230.76a2.9,2.9,0,0,1,2.82-2.57h79.63a2.3,2.3,0,0,1,2.34,2.26,1.62,1.62,0,0,1,0,.31l-3.12,32.53a2.91,2.91,0,0,1-2.82,2.57Z" style="fill:#febb94"/><path d="M55.71,236.67h49.15" style="fill:none;stroke:#ef6a77;stroke-linecap:round;stroke-miterlimit:10;strokeWidth:11.6899995803833px"/><path d="M55.71,236.67H89.86" style="fill:none;stroke:#fff;stroke-linecap:round;stroke-miterlimit:10;strokeWidth:11.6899995803833px"/><path d="M55,247h49.14" style="fill:none;stroke:#ef6a77;stroke-linecap:round;stroke-miterlimit:10;strokeWidth:11.6899995803833px"/><path d="M55,247H75.4" style="fill:none;stroke:#fff;stroke-linecap:round;stroke-miterlimit:10;strokeWidth:11.6899995803833px"/><path d="M53.37,257.38h49.14" style="fill:none;stroke:#ef6a77;stroke-linecap:round;stroke-miterlimit:10;strokeWidth:11.6899995803833px"/><path d="M53.37,257.38H65.86" style="fill:none;stroke:#fff;stroke-linecap:round;stroke-miterlimit:10;strokeWidth:11.6899995803833px"/><path d="M122.25,239.61a2.94,2.94,0,1,0-2.93-2.94h0A2.93,2.93,0,0,0,122.25,239.61Z" style="fill:#fff"/><path d="M121.3,249.51a2.94,2.94,0,1,0-2.94-2.94h0A2.94,2.94,0,0,0,121.3,249.51Z" style="fill:#fff"/><path d="M120.24,260.32a2.94,2.94,0,1,0-2.94-2.94h0A2.94,2.94,0,0,0,120.24,260.32Z" style="fill:#fff"/></g></svg>