<svg id="Capa_1" data-name="Capa 1" xmlns="http://www.w3.org/2000/svg" viewBox="0 0 300 180"><defs><style>.cls-1{fill:#3f3d56;}.cls-2{fill:#2f2e41;}.cls-3{fill:#ffb8b8;}.cls-4{fill:#ccc;}.cls-5{fill:#6c63ff;}.cls-6{fill:#fff;}.cls-7{fill:#e6e6e6;}.cls-8{fill:#f2f2f2;}.cls-9{fill:#ff6584;}</style></defs><g id="Grupo_204" data-name="Grupo 204"><path id="Trazado_576" data-name="Trazado 576" class="cls-1" d="M283.16,137.12H16.84a.7.7,0,0,1,0-1.4H283.16a.7.7,0,0,1,0,1.4Z"/><circle id="Elipse_109" data-name="Elipse 109" class="cls-2" cx="155.28" cy="26.68" r="18.87"/><path id="Trazado_577" data-name="Trazado 577" class="cls-3" d="M137.35,147.83l-.5-8.55,32.76-6,.74,12.63Z"/><path id="Trazado_578" data-name="Trazado 578" class="cls-2" d="M138.94,133l1,16.5-10.39.61-1.57-26.89a10.42,10.42,0,0,1,11,9.78Z"/><path id="Trazado_579" data-name="Trazado 579" class="cls-3" d="M151.6,147.75l-5.44,6.62L118,136.54l8-9.77Z"/><path id="Trazado_580" data-name="Trazado 580" class="cls-2" d="M140.38,157.54l10.5-12.77,8,6.6-17.1,20.82a10.41,10.41,0,0,1-1.44-14.65Z"/><path id="Trazado_581" data-name="Trazado 581" class="cls-2" d="M135.94,117l-3.72,17.53a2.79,2.79,0,0,0,2.17,3.31,2.31,2.31,0,0,0,.52.06l36.56.59a2.79,2.79,0,0,0,2.84-2.75,3.08,3.08,0,0,0,0-.53l-3.2-18.12a2.81,2.81,0,0,0-2.75-2.31H138.68A2.81,2.81,0,0,0,135.94,117Z"/><path id="Trazado_582" data-name="Trazado 582" class="cls-2" d="M142,123.14s-35.65-22.37-42.63-10.48c-3.5,5.94-1.75,11.7.87,16a24.18,24.18,0,0,0,10.07,9l28.9,14.14,10.48-11.19-7-6.29Z"/><path id="Trazado_583" data-name="Trazado 583" class="cls-2" d="M160.18,119.64s46.13-13.28,37,11.89-43.33,15.38-43.33,15.38l-3.5-10.49L162.27,128Z"/><circle id="Elipse_110" data-name="Elipse 110" class="cls-3" cx="155.52" cy="30.99" r="17.17"/><path id="Trazado_584" data-name="Trazado 584" class="cls-4" d="M156.42,122.42a91.91,91.91,0,0,1-21.14-2.79l-.2,0L125.5,75.51a16.22,16.22,0,0,1,10.42-18.83A56.22,56.22,0,0,1,171.78,56h0a16.4,16.4,0,0,1,10.93,19.41L172,119.54l-.15.07C167.41,121.72,161.85,122.42,156.42,122.42Z"/><path id="Trazado_585" data-name="Trazado 585" class="cls-3" d="M143.55,125.84a7,7,0,0,1,9-4.23,6.79,6.79,0,0,1,1.13.52l18.86-16.37,1.71,12.86L156.06,132.2a7.07,7.07,0,0,1-12.51-6.36Z"/><path id="Trazado_586" data-name="Trazado 586" class="cls-4" d="M161.54,129.41a3.14,3.14,0,0,1-3-2.1l-2.27-6.45a3.12,3.12,0,0,1,.91-3.43L182.9,102,172.77,56.8l.25-.06c.1,0,10.49-2.39,14.74,9,3,7.94,14,25.21,13.23,36.89a10.41,10.41,0,0,1-8.62,9.6l-28.93,16.57A3.1,3.1,0,0,1,161.54,129.41Z"/><path id="Trazado_587" data-name="Trazado 587" class="cls-3" d="M164.42,124.31a7,7,0,0,0-9-4.24,6.84,6.84,0,0,0-1.13.53l-18.86-16.37-1.71,12.86,18.18,13.58a7.07,7.07,0,0,0,12.51-6.36Z"/><path id="Trazado_588" data-name="Trazado 588" class="cls-4" d="M148.33,129.41a3.1,3.1,0,0,1-1.9-.65l-31-15.18a10.39,10.39,0,0,1-8.61-9.6C106,92.31,119.13,73.64,122.11,65.7c4.25-11.35,14.63-9,14.74-9l.25.06-12.22,46.6,27.8,14a3.13,3.13,0,0,1,.91,3.42l-2.28,6.45a3.09,3.09,0,0,1-2.07,2,3.14,3.14,0,0,1-.91.14Z"/><path id="Trazado_589" data-name="Trazado 589" class="cls-5" d="M185.34,136.42H123.13a4.89,4.89,0,0,1-4.89-4.89V97.28a4.89,4.89,0,0,1,4.89-4.89h62.21a4.89,4.89,0,0,1,4.89,4.89v34.24A4.89,4.89,0,0,1,185.34,136.42Z"/><circle id="Elipse_111" data-name="Elipse 111" class="cls-6" cx="154.24" cy="114.4" r="4.19"/><path id="Trazado_590" data-name="Trazado 590" class="cls-2" d="M138.18,30.29c-1-2.58.65-5.66,3.13-6.91s5.46-1,8.11-.19c2.23.7,4.31,1.77,6.49,2.62A14.49,14.49,0,0,0,162.72,27a6.86,6.86,0,0,0,5.57-3.69,6.77,6.77,0,0,0-1.2-6.79,13.05,13.05,0,0,0-6-3.86c-5.11-1.8-11-1.86-15.75.76s-8,8.18-7,13.51"/><path id="Trazado_591" data-name="Trazado 591" class="cls-7" d="M39,129A85.52,85.52,0,0,1,46,102q1.61-3.56,3.51-7a.51.51,0,0,0-.19-.71.52.52,0,0,0-.71.18A86.6,86.6,0,0,0,39,121.09c-.48,2.6-.85,5.22-1.09,7.86-.06.67,1,.67,1,0Z"/><circle id="Elipse_112" data-name="Elipse 112" class="cls-5" cx="52.06" cy="90.16" r="6.58"/><path id="Trazado_592" data-name="Trazado 592" class="cls-7" d="M39.65,129.13a55.24,55.24,0,0,1,4.58-17.47c.69-1.54,1.44-3,2.27-4.51a.34.34,0,0,0-.58-.34h0A56,56,0,0,0,39.68,124c-.32,1.69-.55,3.39-.7,5.1C38.93,129.56,39.61,129.56,39.65,129.13Z"/><circle id="Elipse_113" data-name="Elipse 113" class="cls-5" cx="48.14" cy="103.96" r="4.27"/><path id="Trazado_593" data-name="Trazado 593" class="cls-7" d="M38.8,128.73a55.37,55.37,0,0,1-7.13-16.59c-.41-1.64-.74-3.29-1-5a.33.33,0,0,0-.38-.29.34.34,0,0,0-.29.38h0a56.35,56.35,0,0,0,5.67,17.42c.8,1.52,1.66,3,2.58,4.45C38.5,129.51,39,129.09,38.8,128.73Z"/><circle id="Elipse_114" data-name="Elipse 114" class="cls-5" cx="30.01" cy="103.66" r="4.27"/><path id="Trazado_594" data-name="Trazado 594" class="cls-8" d="M25.69,132.5v-8.39A3.15,3.15,0,0,1,28.84,121H48.41a3.15,3.15,0,0,1,3.14,3.14v8.39a3.15,3.15,0,0,1-3.14,3.15H28.83A3.15,3.15,0,0,1,25.69,132.5Z"/><path id="Trazado_595" data-name="Trazado 595" class="cls-9" d="M235.91,142.29c0,4.6-3.73,6.69-8.32,6.69s-8.33-2.09-8.33-6.69,1.85-10,8.33-8.11C234.06,131.41,235.91,137.7,235.91,142.29Z"/><path id="Trazado_596" data-name="Trazado 596" class="cls-1" d="M227.18,136.34a1.34,1.34,0,0,1-1.32-1.16,54.84,54.84,0,0,0-2.44-8.61h0a1.2,1.2,0,0,1,.16-1.1,1.24,1.24,0,0,1,1.75-.23.52.52,0,0,1,.11.1,1.17,1.17,0,0,1,.33.89c-.13,2.34,1.58,6.12,2.61,8.17a1.34,1.34,0,0,1-1.06,1.93Z"/><path id="Trazado_597" data-name="Trazado 597" class="cls-1" d="M233.34,131.17c2.89-2.37.62-7.2-3-6.28a2.89,2.89,0,0,0-1.3.7c-2.22,2.1-2.56,7.46-2.56,7.46A9.82,9.82,0,0,0,233.34,131.17Z"/></g></svg>