<svg id="Capa_1" data-name="Capa 1" xmlns="http://www.w3.org/2000/svg" viewBox="0 0 20 20"><defs><style>.cls-1{fill:#ecf0f1;}.cls-2{fill:#5978d3;}</style></defs><path id="Trazado_58" data-name="Trazado 58" class="cls-1" d="M7.86,14,5.72,15.33a1.87,1.87,0,0,0-.35.28,6.61,6.61,0,0,0,9.23,0,1.78,1.78,0,0,0-.38-.28l-2.3-1.29a1,1,0,0,1-.48-.88v-1l.22-.31a6.33,6.33,0,0,0,.71-1.62.79.79,0,0,0,.51-.77V8.4a.83.83,0,0,0-.24-.6V6.24S12.93,3.81,10,3.81,7.36,6.24,7.36,6.24V7.8a.79.79,0,0,0-.24.6V9.48a.85.85,0,0,0,.33.68,5.54,5.54,0,0,0,.87,2v1A1,1,0,0,1,7.86,14Z"/><g id="Grupo_62" data-name="Grupo 62"><path id="Trazado_59" data-name="Trazado 59" class="cls-2" d="M10.13,2.5A7.47,7.47,0,0,0,2.5,9.8a7.38,7.38,0,0,0,2.67,5.8,1.78,1.78,0,0,1,.36-.25l2.24-1.21a.9.9,0,0,0,.47-.79v-.91a4.81,4.81,0,0,1-.9-1.86A.74.74,0,0,1,7,10V9a.7.7,0,0,1,.25-.55V7S6.94,4.74,10,4.74,12.76,7,12.76,7V8.42A.7.7,0,0,1,13,9v1a.74.74,0,0,1-.53.71,5.35,5.35,0,0,1-.75,1.49,3.11,3.11,0,0,1-.23.28v.94a.89.89,0,0,0,.51.8l2.4,1.19a2,2,0,0,1,.39.26,7.39,7.39,0,0,0,2.7-5.57A7.47,7.47,0,0,0,10.14,2.5Z"/></g></svg>