<?xml version="1.0" encoding="utf-8"?>
<!-- Generator: Adobe Illustrator 24.2.3, SVG Export Plug-In . SVG Version: 6.00 Build 0)  -->
<svg version="1.1" id="Capa_1" xmlns="http://www.w3.org/2000/svg" xmlns:xlink="http://www.w3.org/1999/xlink" x="0px" y="0px"
	 viewBox="0 0 20 20" style="enable-background:new 0 0 20 20;" xml:space="preserve">
<style type="text/css">
	.st0{opacity:0.8;}
	.st1{fill:#FF9800;}
	.st2{fill:#EF6C00;}
</style>
<g id="Grupo_165" class="st0">
	<g id="Grupo_142">
		<path id="Trazado_256" class="st1" d="M17.7,8.5H2.6V7l7.6-4.5L17.7,7V8.5z"/>
		<rect id="Rectángulo_99" x="0.5" y="16.3" class="st1" width="19" height="1.2"/>
		<rect id="Rectángulo_100" x="10.3" y="7.6" class="st1" width="1.8" height="7.7"/>
		<rect id="Rectángulo_101" x="12.8" y="7.6" class="st1" width="1.8" height="7.7"/>
		<rect id="Rectángulo_102" x="14.7" y="7.6" class="st1" width="1.8" height="7.7"/>
		<rect id="Rectángulo_103" x="7.9" y="7.6" class="st1" width="1.8" height="7.7"/>
		<rect id="Rectángulo_104" x="5.4" y="7.6" class="st1" width="1.8" height="7.7"/>
		<rect id="Rectángulo_105" x="3.5" y="7.6" class="st1" width="1.8" height="7.7"/>
		<rect id="Rectángulo_106" x="2.3" y="14.5" class="st1" width="15.4" height="1.2"/>
	</g>
	<g id="Grupo_143">
		<rect id="Rectángulo_107" x="10.4" y="7.7" class="st2" width="1.8" height="1.2"/>
		<rect id="Rectángulo_108" x="12.8" y="7.7" class="st2" width="1.8" height="1.2"/>
		<rect id="Rectángulo_109" x="14.7" y="7.7" class="st2" width="1.8" height="1.2"/>
		<rect id="Rectángulo_110" x="8" y="7.7" class="st2" width="1.8" height="1.2"/>
		<rect id="Rectángulo_111" x="5.6" y="7.7" class="st2" width="1.8" height="1.2"/>
		<rect id="Rectángulo_112" x="3.5" y="7.7" class="st2" width="1.8" height="1.2"/>
		<rect id="Rectángulo_113" x="1.7" y="15.7" class="st2" width="17.2" height="0.6"/>
		<circle id="Elipse_35" class="st2" cx="10.3" cy="5.8" r="0.9"/>
	</g>
</g>
</svg>
