<svg xmlns="http://www.w3.org/2000/svg" viewBox="0 0 35 35"><path d="M29,34.17H6A1.15,1.15,0,0,1,4.85,33h0V2.56A1.15,1.15,0,0,1,6,1.41H29a1.15,1.15,0,0,1,1.15,1.14h0V33A1.15,1.15,0,0,1,29,34.17Z" style="fill:#ffd782"/><path d="M7.15,33h0a.57.57,0,0,1-.57-.57V3.13a.57.57,0,0,1,.57-.58h0a.58.58,0,0,1,.58.58V32.45A.58.58,0,0,1,7.15,33Z" style="fill:#ffc36e"/><path d="M25,16.93H12.9a1.16,1.16,0,0,1-1.15-1.15v-4.6A1.15,1.15,0,0,1,12.9,10H25a1.14,1.14,0,0,1,1.15,1.15v4.6A1.16,1.16,0,0,1,25,16.93Z" style="fill:#fff"/><path d="M22.1,12.9H15.2a.58.58,0,0,1-.58-.57h0a.58.58,0,0,1,.58-.58h6.9a.57.57,0,0,1,.57.58h0A.57.57,0,0,1,22.1,12.9Z" style="fill:#707487"/><path d="M23.25,15.2h-9.2a.58.58,0,0,1-.58-.57h0a.58.58,0,0,1,.58-.58h9.2a.57.57,0,0,1,.57.58h0A.57.57,0,0,1,23.25,15.2Z" style="fill:#707487"/><path d="M9.47,6.19l1.13-.76,1.14.76a.37.37,0,0,0,.52-.11.33.33,0,0,0,.07-.21V1.41a.58.58,0,0,0-.58-.58H9.45a.57.57,0,0,0-.57.58V5.87a.37.37,0,0,0,.37.38A.43.43,0,0,0,9.47,6.19Z" style="fill:#ff6464"/></svg>