<svg id="Capa_1" data-name="Capa 1" xmlns="http://www.w3.org/2000/svg" viewBox="0 0 25 25"><defs><style>.cls-1{fill:#40769A;}</style></defs><path class="cls-1" d="M12.51,24c-2.68,0-5.36,0-8,0a2.64,2.64,0,0,1-2.62-1.95,3.64,3.64,0,0,1-.11-.87q0-7.75,0-15.51a2.62,2.62,0,0,1,2-2.74,3,3,0,0,1,.8-.07h13a2.6,2.6,0,0,1,1.82.61c1.09,1,2.18,2,3.25,3a2.47,2.47,0,0,1,.73,1.88q0,6.47,0,12.93A2.66,2.66,0,0,1,20.52,24C17.85,24,15.18,24,12.51,24Zm-7-1.78v-.55c0-2.27,0-4.54,0-6.81a2.55,2.55,0,0,1,2.55-2.74c3,0,6,0,9.05,0a2.32,2.32,0,0,1,1.74.86,2.79,2.79,0,0,1,.66,1.95v7.27h1c.67,0,1-.31,1-1,0-4.27,0-8.55,0-12.82a1.1,1.1,0,0,0-.39-.88c-.88-.79-1.77-1.56-2.61-2.39a1.9,1.9,0,0,0-1.74-.44c0,.78,0,1.55,0,2.31A2.62,2.62,0,0,1,14,9.79c-1.92,0-3.83,0-5.74,0A2.65,2.65,0,0,1,6,8.73,2.85,2.85,0,0,1,5.5,7V4.66H4.69c-.86,0-1.12.26-1.12,1.12V21.06c0,.12,0,.23,0,.35a.72.72,0,0,0,.63.72C4.61,22.19,5,22.18,5.5,22.21Zm12.14,0c0-.13,0-.24,0-.36V14.89c0-.73-.27-1-1-1H8.37c-.77,0-1,.26-1,1v7.23ZM7.35,4.68c0,.88,0,1.73,0,2.59A.72.72,0,0,0,8.15,8h5.93a.68.68,0,0,0,.75-.67c0-.86,0-1.73,0-2.6Z"/><path class="cls-1" d="M12.48,17.2H9.59a.91.91,0,1,1,0-1.82q2.94,0,5.88,0a.91.91,0,1,1,0,1.82C14.43,17.21,13.46,17.2,12.48,17.2Z"/><path class="cls-1" d="M12.52,18.88H15.4a.92.92,0,1,1,0,1.82c-1.94,0-3.87,0-5.81,0a.92.92,0,1,1,0-1.82Z"/><path class="cls-1" d="M12.66,7.21a.93.93,0,0,1-.91-.91.91.91,0,0,1,1.82,0A.91.91,0,0,1,12.66,7.21Z"/></svg>