<svg id="Capa_1" data-name="Capa 1" xmlns="http://www.w3.org/2000/svg" viewBox="0 0 25 25"><defs><style>.cls-1{fill:#40769A;}</style></defs><path class="cls-1" d="M19.14.8l.92.19L22,1.4A1.72,1.72,0,0,1,23.3,3.51C22.61,6.66,21.91,9.8,21.22,13q-.75,3.38-1.49,6.76a2.33,2.33,0,0,1-.54,1.06l-2.68,3.05A.86.86,0,0,1,15,23.49c-.38-1.31-.77-2.61-1.17-3.91a2.6,2.6,0,0,1,0-1.27q1.8-8.1,3.58-16.19A1.73,1.73,0,0,1,19.14.8Zm-4,17.78a2.44,2.44,0,0,0,0,.54c.09.37.22.72.33,1.08s.11.68.3.86.58.17.88.24h0a.57.57,0,0,0,.25-.08c.43-.47.86-.95,1.27-1.44a1.8,1.8,0,0,0,.22-.47Z"/><path class="cls-1" d="M3.75,17.4l1.71-1.72a1,1,0,0,1,1.22-.19,1,1,0,0,1,.19,1.57c-.47.5-1,1-1.46,1.46l-.91.91a1,1,0,0,1-1.47,0L2,18.37a1,1,0,0,1,0-1.41,1,1,0,0,1,1.4,0C3.48,17.08,3.6,17.23,3.75,17.4Z"/><path class="cls-1" d="M3.79,5.37,5.42,3.71a1,1,0,0,1,.78-.35.91.91,0,0,1,.88.56A1,1,0,0,1,6.94,5l-.13.15L4.54,7.39A1,1,0,0,1,3,7.38l-1-1A1,1,0,1,1,3.34,5C3.48,5.07,3.62,5.21,3.79,5.37Z"/><path class="cls-1" d="M3.73,11.38l1.71-1.7a1,1,0,0,1,1.35-.12A1,1,0,0,1,6.91,11c-.8.82-1.62,1.64-2.44,2.45a1,1,0,0,1-1.4,0q-.58-.56-1.14-1.14a1,1,0,0,1,0-1.35,1,1,0,0,1,1.36-.07A5.12,5.12,0,0,1,3.73,11.38Z"/><path class="cls-1" d="M14.89,4.6c-.13.63-.25,1.21-.39,1.79,0,.05-.11.11-.18.11h-5a.94.94,0,0,1-.89-1,1,1,0,0,1,1-.93h5.47Z"/><path class="cls-1" d="M13.58,10.62c-.14.6-.26,1.18-.4,1.76a.22.22,0,0,1-.17.12H9.33a.94.94,0,0,1-.1-1.87.86.86,0,0,1,.23,0h4.12Z"/><path class="cls-1" d="M12.26,16.61l-.42,1.9H9.4a.94.94,0,0,1-.12-1.88c.89,0,1.78,0,2.67,0Z"/></svg>