<svg xmlns="http://www.w3.org/2000/svg" viewBox="0 0 35 35"><rect x="1.4" y="8.51" width="32.2" height="17.99" rx="3.37" transform="translate(-2.76 31.71) rotate(-80.04)" style="fill:#aaa"/><rect x="4.42" y="8.74" width="26.33" height="16.94" transform="translate(-2.41 31.55) rotate(-80.04)" style="fill:#d4dadb"/><rect x="19.76" y="0.36" width="0.59" height="5.25" rx="0.21" transform="translate(13.64 22.23) rotate(-80.04)" style="fill:#797979"/><path d="M13.23,30.44a.35.35,0,0,0-.37.32l-.2,1.15a.34.34,0,0,0,.23.42l3.89.69a.35.35,0,0,0,.36-.32l.2-1.15a.34.34,0,0,0-.23-.42Zm.07.34,3.62.64a.21.21,0,0,1,.19.21s0,0,0,0L17,32.5a.19.19,0,0,1-.21.18h0l-3.62-.63a.21.21,0,0,1-.18-.23v0l.15-.83a.21.21,0,0,1,.22-.19Z" style="fill:#797979;fill-rule:evenodd"/><path d="M23.13,3.52h0a.3.3,0,0,1,.35-.25h0a.3.3,0,0,1,.24.35h0a.3.3,0,0,1-.35.25h0A.3.3,0,0,1,23.13,3.52Z" style="fill:#797979"/><circle cx="13.82" cy="9.7" r="0.82" style="fill:#fff"/><circle cx="18.77" cy="10.57" r="0.82" style="fill:#fff"/><circle cx="23.88" cy="11.47" r="0.82" style="fill:#fff"/><circle cx="12.96" cy="14.56" r="0.82" style="fill:#fff"/><circle cx="17.92" cy="15.43" r="0.82" style="fill:#fff"/><circle cx="23.02" cy="16.33" r="0.82" style="fill:#fff"/><circle cx="12.08" cy="19.55" r="0.82" style="fill:#fff"/><circle cx="17.04" cy="20.42" r="0.82" style="fill:#fff"/><circle cx="22.15" cy="21.32" r="0.82" style="fill:#fff"/><rect x="15.05" y="25.32" width="0.79" height="6.32" rx="0.32" transform="translate(-15.29 38.77) rotate(-80.04)" style="fill:#fff"/></svg>