<svg id="Capa_1" data-name="Capa 1" xmlns="http://www.w3.org/2000/svg" viewBox="0 0 87.5 26.64"><defs><style>.cls-1{fill:#efefef;}.cls-2{fill:#363636;}.cls-3{fill:#e23a00;}.cls-4{fill:#e29000;}.cls-5{fill:#fca629;}.cls-6{fill:#ffd503;}.cls-7{fill:#7be500;}</style></defs><g id="Grupo_207" data-name="Grupo 207"><g id="Grupo_152" data-name="Grupo 152"><circle id="Elipse_37" data-name="Elipse 37" class="cls-1" cx="13.32" cy="13.32" r="13.32"/><path id="Rectángulo_126" data-name="Rectángulo 126" class="cls-1" d="M87.5,13.32h0A6.5,6.5,0,0,1,81,19.83H20.06v-13H81a6.51,6.51,0,0,1,6.51,6.51Z"/></g><g id="Grupo_153" data-name="Grupo 153"><circle id="Elipse_38" data-name="Elipse 38" class="cls-2" cx="13.43" cy="13.32" r="9.68"/><path id="Rectángulo_127" data-name="Rectángulo 127" class="cls-2" d="M83.42,13.32h0a3.59,3.59,0,0,1-3.59,3.59H20.06V9.73H79.83a3.59,3.59,0,0,1,3.59,3.59Z"/></g><rect id="Rectángulo_128" data-name="Rectángulo 128" class="cls-3" x="20.61" y="11.43" width="11.83" height="3.79"/><rect id="Rectángulo_129" data-name="Rectángulo 129" class="cls-4" x="32.31" y="11.43" width="11.83" height="3.79"/><rect id="Rectángulo_130" data-name="Rectángulo 130" class="cls-5" x="44.15" y="11.43" width="11.83" height="3.79"/><rect id="Rectángulo_186" data-name="Rectángulo 186" class="cls-6" x="55.98" y="11.43" width="11.83" height="3.79"/><path id="Rectángulo_187" data-name="Rectángulo 187" class="cls-7" d="M81,13.32h0a1.89,1.89,0,0,1-1.9,1.89H67.81V11.43H79.09A1.89,1.89,0,0,1,81,13.32Z"/><circle id="Elipse_39" data-name="Elipse 39" class="cls-3" cx="13.43" cy="13.32" r="7.7"/></g></svg>