<svg id="Capa_1" data-name="Capa 1" xmlns="http://www.w3.org/2000/svg" viewBox="0 0 680 150"><defs><style>.cls-1{fill:#efefef;}.cls-2{fill:#ddd;}.cls-3{fill:#363636;}.cls-4{fill:#e29000;}.cls-5{fill:#fca629;}.cls-6{fill:#ffd503;}.cls-7{fill:#7be500;}.cls-8{fill:#e23a00;}</style></defs><g id="Grupo_155" data-name="Grupo 155"><path class="cls-1" d="M644.65,42.62H118.72a60.24,60.24,0,1,0,0,58.86H644.65a29.43,29.43,0,0,0,0-58.86Z"/><path class="cls-2" d="M522.36,114.3c-3.39.09-5.48,2.74-5.48,7v.12c0,2.17,0,4.33,0,6.49v3.59c0,4,2.16,6.63,5.46,6.65a4.84,4.84,0,0,0,4-1.86,7.51,7.51,0,0,0,1.46-4.81l0-5.48c0-.5,0-1,0-1.49,0-1,0-1.95,0-2.92a8,8,0,0,0-1.36-5.33A4.79,4.79,0,0,0,522.36,114.3Z"/><path class="cls-2" d="M641,116.31a5,5,0,0,0-4.08-1.9,4.82,4.82,0,0,0-4,1.88,7.34,7.34,0,0,0-1.39,4.66v.21c0,1.13,0,2.26,0,3.38v1.57l0,4.23v1.2a7.41,7.41,0,0,0,1.4,4.75,4.89,4.89,0,0,0,4,1.89,4.72,4.72,0,0,0,3.94-1.85,7.91,7.91,0,0,0,1.43-4.89c0-3.13,0-6.43,0-10.43A7.4,7.4,0,0,0,641,116.31Z"/><path class="cls-2" d="M407.91,114.4a4.91,4.91,0,0,0-4.12,1.88,7.81,7.81,0,0,0-1.45,5v.17c0,2.77,0,5.53,0,8.29v1.71c0,4,2.06,6.71,5.26,6.78a4.9,4.9,0,0,0,4.14-1.9,8,8,0,0,0,1.46-5.18c0-.23,0-.46,0-.7h0v-5.66c0-1,0-2,0-3.06a8.57,8.57,0,0,0-1.42-5.34A4.79,4.79,0,0,0,407.91,114.4Z"/><path class="cls-2" d="M298.68,120.65a7,7,0,0,0-1.45-4.47,4.68,4.68,0,0,0-4-1.72c-4.91.15-5.35,4.68-5.37,6.07,0,1.62,0,3.23,0,4.78,0,2.36,0,4.61,0,6.63,0,2.8,1.43,6.12,5.28,6.23a4.76,4.76,0,0,0,4.07-1.8,7.34,7.34,0,0,0,1.47-4.76v0c0-1.16,0-2.31,0-3.47v-1.53l0-3C298.69,122.58,298.69,121.62,298.68,120.65Z"/><path class="cls-2" d="M179.18,120.5a7,7,0,0,0-1.45-4.48,4.7,4.7,0,0,0-4-1.72c-4.92.15-5.36,4.69-5.37,6.07,0,1.63,0,3.23,0,4.78,0,2.37,0,4.61,0,6.63,0,2.81,1.42,6.13,5.27,6.24a4.77,4.77,0,0,0,4.07-1.8,7.37,7.37,0,0,0,1.47-4.77v-5l0-3C179.19,122.43,179.19,121.46,179.18,120.5Z"/><path class="cls-3" d="M640.42,55.81H105.21a43.79,43.79,0,1,0,0,32.49H640.42a16.25,16.25,0,1,0,0-32.49Z"/><rect id="Rectángulo_129" data-name="Rectángulo 129" class="cls-4" x="171.58" y="63.48" width="117.28" height="17.14"/><rect id="Rectángulo_130" data-name="Rectángulo 130" class="cls-5" x="288.86" y="63.48" width="116.24" height="17.14"/><rect id="Rectángulo_131" data-name="Rectángulo 131" class="cls-6" x="405.1" y="63.48" width="116.24" height="17.14"/><path id="Trazado_301" data-name="Trazado 301" class="cls-7" d="M521.34,80.62V63.48H636.65a8.6,8.6,0,0,1,8.59,8.6h0a8.54,8.54,0,0,1-8.54,8.54Z"/><path class="cls-8" d="M171.58,63.48H98.79a34.83,34.83,0,1,0,0,17.14h72.79Z"/></g></svg>