<svg id="Capa_1" data-name="Capa 1" xmlns="http://www.w3.org/2000/svg" viewBox="0 0 20 20"><defs><style>.cls-1{fill:#5a74ca;}.cls-2{fill:#22272e;}</style></defs><path id="Trazado_137" data-name="Trazado 137" class="cls-1" d="M16.77,15.62,3,16.37,1,17.69a.64.64,0,0,1-.88-.18h0A.67.67,0,0,1,0,17l2.16-12A2.14,2.14,0,0,1,4.1,3.31l14.34-1.1A1.43,1.43,0,0,1,20,3.51a1.15,1.15,0,0,1,0,.37L18.13,14.35A1.48,1.48,0,0,1,16.77,15.62Z"/><g id="Línea_11" data-name="Línea 11"><path class="cls-2" d="M4.85,7.31a.48.48,0,0,1,0-1l11.61-.84a.49.49,0,0,1,.07,1L4.89,7.31Z"/></g><g id="Línea_12" data-name="Línea 12"><path class="cls-2" d="M4.33,10.26a.49.49,0,0,1,0-1L15.9,8.5a.49.49,0,1,1,.07,1l-11.61.79Z"/></g><g id="Línea_13" data-name="Línea 13"><path class="cls-2" d="M3.8,13.16a.48.48,0,0,1-.48-.45.47.47,0,0,1,.45-.51l6.07-.36a.47.47,0,0,1,.51.46.49.49,0,0,1-.45.51l-6.07.35Z"/></g></svg>