<svg id="Capa_1" data-name="Capa 1" xmlns="http://www.w3.org/2000/svg" viewBox="0 0 148.05 122.02"><defs><style>.cls-1{fill:#e5e5e5;}.cls-2{fill:#fff;}.cls-3{fill:#e3e3e3;}.cls-4{fill:#2f2e40;}.cls-5{fill:#40769A;}.cls-6{fill:#93646b;}.cls-7{fill:#e5e6e7;}.cls-8{fill:#efefef;}.cls-9{fill:#cbcbcb;}</style></defs><path class="cls-1" d="M93.61,72.67H57A3.71,3.71,0,0,1,53.26,69V20.44a3.7,3.7,0,0,1,3.7-3.7H93.61a3.7,3.7,0,0,1,3.7,3.7V69A3.71,3.71,0,0,1,93.61,72.67Z"/><path class="cls-2" d="M91,69.58H59.54a3.29,3.29,0,0,1-3.29-3.29V23.12a3.29,3.29,0,0,1,3.29-3.29H91a3.29,3.29,0,0,1,3.29,3.29V66.29A3.29,3.29,0,0,1,91,69.58Z"/><path class="cls-3" d="M87.89,28H62.68a.82.82,0,0,1,0-1.64H87.89a.82.82,0,1,1,0,1.64Z"/><path class="cls-3" d="M87.89,31.28H62.68a.82.82,0,0,1,0-1.64H87.89a.82.82,0,1,1,0,1.64Z"/><path class="cls-3" d="M73.61,34.53H62.68a.83.83,0,0,1,0-1.65H73.61a.83.83,0,0,1,0,1.65Z"/><path class="cls-3" d="M87.89,41.33H62.68a.82.82,0,0,1,0-1.64H87.89a.82.82,0,1,1,0,1.64Z"/><path class="cls-3" d="M87.89,44.58H62.68a.82.82,0,0,1,0-1.64H87.89a.82.82,0,0,1,0,1.64Z"/><path class="cls-3" d="M73.61,47.83H62.68a.82.82,0,0,1,0-1.64H73.61a.82.82,0,0,1,0,1.64Z"/><path class="cls-3" d="M87.89,54.63H62.68a.82.82,0,1,1,0-1.64H87.89a.82.82,0,0,1,0,1.64Z"/><path class="cls-3" d="M87.89,57.88H62.68a.82.82,0,1,1,0-1.64H87.89a.82.82,0,0,1,0,1.64Z"/><path class="cls-3" d="M73.61,61.13H62.68a.82.82,0,1,1,0-1.64H73.61a.82.82,0,1,1,0,1.64Z"/><polygon class="cls-4" points="68.02 44.46 40.64 21.03 22.24 21.03 22.24 20.69 40.76 20.69 68.25 44.2 68.02 44.46"/><circle class="cls-5" cx="22.24" cy="20.86" r="2.76"/><path class="cls-5" d="M32.08,30.15H6.87a.83.83,0,0,1,0-1.65H32.08a.83.83,0,0,1,.82.83.82.82,0,0,1-.82.82Z"/><path class="cls-5" d="M32.08,33.4H6.87a.83.83,0,0,1,0-1.65H32.08a.83.83,0,0,1,0,1.65Z"/><path class="cls-5" d="M17.8,36.65H6.87a.83.83,0,0,1,0-1.65H17.8a.83.83,0,0,1,0,1.65Z"/><polygon class="cls-4" points="75.28 29.61 102.77 6.1 121.3 6.1 121.3 6.45 102.9 6.45 75.51 29.87 75.28 29.61"/><circle class="cls-5" cx="121.3" cy="6.27" r="2.76"/><path class="cls-5" d="M140.07,15.46H114.86a.82.82,0,1,1,0-1.64h25.21a.82.82,0,0,1,0,1.64Z"/><path class="cls-5" d="M140.07,18.71H114.86a.82.82,0,1,1,0-1.64h25.21a.82.82,0,0,1,0,1.64Z"/><path class="cls-5" d="M125.79,22H114.86a.83.83,0,0,1,0-1.65h10.93a.83.83,0,0,1,0,1.65Z"/><path class="cls-6" d="M120.3,81.48a1.45,1.45,0,0,1,.09-2,1.56,1.56,0,0,1,.2-.16l-1.18-5,2.5.91.73,4.57a1.45,1.45,0,0,1-2.34,1.67Z"/><path class="cls-7" d="M114.31,60.66l1,2.57s-.43,2.58.29,3.15.43.57.43,1a2.21,2.21,0,0,0,.85,1.57c.58.43,3.15,9.14,3.15,9.14h2.57a7.44,7.44,0,0,1,0-2,10.52,10.52,0,0,0-.72-4c-.28-.43,0-1,0-1.86s-.57-1.28-.57-2.71S119.6,55,119.74,53.66s-1.43-2.42-1.43-2.42h-1.43Z"/><polygon class="cls-6" points="108.26 66.12 105.89 76.72 121.12 75.77 116.97 65.36 108.26 66.12"/><path class="cls-8" d="M141.46,106a16.3,16.3,0,0,1-2.1,4.61,24.83,24.83,0,0,1-8.38,7.52l-.69.4H128l-.08-.18h0l-.09-.22v0l-.09.4h-1.13c-.1-.13-.19-.26-.28-.4s-.26-.39-.38-.59a8.8,8.8,0,0,1-.57-1.1l-.06-.12.08-.08-.31-1.38.63-.1-.69-2.13a2.25,2.25,0,0,1,.08-.24,5.32,5.32,0,0,1,2-2.33,31.54,31.54,0,0,1,2.87-1.67c.45-.25.89-.51,1.32-.79h0q.81-.54,1.59-1.14l0,0h0a23.61,23.61,0,0,0,5.75-6.53h0l.14-.25h0a23.14,23.14,0,0,0,1.58-3.29h0l.09-.26.13.22h0A12.84,12.84,0,0,1,141.46,106Z"/><path class="cls-2" d="M140.57,96.31a19.84,19.84,0,0,1-.48,4.61,20.88,20.88,0,0,1-.56,2.06,21.43,21.43,0,0,1-1.7,3.79l-.12.19h0a15.82,15.82,0,0,1-1,1.45,7.74,7.74,0,0,1-1.91,1.92,5.05,5.05,0,0,1-2,.78l-.41.06c-.56.07-1.13.09-1.68.21a3.33,3.33,0,0,0-.81.26,3.1,3.1,0,0,0-1.6,2.19,4,4,0,0,0-.09.48c-.19,1.25,0,2.55-.09,3.8,0,.13,0,.27,0,.4H128l-.08-.18h0a1.8,1.8,0,0,0,0-.22,16.14,16.14,0,0,0,0-1.84c0-.28,0-.56,0-.84s0-.44,0-.66h0c0-.13,0-.27,0-.41a5.66,5.66,0,0,1,.31-1.21,3,3,0,0,1,1.73-1.79,4.61,4.61,0,0,1,.75-.21c.56-.11,1.14-.14,1.7-.21l.18,0,.23,0a4.83,4.83,0,0,0,2-.88,9,9,0,0,0,1.84-2c.27-.4.53-.8.78-1.21h0l0-.06h0a20,20,0,0,0,2.25-5.73c0-.07,0-.14.05-.22a20.53,20.53,0,0,0,.45-4.42h0a1.41,1.41,0,0,0,0-.21c0-.15.22-.18.23,0v.21Z"/><path class="cls-2" d="M137.62,106.91a3,3,0,0,0,3.8-.9.11.11,0,0,0-.18-.14,2.79,2.79,0,0,1-3.54.83C137.57,106.64,137.49,106.85,137.62,106.91Z"/><path class="cls-2" d="M132.92,110.94a5.86,5.86,0,0,1,.2-4.24.11.11,0,0,0-.2-.09,6,6,0,0,0-.21,4.41C132.76,111.16,133,111.07,132.92,110.94Z"/><path class="cls-2" d="M140,100.78a1.71,1.71,0,0,1-1.18-1.11c0-.14-.25,0-.21.08a1.9,1.9,0,0,0,1.3,1.24.12.12,0,0,0,.15-.06.13.13,0,0,0-.06-.15Z"/><path class="cls-8" d="M131.24,107.58h0a23.74,23.74,0,0,1-.45,3.56h0c0,.08,0,.16,0,.24a30.87,30.87,0,0,1-1.7,5.3c-.2.48-.4,1-.62,1.43-.06.14-.13.27-.19.4H128l-.08-.18h0l-.09-.22v0l-.09.4h-2.4l-.46-.4-.68-.58,1-1,.15-.17,0,0,.08-.08-.31-1.38.63-.1-.69-2.13-.33-1-.08-.25-.48-1.48-1.44.27-.24-.82a23.91,23.91,0,0,0,1.08-3.08v0a23.68,23.68,0,0,0,.67-8.71h0a2.36,2.36,0,0,0,0-.28h0a21.71,21.71,0,0,0-.72-3.57,2.76,2.76,0,0,0-.08-.27l.23.1h0l.36.17a12.93,12.93,0,0,1,6.16,7v0a16.18,16.18,0,0,1,1.11,4.94C131.26,106.26,131.26,106.92,131.24,107.58Z"/><path class="cls-2" d="M126.88,118.51h-.26c-.08-.13-.18-.27-.27-.4s-.29-.4-.44-.59l-.4-.5-.4-.53.15-.17.08.1c.43.57.89,1.11,1.29,1.69C126.72,118.24,126.8,118.38,126.88,118.51Z"/><path class="cls-2" d="M123.29,93.47l.13.17c.33.42.64.86.93,1.31a19.48,19.48,0,0,1,1.38,2.49l.09.2a20.21,20.21,0,0,1,1.65,5.94.11.11,0,0,0,0,.06c0,.48.09,1,.1,1.45a8.47,8.47,0,0,1-.26,2.7c0,.12-.07.23-.11.34a5.62,5.62,0,0,1-.38.78,6,6,0,0,1-.36.52,3.47,3.47,0,0,1-.25.29l-.15.17-.13.13a18.94,18.94,0,0,0-1.36,1.33l.08.25a13.34,13.34,0,0,1,1.36-1.35,5.92,5.92,0,0,0,.78-.88l.09-.14a3.59,3.59,0,0,0,.4-.72c.06-.12.11-.25.16-.38a8.18,8.18,0,0,0,.37-2.69,16.93,16.93,0,0,0-.11-1.74,1.64,1.64,0,0,0,0-.22,20,20,0,0,0-.93-4,20.33,20.33,0,0,0-2.31-4.73c-.27-.42-.57-.83-.88-1.23l-.12-.16C123.36,93.19,123.2,93.35,123.29,93.47Z"/><path class="cls-2" d="M127.61,103.72a3,3,0,0,0,2.49-3,.1.1,0,0,0-.12-.11.11.11,0,0,0-.11.1,2.79,2.79,0,0,1-2.32,2.8c-.14,0-.08.25.06.22Z"/><path class="cls-2" d="M126.28,109.76a5.82,5.82,0,0,1-2.39-3.5c0-.15-.25-.09-.22,0a6.13,6.13,0,0,0,2.49,3.65C126.28,110,126.4,109.84,126.28,109.76Z"/><path class="cls-2" d="M125.79,97.41a1.68,1.68,0,0,1-1.61-.18c-.12-.08-.23.11-.11.2a1.91,1.91,0,0,0,1.78.2.11.11,0,0,0-.06-.22Z"/><polygon class="cls-6" points="110.8 115.06 109.09 115.06 108.28 108.47 110.8 108.47 110.8 115.06"/><path class="cls-4" d="M111.72,118.31h-1.21l-.22-1.14-.56,1.14h-3.21a.73.73,0,0,1-.73-.72.75.75,0,0,1,.31-.6l2.57-1.77v-1.16l2.71.16Z"/><polygon class="cls-6" points="126.97 114.21 125.3 114.58 123.1 108.3 125.57 107.77 126.97 114.21"/><path class="cls-4" d="M128.56,117.19l-1.19.26-.46-1.07-.29,1.23-3.15.69a.73.73,0,0,1-.86-.56.72.72,0,0,1,.18-.65l2.13-2.28-.24-1.13,2.67-.41Z"/><path class="cls-9" d="M139,118.31a.2.2,0,0,1-.2.2h-47a.2.2,0,1,1,0-.4h47a.21.21,0,0,1,.2.2Z"/><path class="cls-4" d="M105.5,85.59C106.7,92.19,107,95,107,95s-.9,1-.3,1.65,0,1.8,0,1.8L108.05,113l1.09-.17,2.61-.43,1-.15-.6-13.64s.6-1.2.3-1.5.3-2.1.3-2.1l.75-14.25,4.65,15.6s-.46.6,0,1a14.62,14.62,0,0,1,1.34,2.7l2.77,9.67.23.82,1.45-.27,1.56-.29.29-.06.52-.09.33-.07.11,0,.54-.1-.16-.73-.09-.38-2.34-10.39L124.6,98l-.06-.25a1.21,1.21,0,0,0-.15-1.2,1.2,1.2,0,0,1-.3-1.05l0,0a.62.62,0,0,0,.11-.25.79.79,0,0,0-.3-.75,1.69,1.69,0,0,1-.21-.31,10.41,10.41,0,0,1-.69-2.69s-.4-14.49-1.73-16.7c-.07-.12-1.48-2.34-1.55-2.39-1.5-.89-13.87.35-13.87.35s-.71,1.9-.74,2.1A33.78,33.78,0,0,0,105.5,85.59Z"/><path class="cls-6" d="M105.57,81.46a1.43,1.43,0,0,0-.09-2,1.56,1.56,0,0,0-.2-.16l1.18-5-2.49.91-.74,4.57a1.45,1.45,0,0,0,2.34,1.67Z"/><path class="cls-7" d="M107.56,51.22A31.72,31.72,0,0,1,111.22,47a10.09,10.09,0,0,1,4.29,0c3.57,4.71,3.79,4.4,4.72,7a3.83,3.83,0,0,1,.26,1.88c-.43,2.14.26,13,.4,13.54s1.14,1.28.14,1.28-16.14-.57-15.85-1S107.56,51.22,107.56,51.22Z"/><path class="cls-7" d="M109,51.22h-1.43s-1.57,1.14-1.43,2.43-1.57,12.42-1.57,13.85-.57,1.86-.57,2.71.29,1.43,0,1.86a10.34,10.34,0,0,0-.71,4,8.36,8.36,0,0,1,0,2h2.57s2.57-8.71,3.14-9.14a2.23,2.23,0,0,0,.86-1.57c0-.43-.29-.43.42-1s.29-3.14.29-3.14l1-2.58Z"/><circle class="cls-6" cx="111.92" cy="40.99" r="4.14"/><path class="cls-4" d="M109,48.74l-.39-1.7a4.36,4.36,0,0,1,.6-3.34,3,3,0,0,0,.09-3.1,2.37,2.37,0,0,0-2.07-1.31h-.11v-.11a2.56,2.56,0,0,1,2.23-2.59,1.16,1.16,0,0,1,.64-.8,4.56,4.56,0,0,1,4,.06,1.25,1.25,0,0,1,.78-1,1.21,1.21,0,0,1,.68,0,1.54,1.54,0,0,1,.43-1,1.82,1.82,0,0,1,1.62-.37A4.35,4.35,0,0,1,120,35a13.5,13.5,0,0,1,1.5,2.6A12.35,12.35,0,0,0,123,40.2a4.12,4.12,0,0,0,2.4,1.53,2.46,2.46,0,0,0,2.5-1l.09-.15.09.15a2.8,2.8,0,0,1-.52,3.18A3.77,3.77,0,0,1,124.47,45a6.1,6.1,0,0,1-3.06-1.29,4.55,4.55,0,0,1-1.85-2.48,7.55,7.55,0,0,1-.13-.83,2.75,2.75,0,0,0-.49-1.56,2.59,2.59,0,0,0-1.28-.64l-.09,0a1.14,1.14,0,0,1-.48.83,1,1,0,0,1-.27.11c.52,2.08.3,3.67-.63,4.74-1.59,1.79-4.63,1.42-4.76,1.41h-.08v-.09a5.4,5.4,0,0,0-.08-.69c-.44,1.05-1.9,3.83-2.1,4.11Z"/></svg>