<svg id="Capa_1" data-name="Capa 1" xmlns="http://www.w3.org/2000/svg" xmlns:xlink="http://www.w3.org/1999/xlink" viewBox="0 0 122 121.9"><defs><style>.cls-1{fill:none;}.cls-2{fill:#fff;opacity:0.47;isolation:isolate;}.cls-3{clip-path:url(#clip-path);}.cls-4{fill:#242967;}.cls-5{fill:#161a4c;}.cls-6{fill:#5488ee;}.cls-7{fill:#5a8df3;}.cls-8{fill:#c13b33;}.cls-9{fill:#d4574f;}.cls-10{fill:#3e73d3;}.cls-11{fill:#a8c1f6;}.cls-12{fill:#fcfdfe;}.cls-13{fill:#fefefe;}.cls-14{fill:#477cdf;}.cls-15{fill:#4d82e6;}</style><clipPath id="clip-path"><circle class="cls-1" cx="61" cy="61" r="61"/></clipPath></defs><circle class="cls-2" cx="61" cy="61" r="61"/><g class="cls-3"><g id="AtH9uQ.tif"><path class="cls-4" d="M46.38,25.86c-.07-.2-.28-.23-.43-.31L20.44,11.88l-.86-.46,1.71-.27L36.15,9l14-2c4.65-.67,9.3-1.33,14-2a2.45,2.45,0,0,1,1.59.27Q90.11,18.37,114.6,31.4l.46.27-8.88.85c-.45-.51-.9-1-1.37-1.51a34.34,34.34,0,0,0-15-9,60.39,60.39,0,0,0-16-2.51,3.25,3.25,0,0,1-1.59-.27C71,18.59,69.82,18,68.68,17.36a1.47,1.47,0,0,0-1-.15l-3.33.48-2.7.4a2.65,2.65,0,0,0,.23.16l6.3,3.39a.75.75,0,0,0,.49.07c1.3-.13,2.61-.23,3.91-.36.94-.08,1.88-.18,3-.29l-1.69-.94a8.14,8.14,0,0,1,1.91,0,66.52,66.52,0,0,1,9,1.15c6.81,1.39,13,4,18.25,8.71a15,15,0,0,1,2.43,2.61c-6.07.56-12.13,1.11-18.2,1.69a22.36,22.36,0,0,0-2.58.28c-1.39,0-2.76.25-4.15.33s-2.76.25-4.14.39L74,35.49c-1.37.12-2.73.26-4.09.39-.93.09-1.85.22-2.78.27-.42,0-.88.22-1.28,0-1-.52-2-1.09-3.06-1.63L51.89,28.73c-1.13-.6-2.23-1.25-3.37-1.81A10.16,10.16,0,0,0,46.38,25.86Z"/><path class="cls-5" d="M46.38,25.86a10.16,10.16,0,0,1,2.14,1.06c1.14.56,2.24,1.21,3.37,1.81l10.88,5.81c1,.54,2,1.11,3.06,1.63.4.2.86,0,1.28,0,.93,0,1.85-.18,2.78-.27,1.36-.13,2.72-.27,4.09-.39l2.42-.22c1.38-.14,2.76-.31,4.14-.39s2.76-.34,4.15-.33c0,4.54,0,9.08.21,13.61,0,.37-.05.53-.46.49a9.38,9.38,0,0,0-1.06,0,12.64,12.64,0,0,0-2.29.33,47.11,47.11,0,0,0-8.15,2.42c-.18,0-.36.09-.54.15a58,58,0,0,1-9.8,2.52c-.82.21-1.67.15-2.5.29A1.32,1.32,0,0,1,58.86,54a9.38,9.38,0,0,0-.91-.73,1.58,1.58,0,0,0-.53-.5c-1.38-1.28-2.73-2.59-4-4l-2.93-3.18c-.74-.8-1.46-1.64-2.27-2.38a1,1,0,0,0-.32-.39,27.23,27.23,0,0,0-7-5.49l2.89-6Z"/><path class="cls-6" d="M81.09,49a12.64,12.64,0,0,1,2.29-.33,53,53,0,0,1,3.59,5,44,44,0,0,1,3.55,7.22,1.38,1.38,0,0,0,.19.56A41.36,41.36,0,0,1,93,74.78c0,.47-.13.73-.57.84a3.9,3.9,0,0,0-.47.2c-.12.05-.32.08-.25.25s.26.08.39,0l.85-.35a9.07,9.07,0,0,1-.07,1.89,39.66,39.66,0,0,1-11,24.8.54.54,0,0,1-.12.09c-.44.06-.56-.13-.56-.58q0-10.59,0-21.19c.08-.1.27-.1.23-.28s-.13-.13-.23-.14a6.69,6.69,0,0,0-.1-1.73,8.11,8.11,0,0,0,1.47-1,10.38,10.38,0,0,1,2-1.44c.66-.32.83-.3,1.3.26a2.93,2.93,0,0,1,.69,1.67c0,.12-.06.24.08.32a16,16,0,0,1-.26,2.93,6,6,0,0,0,2.78,5.88c.26.15.33.13.36-.17a29.87,29.87,0,0,1,.66-3.76,36,36,0,0,1,1.47-4.66c.07-.18.19-.38-.12-.43a7.51,7.51,0,0,1-2.08-.94c0-.26-.11-.33-.34-.31-.17-.18-.35-.37-.51-.56a6.27,6.27,0,0,1-1.61-5c.06-.55-.14-.6-.54-.6a4.56,4.56,0,0,0-2,.44c-.94.44-1.85.93-2.78,1.4a3.32,3.32,0,0,1-.14-1.53c0-1,0-2.07,0-3.1,0-.65,0-1.3,0-1.94,0-1,0-1.91,0-2.86,0-.65,0-1.29,0-1.94,0-1,0-1.94,0-2.9s0-1.87,0-2.8.07-1.93,0-2.9,0-1.86,0-2.79A1,1,0,0,0,81.09,49Zm2.79,30.61,1.5-.67a.14.14,0,0,0,.06-.18.14.14,0,0,0-.21-.08l-1.45.62a.13.13,0,0,0-.06.21S83.82,79.57,83.88,79.61Zm6.83-2.92c.19-.13.51-.09.63-.38a.11.11,0,0,0-.14-.15c-.25.09-.57.09-.69.4C90.48,76.64,90.58,76.7,90.71,76.69Zm-8,3.39c.19-.15.55-.08.62-.41a.12.12,0,0,0-.17-.12c-.23.12-.56.09-.66.39C82.49,80.05,82.61,80.1,82.74,80.08Z"/><path class="cls-6" d="M81.12,78.61a6.69,6.69,0,0,1,.1,1.73l-1.29.58c-.12.06-.29.11-.2.28s.2.07.32,0l1.17-.46q0,10.59,0,21.19c0,.45.12.64.56.58A29.47,29.47,0,0,1,79,105.15c-.15.14-.34.23-.43.43a.33.33,0,0,0-.24.19,1,1,0,0,0-.46.31,35.91,35.91,0,0,1-5,3.3,2.78,2.78,0,0,1-.11-.86V85.59a5.87,5.87,0,0,1,.09-1.32c.15-.07.3-.13.44-.21a.17.17,0,0,0,.07-.22c0-.11-.11-.1-.2-.06l-.28.1a1.6,1.6,0,0,1-.12-.75q0-3.24,0-6.48a2.78,2.78,0,0,0-.11-.81c.2,0,.39-.11.59-.14,1.89-.28,3.68.08,4.76,2a2,2,0,0,0,2.25,1.11A7,7,0,0,0,81.12,78.61ZM76,83l1.42-.61a.16.16,0,0,0,.08-.21.16.16,0,0,0-.22-.07l-1.4.59a.15.15,0,0,0-.11.2C75.76,83,75.83,83,76,83Zm-.56.15c0-.14-.09-.22-.17-.18-.23.1-.55.1-.67.37a.13.13,0,0,0,.18.16C75,83.38,75.25,83.34,75.39,83.12Zm3.39-1.36c.17-.12.49-.08.59-.36s-.11-.17-.21-.13-.52.09-.62.36S78.63,81.78,78.78,81.76Z"/><path class="cls-6" d="M40.85,37.32a27.23,27.23,0,0,1,7,5.49,1,1,0,0,1,.32.39,5.43,5.43,0,0,1-.76.83,7.36,7.36,0,0,0-1.75,2.83c-.19.65,0,1,.68,1.07l2.62.33a.2.2,0,0,1-.25.19c-.41-.06-.48.15-.47.5,0,.83,0,1.67,0,2.5a13.72,13.72,0,0,0,.1,2.79,4.45,4.45,0,0,0-.5-.05c-2.32,0-4.62-.2-6.93-.3-1.72-.07-3.44-.14-5.15-.24,0-.27-.11-.52-.11-.8q0-6.59,0-13.18a30.25,30.25,0,0,1,4.44-2.05Z"/><path class="cls-7" d="M81.76,110c0,.13.06.22.12.32.59.85,1.19,1.7,1.76,2.57.19.29.33.3.6.11.55-.39.56-.38,1,.18q4.05,5.73,8.1,11.47A.69.69,0,0,0,94,125c1.15-.13,2.31-.21,3.46-.33.33,0,.44,0,.44.4,0,1.18,0,2.35,0,3.53,0,.29-.08.41-.38.38a4.14,4.14,0,0,0-.61,0H51.48v-.06c2.4-.22,4.81-.43,7.21-.66l7.22-.68,7.17-.64,7.22-.68,6-.55c1.18-.1,2.37-.22,3.56-.31.39,0,.32-.17.16-.4l-2.15-3c-1.72-2.42-3.42-4.85-5.15-7.26-.23-.32-.21-.48.13-.7.82-.56.81-.58.25-1.4l-1.72-2.54C81.46,109.94,81.61,110,81.76,110Z"/><path class="cls-6" d="M35.71,39.67q0,6.59,0,13.18c0,.28.1.53.11.8-1.34,0-2.68-.12-4-.17-2.41-.09-4.81-.19-7.22-.32a12,12,0,0,0-3.72.4l.39-.65A39.53,39.53,0,0,1,33.07,41.17c.2-.13.49-.18.54-.49.12,0,.26,0,.35-.09Z"/><path class="cls-7" d="M105.47,32.58A15,15,0,0,0,103,30c-5.21-4.73-11.44-7.32-18.25-8.71a66.52,66.52,0,0,0-9-1.15,8.14,8.14,0,0,0-1.91,0l1.69.94c-1.09.11-2,.21-3,.29-1.3.13-2.61.23-3.91.36a.75.75,0,0,1-.49-.07l-6.3-3.39a2.65,2.65,0,0,1-.23-.16l2.7-.4,3.33-.48a1.47,1.47,0,0,1,1,.15c1.14.63,2.31,1.23,3.46,1.87a3.25,3.25,0,0,0,1.59.27,60.39,60.39,0,0,1,16,2.51,34.34,34.34,0,0,1,15,9c.47.49.92,1,1.37,1.51,1.12,1.37,2,2.94,3.06,4.33a21,21,0,0,0,6,5.2,33.5,33.5,0,0,0,7.87,3.47,6.12,6.12,0,0,0,3.23.17,3.27,3.27,0,0,0,2.51-2.49,1.45,1.45,0,0,0-.38-1.5c-.12-.13-.27-.27-.12-.44s.35-.06.5.06a2.28,2.28,0,0,1,.36,2.52,4.36,4.36,0,0,1-4.74,2.5A20.45,20.45,0,0,1,119,44.62,31.11,31.11,0,0,1,112.6,41c-.65-.52-1.26-1.09-1.89-1.63l-.11,0,0,.13a15.31,15.31,0,0,0,2.26,3.26,20.24,20.24,0,0,0,11.3,6.52,12.66,12.66,0,0,0,5.27.2,2.92,2.92,0,0,0,1.36-.68,1.92,1.92,0,0,0,.35-2.34,1,1,0,0,0-.68-.49c-.19,0-.33-.14-.26-.36s.24-.15.39-.13a1.87,1.87,0,0,1,1.31,1.91,2.58,2.58,0,0,1-1.65,2.37,7.17,7.17,0,0,1-3,.41,20.82,20.82,0,0,1-17.12-10.38L108.6,37.1c0-.09-.07-.23-.26-.24a13.15,13.15,0,0,0,.57,3.8,17.62,17.62,0,0,0,8.6,10.45,17.17,17.17,0,0,0,5.2,1.75c.24,0,.67,0,.6.37s-.45.21-.69.17a17.89,17.89,0,0,1-12.66-9,14.1,14.1,0,0,1-2.11-7.77,2.48,2.48,0,0,0-.5-1.61A14.25,14.25,0,0,0,105.47,32.58Z"/><path class="cls-7" d="M34,40.59c-.09.13-.23.08-.35.09-.38-.54-.79-1.07-1.12-1.64-.24-.4-.45-.42-.83-.18a42.61,42.61,0,0,0-9.42,8.25,42.83,42.83,0,0,0-10,24.68,43.55,43.55,0,0,0,2,16.34,42.48,42.48,0,0,0,7.77,14c1.15,1.39,2.44,2.65,3.7,3.94l-.95,0A44.16,44.16,0,0,1,19,99.2,42.88,42.88,0,0,1,12.5,84.26a43.32,43.32,0,0,1,2-25.46,43,43,0,0,1,7.38-12.28,40.75,40.75,0,0,1,9.37-8.15c.44-.28.53-.48.17-.87-.2-.23-.35-.5-.53-.75h.49a.48.48,0,0,0,.05.14c.53,1,.53,1,1.47.43.22-.12.45-.24.62,0s-.06.39-.24.54-.71.24-.72.55.3.54.48.81Z"/><path class="cls-4" d="M107.24,113.28c-1.29-.3-2.58-.58-3.87-.89-.48-.11-1-.25-1.42-.37-.23-.06-.3-.17-.25-.4.38-1.75.78-3.5,1.23-5.23.06-.26.17-.29.43-.23,1.69.41,3.39.79,5.09,1.18.29.07.42.16.35.51-.36,1.69-.74,3.37-1.2,5C107.5,113.26,107.5,113.26,107.24,113.28Z"/><path class="cls-4" d="M90.71,61.41a1.38,1.38,0,0,1-.19-.56,17.38,17.38,0,0,0,.91-4c0-.23,0-.35-.29-.35s-.82.16-1-.06-.07-.72-.07-1.09c0-1.09,0-2.18,0-3.27,0-.35.08-.47.44-.45.62,0,.64,0,.4-.6a6.28,6.28,0,0,0-3.29-3.59A4.19,4.19,0,0,0,86,47.12c-.18,0-.5.08-.5-.18s.32-.17.51-.17a5.32,5.32,0,0,1,3.74,1.74,6.82,6.82,0,0,1,1.64,2.73.53.53,0,0,0,.61.45c.85,0,1.7,0,2.56,0,.31,0,.4.08.4.4,0,1.36,0,2.72,0,4.08,0,.37-.14.41-.44.41-.73,0-1.47,0-2.2,0-.35,0-.51.07-.55.46A18.59,18.59,0,0,1,90.71,61.41Z"/><path class="cls-4" d="M20.26,113c1.37-1,2.73-2.07,4.08-3.11.2-.15.28-.07.4.08q1.41,1.94,2.85,3.86c.14.19.15.3-.05.45q-1.93,1.45-3.86,2.94c-.16.12-.24.1-.35-.06Z"/><path class="cls-7" d="M80.79,107.21a52.15,52.15,0,0,0,4.73-4.79,42.57,42.57,0,0,0,9-17.83,43.32,43.32,0,0,0,1.14-9.35V75c0-.27,0-.58.34-.58s.34.31.33.57c0,.73,0,1.46-.08,2.19a44.85,44.85,0,0,1-1.31,8.46,43.46,43.46,0,0,1-8.28,16.41,42.26,42.26,0,0,1-4.45,4.72c-.13.12-.31.21-.37.41Z"/><path class="cls-7" d="M79.18,109.36c-1.47,1-2.93,2-4.49,2.91a42,42,0,0,1-23.63,5.46c-1.51-.11-3-.3-4.51-.55l.47-.75c0,.23.21.18.35.21a34.9,34.9,0,0,0,4.56.48,43.65,43.65,0,0,0,8.55-.49,41.2,41.2,0,0,0,12-3.87,46.08,46.08,0,0,0,6.73-4.23Z"/><path class="cls-8" d="M31.38,36.75h-.49c-1.05,0-2.11,0-3.16,0-.35,0-.43-.11-.43-.43q0-2,0-4c0-.31.06-.44.42-.44q2,0,3.93,0c.36,0,.42.13.42.45,0,1.24,0,2.48,0,3.72C32.06,36.73,32.06,36.73,31.38,36.75Z"/><path class="cls-9" d="M115.68,98.82c0,.52,0,1.05,0,1.58,0,.28-.07.39-.37.39-1.07,0-2.14,0-3.22,0-.27,0-.39-.07-.38-.37,0-1.09,0-2.17,0-3.26,0-.24.07-.34.32-.33,1.1,0,2.21,0,3.32,0,.28,0,.34.13.33.37C115.67,97.73,115.68,98.27,115.68,98.82Z"/><path class="cls-7" d="M46.12,117.12A42.48,42.48,0,0,1,26,107.18a1.56,1.56,0,0,0-.2-.16c0-.27,0-.55,0-.83a43,43,0,0,0,12.7,8,37.31,37.31,0,0,0,8,2.26A2.07,2.07,0,0,1,46.12,117.12Z"/><path class="cls-10" d="M9.55,110.3l-.1.25c-.36.81-.72,1.62-1.06,2.43-.1.23-.2.31-.45.19-.78-.38-1.58-.73-2.37-1.08-.25-.11-.33-.23-.21-.5.38-.82.74-1.64,1.1-2.47.08-.21.18-.24.38-.15l2.5,1.15C9.43,110.16,9.53,110.19,9.55,110.3Z"/><path class="cls-10" d="M88.89,36.71l.19.09,2.37,1.07c.25.11.33.21.2.49-.37.78-.71,1.58-1.05,2.37-.1.25-.21.35-.49.22-.8-.38-1.6-.74-2.41-1.1-.23-.09-.26-.2-.16-.42.38-.83.75-1.67,1.12-2.51C88.7,36.81,88.73,36.68,88.89,36.71Z"/><path class="cls-4" d="M106.14,95.39l-.22.23c-.61.6-1.23,1.18-1.82,1.79-.21.21-.34.19-.53,0-.6-.63-1.2-1.26-1.82-1.87-.18-.18-.16-.27,0-.44.64-.6,1.27-1.23,1.91-1.85.09-.09.18-.26.36-.08l2,2.06A1.56,1.56,0,0,1,106.14,95.39Z"/><path class="cls-9" d="M25.83,106.19l0,.83c-.05.65-.11,1.29-.15,1.93,0,.3-.12.4-.44.36-.8-.08-1.6-.12-2.4-.16-.24,0-.35-.06-.32-.35.08-.83.12-1.67.16-2.5,0-.31.12-.4.44-.37.55.07,1.12.09,1.68.12l.95,0Z"/><path class="cls-10" d="M79.18,109.36l0-.83c.11-.43-.08-.89.13-1.31h2.54c.16,0,.12.18.12.29,0,.73,0,1.45,0,2.17,0,.14,0,.32-.19.33s-.3-.07-.43.06a5.43,5.43,0,0,0-1.45,0C79.32,110.09,79.1,109.9,79.18,109.36Z"/><path class="cls-4" d="M46.12,117.12a2.07,2.07,0,0,0,.44-.65A8.9,8.9,0,0,0,48,114a8.74,8.74,0,0,0,.79-2,15.09,15.09,0,0,0,.6-3.19c0-.13,0-.31.18-.31s.15.2.15.32,0,.41,0,.61a17.34,17.34,0,0,1-1.27,4.69A17.33,17.33,0,0,1,47,116.43l-.47.75a17,17,0,0,1-4.76,4.26,14.49,14.49,0,0,1-3.2,1.41c-.16,0-.41.24-.49,0s.22-.24.38-.29A15.58,15.58,0,0,0,46,117.37C46,117.29,46.07,117.2,46.12,117.12Z"/><path class="cls-9" d="M100.81,43.29c1.13,0,1.13,0,1.13,1.14s0,1.16-1.18,1.16-1.13,0-1.13-1.13S99.63,43.29,100.81,43.29Z"/><path class="cls-7" d="M79.71,107.21h-.42a17,17,0,0,0-.93-1.45.33.33,0,0,1,.24-.19Z"/><path class="cls-6" d="M62.6,54.09a58,58,0,0,0,9.8-2.52c.18-.06.36-.1.54-.15q0,10.29,0,20.57a2.23,2.23,0,0,0,.31,1.49c-1.48-.23-3-.52-4.42-.87A60.34,60.34,0,0,1,62.9,71c-.16-.06-.34-.2-.49,0s-.17.5-.39.47-.32-.27-.48-.43l-.44-.42c.24-.26.46-.54.72-.78s.24-.32,0-.55c-.7-.69-1.38-1.41-2.06-2.12a16.54,16.54,0,0,0,2.34.08c.21,0,.51.12.62,0s-.23-.33-.25-.55c.25-.17.23-.43.23-.69C62.65,62,62.84,58.05,62.6,54.09Z"/><path class="cls-6" d="M73.24,73.48A2.23,2.23,0,0,1,72.93,72q0-10.29,0-20.57A47.11,47.11,0,0,1,81.09,49a1,1,0,0,1,.41.93c0,.93,0,1.86,0,2.79s0,1.94,0,2.9,0,1.87,0,2.8,0,1.93,0,2.9c0,.65,0,1.29,0,1.94,0,.95,0,1.9,0,2.86,0,.64-.05,1.29,0,1.94,0,1,0,2.06,0,3.1a3.32,3.32,0,0,0,.14,1.53,4.77,4.77,0,0,1-1.22.6A14.28,14.28,0,0,1,73.24,73.48Z"/><path class="cls-6" d="M62.6,54.09c.24,4,0,7.92.11,11.87,0,.26,0,.52-.23.69a36.94,36.94,0,0,1-4.78-7.33c-.39-.75-.75-1.52-1.11-2.29-.05-.28.14-.51.2-.77,0-.11.12-.24,0-.31s-.22.08-.28.19l-.12.21c-.19-.49-.38-1-.56-1.47a.4.4,0,0,0-.39-.32c-.53,0-1.05-.07-1.58-.09a1.88,1.88,0,0,1-.94-.08l.43-.14c.12,0,.3-.06.26-.24s-.2-.13-.33-.09l-1.49.47-3.38-.16a13.59,13.59,0,0,1-.1-2.78c0-.83,0-1.67,0-2.5,0-.35.06-.56.47-.5a.2.2,0,0,0,.25-.19l.3,0,4.11.47c1.28,1.37,2.63,2.68,4,4l-1.17.34c-.13,0-.35.06-.27.27s.22.08.35.05a6.47,6.47,0,0,1,1.28-.31,1.84,1.84,0,0,1-.06.23c0,.12-.07.25.08.3s.19-.1.24-.2a1.42,1.42,0,0,0,.08-.18,9.38,9.38,0,0,1,.91.73,1.32,1.32,0,0,0,1.24.43C60.93,54.24,61.78,54.3,62.6,54.09Zm-7.77-.41s0-.08,0-.09c-.26-.12-.49,0-.72.12s-.16.09-.11.19.23.11.35.06S54.75,53.94,54.83,53.68Zm2.4,1.15c.25-.14.25-.43.34-.67s0-.24-.14-.19c-.28.1-.25.41-.34.62A.16.16,0,0,0,57.23,54.83Zm-1.9-1.18c.12,0,.25,0,.28-.16s-.08-.18-.19-.18-.24,0-.25.19S55.24,53.64,55.33,53.65Z"/><path class="cls-11" d="M53.41,48.76l-4.11-.47-.3,0-2.62-.33c-.65-.08-.87-.42-.68-1.07A7.36,7.36,0,0,1,47.45,44a5.43,5.43,0,0,0,.76-.83c.81.74,1.53,1.58,2.27,2.38Z"/><path class="cls-12" d="M58,53.22a1.42,1.42,0,0,1-.08.18c0,.1-.09.25-.24.2s-.12-.18-.08-.3a1.84,1.84,0,0,0,.06-.23,6.47,6.47,0,0,0-1.28.31c-.13,0-.29.13-.35-.05s.14-.23.27-.27l1.17-.34A1.58,1.58,0,0,1,58,53.22Z"/><path class="cls-11" d="M73.24,73.48a14.28,14.28,0,0,0,7.17-.19,4.77,4.77,0,0,0,1.22-.6c.93-.47,1.84-1,2.78-1.4a4.56,4.56,0,0,1,2-.44c.4,0,.6.05.54.6a6.27,6.27,0,0,0,1.61,5c.16.19.34.38.51.56a7.87,7.87,0,0,1-1.1.52c-.13.06-.4.09-.28.32s.26.06.4,0l1.32-.53a7.51,7.51,0,0,0,2.08.94c.31.05.19.25.12.43a36,36,0,0,0-1.47,4.66,29.87,29.87,0,0,0-.66,3.76c0,.3-.1.32-.36.17a6,6,0,0,1-2.78-5.88,16,16,0,0,0,.26-2.93l.56-.23c.1,0,.19-.1.14-.22s-.17-.1-.26-.07l-.52.2a2.93,2.93,0,0,0-.69-1.67c-.47-.56-.64-.58-1.3-.26a10.38,10.38,0,0,0-2,1.44,8.11,8.11,0,0,1-1.47,1,7,7,0,0,1-.79.19,2,2,0,0,1-2.25-1.11c-1.08-1.91-2.87-2.27-4.76-2-.2,0-.39.1-.59.14a14.28,14.28,0,0,0-3.54,1.65,11.07,11.07,0,0,1-5.25,1.74l-.46,0a4.4,4.4,0,0,1-3.69-2.45,1.24,1.24,0,0,1,.06-1.41,16.49,16.49,0,0,0,.93-1.64.2.2,0,0,0,.09-.21l.05-.06-.06,0-.14.17a1.08,1.08,0,0,0-.49.43c-.23.26-.38.23-.61,0-.62-.65-1.26-1.29-1.9-1.92-.16-.16-.26-.27,0-.48a3.94,3.94,0,0,0,.76-.82c.3.29.61.58.9.89s.36.27.6,0,.77-.76,1.16-1.14l.44.42c.16.16.3.41.48.43s.27-.29.39-.47.33-.1.49,0a60.34,60.34,0,0,0,5.92,1.65C70.28,73,71.76,73.25,73.24,73.48Z"/><path class="cls-12" d="M83.88,79.61c-.06,0-.13,0-.16-.1a.13.13,0,0,1,.06-.21l1.45-.62a.14.14,0,0,1,.21.08.14.14,0,0,1-.06.18Z"/><path class="cls-12" d="M81.22,80.76l-1.17.46c-.12,0-.27.1-.32,0s.08-.22.2-.28l1.29-.58c.1,0,.21,0,.23.14S81.3,80.66,81.22,80.76Z"/><path class="cls-12" d="M89.44,77.27l-1.32.53c-.14.06-.32.17-.4,0s.15-.26.28-.32A7.87,7.87,0,0,0,89.1,77C89.33,76.94,89.47,77,89.44,77.27Z"/><path class="cls-12" d="M90.71,76.69c-.13,0-.23,0-.2-.13.12-.31.44-.31.69-.4a.11.11,0,0,1,.14.15C91.22,76.6,90.9,76.56,90.71,76.69Z"/><path class="cls-12" d="M82.74,80.08c-.13,0-.25,0-.21-.14.1-.3.43-.27.66-.39a.12.12,0,0,1,.17.12C83.29,80,82.93,79.93,82.74,80.08Z"/><path class="cls-12" d="M86.55,78.1l.52-.2c.09,0,.21,0,.26.07s0,.19-.14.22l-.56.23C86.49,78.34,86.5,78.22,86.55,78.1Z"/><path class="cls-6" d="M63.94,79.23a11.07,11.07,0,0,0,5.25-1.74,14.28,14.28,0,0,1,3.54-1.65,2.78,2.78,0,0,1,.11.81q0,3.24,0,6.48a1.6,1.6,0,0,0,.12.75l-1,.43c-.12,0-.31.09-.23.27s.24.07.37,0,.53-.22.8-.33a5.87,5.87,0,0,0-.09,1.32v22.93a2.78,2.78,0,0,0,.11.86,13.27,13.27,0,0,1-2,1.08,17.93,17.93,0,0,0-.74-4.1c-.8-2.53-3-5.22-6.22-5q0-5.82,0-11.64a6.36,6.36,0,0,0-.1-1.63l1.45-.59c.12,0,.26-.09.22-.23s-.22-.12-.34-.07l-1.06.43c-.25-.15-.16-.4-.16-.6C63.93,84.43,63.94,81.83,63.94,79.23Zm5.53,6.37c0-.16-.13-.17-.25-.12L67.91,86c-.09,0-.21.09-.17.21s.19.13.3.08c.43-.17.85-.36,1.27-.54A.22.22,0,0,0,69.47,85.6Zm-2.66,1.26c.15-.16.52-.07.59-.4,0-.12-.11-.16-.21-.11s-.52.09-.62.37C66.53,86.82,66.64,86.88,66.81,86.86Zm4-1.69c.2-.12.52-.1.63-.38,0-.12-.09-.19-.19-.14s-.56.08-.64.4C70.53,85.13,70.64,85.18,70.76,85.17Z"/><path class="cls-12" d="M76,83c-.12,0-.19,0-.23-.1a.15.15,0,0,1,.11-.2l1.4-.59a.16.16,0,0,1,.22.07.16.16,0,0,1-.08.21Z"/><path class="cls-12" d="M72.92,84.27c-.27.11-.53.23-.8.33s-.3.12-.37,0,.11-.22.23-.27l1-.43.28-.1c.09,0,.17,0,.2.06a.17.17,0,0,1-.07.22C73.22,84.14,73.07,84.2,72.92,84.27Z"/><path class="cls-12" d="M75.39,83.12c-.14.22-.42.26-.66.35a.13.13,0,0,1-.18-.16c.12-.27.44-.27.67-.37C75.3,82.9,75.38,83,75.39,83.12Z"/><path class="cls-12" d="M78.78,81.76c-.15,0-.28,0-.24-.13s.4-.27.62-.36.25,0,.21.13S79,81.64,78.78,81.76Z"/><path class="cls-11" d="M52.9,54.39a1.88,1.88,0,0,0,.94.08c.53,0,1,.05,1.58.09a.4.4,0,0,1,.39.32c.18.49.37,1,.56,1.47-.12.34-.23.67-.35,1-.05.14-.08.29.08.35s.21-.11.26-.23.06-.34.23-.44c.36.77.72,1.54,1.11,2.29a36.94,36.94,0,0,0,4.78,7.33c0,.22.39.35.25.55s-.41,0-.62,0a16.54,16.54,0,0,1-2.34-.08h-.24c-.23,0-.26-.26-.34-.42-.7-1.39-1.42-2.78-2.09-4.18a.62.62,0,0,0-.76-.41,5.24,5.24,0,0,0-1.81.61h-.11a1.9,1.9,0,0,1,0-.25c0-.12.15-.27-.05-.33s-.2.13-.26.24a.86.86,0,0,0-.11.63A9.68,9.68,0,0,0,51.81,65,36.59,36.59,0,0,0,49,68.81c-.76,1.1-1.49,2.23-2.22,3.34-.13.16-.26.31-.38.48l-5,7.38q-1.41,2.1-2.8,4.2a.72.72,0,0,1-.53.12c-.7,0-1.39-.09-2.09-.09-1.65,0-3.29.12-4.93.3-.24-.19,0-.38,0-.55.3-.78.64-1.54.92-2.32.13-.35.53-.78.28-1s-.74,0-1.11.09a9,9,0,0,0-5.42,3.38,6.13,6.13,0,0,0-1.34,2.37c-1.12,0-2.25,0-3.37,0-.34,0-.44.1-.44.43a4.52,4.52,0,0,1,0,1.22A17.09,17.09,0,0,1,18.3,86.9a4,4,0,0,1-1.86-2.33,40.56,40.56,0,0,1-1.08-3.92c0-.12,0-.29-.2-.3a31.6,31.6,0,0,1-.41-4.45c-.05-1.06,0-2.14.06-3.21a41,41,0,0,1,.67-5.64,40.15,40.15,0,0,1,4.24-11.67,10.05,10.05,0,0,1,1.13-1.82,12,12,0,0,1,3.72-.4c2.41.13,4.81.23,7.22.32,1.34.05,2.68.15,4,.17,1.71.1,3.43.17,5.15.24,2.31.1,4.61.25,6.93.3a4.45,4.45,0,0,1,.5.05l3.38.15c0,.26.15.28.37.21S52.64,54.46,52.9,54.39Zm-7.62,2a.18.18,0,0,0-.22-.13l-1.41.4a.19.19,0,0,0-.15.23c0,.16.17.14.28.11l1.31-.39A.24.24,0,0,0,45.28,56.4ZM28.62,61.24c0-.17-.13-.2-.29-.15L27,61.46c-.11,0-.22.11-.18.26s.19.12.3.09l1.26-.38C28.49,61.4,28.59,61.36,28.62,61.24Zm-4.18,1.18c0-.1-.07-.17-.16-.15-.5.13-1,.28-1.5.43a.16.16,0,0,0-.13.19.19.19,0,0,0,.24.13l1.41-.41A.2.2,0,0,0,24.44,62.42Zm15-4.18L41,57.81a.18.18,0,0,0,.14-.23.15.15,0,0,0-.19-.11l-1.46.42c-.09,0-.16.1-.13.2S39.43,58.25,39.45,58.24Zm-7,1.65-1.26.39c-.1,0-.2.08-.17.21s.15.13.24.11l1.32-.38c.11,0,.26-.08.2-.24S32.6,59.9,32.45,59.89Zm22.17,1.93a.39.39,0,0,0,.1-.08c.2-.5.4-1,.58-1.51a.14.14,0,0,0-.12-.19.17.17,0,0,0-.2.11l-.52,1.42C54.42,61.7,54.43,61.81,54.62,61.82Zm-6.72-6,1.34-.39c.1,0,.18-.09.15-.22a.16.16,0,0,0-.21-.1l-1.41.41c-.08,0-.16.09-.15.18S47.77,55.8,47.9,55.81ZM18.83,64.19c.39-.12.84-.25,1.29-.4a.16.16,0,0,0,.13-.19.14.14,0,0,0-.19-.11l-1.42.4a.14.14,0,0,0-.09.2C18.58,64.19,18.67,64.19,18.83,64.19ZM35.47,59.4l1.3-.4c.11,0,.19-.11.14-.23s-.17-.1-.27-.08l-1.32.4c-.1,0-.2.08-.17.2S35.31,59.38,35.47,59.4Zm2.1-.62c.2-.09.54,0,.64-.32,0-.1-.11-.19-.21-.15s-.58,0-.69.32S37.44,58.76,37.57,58.78Zm8.29-2.38c.19-.14.56,0,.65-.34,0-.11-.12-.17-.21-.13s-.55,0-.65.31C45.61,56.36,45.71,56.41,45.86,56.4ZM21.33,63.1c-.2.11-.52,0-.63.3s.1.2.21.17.53,0,.63-.3C21.57,63.16,21.46,63.1,21.33,63.1Zm8.26-2.37c-.17.14-.53,0-.61.32a.13.13,0,0,0,.2.14c.22-.11.59,0,.67-.34C29.87,60.73,29.72,60.72,29.59,60.73Zm20.85-6c-.18.13-.5,0-.6.34-.05.12.09.18.19.14s.53,0,.65-.27C50.74,54.78,50.6,54.71,50.44,54.7ZM25.05,62.41c.17-.14.52,0,.61-.33,0-.15-.16-.16-.27-.13s-.5,0-.58.31C24.78,62.36,24.9,62.42,25.05,62.41ZM33.44,60c.16-.14.51,0,.57-.34,0-.1-.13-.18-.23-.13s-.55,0-.61.35C33.15,60,33.3,60,33.44,60Zm8.9-2.7a.22.22,0,0,0-.34-.13c-.19.08-.49,0-.52.29s.14.19.29.13S42.23,57.52,42.34,57.29Zm13.21,1.38c0,.13,0,.3.12.26.29-.12.28-.44.37-.69,0-.09,0-.19-.13-.16C55.62,58.18,55.64,58.48,55.55,58.67Z"/><path class="cls-13" d="M110.63,39.4l0-.13.11,0Z"/><path class="cls-11" d="M48,114a22.24,22.24,0,0,1-4-.78,38.42,38.42,0,0,1-7.19-2.69,30.2,30.2,0,0,1-3.42-1.92c-.12-.07-.3-.11-.32-.3a.49.49,0,0,1,.26-.3,53.15,53.15,0,0,0,5.48-5.13l.25,0c.49.08.38-.38.56-.6l.1-.12h0c.19,0,.32-.08.47-.16a24.07,24.07,0,0,1,2.65-1.3c1.39-.63,2.82-1.18,4.17-1.9a.65.65,0,0,0,.2,0l5.18-2.31c1-.48,1.38-.41,2,.43a7.38,7.38,0,0,0,2,3.43,5.74,5.74,0,0,0,4.86,1.57c.9-.13,1.8-.31,2.7-.47,3.26-.22,5.42,2.47,6.22,5a17.93,17.93,0,0,1,.74,4.1,10.63,10.63,0,0,1-2.38,1.14,37.5,37.5,0,0,1-8.18,2.34,36.76,36.76,0,0,1-4.19.46c-1,.06-2.07.09-3.1.07a32.91,32.91,0,0,1-4.65-.4,17.34,17.34,0,0,0,1.27-4.69c0-.2,0-.41,0-.61s.06-.31-.15-.32-.17.18-.18.31a15.09,15.09,0,0,1-.6,3.19A8.74,8.74,0,0,1,48,114Zm-10.3-7s.07,0,.08-.06a6.66,6.66,0,0,0,.58-1.56.12.12,0,0,0-.11-.15.12.12,0,0,0-.16.08c-.19.49-.37,1-.54,1.48A.15.15,0,0,0,37.7,107ZM38.78,104c.27-.12.27-.42.36-.66s-.06-.23-.15-.19c-.31.12-.28.46-.39.7C38.57,104,38.65,104,38.78,104Zm-1.18,3.47c0-.13,0-.26-.13-.23-.34.09-.27.45-.39.69a.11.11,0,0,0,.12.16C37.53,108.05,37.48,107.72,37.6,107.51Z"/><path class="cls-8" d="M59.53,67.17h.24c.68.71,1.36,1.43,2.06,2.12.23.23.22.35,0,.55s-.48.52-.72.78-.8.74-1.16,1.14-.39.23-.6,0-.6-.6-.9-.89-.58-.67-.92-1-.24-.43,0-.69C58.22,68.55,58.87,67.85,59.53,67.17Z"/><path class="cls-12" d="M56.59,57c-.17.1-.16.29-.23.44s-.08.29-.26.23-.13-.21-.08-.35c.12-.33.23-.66.35-1l.12-.21c.06-.11.1-.29.28-.19s0,.2,0,.31C56.73,56.52,56.54,56.75,56.59,57Z"/><path class="cls-12" d="M52.9,54.39c-.26.07-.51.13-.76.21s-.36,0-.37-.21l1.49-.47c.13,0,.29-.1.33.09s-.14.2-.26.24Z"/><path class="cls-12" d="M54.83,53.68c-.08.26-.35.2-.53.28s-.27.11-.35-.06,0-.17.11-.19.46-.24.72-.12C54.8,53.6,54.81,53.64,54.83,53.68Z"/><path class="cls-12" d="M57.23,54.83a.16.16,0,0,1-.14-.24c.09-.21.06-.52.34-.62.11,0,.19.08.14.19S57.48,54.69,57.23,54.83Z"/><path class="cls-12" d="M55.33,53.65c-.09,0-.16-.06-.16-.15s.14-.18.25-.19.21,0,.19.18S55.45,53.65,55.33,53.65Z"/><path class="cls-6" d="M59.53,67.17c-.66.68-1.31,1.38-2,2-.26.26-.34.42,0,.69s.61.64.92,1a3.94,3.94,0,0,1-.76.82c-.22.21-.12.32,0,.48.64.63,1.28,1.27,1.9,1.92.23.24.38.27.61,0a1.08,1.08,0,0,1,.49-.43l.06,0a16.49,16.49,0,0,1-.93,1.64,1.24,1.24,0,0,0-.06,1.41,4.4,4.4,0,0,0,3.69,2.45l.46,0c0,2.6,0,5.2,0,7.8,0,.2-.09.45.16.6-.12.14-.53.11-.27.46a6.36,6.36,0,0,1,.1,1.63q0,5.82,0,11.64c-.9.16-1.8.34-2.7.47a5.74,5.74,0,0,1-4.86-1.57,7.38,7.38,0,0,1-2-3.43,2.32,2.32,0,0,0,.15-1.22c0-.74,0-1.48,0-2.21A3.68,3.68,0,0,1,54.64,92a1.44,1.44,0,0,0,.66-.22c.1,0,.18-.11.13-.24s-.16-.1-.26,0l-.52.21c0-.34-.09-.67-.1-1,0-.71,0-1.41,0-2.12l0-2v-2c0-.68-.06-1.36,0-2s0-1.32,0-2,0-1.36,0-2c0-.94,0-1.88,0-2.82s0-1.92,0-2.87,0-1.89,0-2.82c0-1.22,0-2.44,0-3.67s0-2.34,0-3.52a5.24,5.24,0,0,1,1.81-.61.62.62,0,0,1,.76.41c.67,1.4,1.39,2.79,2.09,4.18C59.27,66.91,59.3,67.12,59.53,67.17Zm-2,23.53c0-.18-.15-.18-.26-.13q-.67.27-1.35.57c-.1,0-.19.11-.13.23s.16.1.26.06l1.31-.56A.24.24,0,0,0,57.52,90.7Zm4-1.73c0-.16-.16-.15-.29-.09L60,89.42c-.11,0-.25.11-.17.25s.2.08.31,0l1.22-.52C61.4,89.15,61.49,89.1,61.5,89Zm1.3-.41c.16-.15.51-.07.61-.38a.13.13,0,0,0-.19-.14c-.22.12-.56.08-.64.4C62.56,88.51,62.65,88.58,62.8,88.56Zm-3.95,1.69c.14-.15.5-.07.57-.4,0-.12-.14-.14-.23-.1s-.52.08-.61.36C58.55,90.23,58.68,90.27,58.85,90.25Z"/><path class="cls-14" d="M60.87,73.5a.2.2,0,0,1-.09.21l-.06,0a1.15,1.15,0,0,0,.14-.17Z"/><path class="cls-14" d="M60.86,73.49l.06,0-.05.06Z"/><path class="cls-12" d="M63.83,88.09c-.26-.35.15-.32.27-.46l1.06-.43c.12,0,.28-.13.34.07s-.1.19-.22.23Z"/><path class="cls-12" d="M69.47,85.6a.22.22,0,0,1-.16.19c-.42.18-.84.37-1.27.54-.11,0-.24.08-.3-.08s.08-.17.17-.21l1.31-.56C69.34,85.43,69.46,85.44,69.47,85.6Z"/><path class="cls-12" d="M66.81,86.86c-.17,0-.28,0-.24-.14.1-.28.4-.27.62-.37s.24,0,.21.11C67.33,86.79,67,86.7,66.81,86.86Z"/><path class="cls-12" d="M70.76,85.17c-.12,0-.23,0-.2-.12.08-.32.41-.29.64-.4s.24,0,.19.14C71.28,85.07,71,85.05,70.76,85.17Z"/><path class="cls-6" d="M54.53,62.77c0,1.18,0,2.35,0,3.52s0,2.45,0,3.67c0,.93,0,1.88,0,2.82s0,1.92,0,2.87,0,1.88,0,2.82c0,.67,0,1.36,0,2s0,1.32,0,2,0,1.36,0,2v2l0,2c0,.71,0,1.41,0,2.12,0,.34.07.67.1,1a.19.19,0,0,0,0,.3,3.68,3.68,0,0,0-.08,1.44c0,.73,0,1.47,0,2.21a2.32,2.32,0,0,1-.15,1.22c-.67-.84-1-.91-2-.43l-5.18,2.31a.65.65,0,0,1-.2,0,.73.73,0,0,1-.22-.64V95.38a.59.59,0,0,0,.14-.06c.18-.15.67-.08.53-.42s-.42.09-.66.1c0-3.63,0-7.27,0-10.9,0-.21.09-.46-.15-.61,0-.28.32-.51.15-.83l0-.34s.13,0,.14,0a5.12,5.12,0,0,0,.69-1.65s-.06-.12-.11-.14a.17.17,0,0,0-.19.13l-.29.71c-.33-.11-.27-.4-.27-.64v-8.6c.73-1.11,1.46-2.24,2.22-3.34A36.59,36.59,0,0,1,51.81,65,9.68,9.68,0,0,1,54,63.05c.23,0,.28-.17.39-.29ZM48.46,78.24s.11-.06.13-.12c.19-.49.38-1,.56-1.47a.22.22,0,0,0-.07-.17.13.13,0,0,0-.21,0A7.44,7.44,0,0,0,48.3,78C48.28,78.13,48.27,78.25,48.46,78.24ZM52,93.18l1.5-.67a.13.13,0,0,0,.06-.18.15.15,0,0,0-.21-.09l-1.45.62a.14.14,0,0,0-.06.21C51.83,93.12,51.9,93.14,52,93.18ZM50,74.13s.11,0,.13-.1c.2-.49.39-1,.57-1.48a.17.17,0,0,0-.1-.21.16.16,0,0,0-.2.11c-.19.49-.37,1-.55,1.48C49.81,74,49.86,74.09,50,74.13ZM51.54,70s.11-.06.13-.11c.19-.49.37-1,.55-1.46a.15.15,0,0,0-.09-.21c-.13,0-.19.06-.22.14-.18.46-.35.92-.52,1.37C51.35,69.88,51.35,70,51.54,70Zm2.22-5.65c0-.13,0-.2-.1-.23a.16.16,0,0,0-.2.11l-.54,1.42a.16.16,0,0,0,.1.24c.1,0,.16,0,.2-.11C53.4,65.31,53.59,64.83,53.76,64.37ZM48,94.86l1.46-.62a.16.16,0,0,0,.09-.21A.15.15,0,0,0,49.3,94a7.41,7.41,0,0,0-1.42.61.15.15,0,0,0-.07.21S47.91,94.83,48,94.86Zm.4-16.07c0-.15-.07-.26-.17-.22-.31.11-.23.45-.34.67s0,.25.14.2C48.29,79.33,48.23,79,48.36,78.79Zm4.29-11.65a1.33,1.33,0,0,0,.32-.7c0-.11-.06-.24-.17-.17s-.27.44-.33.7C52.46,67.05,52.5,67.14,52.65,67.14ZM51.44,93.32c0-.12,0-.19-.09-.19a1.29,1.29,0,0,0-.73.3c-.07.06,0,.13,0,.18s.26,0,.37,0S51.38,93.48,51.44,93.32Zm0-22.74c0-.15-.06-.25-.12-.22-.3.12-.29.42-.37.67,0,.1,0,.25.14.19C51.35,71.09,51.32,70.77,51.43,70.58Zm-1.69,3.87c-.24.16-.27.43-.34.69,0,.07,0,.2.1.18.34-.08.26-.42.38-.64S49.87,74.49,49.74,74.45ZM47.63,80a.2.2,0,0,0-.08,0s0,.06,0,.08.06,0,.08,0S47.62,80,47.63,80Z"/><path class="cls-6" d="M30.59,106.6a28.24,28.24,0,0,1-3.22-2.66c-.08-.08-.26-.18,0-.31s.2-.1.15-.23a.17.17,0,0,0-.26-.06c-.33.24-.49,0-.68-.2A39.58,39.58,0,0,1,15.87,84.05a29.1,29.1,0,0,1-.71-3.7c.21,0,.17.18.2.3a40.56,40.56,0,0,0,1.08,3.92A4,4,0,0,0,18.3,86.9a17.09,17.09,0,0,0,2.22,1.22c0,.92,0,1.84,0,2.75,0,.36.05.52.46.51,1.31,0,2.62,0,3.93,0,.33,0,.44-.08.43-.42,0-1.16,0-2.31,0-3.47,0-1,0-1-1-1a6.13,6.13,0,0,1,1.34-2.37,9,9,0,0,1,5.42-3.38c.37-.08.88-.35,1.11-.09s-.15.7-.28,1c-.28.78-.62,1.54-.92,2.32-.06.17-.27.36,0,.55,0,.28-.32.41-.32.76q0,8.27,0,16.52c-.06.1-.12.21,0,.31A39.19,39.19,0,0,1,30.59,106.6Zm-1-4c-.06-.2-.2-.14-.32-.09L28,103c-.1,0-.24.09-.18.25s.2.09.31.05l1.21-.53C29.47,102.72,29.56,102.68,29.57,102.55Z"/><path class="cls-6" d="M46.6,83.49c.24.15.15.4.15.61,0,3.63,0,7.27,0,10.9-.17.12-.26.24,0,.38v2.73a.73.73,0,0,0,.22.64c-1.35.72-2.78,1.27-4.17,1.9a24.07,24.07,0,0,0-2.65,1.3c-.15.08-.28.21-.47.16,0-.27.14-.48.2-.72s.07-.22,0-.28-.22,0-.27.16L39,102.82l-.25,0a11.36,11.36,0,0,1-.11-4.11,1.14,1.14,0,0,0,.65-.21c.08,0,.19-.12.14-.24s-.17-.08-.26-.05l-.52.2c-.19-.16-.11-.38-.11-.58V85.23a1.59,1.59,0,0,1,.07-.65.29.29,0,0,0-.09-.37q1.39-2.1,2.8-4.2l5-7.38c.12-.17.25-.32.38-.48v8.6c0,.24-.06.53.27.64-.05.32-.31.58-.24.93l0,.34c-.39.11-.39.47-.43.76S46.47,83.58,46.6,83.49ZM40.76,98.74s.11,0,.13-.09a3.48,3.48,0,0,1,.64-1.18c.06,0-.06-.33-.14-.49s-.18,0-.2.06c-.14.54-.64.59-1,.79-.13.07-.41.08-.32.3s.29.05.44,0,.25-.17.38-.08,0,.26-.06.4S40.45,98.74,40.76,98.74Zm3.08-8.19s.1,0,.11-.08c.2-.51.4-1,.58-1.55,0,0,0-.14-.09-.16s-.18.06-.22.14c-.18.46-.35.91-.51,1.37C43.66,90.39,43.66,90.51,43.84,90.55Zm1.69,5.2c0-.13-.12-.14-.23-.1l-1.4.6a.14.14,0,0,0-.09.2c0,.12.14.12.25.08L45.4,96A.19.19,0,0,0,45.53,95.75Zm.55-10.87c0-.11,0-.19-.11-.22a.16.16,0,0,0-.2.11c-.18.49-.37,1-.54,1.47a.15.15,0,0,0,.1.2c.1,0,.16,0,.19-.12ZM43,93c0-.06-.06-.13-.11-.16a.13.13,0,0,0-.2.08c-.2.49-.38,1-.56,1.48a.14.14,0,0,0,.09.2.21.21,0,0,0,.17-.07C42.63,94.06,42.82,93.55,43,93Zm.22,3.48c-.2.14-.53.1-.64.4a.12.12,0,0,0,.17.13c.25-.08.56-.09.68-.37C43.51,96.56,43.39,96.5,43.25,96.51ZM40.34,100a1.35,1.35,0,0,0,.32-.68c0-.14-.08-.26-.19-.21-.27.13-.21.45-.31.67S40.17,99.94,40.34,100Zm4.94-13c0-.12,0-.22-.12-.19-.32.1-.29.42-.38.66s0,.25.14.2C45.21,87.52,45.16,87.19,45.28,87Zm-1.53,4.11c0-.14,0-.25-.16-.2-.28.12-.27.43-.35.67s0,.25.15.19S43.62,91.3,43.75,91.09ZM42.06,95s-.12.07-.14.12c-.08.24-.28.45-.19.74,0,0,.1.06.13,0,.25-.16.25-.45.34-.69S42.16,95,42.06,95Zm4.23.53a.14.14,0,0,0-.13-.17.26.26,0,0,0-.3.19c0,.09.06.15.15.15A.27.27,0,0,0,46.29,95.49Z"/><path class="cls-6" d="M38.55,84.21a.29.29,0,0,1,.09.37,1.59,1.59,0,0,0-.07.65V97.86c0,.2-.08.42.11.58-.06.1-.1.2,0,.3a11.36,11.36,0,0,0,.11,4.11A53.15,53.15,0,0,1,33.3,108a.49.49,0,0,0-.26.3,13.64,13.64,0,0,1-2.45-1.68,39.19,39.19,0,0,0,.1-4.47,1.55,1.55,0,0,0,.67-.21c.11,0,.18-.13.12-.24s-.16-.09-.26-.05l-.52.19q0-8.26,0-16.52c0-.35.28-.48.32-.76,1.64-.18,3.28-.28,4.93-.3.7,0,1.39.06,2.09.09A.72.72,0,0,0,38.55,84.21Zm-5,16.65c0-.2-.17-.16-.3-.1l-1.22.52c-.11,0-.25.09-.2.24s.23.1.35,0l1.17-.5C33.45,101,33.55,101,33.56,100.86Zm2.49-.92,1.43-.64a.19.19,0,0,0,.05-.18.14.14,0,0,0-.21-.07l-1.4.59a.15.15,0,0,0-.09.21C35.86,99.92,35.92,100,36.05,99.94Zm-.56.12a.14.14,0,0,0-.15-.16,1.56,1.56,0,0,0-.68.31c-.09.08,0,.16.05.21S35.48,100.21,35.49,100.06Z"/><path class="cls-12" d="M24.36,86.46c1,0,1,0,1,1,0,1.16,0,2.31,0,3.47,0,.34-.1.43-.43.42-1.31,0-2.62,0-3.93,0-.41,0-.47-.15-.46-.51,0-.91,0-1.83,0-2.75a4.52,4.52,0,0,0,0-1.22c0-.33.1-.44.44-.43C22.11,86.48,23.24,86.47,24.36,86.46Z"/><path class="cls-12" d="M45.28,56.4a.24.24,0,0,1-.19.22L43.78,57c-.11,0-.24.05-.28-.11a.19.19,0,0,1,.15-.23l1.41-.4A.18.18,0,0,1,45.28,56.4Z"/><path class="cls-12" d="M28.62,61.24c0,.12-.13.16-.23.19l-1.26.38c-.11,0-.25.06-.3-.09s.07-.23.18-.26l1.32-.37C28.49,61,28.59,61.07,28.62,61.24Z"/><path class="cls-12" d="M24.44,62.42a.2.2,0,0,1-.14.19L22.89,63a.19.19,0,0,1-.24-.13.16.16,0,0,1,.13-.19c.5-.15,1-.3,1.5-.43C24.37,62.25,24.44,62.32,24.44,62.42Z"/><path class="cls-12" d="M39.45,58.24s-.11,0-.13-.15,0-.17.13-.2l1.46-.42a.15.15,0,0,1,.19.11.18.18,0,0,1-.14.23Z"/><path class="cls-12" d="M32.45,59.89c.15,0,.28,0,.33.09s-.09.2-.2.24l-1.32.38c-.09,0-.21,0-.24-.11s.07-.18.17-.21Z"/><path class="cls-12" d="M54.62,61.82c-.19,0-.2-.12-.16-.25L55,60.15a.17.17,0,0,1,.2-.11.14.14,0,0,1,.12.19c-.18.51-.38,1-.58,1.51A.39.39,0,0,1,54.62,61.82Z"/><path class="cls-12" d="M47.9,55.81c-.13,0-.26,0-.28-.12s.07-.15.15-.18l1.41-.41a.16.16,0,0,1,.21.1c0,.13,0,.19-.15.22Z"/><path class="cls-12" d="M18.83,64.19c-.16,0-.25,0-.28-.1a.14.14,0,0,1,.09-.2l1.42-.4a.14.14,0,0,1,.19.11.16.16,0,0,1-.13.19C19.67,63.94,19.22,64.07,18.83,64.19Z"/><path class="cls-12" d="M35.47,59.4c-.16,0-.29,0-.32-.11s.07-.17.17-.2l1.32-.4c.1,0,.21,0,.27.08s0,.2-.14.23Z"/><path class="cls-12" d="M37.57,58.78c-.13,0-.33,0-.26-.15s.45-.23.69-.32.24,0,.21.15C38.11,58.78,37.77,58.69,37.57,58.78Z"/><path class="cls-12" d="M45.86,56.4c-.15,0-.25,0-.21-.16.1-.31.43-.21.65-.31s.25,0,.21.13C46.42,56.4,46.05,56.26,45.86,56.4Z"/><path class="cls-12" d="M21.33,63.1c.13,0,.24.06.21.17-.1.29-.4.24-.63.3s-.28,0-.21-.17S21.13,63.21,21.33,63.1Z"/><path class="cls-12" d="M29.59,60.73c.13,0,.28,0,.26.12-.08.35-.45.23-.67.34a.13.13,0,0,1-.2-.14C29.06,60.72,29.42,60.87,29.59,60.73Z"/><path class="cls-12" d="M50.44,54.7c.16,0,.3.08.24.21-.12.28-.43.19-.65.27s-.24,0-.19-.14C49.94,54.75,50.26,54.83,50.44,54.7Z"/><path class="cls-12" d="M54.42,62.76c-.11.12-.16.33-.39.29a.86.86,0,0,1,.11-.63c.06-.11.08-.3.26-.24s.08.21.05.33A1.9,1.9,0,0,0,54.42,62.76Z"/><path class="cls-12" d="M25.05,62.41c-.15,0-.27,0-.24-.15.08-.29.37-.25.58-.31s.31,0,.27.13C25.57,62.39,25.22,62.27,25.05,62.41Z"/><path class="cls-12" d="M33.44,60c-.14,0-.29,0-.27-.12.06-.33.4-.25.61-.35s.25,0,.23.13C34,60,33.6,59.85,33.44,60Z"/><path class="cls-12" d="M42.34,57.29c-.11.23-.37.21-.57.29s-.32,0-.29-.13.33-.21.52-.29A.22.22,0,0,1,42.34,57.29Z"/><path class="cls-12" d="M55.55,58.67c.09-.19.07-.49.36-.59.08,0,.16.07.13.16-.09.25-.08.57-.37.69C55.56,59,55.55,58.8,55.55,58.67Z"/><path class="cls-12" d="M39,102.82l.54-1.55c0-.12.14-.22.27-.16s.07.18,0,.28-.23.45-.2.72h0c-.08,0-.09.07-.1.12C39.41,102.44,39.52,102.9,39,102.82Z"/><path class="cls-12" d="M37.7,107a.15.15,0,0,1-.15-.21c.17-.5.35-1,.54-1.48a.12.12,0,0,1,.16-.08.12.12,0,0,1,.11.15,6.66,6.66,0,0,1-.58,1.56S37.73,107,37.7,107Z"/><path class="cls-12" d="M38.78,104c-.13,0-.21-.07-.18-.15.11-.24.08-.58.39-.7.09,0,.19.09.15.19S39.05,103.92,38.78,104Z"/><path class="cls-12" d="M37.6,107.51c-.12.21-.07.54-.4.62a.11.11,0,0,1-.12-.16c.12-.24.05-.6.39-.69C37.56,107.25,37.63,107.38,37.6,107.51Z"/><path class="cls-15" d="M39.59,102.22s0-.12.1-.12Z"/><path class="cls-12" d="M57.52,90.7a.24.24,0,0,1-.17.17L56,91.43c-.1,0-.2.06-.26-.06s0-.19.13-.23q.68-.3,1.35-.57C57.37,90.52,57.5,90.52,57.52,90.7Z"/><path class="cls-12" d="M61.5,89c0,.13-.1.18-.19.22l-1.22.52c-.11,0-.25.09-.31,0s.06-.2.17-.25l1.26-.54C61.34,88.82,61.45,88.81,61.5,89Z"/><path class="cls-12" d="M62.8,88.56c-.15,0-.24,0-.22-.12.08-.32.42-.28.64-.4a.13.13,0,0,1,.19.14C63.31,88.49,63,88.41,62.8,88.56Z"/><path class="cls-12" d="M54.64,92a.19.19,0,0,1,0-.3l.52-.21c.1,0,.2-.07.26,0s0,.2-.13.24A1.44,1.44,0,0,1,54.64,92Z"/><path class="cls-12" d="M58.85,90.25c-.17,0-.3,0-.27-.14.09-.28.4-.26.61-.36s.25,0,.23.1C59.35,90.18,59,90.1,58.85,90.25Z"/><path class="cls-12" d="M48.46,78.24c-.19,0-.18-.11-.16-.2a7.44,7.44,0,0,1,.57-1.51.13.13,0,0,1,.21,0,.22.22,0,0,1,.07.17c-.18.49-.37,1-.56,1.47C48.57,78.18,48.5,78.21,48.46,78.24Z"/><path class="cls-12" d="M52,93.18c-.06,0-.13-.06-.16-.11a.14.14,0,0,1,.06-.21l1.45-.62a.15.15,0,0,1,.21.09.13.13,0,0,1-.06.18Z"/><path class="cls-12" d="M50,74.13c-.13,0-.18-.11-.15-.2.18-.49.36-1,.55-1.48a.16.16,0,0,1,.2-.11.17.17,0,0,1,.1.21c-.18.5-.37,1-.57,1.48C50.1,74.08,50,74.1,50,74.13Z"/><path class="cls-12" d="M51.54,70c-.19,0-.19-.14-.15-.27.17-.45.34-.91.52-1.37,0-.08.09-.19.22-.14a.15.15,0,0,1,.09.21c-.18.48-.36,1-.55,1.46C51.65,70,51.58,70,51.54,70Z"/><path class="cls-12" d="M53.76,64.37c-.17.46-.36.94-.54,1.43,0,.08-.1.14-.2.11a.16.16,0,0,1-.1-.24l.54-1.42a.16.16,0,0,1,.2-.11C53.75,64.17,53.78,64.24,53.76,64.37Z"/><path class="cls-12" d="M46.78,82.32c-.07-.35.19-.61.24-.93l.29-.71a.17.17,0,0,1,.19-.13s.12.11.11.14a5.12,5.12,0,0,1-.69,1.65S46.83,82.33,46.78,82.32Z"/><path class="cls-12" d="M48,94.86c-.05,0-.12,0-.15-.09a.15.15,0,0,1,.07-.21A7.41,7.41,0,0,1,49.3,94a.15.15,0,0,1,.21.08.16.16,0,0,1-.09.21Z"/><path class="cls-12" d="M48.36,78.79c-.13.2-.07.54-.37.65-.12,0-.19-.1-.14-.2s0-.56.34-.67C48.29,78.53,48.37,78.64,48.36,78.79Z"/><path class="cls-12" d="M46.6,83.49c-.13.09-.31.12-.28-.07s0-.65.43-.76C46.92,83,46.64,83.21,46.6,83.49Z"/><path class="cls-12" d="M52.65,67.14c-.15,0-.19-.09-.18-.17.06-.26.07-.55.33-.7s.2.06.17.17A1.33,1.33,0,0,1,52.65,67.14Z"/><path class="cls-12" d="M51.44,93.32c-.06.16-.27.17-.43.25s-.24.15-.37,0-.09-.12,0-.18a1.29,1.29,0,0,1,.73-.3C51.41,93.13,51.46,93.2,51.44,93.32Z"/><path class="cls-12" d="M46.75,95.38c-.25-.14-.16-.26,0-.38s.55-.36.66-.1-.35.27-.53.42A.59.59,0,0,1,46.75,95.38Z"/><path class="cls-12" d="M51.43,70.58c-.11.19-.08.51-.35.64-.12.06-.17-.09-.14-.19.08-.25.07-.55.37-.67C51.37,70.33,51.45,70.43,51.43,70.58Z"/><path class="cls-12" d="M49.74,74.45c.13,0,.2.14.14.23s0,.56-.38.64c-.09,0-.12-.11-.1-.18C49.47,74.88,49.5,74.61,49.74,74.45Z"/><path class="cls-15" d="M47.63,80s0,.07,0,.08-.05,0-.08,0,0-.07,0-.08A.2.2,0,0,1,47.63,80Z"/><path class="cls-12" d="M29.57,102.55c0,.13-.1.17-.2.21l-1.21.53c-.11,0-.25.1-.31-.05s.08-.21.18-.25l1.22-.53C29.37,102.41,29.51,102.35,29.57,102.55Z"/><path class="cls-12" d="M30.7,101.82l.52-.19c.1,0,.21-.06.26.05s0,.19-.12.24a1.55,1.55,0,0,1-.67.21C30.58,102,30.64,101.92,30.7,101.82Z"/><path class="cls-12" d="M40.76,98.74c-.31,0-.17-.14-.17-.29s.24-.27.06-.4-.26,0-.38.08-.35.22-.44,0,.19-.23.32-.3c.4-.2.9-.25,1-.79,0-.08.16-.14.2-.06s.2.44.14.49a3.48,3.48,0,0,0-.64,1.18S40.79,98.72,40.76,98.74Z"/><path class="cls-12" d="M43.84,90.55c-.18,0-.18-.16-.13-.28.16-.46.33-.91.51-1.37,0-.08.1-.19.22-.14s.11.12.09.16c-.18.52-.38,1-.58,1.55C43.94,90.51,43.87,90.53,43.84,90.55Z"/><path class="cls-12" d="M45.53,95.75a.19.19,0,0,1-.13.2l-1.34.58c-.11,0-.2,0-.25-.08a.14.14,0,0,1,.09-.2l1.4-.6C45.41,95.61,45.49,95.62,45.53,95.75Z"/><path class="cls-12" d="M46.08,84.88l-.56,1.44c0,.08-.09.15-.19.12a.15.15,0,0,1-.1-.2c.17-.49.36-1,.54-1.47a.16.16,0,0,1,.2-.11C46.07,84.69,46.07,84.77,46.08,84.88Z"/><path class="cls-12" d="M43,93c-.21.52-.4,1-.61,1.53a.21.21,0,0,1-.17.07.14.14,0,0,1-.09-.2c.18-.5.36-1,.56-1.48a.13.13,0,0,1,.2-.08S43,93,43,93Z"/><path class="cls-12" d="M43.25,96.51c.14,0,.26,0,.21.16-.12.28-.43.29-.68.37a.12.12,0,0,1-.17-.13C42.72,96.61,43.05,96.65,43.25,96.51Z"/><path class="cls-12" d="M40.34,100c-.17,0-.23-.11-.18-.22s0-.54.31-.67c.11,0,.23.07.19.21A1.35,1.35,0,0,1,40.34,100Z"/><path class="cls-12" d="M45.28,87c-.12.21-.07.54-.36.67-.11,0-.18-.1-.14-.2s.06-.56.38-.66C45.24,86.76,45.3,86.86,45.28,87Z"/><path class="cls-12" d="M43.75,91.09c-.13.21-.09.54-.36.66s-.18-.09-.15-.19.07-.55.35-.67C43.7,90.84,43.76,91,43.75,91.09Z"/><path class="cls-12" d="M42.06,95c.1.06.17.12.14.21s-.09.53-.34.69c0,0-.12,0-.13,0-.09-.29.11-.5.19-.74C41.94,95,42,95,42.06,95Z"/><path class="cls-12" d="M38.67,98.74c-.09-.1-.05-.2,0-.3l.52-.2c.09,0,.21-.06.26.05s-.06.19-.14.24A1.14,1.14,0,0,1,38.67,98.74Z"/><path class="cls-12" d="M46.29,95.49a.27.27,0,0,1-.28.17c-.09,0-.17-.06-.15-.15a.26.26,0,0,1,.3-.19A.14.14,0,0,1,46.29,95.49Z"/><path class="cls-12" d="M33.56,100.86c0,.13-.11.17-.2.21l-1.17.5c-.12.05-.28.12-.35,0s.09-.2.2-.24l1.22-.52C33.39,100.7,33.52,100.66,33.56,100.86Z"/><path class="cls-12" d="M36.05,99.94c-.13,0-.19,0-.22-.09a.15.15,0,0,1,.09-.21l1.4-.59a.14.14,0,0,1,.21.07.19.19,0,0,1-.05.18Z"/><path class="cls-12" d="M35.49,100.06c0,.15-.65.44-.78.36s-.14-.13-.05-.21a1.56,1.56,0,0,1,.68-.31A.14.14,0,0,1,35.49,100.06Z"/></g></g></svg>